<?xml version="1.0" encoding="utf-8"?>
<!-- Generator: Adobe Illustrator 21.0.2, SVG Export Plug-In . SVG Version: 6.00 Build 0)  -->
<svg version="1.1" id="Capa_1" xmlns="http://www.w3.org/2000/svg" xmlns:xlink="http://www.w3.org/1999/xlink" x="0px" y="0px"
	 viewBox="0 0 38 15" enable-background="new 0 0 38 15" xml:space="preserve">
<g>
	<g>
		<path fill="#5B5B5F" d="M28.637,4.795c0.004-0.539-0.128-1.013-0.396-1.421c-0.277-0.412-0.745-0.623-1.404-0.635h-2.019v4.122
			h1.779C27.966,6.835,28.647,6.146,28.637,4.795z M26.046,5.807V3.793h0.394c0.223,0,0.399,0.036,0.531,0.107
			c0.131,0.077,0.229,0.171,0.293,0.28c0.067,0.108,0.11,0.215,0.128,0.322c0.011,0.109,0.016,0.201,0.016,0.274
			c0,0.092-0.009,0.198-0.027,0.317c-0.024,0.117-0.065,0.229-0.123,0.337c-0.06,0.104-0.149,0.192-0.265,0.266
			c-0.115,0.074-0.27,0.11-0.465,0.11H26.046z"/>
		<path fill="#5B5B5F" d="M32.866,5.048c-0.068-0.132-0.16-0.244-0.276-0.336c-0.114-0.092-0.241-0.165-0.381-0.22
			c-0.141-0.056-0.29-0.104-0.445-0.144c-0.292-0.073-0.551-0.145-0.779-0.214c-0.108-0.038-0.195-0.082-0.262-0.133
			c-0.071-0.045-0.11-0.102-0.118-0.172c0-0.058,0.016-0.106,0.049-0.144c0.031-0.036,0.068-0.063,0.112-0.082
			c0.097-0.034,0.19-0.051,0.281-0.051c0.133,0,0.254,0.034,0.363,0.101c0.111,0.065,0.159,0.174,0.145,0.328h1.164
			c-0.029-0.495-0.2-0.847-0.513-1.055c-0.322-0.195-0.706-0.291-1.152-0.287c-0.426,0-0.795,0.106-1.108,0.319
			c-0.328,0.218-0.495,0.566-0.502,1.043c0,0.205,0.044,0.372,0.132,0.502c0.085,0.139,0.194,0.251,0.33,0.335
			c0.133,0.085,0.283,0.154,0.448,0.209c0.158,0.055,0.319,0.104,0.485,0.149c0.351,0.092,0.59,0.167,0.716,0.226
			c0.12,0.062,0.178,0.145,0.175,0.248c-0.004,0.147-0.066,0.247-0.187,0.302c-0.122,0.053-0.241,0.077-0.355,0.073
			c-0.124,0-0.246-0.021-0.364-0.062c-0.124-0.04-0.213-0.119-0.265-0.237C30.53,5.67,30.515,5.58,30.515,5.476H29.29
			c0.011,0.327,0.086,0.587,0.226,0.779c0.137,0.199,0.305,0.35,0.504,0.451c0.2,0.1,0.398,0.167,0.593,0.2
			c0.193,0.036,0.349,0.054,0.468,0.054c0.479,0.004,0.908-0.101,1.286-0.313c0.384-0.211,0.582-0.58,0.593-1.108
			C32.959,5.351,32.928,5.187,32.866,5.048z"/>
		<path fill="#5B5B5F" d="M35.626,5.973c-0.122,0.053-0.241,0.077-0.355,0.073c-0.124,0-0.246-0.021-0.364-0.062
			c-0.124-0.04-0.213-0.119-0.265-0.237c-0.029-0.077-0.044-0.168-0.044-0.271h-1.226c0.011,0.327,0.086,0.587,0.226,0.779
			c0.137,0.199,0.305,0.35,0.504,0.451c0.201,0.1,0.398,0.167,0.593,0.2c0.193,0.036,0.349,0.054,0.468,0.054
			c0.479,0.004,0.908-0.101,1.286-0.313c0.384-0.211,0.582-0.58,0.593-1.108c0-0.188-0.031-0.351-0.093-0.49
			c-0.068-0.132-0.16-0.244-0.276-0.336c-0.114-0.092-0.241-0.165-0.381-0.22c-0.141-0.056-0.29-0.104-0.445-0.144
			c-0.292-0.073-0.551-0.145-0.779-0.214c-0.108-0.038-0.195-0.082-0.262-0.133c-0.071-0.045-0.11-0.102-0.118-0.172
			c0-0.058,0.016-0.106,0.049-0.144c0.031-0.036,0.068-0.063,0.112-0.082c0.097-0.034,0.19-0.051,0.282-0.051
			c0.133,0,0.254,0.034,0.363,0.101c0.111,0.065,0.159,0.174,0.145,0.328h1.164c-0.029-0.495-0.2-0.847-0.513-1.055
			c-0.322-0.195-0.706-0.291-1.152-0.287c-0.426,0-0.796,0.106-1.109,0.319c-0.328,0.218-0.495,0.566-0.502,1.043
			c0,0.205,0.044,0.372,0.132,0.502c0.085,0.139,0.195,0.251,0.33,0.335c0.133,0.085,0.283,0.154,0.448,0.209
			c0.158,0.055,0.319,0.104,0.485,0.149c0.351,0.092,0.59,0.167,0.716,0.226c0.12,0.062,0.179,0.145,0.175,0.248
			C35.808,5.818,35.746,5.919,35.626,5.973z"/>
		<path fill="#5B5B5F" d="M25.562,8.657c-0.034,0.045-0.085,0.067-0.154,0.067c-0.094-0.001-0.16-0.041-0.199-0.12
			c-0.039-0.076-0.058-0.162-0.057-0.26c-0.001-0.097,0.017-0.184,0.057-0.26c0.038-0.078,0.105-0.118,0.198-0.12
			c0.043,0,0.079,0.007,0.106,0.021c0.028,0.016,0.049,0.036,0.064,0.061c0.015,0.022,0.027,0.043,0.034,0.065
			c0.006,0.023,0.01,0.042,0.011,0.057h0.402c-0.037-0.355-0.238-0.537-0.606-0.547c-0.209,0.001-0.373,0.067-0.493,0.198
			c-0.122,0.129-0.184,0.304-0.185,0.526c0,0.208,0.059,0.379,0.178,0.513c0.118,0.138,0.285,0.208,0.501,0.211
			c0.199-0.004,0.35-0.065,0.454-0.184c0.104-0.115,0.156-0.245,0.157-0.39h-0.406C25.615,8.559,25.594,8.614,25.562,8.657z"/>
		<path fill="#5B5B5F" d="M26.887,7.62c-0.205,0.003-0.368,0.07-0.489,0.203c-0.125,0.132-0.188,0.305-0.19,0.521
			c0.001,0.214,0.064,0.387,0.19,0.519c0.121,0.134,0.284,0.203,0.489,0.205c0.208-0.002,0.372-0.071,0.493-0.205
			c0.122-0.132,0.184-0.305,0.185-0.519c-0.001-0.215-0.063-0.389-0.185-0.521C27.259,7.691,27.095,7.623,26.887,7.62z
			 M27.129,8.531c-0.017,0.05-0.04,0.089-0.068,0.118c-0.026,0.027-0.055,0.047-0.086,0.059c-0.032,0.011-0.062,0.017-0.088,0.017
			c-0.056,0.001-0.113-0.024-0.17-0.076c-0.027-0.028-0.05-0.068-0.068-0.118c-0.019-0.049-0.028-0.111-0.028-0.187
			c0-0.078,0.009-0.142,0.028-0.192c0.01-0.026,0.021-0.048,0.032-0.067c0.011-0.018,0.023-0.034,0.036-0.047
			c0.028-0.028,0.056-0.048,0.086-0.06c0.03-0.009,0.058-0.013,0.084-0.013c0.057-0.002,0.115,0.022,0.174,0.073
			c0.028,0.026,0.051,0.064,0.068,0.115c0.016,0.05,0.025,0.115,0.025,0.192C27.154,8.419,27.146,8.481,27.129,8.531z"/>
		<polygon fill="#5B5B5F" points="28.569,8.466 28.565,8.466 28.374,7.653 27.787,7.653 27.787,9.035 28.176,9.035 28.176,8.148 
			28.18,8.148 28.412,9.035 28.72,9.035 28.952,8.148 28.957,8.148 28.957,9.035 29.346,9.035 29.346,7.653 28.76,7.653 		"/>
		<path fill="#5B5B5F" d="M30.556,7.698c-0.065-0.03-0.144-0.045-0.237-0.045h-0.704v1.381h0.412V8.617h0.251
			c0.161,0,0.292-0.041,0.391-0.122c0.1-0.081,0.15-0.204,0.151-0.369c0.001-0.106-0.036-0.21-0.111-0.312
			C30.672,7.766,30.621,7.727,30.556,7.698z M30.413,8.22c-0.014,0.021-0.033,0.036-0.056,0.047c-0.047,0.016-0.1,0.023-0.16,0.022
			h-0.17V8.007h0.196c0.056-0.001,0.104,0.005,0.146,0.019c0.04,0.014,0.061,0.053,0.062,0.115C30.432,8.174,30.425,8.2,30.413,8.22
			z"/>
		<polygon fill="#5B5B5F" points="31.389,7.653 30.978,7.653 30.978,9.035 31.981,9.035 31.981,8.682 31.389,8.682 		"/>
		<rect x="32.196" y="7.653" fill="#5B5B5F" width="0.412" height="1.381"/>
		<path fill="#5B5B5F" d="M33.211,7.653l-0.492,1.381h0.414l0.061-0.197h0.426l0.056,0.197h0.428l-0.488-1.381H33.211z
			 M33.283,8.543l0.129-0.427h0.004l0.12,0.427H33.283z"/>
		<polygon fill="#5B5B5F" points="35.056,8.392 35.051,8.392 34.662,7.653 34.24,7.653 34.24,9.035 34.629,9.035 34.629,8.28 
			34.633,8.28 35.043,9.035 35.445,9.035 35.445,7.653 35.056,7.653 		"/>
		<polygon fill="#5B5B5F" points="35.645,8.007 36.019,8.007 36.019,9.035 36.431,9.035 36.431,8.007 36.806,8.007 36.806,7.653 
			35.645,7.653 		"/>
		<path fill="#5B5B5F" d="M6.772,7.456c0.49,0,0.994-0.292,0.994-0.675c0-0.103-0.018-0.196-0.053-0.28
			c-0.068-0.277-0.298-0.462-0.74-0.504C6.852,5.984,6.725,5.974,6.631,5.97h-0.04H6.494v1.39c0.007,0,0.016,0,0.024,0v0.097
			C6.596,7.457,6.728,7.456,6.772,7.456z"/>
		<path fill="#5B5B5F" d="M20.547,10.024l1.616-0.523l-0.542-1.236C21.275,8.798,20.915,9.383,20.547,10.024z"/>
		<path fill="#5B5B5F" d="M10.119,7.478c0-1.541,1.675-3.37,5.601-2.406l0.027,1.378c-2.808-0.723-3.264,0.687-3.219,1.225
			c0.18,2.138,3.097,1.26,3.219,1.219v0.144c0.263,0.128,0.54,0.347,0.818,0.594V4.898h2.266v3.123
			c0.537-0.906,1.082-1.695,1.63-2.367l-2.217-5.058L0.958,1.565l3.387,8.532V4.824h2.266h0.116c0.271,0.01,0.633,0.041,0.979,0.074
			c1.531,0.149,2.187,0.971,2.187,2.063c0,1.092-1.436,1.839-2.835,1.839c-0.16,0-0.309-0.003-0.447-0.01v1.662H4.486l1.569,3.951
			l8.779-2.853c-0.331-0.413-0.608-0.815-0.714-1.08C10.743,10.836,10.119,8.835,10.119,7.478z M17.614,1.772
			c0.713,0,1.292,0.579,1.292,1.292c0,0.714-0.579,1.292-1.292,1.292c-0.714,0-1.292-0.579-1.292-1.292
			C16.322,2.35,16.9,1.772,17.614,1.772z"/>
		<path fill="#5B5B5F" d="M21.326,5.521c-0.691,0.65-1.597,1.733-2.608,3.531c-0.33,0.549-0.678,1.163-1.044,1.852
			c-0.054,0.102-0.194,0.031-0.394-0.13c-0.025-0.02-0.05-0.041-0.076-0.063c-0.007-0.006-0.015-0.013-0.022-0.019
			c-0.02-0.017-0.041-0.035-0.062-0.054c-0.008-0.007-0.017-0.015-0.025-0.023c-0.022-0.019-0.044-0.039-0.066-0.06
			c-0.007-0.007-0.015-0.013-0.022-0.02c-0.029-0.027-0.059-0.054-0.089-0.082c-0.173-0.161-0.362-0.341-0.553-0.511
			c-0.003-0.003-0.007-0.006-0.01-0.009c-0.067-0.059-0.134-0.117-0.2-0.172c-0.002-0.001-0.003-0.003-0.005-0.004
			c-0.28-0.231-0.552-0.413-0.771-0.448c-0.321-0.052-0.958,0.616-0.897,0.956c0.021,0.119,0.149,0.338,0.332,0.598
			c0.001,0.001,0.001,0.002,0.002,0.003c0.029,0.041,0.06,0.084,0.092,0.127c0.004,0.006,0.009,0.012,0.013,0.017
			c0.1,0.135,0.21,0.277,0.328,0.421c0,0,0,0,0.001,0.001c0.428,0.522,0.938,1.064,1.271,1.314c0.185,0.139,1.38,0.946,2.334-0.712
			c3.494-6.076,5.645-8.001,5.645-8.001s-1.062,0.043-1.764,0.404C22.51,4.552,22.032,4.809,21.326,5.521z"/>
	</g>
</g>
</svg>
