<?xml version="1.0" encoding="utf-8"?>
<!-- Generator: Adobe Illustrator 24.1.1, SVG Export Plug-In . SVG Version: 6.00 Build 0)  -->
<svg version="1.0" id="Capa_1" xmlns="http://www.w3.org/2000/svg" xmlns:xlink="http://www.w3.org/1999/xlink" x="0px" y="0px"
	 viewBox="0 0 35 35" style="enable-background:new 0 0 35 35;" xml:space="preserve">
<style type="text/css">
	.st0{fill:#FFFFFF;}
	.st1{fill:#FB9DB4;}
	.st2{fill:#4ED7E5;}
</style>
<g>
	<polygon class="st0" points="21.94,16.95 14.72,16.95 17.79,14.1 17.11,13.37 12.71,17.45 17.11,21.54 17.79,20.81 14.72,17.95 
		21.94,17.95 	"/>
</g>
<g>
	<g>
		<circle class="st1" cx="17.5" cy="17.5" r="16.09"/>
	</g>
	<g>
		<path class="st0" d="M26.89,13.19c-0.46-1.45-1.58-2.57-3.03-3c-0.48-0.12-0.98-0.25-1.51-0.25c-1.49,0-2.86,0.57-3.88,1.61
			c-0.42,0.43-0.75,0.91-0.99,1.44c-0.87-1.8-2.7-3.04-4.83-3.04c-0.43,0-1.04,0.05-1.56,0.26c-1.44,0.43-2.53,1.5-2.99,2.95
			c-0.47,1.49-0.18,3.1,0.79,4.32c0.01,0.01,0.01,0.02,0.02,0.02l7.14,8.01c0.33,0.41,0.83,0.65,1.37,0.66c0.02,0,0.03,0,0.05,0
			c0.54,0,1.07-0.23,1.45-0.65l2-2.25c0.19-0.21,0.17-0.54-0.04-0.73c-0.21-0.19-0.54-0.17-0.73,0.04l-2,2.24
			c-0.18,0.2-0.44,0.31-0.7,0.31c-0.24-0.01-0.45-0.11-0.61-0.3L9.7,16.83c-0.75-0.95-0.98-2.2-0.61-3.36
			c0.36-1.12,1.2-1.96,2.32-2.28c0.02-0.01,0.04-0.01,0.06-0.02c0.28-0.12,0.7-0.19,1.18-0.19c2.39,0,4.33,1.94,4.33,4.33
			c0,0,0,0,0,0c0,0,0,0.01,0,0.01c0,0.03,0.01,0.06,0.02,0.09c0.01,0.04,0.01,0.07,0.02,0.1c0.01,0.03,0.03,0.05,0.05,0.08
			c0.02,0.03,0.04,0.06,0.06,0.09c0.02,0.02,0.05,0.04,0.08,0.05c0.03,0.02,0.05,0.04,0.08,0.05c0.03,0.01,0.07,0.01,0.11,0.02
			c0.03,0.01,0.06,0.02,0.09,0.02c0,0,0,0,0.01,0c0,0,0,0,0.01,0c0.03,0,0.06-0.01,0.09-0.02c0.03-0.01,0.07-0.01,0.1-0.02
			c0.03-0.01,0.06-0.04,0.08-0.06c0.03-0.02,0.06-0.03,0.08-0.06c0.02-0.02,0.04-0.05,0.06-0.08c0.02-0.03,0.04-0.05,0.05-0.08
			C18,15.48,18,15.44,18,15.41c0.01-0.03,0.02-0.06,0.02-0.09c0,0,0-0.01,0-0.01c0,0,0,0,0,0c-0.02-1.14,0.4-2.21,1.19-3.03
			c0.82-0.84,1.93-1.3,3.14-1.3c0.4,0,0.82,0.1,1.24,0.21c1.11,0.33,1.95,1.17,2.31,2.31c0.36,1.15,0.14,2.39-0.6,3.33L24.26,18
			c-0.19,0.21-0.17,0.54,0.04,0.73c0.1,0.09,0.22,0.13,0.34,0.13c0.14,0,0.28-0.06,0.38-0.17l1.06-1.19
			c0.01-0.01,0.01-0.01,0.02-0.02C27.07,16.28,27.36,14.68,26.89,13.19z"/>
		<circle class="st2" cx="20.63" cy="22.72" r="0.84"/>
	</g>
</g>
<g>
</g>
<g>
</g>
<g>
</g>
<g>
</g>
<g>
</g>
<g>
</g>
<g>
</g>
<g>
</g>
<g>
</g>
<g>
</g>
<g>
</g>
<g>
</g>
<g>
</g>
<g>
</g>
<g>
</g>
</svg>
