<?xml version="1.0" encoding="utf-8"?>
<!-- Generator: Adobe Illustrator 24.1.1, SVG Export Plug-In . SVG Version: 6.00 Build 0)  -->
<svg version="1.0" id="Capa_1" xmlns="http://www.w3.org/2000/svg" xmlns:xlink="http://www.w3.org/1999/xlink" x="0px" y="0px"
	 viewBox="0 0 35 35" style="enable-background:new 0 0 35 35;" xml:space="preserve">
<style type="text/css">
	.st0{fill:#FFFFFF;}
	.st1{fill:#FB9DB4;}
	.st2{fill:#F80F49;}
	.st3{fill:#4ED7E5;}
</style>
<g>
	<polygon class="st0" points="21.94,16.95 14.72,16.95 17.79,14.1 17.11,13.37 12.71,17.45 17.11,21.54 17.79,20.81 14.72,17.95 
		21.94,17.95 	"/>
</g>
<g>
	<g>
		<circle class="st1" cx="17.5" cy="17.5" r="16.09"/>
	</g>
</g>
<path class="st2" d="M27.01,13.16c-0.47-1.49-1.63-2.64-3.11-3.08c-0.49-0.12-1-0.25-1.54-0.25c-1.52,0-2.93,0.58-3.97,1.64
	c-0.36,0.37-0.66,0.78-0.91,1.25c-0.95-1.76-2.82-2.89-4.83-2.89c-0.44,0-1.07,0.05-1.59,0.27c-1.48,0.44-2.6,1.55-3.07,3.03
	c-0.49,1.53-0.18,3.19,0.81,4.44l7.17,8.03c0.36,0.44,0.89,0.7,1.46,0.71c0.02,0,0.04,0,0.06,0c0.58,0,1.14-0.25,1.54-0.69l2-2.25
	c0.23-0.26,0.21-0.67-0.05-0.9c-0.13-0.12-0.29-0.18-0.46-0.16c-0.17,0.01-0.33,0.09-0.44,0.21l-2,2.24
	c-0.15,0.17-0.37,0.27-0.59,0.27c-0.01,0-0.01,0-0.02,0c-0.21-0.01-0.38-0.09-0.52-0.26L9.8,16.75c-0.72-0.92-0.94-2.13-0.59-3.24
	c0.34-1.08,1.16-1.89,2.24-2.2c0.03-0.01,0.05-0.02,0.08-0.03c0.27-0.12,0.67-0.18,1.13-0.18c2.32,0,4.21,1.89,4.21,4.22
	c0,0.04,0.01,0.07,0.02,0.09l0.01,0.05c0,0.03,0.01,0.07,0.03,0.1c0.01,0.03,0.03,0.06,0.05,0.08l0.02,0.04
	c0.02,0.03,0.04,0.06,0.07,0.09c0.03,0.02,0.05,0.04,0.08,0.05l0.04,0.03c0.02,0.02,0.05,0.04,0.09,0.05
	c0.04,0.02,0.07,0.02,0.1,0.02l0.05,0.01c0.02,0.01,0.05,0.01,0.09,0.02h0.02c0.04,0,0.07-0.01,0.09-0.02l0.05-0.01
	c0.03,0,0.06-0.01,0.1-0.03c0.04-0.02,0.06-0.04,0.08-0.05l0.04-0.03c0.02-0.01,0.05-0.03,0.08-0.06c0.03-0.03,0.04-0.06,0.06-0.08
	l0.03-0.04c0.02-0.02,0.04-0.05,0.05-0.08c0.01-0.04,0.02-0.07,0.02-0.1L18,15.41l0.13,0c0-0.02,0.01-0.04,0.01-0.07l0,0l0-0.03
	c-0.02-1.1,0.39-2.15,1.16-2.94c0.79-0.81,1.88-1.26,3.05-1.26c0.38,0,0.78,0.1,1.2,0.2c1.07,0.32,1.88,1.13,2.23,2.23
	c0.35,1.11,0.13,2.31-0.57,3.21l-1.05,1.17c-0.11,0.13-0.17,0.29-0.16,0.46s0.09,0.33,0.21,0.44c0.25,0.23,0.68,0.2,0.91-0.05
	l1.06-1.18l0.03-0.03C27.19,16.32,27.49,14.68,27.01,13.16z"/>
<g>
	<circle class="st3" cx="20.63" cy="22.72" r="0.84"/>
</g>
<g>
</g>
<g>
</g>
<g>
</g>
<g>
</g>
<g>
</g>
<g>
</g>
<g>
</g>
<g>
</g>
<g>
</g>
<g>
</g>
<g>
</g>
<g>
</g>
<g>
</g>
<g>
</g>
<g>
</g>
</svg>
