<?xml version="1.0" encoding="utf-8"?>
<!-- Generator: Adobe Illustrator 21.0.2, SVG Export Plug-In . SVG Version: 6.00 Build 0)  -->
<svg version="1.1" id="Capa_1" xmlns="http://www.w3.org/2000/svg" xmlns:xlink="http://www.w3.org/1999/xlink" x="0px" y="0px"
	 viewBox="0 0 100 80" enable-background="new 0 0 100 80" xml:space="preserve">
<g>
	<circle fill="#4CBCD4" cx="49.432" cy="71.546" r="4.5"/>
</g>
<g>
	<path fill="#F3124A" d="M69.502,46.449c-0.53-1.104-1.511-1.912-2.691-2.221c-2.296-0.596-5.276-0.243-8.064,3.537L58.731,30.34
		c-0.002-2.453-1.805-4.477-4.153-4.856l1.031-0.542l3.002,1.578c0.146,0.077,0.307,0.115,0.466,0.115
		c0.207,0,0.413-0.064,0.588-0.191c0.308-0.224,0.462-0.603,0.397-0.978l-0.573-3.343l2.429-2.367
		c0.272-0.266,0.37-0.663,0.253-1.024c-0.118-0.362-0.431-0.626-0.808-0.681l-3.355-0.488l-1.502-3.041
		c-0.336-0.684-1.457-0.684-1.793,0l-1.501,3.041l-3.356,0.488c-0.376,0.055-0.689,0.318-0.807,0.681
		c-0.118,0.361-0.02,0.759,0.253,1.024l2.429,2.367l-0.573,3.343c-0.039,0.229,0.011,0.455,0.12,0.651
		c-1.445,0.864-2.425,2.429-2.423,4.231l0.009,10.431c-0.534-0.197-1.103-0.3-1.688-0.3c-0.002,0-0.004,0-0.006,0
		c-1.178,0.001-2.293,0.418-3.178,1.181c-0.85-0.848-1.978-1.314-3.177-1.314c-0.001,0-0.002,0-0.003,0
		c-1.109,0.001-2.125,0.405-2.91,1.073c-0.863-0.802-1.979-1.241-3.161-1.241c-0.002,0-0.004,0-0.006,0
		c-1.242,0.001-2.41,0.486-3.29,1.366c-0.878,0.881-1.362,2.049-1.361,3.293l0.021,14.696c0.006,7.122,5.354,13.045,12.439,13.777
		l2.185,0.225c0.038,0.004,0.076,0.007,0.114,0.009c0.632,0.028,1.239,0.043,1.826,0.043c1.104,0,2-0.896,2-2s-0.896-2-2-2
		c-0.511,0-1.039-0.012-1.588-0.036l-2.126-0.219c-5.041-0.521-8.845-4.735-8.849-9.804l-0.021-14.695
		c0-0.235,0.12-0.391,0.192-0.463c0.072-0.071,0.227-0.192,0.462-0.192c0,0,0.001,0,0.001,0c0.233,0,0.388,0.12,0.46,0.191
		c0.072,0.072,0.193,0.228,0.193,0.463c0,0.144,0.016,0.284,0.045,0.419c0.201,1.158,1.213,2.042,2.428,2.042
		c1.358,0,2.463-1.105,2.463-2.464c0-0.03,0-0.06-0.002-0.09c0.048-0.225,0.248-0.394,0.487-0.394c0,0,0,0,0,0
		c0.169,0,0.285,0.08,0.352,0.146c0.067,0.067,0.147,0.183,0.147,0.352c0,0.24,0.043,0.47,0.122,0.682
		c0.307,0.999,1.226,1.733,2.317,1.762c0.164,0.046,0.337,0.072,0.516,0.074c1.069,0.007,1.996-0.855,2.024-1.948l0.003-0.122
		c0.021-0.277,0.166-0.463,0.255-0.553c0.097-0.097,0.306-0.259,0.622-0.259c0,0,0.001,0,0.001,0c0.314,0,0.523,0.161,0.62,0.258
		s0.259,0.306,0.259,0.62c0,1.092,0.877,1.981,1.969,1.999c0.207,0.002,0.401-0.024,0.587-0.078c1.258-0.073,2.258-1.12,2.258-2.397
		l-0.013-14.536c0-0.518,0.421-0.938,0.938-0.939h0.001c0.518,0,0.939,0.421,0.939,0.938l0.021,24.205
		c0,0.636,0.248,1.232,0.699,1.682c0.448,0.445,1.041,0.69,1.662,0.69c0.974,0.023,1.902-0.629,2.242-1.57
		c1.353-3.722,3.573-8,6.445-7.25c0.053,0.014,0.081,0.052,0.097,0.084c0.024,0.051,0.025,0.108,0.003,0.159l-3.678,8.256
		c-0.031,0.07-0.059,0.144-0.082,0.217c-0.004,0.013-0.396,1.258-1.147,2.908c-0.458,1.005-0.014,2.191,0.992,2.648
		c1.004,0.456,2.191,0.014,2.648-0.992c0.729-1.602,1.16-2.865,1.287-3.252l3.634-8.158C70.056,48.844,70.036,47.56,69.502,46.449z
		 M54.02,19.466c0.326-0.047,0.607-0.252,0.753-0.547l0.837-1.696l0.838,1.696c0.146,0.295,0.427,0.5,0.753,0.547l1.871,0.272
		l-1.354,1.32c-0.235,0.229-0.343,0.561-0.287,0.885l0.319,1.863l-1.674-0.88c-0.146-0.077-0.306-0.115-0.466-0.115
		s-0.319,0.038-0.466,0.115l-1.673,0.88l0.319-1.863c0.056-0.324-0.052-0.655-0.287-0.885l-1.354-1.32L54.02,19.466z"/>
	<path fill="#F3124A" d="M45.357,38.645c1.104,0,2-0.896,2-2V5.954h16.505v30.69c0,1.104,0.896,2,2,2s2-0.896,2-2V3.954
		c0-1.104-0.896-2-2-2H45.357c-1.104,0-2,0.896-2,2v32.69C43.357,37.749,44.253,38.645,45.357,38.645z"/>
</g>
</svg>
