<?xml version="1.0" encoding="utf-8"?>
<!-- Generator: Adobe Illustrator 21.0.2, SVG Export Plug-In . SVG Version: 6.00 Build 0)  -->
<svg version="1.1" id="Capa_1" xmlns="http://www.w3.org/2000/svg" xmlns:xlink="http://www.w3.org/1999/xlink" x="0px" y="0px"
	 viewBox="0 0 100 80" enable-background="new 0 0 100 80" xml:space="preserve">
<g>
	<path fill="#F3124A" d="M82.089,1.954h-20.69H17.912c-3.163,0-5.737,2.574-5.737,5.737v38.067c0,3.163,2.574,5.736,5.737,5.736
		h9.195c1.104,0,2-0.896,2-2s-0.896-2-2-2h-2.388V5.954h36.68h13.358v41.541h-2.225c-1.104,0-2,0.896-2,2s0.896,2,2,2h9.557
		c3.163,0,5.736-2.573,5.736-5.736V7.691C87.825,4.528,85.252,1.954,82.089,1.954z M20.718,47.495h-2.807
		c-0.958,0-1.737-0.779-1.737-1.736V7.691c0-0.958,0.779-1.737,1.737-1.737h2.807V47.495z M83.825,45.759
		c0,0.957-0.779,1.736-1.736,1.736h-3.332V5.954h3.332c0.957,0,1.736,0.779,1.736,1.737V45.759z"/>
	<path fill="#F3124A" d="M66.81,44.228c-2.296-0.597-5.277-0.242-8.063,3.538L58.731,30.34c-0.001-1.318-0.516-2.558-1.45-3.49
		c-0.693-0.692-1.554-1.15-2.491-1.341l1.517-1.479c0.272-0.266,0.37-0.663,0.253-1.024c-0.118-0.362-0.431-0.626-0.808-0.681
		l-3.355-0.488l-1.5-3.041c-0.337-0.684-1.457-0.684-1.794,0l-1.5,3.041l-3.356,0.488c-0.376,0.055-0.689,0.318-0.807,0.681
		c-0.118,0.361-0.02,0.759,0.253,1.024l2.429,2.367l-0.573,3.343c-0.064,0.375,0.089,0.754,0.397,0.978
		c0.174,0.127,0.381,0.191,0.588,0.191c0.159,0,0.319-0.038,0.465-0.115l1.91-1.004c-0.021,0.186-0.054,0.369-0.054,0.559
		l0.009,10.434c-0.527-0.196-1.098-0.303-1.692-0.303c-0.001,0-0.002,0-0.003,0c-1.212,0.002-2.322,0.447-3.175,1.183c0,0,0,0,0,0
		c-0.85-0.85-1.979-1.316-3.178-1.316c-0.001,0-0.002,0-0.003,0c-1.109,0.001-2.126,0.405-2.911,1.074
		c-0.831-0.771-1.943-1.242-3.163-1.242c-0.001,0-0.002,0-0.003,0c-1.242,0.001-2.41,0.486-3.29,1.367
		c-0.879,0.88-1.362,2.049-1.361,3.292l0.021,14.696c0.006,7.123,5.354,13.046,12.438,13.777l2.185,0.226
		c0.038,0.004,0.077,0.007,0.115,0.009c0.632,0.028,1.239,0.042,1.826,0.042c1.104,0,2-0.896,2-2s-0.896-2-2-2
		c-0.51,0-1.038-0.012-1.587-0.035l-2.126-0.22c-5.041-0.521-8.845-4.734-8.849-9.804l-0.021-14.695
		c0-0.234,0.121-0.391,0.192-0.463c0.072-0.071,0.227-0.192,0.461-0.192c0,0,0,0,0,0c0.361,0,0.654,0.293,0.655,0.654
		c0,0.141,0.015,0.277,0.043,0.41c0.084,0.503,0.322,0.966,0.691,1.333c0.465,0.463,1.082,0.718,1.73,0.718
		c1.379,0.023,2.473-1.103,2.473-2.464c0-0.029,0-0.06-0.002-0.089c0.048-0.226,0.248-0.395,0.487-0.395c0,0,0,0,0,0
		c0.169,0,0.285,0.08,0.352,0.146c0.067,0.067,0.147,0.183,0.147,0.352c0,0.238,0.042,0.466,0.12,0.677
		c0.304,1.001,1.223,1.736,2.315,1.767c0.166,0.047,0.34,0.073,0.52,0.075c1.069-0.025,1.996-0.855,2.024-1.948l0.003-0.12
		c0.034-0.454,0.414-0.813,0.876-0.814c0,0,0,0,0,0c0.485,0,0.88,0.395,0.88,0.88c0.001,1.092,0.877,1.98,1.969,1.998
		c0.217-0.001,0.402-0.024,0.588-0.078c1.256-0.075,2.257-1.123,2.257-2.398l-0.013-14.536c0-0.336,0.173-0.56,0.275-0.662
		c0.104-0.104,0.326-0.276,0.663-0.276c0.001,0,0.001,0,0.002,0c0.336,0,0.559,0.172,0.661,0.275
		c0.104,0.103,0.276,0.325,0.276,0.662l0.021,24.205c0,1.309,1.064,2.373,2.373,2.373c0.994,0,1.892-0.633,2.23-1.571
		c1.353-3.721,3.573-8.003,6.445-7.25c0.041,0.011,0.075,0.04,0.097,0.084c0.024,0.051,0.025,0.108,0.003,0.159L62.223,56.6
		c-0.031,0.069-0.059,0.144-0.082,0.217c-0.004,0.012-0.396,1.257-1.147,2.907c-0.458,1.005-0.014,2.191,0.992,2.648
		c1.004,0.456,2.191,0.015,2.648-0.992c0.729-1.602,1.16-2.864,1.287-3.251l3.634-8.159c0.501-1.126,0.481-2.41-0.054-3.521
		C68.971,45.346,67.99,44.536,66.81,44.228z M49.535,27.2l-1.673,0.88l0.319-1.863c0.056-0.324-0.052-0.655-0.287-0.885l-1.354-1.32
		l1.872-0.272c0.326-0.047,0.607-0.252,0.753-0.547L50,21.497l0.836,1.695c0.146,0.295,0.427,0.5,0.753,0.547l1.871,0.272
		l-1.354,1.32c-0.137,0.134-0.21,0.3-0.254,0.473c-0.572,0.245-1.1,0.596-1.554,1.05c-0.078,0.078-0.135,0.17-0.207,0.252
		C49.905,27.09,49.713,27.106,49.535,27.2z"/>
	<path fill="#F3124A" d="M31.387,29.739c-0.064,0.375,0.09,0.754,0.398,0.978c0.309,0.226,0.718,0.254,1.053,0.076l3.002-1.578
		l3.002,1.578c0.146,0.077,0.306,0.115,0.465,0.115c0.207,0,0.414-0.064,0.588-0.191c0.308-0.224,0.462-0.603,0.398-0.978
		l-0.573-3.343l2.428-2.367c0.272-0.266,0.371-0.663,0.253-1.024c-0.118-0.362-0.431-0.626-0.807-0.681l-3.356-0.488l-1.5-3.041
		c-0.337-0.684-1.457-0.684-1.794,0l-1.5,3.041l-3.356,0.488c-0.376,0.055-0.689,0.318-0.807,0.681
		c-0.118,0.361-0.02,0.759,0.253,1.024l2.428,2.367L31.387,29.739z M34.25,23.739c0.326-0.047,0.607-0.252,0.753-0.547l0.836-1.695
		l0.836,1.695c0.146,0.295,0.427,0.5,0.753,0.547l1.872,0.272l-1.354,1.32c-0.235,0.229-0.343,0.561-0.288,0.885l0.32,1.863
		l-1.674-0.88C36.16,27.123,36,27.085,35.84,27.085s-0.32,0.038-0.465,0.115l-1.674,0.88l0.32-1.863
		c0.055-0.324-0.052-0.655-0.288-0.885l-1.354-1.32L34.25,23.739z"/>
	<path fill="#F3124A" d="M70.721,23.005c-0.118-0.362-0.431-0.626-0.808-0.681l-3.355-0.488l-1.501-3.041
		c-0.336-0.684-1.457-0.684-1.793,0l-1.501,3.041l-3.355,0.488c-0.377,0.055-0.689,0.318-0.808,0.681
		c-0.117,0.361-0.02,0.759,0.253,1.024l2.429,2.367l-0.573,3.343c-0.064,0.375,0.09,0.754,0.397,0.978
		c0.31,0.226,0.718,0.254,1.054,0.076l3.001-1.578l3.001,1.578c0.146,0.077,0.307,0.115,0.466,0.115
		c0.207,0,0.413-0.064,0.588-0.191c0.308-0.224,0.462-0.603,0.397-0.978l-0.573-3.343l2.429-2.367
		C70.74,23.764,70.838,23.366,70.721,23.005z M66.267,25.332c-0.235,0.229-0.343,0.561-0.287,0.885l0.319,1.863l-1.673-0.88
		c-0.146-0.077-0.306-0.115-0.466-0.115s-0.319,0.038-0.466,0.115l-1.673,0.88l0.319-1.863c0.056-0.324-0.052-0.655-0.287-0.885
		l-1.354-1.32l1.871-0.272c0.326-0.047,0.607-0.252,0.753-0.547l0.837-1.695l0.837,1.695c0.146,0.295,0.427,0.5,0.753,0.547
		l1.871,0.272L66.267,25.332z"/>
</g>
<g>
	<circle fill="#4CBCD4" cx="49.432" cy="71.546" r="4.5"/>
</g>
</svg>
