<?xml version="1.0" encoding="utf-8"?>
<!-- Generator: Adobe Illustrator 24.1.1, SVG Export Plug-In . SVG Version: 6.00 Build 0)  -->
<svg version="1.0" id="Capa_1" xmlns="http://www.w3.org/2000/svg" xmlns:xlink="http://www.w3.org/1999/xlink" x="0px" y="0px"
	 viewBox="0 0 23.18 18.08" style="enable-background:new 0 0 23.18 18.08;" xml:space="preserve">
<style type="text/css">
	.st0{opacity:0.5;fill:#FFFFFF;}
	.st1{fill:#FFFFFF;}
	.st2{fill:#4ED7E5;}
</style>
<g>
	<path class="st0" d="M20.14,18.08c-0.09,0-0.18-0.02-0.26-0.07l-4.79-2.61H7.36c-0.65,0-1.26-0.25-1.71-0.71
		c-0.21-0.21-0.21-0.56,0-0.78c0.21-0.21,0.56-0.21,0.78,0c0.25,0.25,0.58,0.39,0.94,0.39h7.86c0.09,0,0.18,0.02,0.26,0.07
		l4.11,2.24v-1.76c0-0.3,0.25-0.55,0.55-0.55h0.61c0.73,0,1.33-0.6,1.33-1.33V4.46c0-0.73-0.6-1.33-1.33-1.33h-2.52
		c-0.3,0-0.55-0.25-0.55-0.55s0.25-0.55,0.55-0.55h2.52c1.34,0,2.42,1.09,2.42,2.42v8.51c0,1.34-1.09,2.42-2.42,2.42h-0.07v2.13
		c0,0.19-0.1,0.37-0.27,0.47C20.33,18.05,20.23,18.08,20.14,18.08z"/>
	<path class="st1" d="M3.04,16.04c-0.1,0-0.19-0.03-0.28-0.08c-0.17-0.1-0.27-0.28-0.27-0.47v-2.13H2.42C1.09,13.36,0,12.27,0,10.93
		V2.42C0,1.09,1.09,0,2.42,0h13.39c1.34,0,2.42,1.09,2.42,2.42v1.95c0,0.3-0.25,0.55-0.55,0.55s-0.55-0.25-0.55-0.55V2.42
		c0-0.73-0.6-1.33-1.33-1.33H2.42c-0.73,0-1.33,0.6-1.33,1.33v8.51c0,0.73,0.6,1.33,1.33,1.33h0.61c0.3,0,0.55,0.25,0.55,0.55v1.76
		l4.11-2.24c0.08-0.04,0.17-0.07,0.26-0.07h7.86c0.73,0,1.33-0.6,1.33-1.33v-1c0-0.3,0.25-0.55,0.55-0.55s0.55,0.25,0.55,0.55v1
		c0,1.34-1.09,2.42-2.42,2.42H8.09L3.3,15.97C3.22,16.01,3.13,16.04,3.04,16.04z"/>
	<circle class="st2" cx="17.69" cy="9.64" r="0.9"/>
	<g>
		<circle class="st1" cx="5.3" cy="6.83" r="0.9"/>
		<circle class="st1" cx="9.12" cy="6.83" r="0.9"/>
		<circle class="st1" cx="12.94" cy="6.83" r="0.9"/>
	</g>
</g>
<g>
</g>
<g>
</g>
<g>
</g>
<g>
</g>
<g>
</g>
<g>
</g>
<g>
</g>
<g>
</g>
<g>
</g>
<g>
</g>
<g>
</g>
<g>
</g>
<g>
</g>
<g>
</g>
<g>
</g>
</svg>
