<?xml version="1.0" encoding="utf-8"?>
<!-- Generator: Adobe Illustrator 24.1.1, SVG Export Plug-In . SVG Version: 6.00 Build 0)  -->
<svg version="1.0" id="Capa_1" xmlns="http://www.w3.org/2000/svg" xmlns:xlink="http://www.w3.org/1999/xlink" x="0px" y="0px"
	 viewBox="0 0 16 16" style="enable-background:new 0 0 16 16;" xml:space="preserve">
<style type="text/css">
	.st0{fill:#89878C;}
</style>
<g>
	<g>
		<path class="st0" d="M8,15.5c-4.14,0-7.5-3.36-7.5-7.5c0-4.14,3.36-7.5,7.5-7.5c4.14,0,7.5,3.36,7.5,7.5
			C15.5,12.14,12.14,15.5,8,15.5z M8,1.12C4.2,1.12,1.12,4.2,1.12,8S4.2,14.88,8,14.88S14.88,11.8,14.88,8S11.8,1.12,8,1.12z"/>
	</g>
	<g>
		<path class="st0" d="M8,10.54L4.71,7.25c-0.12-0.12-0.12-0.31,0-0.43c0.12-0.12,0.31-0.12,0.43,0L8,9.67l2.86-2.86
			c0.12-0.12,0.31-0.12,0.43,0s0.12,0.31,0,0.43L8,10.54z"/>
	</g>
</g>
<g>
</g>
<g>
</g>
<g>
</g>
<g>
</g>
<g>
</g>
<g>
</g>
<g>
</g>
<g>
</g>
<g>
</g>
<g>
</g>
<g>
</g>
<g>
</g>
<g>
</g>
<g>
</g>
<g>
</g>
</svg>
