<?xml version="1.0" encoding="utf-8"?>
<!-- Generator: Adobe Illustrator 24.1.1, SVG Export Plug-In . SVG Version: 6.00 Build 0)  -->
<svg version="1.0" id="Capa_1" xmlns="http://www.w3.org/2000/svg" xmlns:xlink="http://www.w3.org/1999/xlink" x="0px" y="0px"
	 viewBox="0 0 50 50" style="enable-background:new 0 0 50 50;" xml:space="preserve">
<style type="text/css">
	.st0{fill:#D8DADE;}
	.st1{fill:#FFFFFF;}
	.st2{fill:#4ED7E5;}
	.st3{opacity:0.5;fill:#FFFFFF;enable-background:new    ;}
	.st4{fill-rule:evenodd;clip-rule:evenodd;fill:#FFFFFF;}
	.st5{fill:#FFFFFF;stroke:#FFFFFF;stroke-width:0.25;stroke-miterlimit:10;}
</style>
<g>
	<g>
		<g>
			<circle class="st0" cx="25" cy="25" r="22.16"/>
		</g>
	</g>
	<g>
		<g>
			<path class="st1" d="M27.94,17.6h-5.88c-2.46,0-4.46,1.99-4.46,4.46v5.88c0,2.46,1.99,4.46,4.46,4.46h5.88
				c2.46,0,4.46-1.99,4.46-4.46v-5.88C32.4,19.6,30.4,17.6,27.94,17.6z M31,27.94c0,1.69-1.37,3.06-3.06,3.06h-5.88
				C20.37,31,19,29.63,19,27.94v-5.88c0-1.69,1.37-3.06,3.06-3.06h5.88c1.69,0,3.06,1.37,3.06,3.06V27.94z"/>
			<path class="st1" d="M28.89,20.33c-0.48,0-0.87,0.39-0.87,0.87s0.39,0.87,0.87,0.87s0.87-0.39,0.87-0.87S29.37,20.33,28.89,20.33
				z"/>
			<path class="st1" d="M25.03,21.44c-2.01,0-3.65,1.64-3.65,3.65s1.64,3.65,3.65,3.65s3.65-1.64,3.65-3.65S27.04,21.44,25.03,21.44
				z M25.03,27.44c-1.29,0-2.34-1.05-2.34-2.34s1.05-2.34,2.34-2.34s2.34,1.05,2.34,2.34S26.32,27.44,25.03,27.44z"/>
		</g>
		<path class="st1" d="M25,37.78c-7.05,0-12.78-5.74-12.78-12.78c0-7.05,5.74-12.78,12.78-12.78c2.04,0,4.07,0.49,5.86,1.42
			c0.42,0.22,0.59,0.74,0.37,1.17c-0.22,0.42-0.74,0.59-1.17,0.37c-1.54-0.8-3.29-1.23-5.06-1.23c-6.09,0-11.05,4.96-11.05,11.05
			c0,6.09,4.96,11.05,11.05,11.05c6.09,0,11.05-4.96,11.05-11.05c0-0.48,0.39-0.87,0.87-0.87s0.87,0.39,0.87,0.87
			C37.78,32.05,32.05,37.78,25,37.78z"/>
	</g>
	<circle class="st2" cx="36.8" cy="25.1" r="1.52"/>
</g>
</svg>
