<?xml version="1.0" encoding="utf-8"?>
<!-- Generator: Adobe Illustrator 24.1.1, SVG Export Plug-In . SVG Version: 6.00 Build 0)  -->
<svg version="1.0" id="Capa_1" xmlns="http://www.w3.org/2000/svg" xmlns:xlink="http://www.w3.org/1999/xlink" x="0px" y="0px"
	 viewBox="0 0 16 16" style="enable-background:new 0 0 16 16;" xml:space="preserve">
<style type="text/css">
	.st0{fill:#F80F49;}
	.st1{fill:#4ED7E5;}
</style>
<g>
	<g>
		<path class="st0" d="M15.41,8.59H5.19C4.86,8.59,4.6,8.33,4.6,8c0-0.33,0.27-0.59,0.59-0.59h10.21C15.73,7.41,16,7.67,16,8
			C16,8.33,15.73,8.59,15.41,8.59z"/>
	</g>
	<g>
		<path class="st0" d="M2.57,8.59H0.59C0.27,8.59,0,8.33,0,8c0-0.33,0.27-0.59,0.59-0.59h1.98C2.9,7.41,3.17,7.67,3.17,8
			C3.17,8.33,2.9,8.59,2.57,8.59z"/>
	</g>
	<path class="st0" d="M15.41,2.03H12.9c-0.25-0.76-0.96-1.31-1.8-1.31c-0.84,0-1.55,0.55-1.8,1.31H0.59C0.27,2.03,0,2.3,0,2.62
		s0.27,0.59,0.59,0.59H9.3c0.25,0.76,0.96,1.31,1.8,1.31s1.55-0.55,1.8-1.31h2.51c0.33,0,0.59-0.27,0.59-0.59S15.73,2.03,15.41,2.03
		z M11.1,3.34c-0.39,0-0.72-0.32-0.72-0.72s0.32-0.72,0.72-0.72c0.39,0,0.72,0.32,0.72,0.72S11.5,3.34,11.1,3.34z"/>
	<path class="st0" d="M15.41,12.78h-4.39c-0.25-0.76-0.96-1.31-1.8-1.31c-0.84,0-1.55,0.55-1.8,1.31H0.59
		C0.27,12.78,0,13.05,0,13.38s0.27,0.59,0.59,0.59h6.82c0.25,0.76,0.96,1.31,1.8,1.31c0.84,0,1.55-0.55,1.8-1.31h4.39
		c0.33,0,0.59-0.27,0.59-0.59S15.73,12.78,15.41,12.78z M9.21,14.09c-0.39,0-0.72-0.32-0.72-0.72c0-0.39,0.32-0.72,0.72-0.72
		c0.39,0,0.72,0.32,0.72,0.72C9.93,13.77,9.61,14.09,9.21,14.09z"/>
	<g>
		<circle class="st1" cx="3.88" cy="7.91" r="1.71"/>
	</g>
</g>
</svg>
