<?xml version="1.0" encoding="utf-8"?>
<!-- Generator: Adobe Illustrator 24.1.1, SVG Export Plug-In . SVG Version: 6.00 Build 0)  -->
<svg version="1.0" id="Capa_1" xmlns="http://www.w3.org/2000/svg" xmlns:xlink="http://www.w3.org/1999/xlink" x="0px" y="0px"
	 viewBox="0 0 50 50" style="enable-background:new 0 0 50 50;" xml:space="preserve">
<style type="text/css">
	.st0{fill:#D8DADE;}
	.st1{fill:#FFFFFF;}
	.st2{fill:#4ED7E5;}
	.st3{opacity:0.5;fill:#FFFFFF;enable-background:new    ;}
	.st4{fill-rule:evenodd;clip-rule:evenodd;fill:#FFFFFF;}
	.st5{fill:#FFFFFF;stroke:#FFFFFF;stroke-width:0.25;stroke-miterlimit:10;}
</style>
<g>
	<g>
		<g>
			<circle class="st0" cx="25" cy="25" r="22.16"/>
		</g>
	</g>
	<g>
		<g>
			<g>
				<path class="st4" d="M22.82,25.06v6.86c0,0.1,0.08,0.18,0.18,0.18h2.55c0.1,0,0.18-0.08,0.18-0.18v-6.97h1.85
					c0.09,0,0.17-0.07,0.18-0.16l0.18-2.1c0.01-0.1-0.07-0.19-0.18-0.19h-2.02V21c0-0.35,0.28-0.63,0.63-0.63h1.42
					c0.1,0,0.18-0.08,0.18-0.18v-2.1c0-0.1-0.08-0.18-0.18-0.18h-2.4c-1.41,0-2.55,1.14-2.55,2.55v2.02h-1.27
					c-0.1,0-0.18,0.08-0.18,0.18v2.1c0,0.1,0.08,0.18,0.18,0.18h1.27v0.12H22.82z"/>
			</g>
		</g>
		<path class="st1" d="M24.68,37.78c-7.05,0-12.78-5.74-12.78-12.78c0-7.05,5.74-12.78,12.78-12.78c2.04,0,4.07,0.49,5.86,1.42
			c0.42,0.22,0.59,0.74,0.37,1.17c-0.22,0.42-0.74,0.59-1.17,0.37c-1.54-0.8-3.29-1.23-5.06-1.23c-6.09,0-11.05,4.96-11.05,11.05
			c0,6.09,4.96,11.05,11.05,11.05S35.73,31.09,35.73,25c0-0.48,0.39-0.87,0.87-0.87s0.87,0.39,0.87,0.87
			C37.46,32.05,31.72,37.78,24.68,37.78z"/>
		<circle class="st2" cx="36.59" cy="25.65" r="1.52"/>
	</g>
</g>
</svg>
