<?xml version="1.0" encoding="utf-8"?>
<!-- Generator: Adobe Illustrator 24.1.1, SVG Export Plug-In . SVG Version: 6.00 Build 0)  -->
<svg version="1.0" id="Capa_1" xmlns="http://www.w3.org/2000/svg" xmlns:xlink="http://www.w3.org/1999/xlink" x="0px" y="0px"
	 viewBox="0 0 50 50" style="enable-background:new 0 0 50 50;" xml:space="preserve">
<style type="text/css">
	.st0{fill:#D8DADE;}
	.st1{fill:#FFFFFF;}
	.st2{fill:#4ED7E5;}
	.st3{opacity:0.5;fill:#FFFFFF;enable-background:new    ;}
	.st4{fill-rule:evenodd;clip-rule:evenodd;fill:#FFFFFF;}
	.st5{fill:#FFFFFF;stroke:#FFFFFF;stroke-width:0.25;stroke-miterlimit:10;}
</style>
<g>
	<g>
		<g>
			<circle class="st0" cx="25" cy="25" r="22.16"/>
		</g>
	</g>
	<path class="st5" d="M32.99,31.52c-0.08,0.08-0.43,0.44-0.72,0.74c-0.2,0.2-0.36,0.37-0.39,0.39c-0.69,0.74-1.57,1.12-2.62,1.12
		c-0.09,0-0.17,0-0.25-0.01c-1.38-0.09-2.57-0.58-3.46-1.01c-0.01,0-0.02-0.01-0.03-0.02c-2.25-1.1-4.22-2.64-5.86-4.59
		c-1.35-1.63-2.27-3.15-2.88-4.81c-0.42-1.12-0.58-2.07-0.51-2.99c0.07-0.83,0.41-1.55,1-2.14l1.23-1.23
		c0.52-0.49,1.12-0.75,1.75-0.75c0.64,0,1.24,0.26,1.74,0.74c0.22,0.21,1.81,1.81,1.99,1.99c0.51,0.51,0.79,1.12,0.79,1.77
		c0,0.64-0.27,1.26-0.79,1.77l-0.11,0.11c-0.15,0.16-0.42,0.42-0.64,0.65c0.16,0.28,0.37,0.58,0.64,0.91
		c0.87,1.07,1.78,1.9,2.77,2.53c0.01,0.01,0.03,0.02,0.09,0.05l0.75-0.75c0.51-0.51,1.12-0.77,1.76-0.77c0.65,0,1.26,0.27,1.76,0.79
		c0.21,0.22,0.2,0.56-0.01,0.77c-0.22,0.21-0.56,0.2-0.77-0.01c-0.57-0.59-1.36-0.59-1.95,0l-1.03,1.03
		c-0.17,0.17-0.43,0.21-0.64,0.1l-0.04-0.02c-0.23-0.12-0.4-0.21-0.49-0.26c-1.09-0.69-2.09-1.6-3.04-2.77
		c-0.43-0.55-0.73-1.01-0.95-1.47c-0.1-0.22-0.06-0.47,0.12-0.64c0.2-0.19,0.7-0.7,0.92-0.91l0.11-0.11c0.31-0.31,0.47-0.65,0.47-1
		s-0.16-0.69-0.47-1c-0.49-0.49-1.79-1.81-1.97-1.98c-0.59-0.58-1.37-0.58-1.97,0l-1.23,1.23c-0.41,0.4-0.63,0.89-0.68,1.45
		c-0.06,0.75,0.08,1.55,0.44,2.52c0.57,1.54,1.42,2.96,2.69,4.49c1.54,1.84,3.39,3.29,5.52,4.32c0.01,0,0.01,0.01,0.02,0.01
		c0.8,0.38,1.85,0.81,3,0.89c0.01,0,0.02,0,0.02,0c0.07,0,0.13,0.01,0.2,0.01c0.75,0,1.33-0.25,1.82-0.78c0-0.01,0-0.01,0.4-0.41
		c0.29-0.29,0.64-0.65,0.72-0.73L32.99,31.52z"/>
	<circle class="st2" cx="32.35" cy="31.31" r="1.52"/>
</g>
</svg>
