<?xml version="1.0" encoding="utf-8"?>
<!-- Generator: Adobe Illustrator 24.1.1, SVG Export Plug-In . SVG Version: 6.00 Build 0)  -->
<svg version="1.0" id="Capa_1" xmlns="http://www.w3.org/2000/svg" xmlns:xlink="http://www.w3.org/1999/xlink" x="0px" y="0px"
	 viewBox="0 0 50 50" style="enable-background:new 0 0 50 50;" xml:space="preserve">
<style type="text/css">
	.st0{fill:#D8DADE;}
	.st1{fill:#FFFFFF;}
	.st2{fill:#4ED7E5;}
	.st3{opacity:0.5;fill:#FFFFFF;enable-background:new    ;}
	.st4{fill-rule:evenodd;clip-rule:evenodd;fill:#FFFFFF;}
	.st5{fill:#FFFFFF;stroke:#FFFFFF;stroke-width:0.25;stroke-miterlimit:10;}
</style>
<g>
	<g>
		<g>
			<circle class="st0" cx="25" cy="25" r="22.16"/>
		</g>
	</g>
	<g>
		<g>
			<path class="st1" d="M18.01,21.84l-2.35,0.85V33.7H33.5v-2.98c0-0.37,0.3-0.67,0.67-0.67s0.67,0.3,0.67,0.67v3.66
				c0,0.37-0.3,0.67-0.67,0.67H14.99c-0.37,0-0.67-0.3-0.67-0.67V22.22c0-0.28,0.18-0.54,0.45-0.63l3.25-1.17"/>
			<path class="st1" d="M30.83,20.3l3.57,1.28c0.27,0.1,0.45,0.35,0.45,0.63v2.02c0,0.37-0.3,0.67-0.67,0.67s-0.67-0.3-0.67-0.67
				v-1.55l-2.67-0.96"/>
			<path class="st1" d="M24.58,28.97c-0.09,0-0.19-0.02-0.28-0.06l-7.74-3.46c-0.34-0.15-0.49-0.55-0.34-0.89s0.55-0.49,0.89-0.34
				l7.46,3.34l7.35-3.34c0.34-0.15,0.74,0,0.89,0.34s0,0.74-0.34,0.89l-7.63,3.46C24.77,28.95,24.67,28.97,24.58,28.97z"/>
			<circle class="st2" cx="34.17" cy="30.72" r="1.52"/>
		</g>
		<path class="st3" d="M30.16,25.95c-0.37,0-0.67-0.3-0.67-0.67V16.3H19.36v8.98c0,0.37-0.3,0.67-0.67,0.67s-0.67-0.3-0.67-0.67
			v-9.65c0-0.37,0.3-0.67,0.67-0.67h11.47c0.37,0,0.67,0.3,0.67,0.67v9.65C30.83,25.65,30.53,25.95,30.16,25.95z"/>
		<path class="st3" d="M23.99,22.19c-0.16,0-0.31-0.05-0.44-0.16l-1.54-1.33c-0.28-0.24-0.31-0.67-0.07-0.95s0.67-0.31,0.95-0.07
			l1.03,0.89l2.17-2.5c0.24-0.28,0.67-0.31,0.95-0.07s0.31,0.67,0.07,0.95l-2.61,3.01C24.36,22.11,24.17,22.19,23.99,22.19z"/>
		<path class="st3" d="M26.66,25.28h-4.49c-0.37,0-0.67-0.3-0.67-0.67s0.3-0.67,0.67-0.67h4.49c0.37,0,0.67,0.3,0.67,0.67
			C27.34,24.98,27.04,25.28,26.66,25.28z"/>
	</g>
</g>
</svg>
