<?xml version="1.0" encoding="utf-8"?>
<!-- Generator: Adobe Illustrator 24.1.1, SVG Export Plug-In . SVG Version: 6.00 Build 0)  -->
<svg version="1.0" id="Capa_1" xmlns="http://www.w3.org/2000/svg" xmlns:xlink="http://www.w3.org/1999/xlink" x="0px" y="0px"
	 viewBox="0 0 16 16" style="enable-background:new 0 0 16 16;" xml:space="preserve">
<style type="text/css">
	.st0{fill:#89878C;}
</style>
<g>
	<g>
		<path class="st0" d="M8,0.5c4.14,0,7.5,3.36,7.5,7.5c0,4.14-3.36,7.5-7.5,7.5c-4.14,0-7.5-3.36-7.5-7.5C0.5,3.86,3.86,0.5,8,0.5z
			 M8,14.88c3.8,0,6.89-3.09,6.89-6.89S11.8,1.12,8,1.12S1.12,4.2,1.12,8S4.2,14.88,8,14.88z"/>
	</g>
	<g>
		<path class="st0" d="M8,5.46l3.29,3.29c0.12,0.12,0.12,0.31,0,0.43c-0.12,0.12-0.31,0.12-0.43,0L8,6.33L5.14,9.19
			c-0.12,0.12-0.31,0.12-0.43,0c-0.12-0.12-0.12-0.31,0-0.43L8,5.46z"/>
	</g>
</g>
<g>
</g>
<g>
</g>
<g>
</g>
<g>
</g>
<g>
</g>
<g>
</g>
<g>
</g>
<g>
</g>
<g>
</g>
<g>
</g>
<g>
</g>
<g>
</g>
<g>
</g>
<g>
</g>
<g>
</g>
</svg>
