<?xml version="1.0" encoding="utf-8"?>
<!-- Generator: Adobe Illustrator 21.0.2, SVG Export Plug-In . SVG Version: 6.00 Build 0)  -->
<svg version="1.1" id="Capa_1" xmlns="http://www.w3.org/2000/svg" xmlns:xlink="http://www.w3.org/1999/xlink" x="0px" y="0px"
	 viewBox="0 0 100 80" enable-background="new 0 0 100 80" xml:space="preserve">
<g>
	<path fill="#F3124A" d="M95.288,39.441L86.61,22.363c-0.341-0.671-1.03-1.094-1.783-1.094H63.849v-7.997c0-1.104-0.896-2-2-2H8.463
		c-1.104,0-2,0.896-2,2v6.595c0,1.104,0.896,2,2,2s2-0.896,2-2v-4.595h49.385v7.997v2.638v31.587c0,0.417,0.128,0.804,0.346,1.124
		H41.021c0.037-0.37,0.057-0.745,0.057-1.124c0-6.194-5.039-11.233-11.233-11.233S18.612,51.3,18.612,57.494
		c0,0.379,0.02,0.754,0.057,1.124h-8.206V42.013c0-1.104-0.896-2-2-2s-2,0.896-2,2v18.604c0,1.104,0.896,2,2,2h11.398
		c1.866,3.622,5.637,6.109,9.984,6.109c4.353,0,8.128-2.494,9.991-6.124c0.049,0.004,0.095,0.015,0.144,0.015h21.868
		c1.104,0,2-0.896,2-2c0-0.417-0.128-0.804-0.346-1.124h2.714c0.947,5.242,5.534,9.233,11.044,9.233
		c5.511,0,10.097-3.992,11.045-9.233h5.2c1.104,0,2-0.896,2-2V40.347C95.505,40.032,95.431,39.721,95.288,39.441z M29.845,64.727
		c-3.988,0-7.233-3.245-7.233-7.233s3.245-7.233,7.233-7.233s7.233,3.245,7.233,7.233S33.833,64.727,29.845,64.727z M77.26,64.727
		c-3.988,0-7.232-3.245-7.232-7.233s3.244-7.233,7.232-7.233c3.78,0,6.887,2.916,7.202,6.615c-0.064,0.196-0.107,0.401-0.107,0.618
		s0.043,0.422,0.107,0.618C84.147,61.811,81.039,64.727,77.26,64.727z M91.505,55.494h-3.2c-0.947-5.242-5.534-9.233-11.045-9.233
		c-5.51,0-10.096,3.992-11.044,9.233h-2.367V25.907v-0.638H83.6l7.905,15.557V55.494z"/>
	<g>
		<circle fill="#4CBCD4" cx="8.463" cy="41.642" r="3.968"/>
	</g>
</g>
</svg>
