<?xml version="1.0" encoding="utf-8"?>
<!-- Generator: Adobe Illustrator 24.1.1, SVG Export Plug-In . SVG Version: 6.00 Build 0)  -->
<svg version="1.1" id="Capa_1" xmlns="http://www.w3.org/2000/svg" xmlns:xlink="http://www.w3.org/1999/xlink" x="0px" y="0px"
	 viewBox="0 0 100 100" style="enable-background:new 0 0 100 100;" xml:space="preserve">
<style type="text/css">
	.st0{fill:#FFFFFF;}
	.st1{fill:#4ED7E5;}
</style>
<path class="st0" d="M81.21,39.57H66.19l-8.43-18.93c-0.32-0.72-1.04-1.19-1.83-1.19h-6.91c-0.59,0-1.14,0.26-1.52,0.7
	c-0.38,0.45-0.54,1.04-0.45,1.62l2.89,17.79H26.48l-8.36-12.4c-0.37-0.55-0.99-0.88-1.66-0.88H9.56c-0.61,0-1.19,0.28-1.57,0.76
	c-0.38,0.48-0.52,1.11-0.37,1.71l5.14,21.24L7.61,71.23c-0.14,0.6-0.01,1.23,0.37,1.71c0.38,0.48,0.96,0.76,1.57,0.76h6.91
	c0.67,0,1.29-0.33,1.66-0.88l8.96-13.28c0.62-0.92,0.38-2.16-0.54-2.78c-0.92-0.62-2.16-0.38-2.78,0.54L15.4,69.7h-3.3l4.64-19.16
	c0.04-0.18,0.05-0.37,0.05-0.55c0.01-0.18,0-0.36-0.05-0.55L12.1,30.29h3.3l8.36,12.4c0.07,0.11,0.16,0.21,0.25,0.3
	c0.05,0.05,0.1,0.08,0.15,0.12c0.05,0.04,0.1,0.09,0.15,0.12c0.06,0.04,0.12,0.06,0.17,0.09c0.06,0.03,0.11,0.06,0.17,0.09
	c0.06,0.03,0.13,0.04,0.19,0.06c0.06,0.02,0.12,0.04,0.18,0.05c0.13,0.03,0.26,0.04,0.39,0.04h26.87h12.6h16.32
	c3.5,0,6.35,2.85,6.35,6.35c0,3.5-2.85,6.35-6.35,6.35H50.16c-1.1,0-2,0.9-2,2c0,1.05,0.81,1.9,1.84,1.98l-2.95,18.11
	c-0.09,0.58,0.07,1.17,0.45,1.62c0.38,0.45,0.94,0.7,1.52,0.7h6.91c0.79,0,1.5-0.46,1.83-1.18l8.6-19.23h14.85
	c5.71,0,10.35-4.64,10.35-10.35C91.56,44.21,86.91,39.57,81.21,39.57z M53.99,39.57l-2.61-16.11h3.26l7.18,16.11H53.99z
	 M54.63,76.69h-3.26l2.61-16.04h7.81L54.63,76.69z"/>
<path class="st1" d="M25.09,54.93c2.31,0,4.19,1.87,4.19,4.19c0,2.31-1.87,4.19-4.19,4.19c-2.31,0-4.19-1.87-4.19-4.19
	C20.9,56.8,22.78,54.93,25.09,54.93z"/>
</svg>
