<?xml version="1.0" encoding="utf-8"?>
<!-- Generator: Adobe Illustrator 24.1.1, SVG Export Plug-In . SVG Version: 6.00 Build 0)  -->
<svg version="1.1" id="Capa_1" xmlns="http://www.w3.org/2000/svg" xmlns:xlink="http://www.w3.org/1999/xlink" x="0px" y="0px"
	 viewBox="0 0 302 40" style="enable-background:new 0 0 302 40;" xml:space="preserve">
<style type="text/css">
	.st0{fill:#151E3F;}
	.st1{fill:#FFFFFF;}
	.st2{fill:#F80F49;}
</style>
<g>
	<path class="st0" d="M290.33,37.79H10.61C5.86,37.79,2,33.94,2,29.18V10.82c0-4.76,3.86-8.61,8.61-8.61h279.71
		c4.76,0,8.61,3.86,8.61,8.61v18.36C298.94,33.94,295.08,37.79,290.33,37.79z"/>
	<g>
		<path class="st1" d="M46.31,24.98v1.44H37.9V14.83h8.18v1.44h-6.52v3.56h5.81v1.41h-5.81v3.74H46.31z"/>
		<path class="st1" d="M48.76,14.14h1.59v12.28h-1.59V14.14z"/>
		<path class="st1" d="M53.38,14.14h1.59v12.28h-1.59V14.14z"/>
		<path class="st1" d="M59.4,25.94c-0.7-0.39-1.24-0.92-1.63-1.6c-0.39-0.68-0.59-1.45-0.59-2.31c0-0.86,0.2-1.63,0.59-2.31
			c0.39-0.68,0.94-1.21,1.63-1.59c0.69-0.38,1.48-0.57,2.35-0.57c0.87,0,1.65,0.19,2.34,0.57c0.69,0.38,1.23,0.91,1.62,1.59
			c0.39,0.68,0.59,1.45,0.59,2.31c0,0.86-0.2,1.63-0.59,2.31s-0.93,1.21-1.62,1.6c-0.69,0.39-1.47,0.58-2.34,0.58
			C60.88,26.52,60.1,26.32,59.4,25.94z M63.27,24.74c0.45-0.26,0.8-0.62,1.05-1.09s0.38-1.01,0.38-1.61c0-0.61-0.13-1.14-0.38-1.61
			c-0.25-0.47-0.6-0.83-1.05-1.08s-0.95-0.38-1.51-0.38c-0.56,0-1.07,0.13-1.51,0.38s-0.8,0.62-1.06,1.08
			c-0.26,0.47-0.39,1.01-0.39,1.61c0,0.61,0.13,1.14,0.39,1.61c0.26,0.47,0.61,0.83,1.06,1.09c0.45,0.26,0.95,0.39,1.51,0.39
			C62.31,25.13,62.82,25,63.27,24.74z"/>
		<path class="st1" d="M68.95,26.23c-0.66-0.19-1.18-0.44-1.56-0.74l0.66-1.26c0.39,0.28,0.86,0.5,1.41,0.66
			c0.55,0.17,1.11,0.25,1.67,0.25c1.39,0,2.09-0.4,2.09-1.19c0-0.27-0.09-0.47-0.28-0.63c-0.19-0.15-0.42-0.27-0.7-0.34
			c-0.28-0.07-0.68-0.15-1.2-0.24c-0.71-0.11-1.28-0.24-1.73-0.38c-0.45-0.14-0.83-0.39-1.15-0.73c-0.32-0.34-0.48-0.82-0.48-1.44
			c0-0.79,0.33-1.43,0.99-1.91c0.66-0.48,1.55-0.72,2.66-0.72c0.58,0,1.17,0.07,1.75,0.21c0.58,0.14,1.06,0.34,1.44,0.58l-0.68,1.26
			c-0.72-0.46-1.56-0.69-2.53-0.69c-0.67,0-1.19,0.11-1.54,0.33c-0.35,0.22-0.53,0.51-0.53,0.88c0,0.29,0.1,0.51,0.3,0.68
			c0.2,0.17,0.44,0.29,0.74,0.36c0.29,0.08,0.7,0.17,1.23,0.27c0.71,0.12,1.28,0.25,1.71,0.39c0.44,0.14,0.81,0.37,1.12,0.7
			c0.31,0.33,0.46,0.79,0.46,1.39c0,0.79-0.34,1.43-1.02,1.89c-0.68,0.47-1.6,0.7-2.77,0.7C70.3,26.52,69.61,26.42,68.95,26.23z"/>
		<path class="st1" d="M89.01,17.64l-4.25,9.65c-0.38,0.89-0.81,1.52-1.32,1.89c-0.5,0.36-1.11,0.55-1.81,0.55
			c-0.43,0-0.85-0.07-1.25-0.21c-0.4-0.14-0.74-0.34-1-0.6l0.68-1.19c0.45,0.43,0.98,0.64,1.57,0.64c0.39,0,0.71-0.1,0.97-0.31
			s0.49-0.55,0.7-1.05l0.28-0.61l-3.87-8.76h1.66l3.06,7.02l3.03-7.02H89.01z"/>
		<path class="st1" d="M96.2,18.46c0.65,0.6,0.97,1.48,0.97,2.67v5.3h-1.51v-1.16c-0.27,0.41-0.64,0.72-1.13,0.94
			s-1.07,0.32-1.75,0.32c-0.98,0-1.77-0.24-2.36-0.71s-0.89-1.1-0.89-1.87s0.28-1.39,0.84-1.86c0.56-0.47,1.46-0.7,2.68-0.7h2.52
			v-0.31c0-0.68-0.2-1.21-0.6-1.57c-0.4-0.36-0.98-0.55-1.75-0.55c-0.52,0-1.03,0.09-1.52,0.26s-0.92,0.4-1.26,0.69l-0.66-1.19
			c0.45-0.36,0.99-0.64,1.62-0.84c0.63-0.19,1.3-0.29,2-0.29C94.63,17.56,95.55,17.86,96.2,18.46z M94.62,24.89
			c0.44-0.27,0.76-0.65,0.96-1.15v-1.22h-2.45c-1.35,0-2.02,0.45-2.02,1.36c0,0.44,0.17,0.79,0.51,1.04
			c0.34,0.25,0.82,0.38,1.42,0.38C93.65,25.29,94.18,25.16,94.62,24.89z"/>
		<path class="st1" d="M106,25.94c-0.7-0.39-1.25-0.92-1.65-1.6c-0.4-0.68-0.6-1.45-0.6-2.31c0-0.86,0.2-1.63,0.6-2.31
			c0.4-0.68,0.95-1.21,1.65-1.59c0.7-0.38,1.5-0.57,2.39-0.57c0.79,0,1.5,0.16,2.13,0.48c0.62,0.32,1.11,0.78,1.45,1.39l-1.21,0.78
			c-0.28-0.42-0.62-0.73-1.03-0.94c-0.41-0.21-0.86-0.31-1.36-0.31c-0.57,0-1.09,0.13-1.55,0.38c-0.46,0.25-0.82,0.62-1.08,1.08
			c-0.26,0.47-0.39,1.01-0.39,1.61c0,0.62,0.13,1.16,0.39,1.63c0.26,0.47,0.62,0.83,1.08,1.08c0.46,0.25,0.97,0.38,1.55,0.38
			c0.5,0,0.95-0.1,1.36-0.31s0.75-0.52,1.03-0.94l1.21,0.76c-0.34,0.61-0.82,1.07-1.45,1.4c-0.62,0.33-1.33,0.49-2.13,0.49
			C107.5,26.52,106.7,26.32,106,25.94z"/>
		<path class="st1" d="M115.29,25.94c-0.7-0.39-1.24-0.92-1.63-1.6s-0.59-1.45-0.59-2.31c0-0.86,0.2-1.63,0.59-2.31
			c0.39-0.68,0.94-1.21,1.63-1.59c0.7-0.38,1.48-0.57,2.35-0.57s1.65,0.19,2.34,0.57c0.69,0.38,1.23,0.91,1.62,1.59
			c0.39,0.68,0.59,1.45,0.59,2.31c0,0.86-0.2,1.63-0.59,2.31s-0.93,1.21-1.62,1.6c-0.69,0.39-1.47,0.58-2.34,0.58
			S115.99,26.32,115.29,25.94z M119.16,24.74c0.45-0.26,0.8-0.62,1.05-1.09c0.25-0.47,0.38-1.01,0.38-1.61
			c0-0.61-0.13-1.14-0.38-1.61c-0.25-0.47-0.6-0.83-1.05-1.08c-0.45-0.25-0.95-0.38-1.51-0.38c-0.56,0-1.07,0.13-1.51,0.38
			c-0.45,0.25-0.8,0.62-1.06,1.08c-0.26,0.47-0.39,1.01-0.39,1.61c0,0.61,0.13,1.14,0.39,1.61s0.61,0.83,1.06,1.09
			c0.45,0.26,0.95,0.39,1.51,0.39C118.2,25.13,118.71,25,119.16,24.74z"/>
		<path class="st1" d="M131.73,18.53c0.66,0.65,0.98,1.59,0.98,2.84v5.05h-1.59v-4.87c0-0.85-0.2-1.49-0.61-1.92
			c-0.41-0.43-0.99-0.65-1.75-0.65c-0.86,0-1.54,0.25-2.04,0.75c-0.5,0.5-0.75,1.22-0.75,2.16v4.52h-1.59v-8.77h1.52v1.32
			c0.32-0.45,0.75-0.8,1.3-1.04c0.55-0.24,1.17-0.36,1.86-0.36C130.19,17.56,131.08,17.88,131.73,18.53z"/>
		<path class="st1" d="M137.45,16.88v0.76H140v1.31h-2.52v7.46h-1.59v-7.46h-1.49v-1.31h1.49v-0.78c0-0.87,0.25-1.56,0.76-2.07
			c0.51-0.51,1.22-0.76,2.14-0.76c0.35,0,0.68,0.04,0.99,0.13c0.31,0.09,0.57,0.21,0.79,0.38l-0.48,1.21
			c-0.36-0.28-0.77-0.41-1.22-0.41C137.93,15.34,137.45,15.86,137.45,16.88z M142.86,15.66c-0.2-0.2-0.31-0.44-0.31-0.73
			c0-0.29,0.1-0.53,0.31-0.74s0.46-0.31,0.77-0.31c0.31,0,0.57,0.1,0.77,0.29s0.31,0.43,0.31,0.72c0,0.3-0.1,0.55-0.31,0.75
			c-0.2,0.21-0.46,0.31-0.77,0.31C143.32,15.96,143.06,15.86,142.86,15.66z M142.83,17.64h1.59v8.77h-1.59V17.64z"/>
		<path class="st1" d="M153.43,18.46c0.65,0.6,0.97,1.48,0.97,2.67v5.3h-1.51v-1.16c-0.26,0.41-0.64,0.72-1.13,0.94
			c-0.49,0.21-1.07,0.32-1.75,0.32c-0.98,0-1.77-0.24-2.36-0.71c-0.59-0.47-0.89-1.1-0.89-1.87s0.28-1.39,0.84-1.86
			c0.56-0.47,1.46-0.7,2.68-0.7h2.52v-0.31c0-0.68-0.2-1.21-0.6-1.57c-0.4-0.36-0.98-0.55-1.75-0.55c-0.52,0-1.03,0.09-1.52,0.26
			c-0.5,0.17-0.92,0.4-1.26,0.69l-0.66-1.19c0.45-0.36,0.99-0.64,1.62-0.84c0.63-0.19,1.3-0.29,2-0.29
			C151.86,17.56,152.79,17.86,153.43,18.46z M151.85,24.89c0.44-0.27,0.76-0.65,0.96-1.15v-1.22h-2.45c-1.35,0-2.02,0.45-2.02,1.36
			c0,0.44,0.17,0.79,0.51,1.04c0.34,0.25,0.82,0.38,1.42,0.38C150.88,25.29,151.41,25.16,151.85,24.89z"/>
		<path class="st1" d="M160.09,17.96c0.54-0.26,1.2-0.4,1.97-0.4v1.54c-0.09-0.01-0.21-0.02-0.36-0.02c-0.86,0-1.54,0.26-2.03,0.77
			c-0.49,0.51-0.74,1.24-0.74,2.19v4.37h-1.59v-8.77h1.52v1.47C159.14,18.61,159.55,18.22,160.09,17.96z"/>
		<path class="st1" d="M165.34,25.94c-0.7-0.39-1.24-0.92-1.63-1.6s-0.59-1.45-0.59-2.31c0-0.86,0.2-1.63,0.59-2.31
			c0.39-0.68,0.94-1.21,1.63-1.59c0.7-0.38,1.48-0.57,2.35-0.57s1.65,0.19,2.34,0.57c0.69,0.38,1.23,0.91,1.62,1.59
			c0.39,0.68,0.59,1.45,0.59,2.31c0,0.86-0.2,1.63-0.59,2.31s-0.93,1.21-1.62,1.6c-0.69,0.39-1.47,0.58-2.34,0.58
			S166.03,26.32,165.34,25.94z M169.2,24.74c0.45-0.26,0.8-0.62,1.05-1.09c0.25-0.47,0.38-1.01,0.38-1.61
			c0-0.61-0.13-1.14-0.38-1.61c-0.25-0.47-0.6-0.83-1.05-1.08c-0.45-0.25-0.95-0.38-1.51-0.38c-0.56,0-1.07,0.13-1.51,0.38
			c-0.45,0.25-0.8,0.62-1.06,1.08c-0.26,0.47-0.39,1.01-0.39,1.61c0,0.61,0.13,1.14,0.39,1.61s0.61,0.83,1.06,1.09
			c0.45,0.26,0.95,0.39,1.51,0.39C168.25,25.13,168.76,25,169.2,24.74z"/>
		<path class="st1" d="M181.78,18.53c0.66,0.65,0.99,1.59,0.99,2.84v5.05h-1.59v-4.87c0-0.85-0.21-1.49-0.61-1.92
			c-0.41-0.43-0.99-0.65-1.75-0.65c-0.86,0-1.54,0.25-2.04,0.75c-0.5,0.5-0.75,1.22-0.75,2.16v4.52h-1.59v-8.77h1.52v1.32
			c0.32-0.45,0.75-0.8,1.3-1.04c0.55-0.24,1.17-0.36,1.86-0.36C180.24,17.56,181.13,17.88,181.78,18.53z"/>
		<path class="st1" d="M198.06,22.56h-7.12c0.1,0.77,0.44,1.39,1.02,1.86c0.58,0.47,1.3,0.7,2.16,0.7c1.05,0,1.89-0.35,2.53-1.06
			l0.88,1.03c-0.4,0.46-0.89,0.82-1.48,1.06c-0.59,0.24-1.25,0.36-1.98,0.36c-0.93,0-1.75-0.19-2.47-0.57
			c-0.72-0.38-1.27-0.91-1.66-1.6c-0.39-0.68-0.59-1.46-0.59-2.32c0-0.85,0.19-1.62,0.57-2.3c0.38-0.68,0.91-1.22,1.57-1.6
			c0.67-0.38,1.42-0.57,2.26-0.57c0.84,0,1.59,0.19,2.24,0.57c0.66,0.38,1.17,0.91,1.54,1.6c0.37,0.68,0.55,1.47,0.55,2.35
			C198.09,22.2,198.08,22.36,198.06,22.56z M191.84,19.6c-0.51,0.46-0.81,1.07-0.9,1.82h5.63c-0.09-0.74-0.39-1.34-0.9-1.81
			s-1.15-0.7-1.91-0.7C192.99,18.9,192.36,19.13,191.84,19.6z"/>
		<path class="st1" d="M207.63,18.53c0.66,0.65,0.99,1.59,0.99,2.84v5.05h-1.59v-4.87c0-0.85-0.21-1.49-0.61-1.92
			c-0.41-0.43-0.99-0.65-1.75-0.65c-0.86,0-1.54,0.25-2.04,0.75c-0.5,0.5-0.75,1.22-0.75,2.16v4.52h-1.59v-8.77h1.52v1.32
			c0.32-0.45,0.75-0.8,1.3-1.04c0.55-0.24,1.17-0.36,1.86-0.36C206.09,17.56,206.98,17.88,207.63,18.53z"/>
		<path class="st1" d="M223.36,18.53c0.66,0.65,0.99,1.59,0.99,2.84v5.05h-1.59v-4.87c0-0.85-0.21-1.49-0.61-1.92
			c-0.41-0.43-0.99-0.65-1.75-0.65c-0.86,0-1.54,0.25-2.04,0.75c-0.5,0.5-0.75,1.22-0.75,2.16v4.52h-1.59v-8.77h1.52v1.32
			c0.32-0.45,0.75-0.8,1.3-1.04c0.55-0.24,1.17-0.36,1.86-0.36C221.81,17.56,222.7,17.88,223.36,18.53z"/>
		<path class="st1" d="M228.74,25.94c-0.69-0.39-1.24-0.92-1.63-1.6s-0.59-1.45-0.59-2.31c0-0.86,0.2-1.63,0.59-2.31
			c0.39-0.68,0.94-1.21,1.63-1.59c0.7-0.38,1.48-0.57,2.35-0.57s1.65,0.19,2.34,0.57c0.69,0.38,1.23,0.91,1.62,1.59
			c0.39,0.68,0.59,1.45,0.59,2.31c0,0.86-0.2,1.63-0.59,2.31s-0.93,1.21-1.62,1.6c-0.69,0.39-1.47,0.58-2.34,0.58
			S229.44,26.32,228.74,25.94z M232.61,24.74c0.45-0.26,0.8-0.62,1.05-1.09s0.38-1.01,0.38-1.61c0-0.61-0.13-1.14-0.38-1.61
			c-0.25-0.47-0.6-0.83-1.05-1.08c-0.45-0.25-0.95-0.38-1.51-0.38s-1.07,0.13-1.51,0.38c-0.45,0.25-0.8,0.62-1.06,1.08
			c-0.26,0.47-0.39,1.01-0.39,1.61c0,0.61,0.13,1.14,0.39,1.61c0.26,0.47,0.61,0.83,1.06,1.09c0.45,0.26,0.95,0.39,1.51,0.39
			S232.16,25,232.61,24.74z"/>
		<path class="st1" d="M238.29,26.23c-0.66-0.19-1.18-0.44-1.56-0.74l0.66-1.26c0.39,0.28,0.86,0.5,1.41,0.66
			c0.55,0.17,1.11,0.25,1.67,0.25c1.39,0,2.09-0.4,2.09-1.19c0-0.27-0.09-0.47-0.28-0.63c-0.19-0.15-0.42-0.27-0.7-0.34
			c-0.28-0.07-0.68-0.15-1.2-0.24c-0.71-0.11-1.28-0.24-1.73-0.38c-0.45-0.14-0.83-0.39-1.15-0.73c-0.32-0.34-0.48-0.82-0.48-1.44
			c0-0.79,0.33-1.43,0.99-1.91s1.55-0.72,2.67-0.72c0.58,0,1.17,0.07,1.75,0.21s1.06,0.34,1.44,0.58l-0.68,1.26
			c-0.72-0.46-1.56-0.69-2.53-0.69c-0.67,0-1.19,0.11-1.54,0.33c-0.35,0.22-0.53,0.51-0.53,0.88c0,0.29,0.1,0.51,0.3,0.68
			c0.2,0.17,0.44,0.29,0.74,0.36c0.29,0.08,0.7,0.17,1.23,0.27c0.71,0.12,1.28,0.25,1.71,0.39s0.81,0.37,1.12,0.7
			s0.46,0.79,0.46,1.39c0,0.79-0.34,1.43-1.02,1.89c-0.68,0.47-1.6,0.7-2.77,0.7C239.64,26.52,238.95,26.42,238.29,26.23z"/>
		<path class="st1" d="M247.54,25.94c-0.7-0.39-1.24-0.92-1.63-1.6s-0.59-1.45-0.59-2.31c0-0.86,0.2-1.63,0.59-2.31
			c0.39-0.68,0.94-1.21,1.63-1.59c0.7-0.38,1.48-0.57,2.35-0.57c0.87,0,1.65,0.19,2.34,0.57c0.69,0.38,1.23,0.91,1.62,1.59
			c0.39,0.68,0.59,1.45,0.59,2.31c0,0.86-0.2,1.63-0.59,2.31s-0.93,1.21-1.62,1.6c-0.69,0.39-1.47,0.58-2.34,0.58
			C249.02,26.52,248.24,26.32,247.54,25.94z M251.41,24.74c0.45-0.26,0.8-0.62,1.05-1.09s0.38-1.01,0.38-1.61
			c0-0.61-0.13-1.14-0.38-1.61c-0.25-0.47-0.6-0.83-1.05-1.08s-0.95-0.38-1.51-0.38c-0.56,0-1.07,0.13-1.51,0.38
			c-0.45,0.25-0.8,0.62-1.06,1.08c-0.26,0.47-0.39,1.01-0.39,1.61c0,0.61,0.13,1.14,0.39,1.61c0.26,0.47,0.61,0.83,1.06,1.09
			c0.45,0.26,0.95,0.39,1.51,0.39C250.46,25.13,250.96,25,251.41,24.74z"/>
		<path class="st1" d="M261.58,25.9c-0.23,0.2-0.52,0.35-0.86,0.46c-0.34,0.11-0.7,0.16-1.06,0.16c-0.88,0-1.57-0.24-2.05-0.71
			c-0.49-0.47-0.73-1.15-0.73-2.04v-4.82h-1.49v-1.31h1.49v-1.92h1.59v1.92h2.52v1.31h-2.52v4.75c0,0.47,0.12,0.84,0.36,1.09
			s0.58,0.38,1.02,0.38c0.49,0,0.9-0.14,1.24-0.41L261.58,25.9z"/>
		<path class="st1" d="M266.25,17.96c0.54-0.26,1.2-0.4,1.97-0.4v1.54c-0.09-0.01-0.21-0.02-0.36-0.02c-0.86,0-1.54,0.26-2.03,0.77
			s-0.74,1.24-0.74,2.19v4.37h-1.59v-8.77h1.52v1.47C265.3,18.61,265.7,18.22,266.25,17.96z"/>
		<path class="st1" d="M271.49,25.94c-0.69-0.39-1.24-0.92-1.63-1.6s-0.59-1.45-0.59-2.31c0-0.86,0.2-1.63,0.59-2.31
			c0.39-0.68,0.94-1.21,1.63-1.59c0.7-0.38,1.48-0.57,2.35-0.57c0.87,0,1.65,0.19,2.34,0.57c0.69,0.38,1.23,0.91,1.62,1.59
			c0.39,0.68,0.59,1.45,0.59,2.31c0,0.86-0.2,1.63-0.59,2.31s-0.93,1.21-1.62,1.6c-0.69,0.39-1.47,0.58-2.34,0.58
			C272.97,26.52,272.19,26.32,271.49,25.94z M275.36,24.74c0.45-0.26,0.8-0.62,1.05-1.09s0.38-1.01,0.38-1.61
			c0-0.61-0.13-1.14-0.38-1.61c-0.25-0.47-0.6-0.83-1.05-1.08c-0.45-0.25-0.95-0.38-1.51-0.38s-1.07,0.13-1.51,0.38
			c-0.45,0.25-0.8,0.62-1.06,1.08c-0.26,0.47-0.39,1.01-0.39,1.61c0,0.61,0.13,1.14,0.39,1.61c0.26,0.47,0.61,0.83,1.06,1.09
			c0.45,0.26,0.95,0.39,1.51,0.39S274.91,25,275.36,24.74z"/>
		<path class="st1" d="M281.04,26.23c-0.66-0.19-1.18-0.44-1.56-0.74l0.66-1.26c0.39,0.28,0.85,0.5,1.41,0.66
			c0.55,0.17,1.11,0.25,1.67,0.25c1.39,0,2.08-0.4,2.08-1.19c0-0.27-0.09-0.47-0.28-0.63s-0.42-0.27-0.7-0.34
			c-0.28-0.07-0.68-0.15-1.2-0.24c-0.71-0.11-1.28-0.24-1.73-0.38c-0.45-0.14-0.83-0.39-1.15-0.73c-0.32-0.34-0.48-0.82-0.48-1.44
			c0-0.79,0.33-1.43,0.99-1.91s1.55-0.72,2.66-0.72c0.58,0,1.17,0.07,1.75,0.21s1.06,0.34,1.44,0.58l-0.68,1.26
			c-0.72-0.46-1.56-0.69-2.53-0.69c-0.67,0-1.19,0.11-1.54,0.33c-0.35,0.22-0.53,0.51-0.53,0.88c0,0.29,0.1,0.51,0.3,0.68
			c0.2,0.17,0.44,0.29,0.74,0.36c0.29,0.08,0.7,0.17,1.23,0.27c0.71,0.12,1.28,0.25,1.71,0.39c0.44,0.14,0.81,0.37,1.12,0.7
			c0.31,0.33,0.46,0.79,0.46,1.39c0,0.79-0.34,1.43-1.02,1.89s-1.6,0.7-2.77,0.7C282.39,26.52,281.7,26.42,281.04,26.23z"/>
	</g>
	<g>
		<g>
			<path class="st1" d="M28.88,29.65H14.01c-0.16,0-0.31-0.07-0.41-0.18c-0.1-0.12-0.15-0.27-0.14-0.43l1.65-14.84
				c0.03-0.28,0.27-0.49,0.55-0.49h11.57c0.28,0,0.52,0.21,0.55,0.49l0.44,4.12c0.03,0.3-0.19,0.57-0.49,0.6
				c-0.3,0.03-0.57-0.19-0.6-0.49l-0.39-3.63H16.16l-1.53,13.74h13.64l-0.34-3.07c-0.03-0.3,0.18-0.57,0.49-0.61
				c0.3-0.03,0.57,0.18,0.61,0.49l0.41,3.68c0.02,0.16-0.03,0.31-0.14,0.43C29.19,29.58,29.04,29.65,28.88,29.65z"/>
			<path class="st1" d="M25.15,14.2c-0.3,0-0.55-0.25-0.55-0.55c0-1.76-1.43-3.19-3.19-3.19s-3.19,1.43-3.19,3.19
				c0,0.3-0.25,0.55-0.55,0.55s-0.55-0.25-0.55-0.55c0-2.36,1.92-4.29,4.29-4.29s4.29,1.92,4.29,4.29
				C25.7,13.96,25.45,14.2,25.15,14.2z"/>
		</g>
		<circle class="st2" cx="28.43" cy="25.39" r="1.24"/>
	</g>
</g>
</svg>
