<?xml version="1.0" encoding="utf-8"?>
<!-- Generator: Adobe Illustrator 24.1.1, SVG Export Plug-In . SVG Version: 6.00 Build 0)  -->
<svg version="1.1" id="Capa_1" xmlns="http://www.w3.org/2000/svg" xmlns:xlink="http://www.w3.org/1999/xlink" x="0px" y="0px"
	 viewBox="0 0 183 40" style="enable-background:new 0 0 183 40;" xml:space="preserve">
<style type="text/css">
	.st0{fill:#151E3F;}
	.st1{fill:#FFFFFF;}
	.st2{fill:#F80F49;}
</style>
<g>
	<path class="st0" d="M171.6,37.79H10.61C5.86,37.79,2,33.94,2,29.18V10.82c0-4.76,3.86-8.61,8.61-8.61H171.6
		c4.76,0,8.61,3.86,8.61,8.61v18.36C180.22,33.94,176.36,37.79,171.6,37.79z"/>
	<g>
		<path class="st1" d="M46.56,24.98v1.44h-9.68v-1.13l7.28-9.02h-7.17v-1.44h9.35v1.13l-7.25,9.02H46.56z"/>
		<path class="st1" d="M49.75,25.94c-0.7-0.39-1.24-0.92-1.63-1.6c-0.39-0.68-0.59-1.45-0.59-2.31c0-0.86,0.2-1.63,0.59-2.31
			c0.39-0.68,0.94-1.21,1.63-1.59c0.69-0.38,1.48-0.57,2.35-0.57c0.87,0,1.65,0.19,2.34,0.57c0.69,0.38,1.23,0.91,1.62,1.59
			s0.59,1.45,0.59,2.31c0,0.86-0.2,1.63-0.59,2.31c-0.39,0.68-0.93,1.21-1.62,1.6c-0.69,0.39-1.47,0.58-2.34,0.58
			C51.23,26.52,50.45,26.32,49.75,25.94z M53.62,24.74c0.45-0.26,0.8-0.62,1.05-1.09c0.25-0.47,0.38-1.01,0.38-1.61
			c0-0.61-0.13-1.14-0.38-1.61c-0.25-0.47-0.6-0.83-1.05-1.08c-0.45-0.25-0.95-0.38-1.51-0.38c-0.56,0-1.07,0.13-1.51,0.38
			c-0.45,0.25-0.8,0.62-1.06,1.08c-0.26,0.47-0.39,1.01-0.39,1.61c0,0.61,0.13,1.15,0.39,1.61c0.26,0.47,0.61,0.83,1.06,1.09
			s0.95,0.39,1.51,0.39C52.67,25.13,53.17,25,53.62,24.74z"/>
		<path class="st1" d="M66.2,18.53c0.66,0.65,0.98,1.59,0.98,2.84v5.05h-1.59v-4.87c0-0.85-0.2-1.49-0.61-1.92
			c-0.41-0.43-0.99-0.65-1.75-0.65c-0.86,0-1.54,0.25-2.04,0.75s-0.74,1.22-0.74,2.16v4.52h-1.59v-8.77h1.52v1.32
			c0.32-0.45,0.75-0.8,1.3-1.04c0.55-0.24,1.17-0.36,1.86-0.36C64.65,17.56,65.54,17.88,66.2,18.53z"/>
		<path class="st1" d="M76.11,18.46c0.65,0.6,0.97,1.48,0.97,2.66v5.3h-1.51v-1.16c-0.27,0.41-0.64,0.72-1.13,0.94
			c-0.49,0.21-1.07,0.32-1.75,0.32c-0.98,0-1.77-0.24-2.36-0.71c-0.59-0.47-0.89-1.1-0.89-1.87c0-0.77,0.28-1.39,0.84-1.86
			c0.56-0.47,1.46-0.7,2.68-0.7h2.52v-0.31c0-0.68-0.2-1.21-0.6-1.57c-0.4-0.36-0.98-0.55-1.75-0.55c-0.52,0-1.03,0.09-1.52,0.26
			c-0.5,0.17-0.92,0.4-1.26,0.69l-0.66-1.19c0.45-0.36,0.99-0.64,1.62-0.84s1.3-0.29,2-0.29C74.53,17.56,75.46,17.86,76.11,18.46z
			 M74.53,24.89c0.44-0.27,0.76-0.65,0.96-1.15v-1.22h-2.45c-1.35,0-2.02,0.45-2.02,1.36c0,0.44,0.17,0.79,0.51,1.04
			c0.34,0.25,0.82,0.38,1.42,0.38S74.09,25.16,74.53,24.89z"/>
		<path class="st1" d="M92.75,14.14v12.28h-1.52v-1.39c-0.35,0.49-0.8,0.86-1.34,1.11c-0.54,0.25-1.14,0.38-1.79,0.38
			c-0.85,0-1.61-0.19-2.28-0.56c-0.67-0.38-1.2-0.9-1.58-1.58c-0.38-0.68-0.57-1.46-0.57-2.34c0-0.88,0.19-1.66,0.57-2.33
			c0.38-0.67,0.91-1.2,1.58-1.57s1.43-0.56,2.28-0.56c0.63,0,1.21,0.12,1.74,0.36c0.53,0.24,0.97,0.59,1.32,1.05v-4.83H92.75z
			 M89.74,24.74c0.45-0.26,0.81-0.62,1.06-1.09c0.25-0.47,0.38-1.01,0.38-1.61c0-0.61-0.13-1.14-0.38-1.61
			c-0.25-0.47-0.61-0.83-1.06-1.08c-0.45-0.25-0.95-0.38-1.51-0.38c-0.56,0-1.07,0.13-1.51,0.38c-0.45,0.25-0.8,0.62-1.06,1.08
			c-0.26,0.47-0.39,1.01-0.39,1.61c0,0.61,0.13,1.15,0.39,1.61c0.26,0.47,0.61,0.83,1.06,1.09c0.45,0.26,0.95,0.39,1.51,0.39
			C88.78,25.13,89.29,25,89.74,24.74z"/>
		<path class="st1" d="M103.66,22.56h-7.12c0.1,0.77,0.44,1.39,1.02,1.86c0.58,0.47,1.3,0.7,2.16,0.7c1.05,0,1.89-0.35,2.53-1.06
			l0.88,1.03c-0.4,0.46-0.89,0.82-1.48,1.06c-0.59,0.24-1.25,0.36-1.98,0.36c-0.93,0-1.75-0.19-2.47-0.57
			c-0.72-0.38-1.27-0.91-1.66-1.6c-0.39-0.68-0.59-1.46-0.59-2.32c0-0.85,0.19-1.62,0.57-2.3c0.38-0.68,0.9-1.22,1.57-1.6
			c0.67-0.38,1.42-0.57,2.26-0.57s1.59,0.19,2.24,0.57c0.66,0.38,1.17,0.91,1.54,1.6s0.55,1.47,0.55,2.35
			C103.69,22.2,103.68,22.36,103.66,22.56z M97.44,19.6c-0.51,0.46-0.81,1.07-0.9,1.82h5.63c-0.09-0.74-0.39-1.34-0.9-1.81
			s-1.15-0.7-1.91-0.7S97.96,19.13,97.44,19.6z"/>
		<path class="st1" d="M112.64,25.78c-0.94-0.51-1.67-1.22-2.21-2.13c-0.54-0.9-0.8-1.91-0.8-3.03c0-1.11,0.27-2.12,0.8-3.03
			c0.54-0.9,1.27-1.61,2.21-2.13c0.94-0.51,1.99-0.77,3.16-0.77c1.16,0,2.21,0.26,3.14,0.77c0.94,0.51,1.67,1.22,2.2,2.12
			c0.53,0.9,0.79,1.91,0.79,3.04s-0.27,2.14-0.79,3.04c-0.53,0.9-1.26,1.61-2.2,2.12c-0.94,0.51-1.99,0.77-3.14,0.77
			C114.63,26.55,113.58,26.29,112.64,25.78z M118.1,24.5c0.68-0.39,1.21-0.92,1.61-1.6c0.39-0.68,0.59-1.44,0.59-2.28
			c0-0.84-0.2-1.6-0.59-2.28c-0.39-0.68-0.93-1.21-1.61-1.6s-1.44-0.58-2.29-0.58s-1.62,0.19-2.31,0.58
			c-0.69,0.39-1.23,0.92-1.62,1.6c-0.39,0.68-0.59,1.44-0.59,2.28c0,0.84,0.2,1.6,0.59,2.28c0.39,0.68,0.93,1.21,1.62,1.6
			c0.69,0.39,1.46,0.58,2.31,0.58S117.42,24.88,118.1,24.5z"/>
		<path class="st1" d="M126.03,16.88v0.76h2.55v1.31h-2.52v7.46h-1.59v-7.46h-1.49v-1.31h1.49v-0.78c0-0.87,0.25-1.56,0.76-2.07
			c0.51-0.51,1.22-0.76,2.13-0.76c0.35,0,0.68,0.04,0.99,0.13c0.31,0.09,0.57,0.22,0.79,0.38l-0.48,1.21
			c-0.36-0.28-0.77-0.41-1.22-0.41C126.51,15.34,126.03,15.86,126.03,16.88z"/>
		<path class="st1" d="M137.85,22.56h-7.12c0.1,0.77,0.44,1.39,1.02,1.86c0.58,0.47,1.3,0.7,2.16,0.7c1.05,0,1.89-0.35,2.53-1.06
			l0.88,1.03c-0.4,0.46-0.89,0.82-1.48,1.06c-0.59,0.24-1.25,0.36-1.98,0.36c-0.93,0-1.75-0.19-2.47-0.57
			c-0.72-0.38-1.27-0.91-1.66-1.6c-0.39-0.68-0.59-1.46-0.59-2.32c0-0.85,0.19-1.62,0.57-2.3c0.38-0.68,0.9-1.22,1.57-1.6
			c0.67-0.38,1.42-0.57,2.26-0.57s1.59,0.19,2.24,0.57c0.66,0.38,1.17,0.91,1.54,1.6s0.55,1.47,0.55,2.35
			C137.88,22.2,137.87,22.36,137.85,22.56z M131.63,19.6c-0.51,0.46-0.81,1.07-0.9,1.82h5.63c-0.09-0.74-0.39-1.34-0.9-1.81
			s-1.15-0.7-1.91-0.7S132.15,19.13,131.63,19.6z"/>
		<path class="st1" d="M142.83,17.96c0.54-0.26,1.2-0.4,1.97-0.4v1.54c-0.09-0.01-0.21-0.02-0.36-0.02c-0.86,0-1.54,0.26-2.03,0.77
			c-0.49,0.51-0.74,1.24-0.74,2.19v4.37h-1.59v-8.77h1.52v1.47C141.88,18.61,142.29,18.22,142.83,17.96z"/>
		<path class="st1" d="M152.05,25.9c-0.23,0.2-0.52,0.35-0.86,0.46c-0.34,0.1-0.7,0.16-1.06,0.16c-0.88,0-1.57-0.24-2.05-0.71
			c-0.49-0.47-0.73-1.15-0.73-2.04v-4.82h-1.49v-1.31h1.49v-1.92h1.59v1.92h2.52v1.31h-2.52v4.75c0,0.47,0.12,0.84,0.36,1.09
			s0.58,0.38,1.02,0.38c0.49,0,0.9-0.14,1.24-0.41L152.05,25.9z"/>
		<path class="st1" d="M159.95,18.46c0.65,0.6,0.97,1.48,0.97,2.66v5.3h-1.51v-1.16c-0.26,0.41-0.64,0.72-1.13,0.94
			c-0.49,0.21-1.07,0.32-1.75,0.32c-0.98,0-1.77-0.24-2.36-0.71c-0.59-0.47-0.89-1.1-0.89-1.87c0-0.77,0.28-1.39,0.84-1.86
			c0.56-0.47,1.46-0.7,2.68-0.7h2.52v-0.31c0-0.68-0.2-1.21-0.6-1.57c-0.4-0.36-0.98-0.55-1.75-0.55c-0.52,0-1.03,0.09-1.52,0.26
			c-0.5,0.17-0.92,0.4-1.26,0.69l-0.66-1.19c0.45-0.36,0.99-0.64,1.62-0.84s1.3-0.29,2-0.29C158.38,17.56,159.31,17.86,159.95,18.46
			z M158.37,24.89c0.44-0.27,0.76-0.65,0.96-1.15v-1.22h-2.45c-1.35,0-2.02,0.45-2.02,1.36c0,0.44,0.17,0.79,0.51,1.04
			c0.34,0.25,0.82,0.38,1.42,0.38C157.41,25.29,157.93,25.16,158.37,24.89z"/>
		<path class="st1" d="M164.31,26.23c-0.66-0.19-1.18-0.44-1.56-0.74l0.66-1.26c0.39,0.28,0.86,0.5,1.41,0.66
			c0.55,0.17,1.11,0.25,1.67,0.25c1.39,0,2.09-0.4,2.09-1.19c0-0.26-0.09-0.47-0.28-0.63c-0.19-0.15-0.42-0.27-0.7-0.34
			c-0.28-0.07-0.68-0.15-1.2-0.24c-0.71-0.11-1.28-0.24-1.73-0.38c-0.45-0.14-0.83-0.39-1.15-0.73c-0.32-0.34-0.48-0.82-0.48-1.44
			c0-0.79,0.33-1.43,0.99-1.91c0.66-0.48,1.55-0.72,2.66-0.72c0.58,0,1.17,0.07,1.75,0.21c0.58,0.14,1.06,0.34,1.44,0.58l-0.68,1.26
			c-0.72-0.46-1.56-0.69-2.53-0.69c-0.67,0-1.19,0.11-1.54,0.33c-0.35,0.22-0.53,0.51-0.53,0.88c0,0.29,0.1,0.51,0.3,0.68
			s0.44,0.29,0.74,0.36c0.29,0.08,0.7,0.17,1.23,0.26c0.71,0.12,1.28,0.25,1.71,0.39c0.44,0.14,0.81,0.37,1.12,0.7
			c0.31,0.33,0.46,0.79,0.46,1.39c0,0.79-0.34,1.43-1.02,1.9c-0.68,0.47-1.6,0.7-2.77,0.7C165.66,26.52,164.98,26.42,164.31,26.23z"
			/>
	</g>
	<g>
		<path class="st1" d="M19.63,29.49c-0.16,0-0.31-0.06-0.43-0.18l-7.95-7.95c-0.24-0.24-0.24-0.62,0-0.85l7.38-7.38
			c0.05-0.05,0.1-0.08,0.16-0.11l4.88-2.44c0.23-0.12,0.51-0.07,0.7,0.11l5.51,5.51c0.18,0.18,0.23,0.46,0.12,0.69l-2.32,4.76
			c-0.15,0.3-0.51,0.42-0.81,0.28c-0.3-0.15-0.42-0.51-0.28-0.81l2.13-4.37l-4.9-4.9l-4.4,2.2l-6.88,6.88l7.1,7.1l2.04-2.04
			c0.23-0.24,0.62-0.24,0.85,0s0.24,0.62,0,0.85l-2.47,2.47C19.94,29.42,19.79,29.49,19.63,29.49z"/>
		<g>
			<g>
				<path class="st1" d="M23.73,15.93c-0.24,0-0.45,0.09-0.63,0.27c-0.36,0.36-0.36,0.93,0,1.26c0.18,0.18,0.42,0.27,0.63,0.27
					s0.45-0.09,0.63-0.27c0.36-0.36,0.36-0.93,0-1.26C24.21,16.02,23.97,15.93,23.73,15.93L23.73,15.93z"/>
			</g>
		</g>
		<path class="st2" d="M22.1,25.06c0.75,0,1.36,0.61,1.36,1.36c0,0.75-0.61,1.36-1.36,1.36c-0.75,0-1.36-0.61-1.36-1.36
			C20.75,25.67,21.35,25.06,22.1,25.06z"/>
	</g>
</g>
</svg>
