<?xml version="1.0" encoding="utf-8"?>
<!-- Generator: Adobe Illustrator 24.1.1, SVG Export Plug-In . SVG Version: 6.00 Build 0)  -->
<svg version="1.1" id="Capa_1" xmlns="http://www.w3.org/2000/svg" xmlns:xlink="http://www.w3.org/1999/xlink" x="0px" y="0px"
	 viewBox="0 0 213 40" style="enable-background:new 0 0 213 40;" xml:space="preserve">
<style type="text/css">
	.st0{fill:#151E3F;}
	.st1{fill:#FFFFFF;}
	.st2{fill:#F80F49;}
</style>
<g>
	<path class="st0" d="M201.62,37.79H11.38c-4.76,0-8.61-3.86-8.61-8.61V10.82c0-4.76,3.86-8.61,8.61-8.61h190.24
		c4.76,0,8.61,3.86,8.61,8.61v18.36C210.24,33.94,206.38,37.79,201.62,37.79z"/>
	<g>
		<path class="st1" d="M39.14,28.33c-0.71-0.51-1.07-1.2-1.07-2.06c0-0.44,0.07-0.83,0.22-1.17s0.33-0.63,0.54-0.86
			c0.21-0.23,0.49-0.5,0.83-0.81c0.44-0.38,0.77-0.71,0.99-1.02c0.22-0.3,0.33-0.67,0.33-1.1h1.65c0,0.42-0.07,0.79-0.22,1.12
			s-0.33,0.6-0.55,0.83c-0.22,0.23-0.5,0.49-0.85,0.8c-0.44,0.4-0.77,0.73-0.98,1.01c-0.21,0.28-0.31,0.61-0.31,0.99
			c0,0.46,0.21,0.85,0.65,1.17c0.43,0.31,1,0.47,1.72,0.47c1.29,0,2.28-0.44,2.96-1.31l1.21,0.86c-0.46,0.6-1.05,1.05-1.77,1.37
			c-0.72,0.32-1.55,0.48-2.5,0.48C40.8,29.1,39.85,28.84,39.14,28.33z M41.04,19.38c-0.2-0.2-0.31-0.45-0.31-0.74
			s0.1-0.55,0.31-0.76s0.46-0.31,0.77-0.31c0.31,0,0.57,0.1,0.77,0.31c0.2,0.21,0.31,0.46,0.31,0.76c0,0.29-0.1,0.53-0.31,0.74
			c-0.2,0.2-0.46,0.31-0.77,0.31C41.5,19.68,41.25,19.58,41.04,19.38z"/>
		<path class="st1" d="M51.29,22.41v4.01h-1.64v-4.04l-4.6-7.55h1.77l3.71,6.11l3.72-6.11h1.64L51.29,22.41z"/>
		<path class="st1" d="M62.24,18.46c0.65,0.6,0.97,1.48,0.97,2.66v5.3H61.7v-1.16c-0.27,0.41-0.64,0.72-1.13,0.94
			c-0.49,0.21-1.07,0.32-1.75,0.32c-0.98,0-1.77-0.24-2.36-0.71c-0.59-0.47-0.89-1.1-0.89-1.87c0-0.77,0.28-1.39,0.84-1.86
			c0.56-0.47,1.46-0.7,2.68-0.7h2.52v-0.31c0-0.68-0.2-1.21-0.6-1.57c-0.4-0.36-0.98-0.55-1.75-0.55c-0.52,0-1.03,0.09-1.52,0.26
			c-0.5,0.17-0.92,0.4-1.26,0.69l-0.66-1.19c0.45-0.36,0.99-0.64,1.62-0.84s1.3-0.29,2-0.29C60.67,17.56,61.6,17.86,62.24,18.46z
			 M60.66,24.89c0.44-0.27,0.76-0.65,0.96-1.15v-1.22h-2.45c-1.35,0-2.02,0.45-2.02,1.36c0,0.44,0.17,0.79,0.51,1.04
			c0.34,0.25,0.82,0.38,1.42,0.38C59.7,25.29,60.22,25.16,60.66,24.89z"/>
		<path class="st1" d="M70.61,14.14h1.59v12.28h-1.59V14.14z"/>
		<path class="st1" d="M76.63,25.94c-0.7-0.39-1.24-0.92-1.63-1.6c-0.39-0.68-0.59-1.45-0.59-2.31c0-0.86,0.2-1.63,0.59-2.31
			c0.39-0.68,0.94-1.21,1.63-1.59c0.69-0.38,1.48-0.57,2.35-0.57c0.87,0,1.65,0.19,2.34,0.57c0.69,0.38,1.23,0.91,1.62,1.59
			s0.59,1.45,0.59,2.31c0,0.86-0.2,1.63-0.59,2.31c-0.39,0.68-0.93,1.21-1.62,1.6c-0.69,0.39-1.47,0.58-2.34,0.58
			C78.11,26.52,77.33,26.32,76.63,25.94z M80.5,24.74c0.45-0.26,0.8-0.62,1.05-1.09c0.25-0.47,0.38-1.01,0.38-1.61
			c0-0.61-0.13-1.14-0.38-1.61c-0.25-0.47-0.6-0.83-1.05-1.08c-0.45-0.25-0.95-0.38-1.51-0.38c-0.56,0-1.07,0.13-1.51,0.38
			c-0.45,0.25-0.8,0.62-1.06,1.08c-0.26,0.47-0.39,1.01-0.39,1.61c0,0.61,0.13,1.15,0.39,1.61c0.26,0.47,0.61,0.83,1.06,1.09
			s0.95,0.39,1.51,0.39C79.55,25.13,80.05,25,80.5,24.74z"/>
		<path class="st1" d="M98.46,14.14v12.28h-1.52v-1.39c-0.35,0.49-0.8,0.86-1.34,1.11c-0.54,0.25-1.14,0.38-1.79,0.38
			c-0.85,0-1.61-0.19-2.28-0.56c-0.67-0.38-1.2-0.9-1.58-1.58c-0.38-0.68-0.57-1.46-0.57-2.34c0-0.88,0.19-1.66,0.57-2.33
			c0.38-0.67,0.91-1.2,1.58-1.57c0.67-0.38,1.43-0.56,2.28-0.56c0.63,0,1.21,0.12,1.74,0.36c0.53,0.24,0.97,0.59,1.32,1.05v-4.83
			H98.46z M95.45,24.74c0.45-0.26,0.81-0.62,1.06-1.09c0.25-0.47,0.38-1.01,0.38-1.61c0-0.61-0.13-1.14-0.38-1.61
			c-0.25-0.47-0.61-0.83-1.06-1.08c-0.45-0.25-0.95-0.38-1.51-0.38c-0.56,0-1.07,0.13-1.51,0.38c-0.45,0.25-0.8,0.62-1.06,1.08
			c-0.26,0.47-0.39,1.01-0.39,1.61c0,0.61,0.13,1.15,0.39,1.61c0.26,0.47,0.61,0.83,1.06,1.09s0.95,0.39,1.51,0.39
			C94.5,25.13,95,25,95.45,24.74z"/>
		<path class="st1" d="M109.37,22.56h-7.12c0.1,0.77,0.44,1.39,1.02,1.86c0.58,0.47,1.3,0.7,2.16,0.7c1.05,0,1.89-0.35,2.53-1.06
			l0.88,1.03c-0.4,0.46-0.89,0.82-1.48,1.06s-1.25,0.36-1.98,0.36c-0.93,0-1.75-0.19-2.47-0.57c-0.72-0.38-1.27-0.91-1.66-1.6
			c-0.39-0.68-0.59-1.46-0.59-2.32c0-0.85,0.19-1.62,0.57-2.3s0.9-1.22,1.57-1.6c0.67-0.38,1.42-0.57,2.26-0.57
			c0.84,0,1.59,0.19,2.24,0.57c0.66,0.38,1.17,0.91,1.54,1.6c0.37,0.68,0.55,1.47,0.55,2.35C109.4,22.2,109.39,22.36,109.37,22.56z
			 M103.15,19.6c-0.51,0.46-0.81,1.07-0.9,1.82h5.63c-0.09-0.74-0.39-1.34-0.9-1.81c-0.51-0.47-1.15-0.7-1.91-0.7
			S103.67,19.13,103.15,19.6z"/>
		<path class="st1" d="M113.03,25.94c-0.7-0.39-1.25-0.92-1.65-1.6c-0.4-0.68-0.6-1.45-0.6-2.31c0-0.86,0.2-1.63,0.6-2.31
			c0.4-0.68,0.95-1.21,1.65-1.59s1.5-0.57,2.39-0.57c0.79,0,1.5,0.16,2.13,0.48c0.62,0.32,1.11,0.78,1.45,1.39l-1.21,0.78
			c-0.28-0.42-0.62-0.73-1.03-0.94s-0.86-0.31-1.36-0.31c-0.57,0-1.09,0.13-1.55,0.38c-0.46,0.25-0.82,0.62-1.08,1.08
			c-0.26,0.47-0.39,1.01-0.39,1.61c0,0.62,0.13,1.16,0.39,1.63c0.26,0.47,0.62,0.83,1.08,1.08c0.46,0.25,0.97,0.38,1.55,0.38
			c0.5,0,0.95-0.1,1.36-0.31s0.75-0.52,1.03-0.94l1.21,0.76c-0.34,0.61-0.82,1.07-1.45,1.4c-0.62,0.33-1.33,0.49-2.13,0.49
			C114.53,26.52,113.74,26.32,113.03,25.94z"/>
		<path class="st1" d="M121.08,15.66c-0.2-0.2-0.31-0.44-0.31-0.73c0-0.29,0.1-0.53,0.31-0.74s0.46-0.31,0.77-0.31
			c0.31,0,0.57,0.1,0.77,0.29c0.2,0.19,0.31,0.43,0.31,0.72c0,0.3-0.1,0.55-0.31,0.75s-0.46,0.31-0.77,0.31
			C121.54,15.96,121.28,15.86,121.08,15.66z M121.05,17.65h1.59v8.77h-1.59V17.65z"/>
		<path class="st1" d="M133.95,14.14v12.28h-1.52v-1.39c-0.35,0.49-0.8,0.86-1.34,1.11c-0.54,0.25-1.14,0.38-1.79,0.38
			c-0.85,0-1.61-0.19-2.28-0.56c-0.67-0.38-1.2-0.9-1.58-1.58c-0.38-0.68-0.57-1.46-0.57-2.34c0-0.88,0.19-1.66,0.57-2.33
			c0.38-0.67,0.91-1.2,1.58-1.57s1.43-0.56,2.28-0.56c0.63,0,1.21,0.12,1.74,0.36c0.53,0.24,0.97,0.59,1.32,1.05v-4.83H133.95z
			 M130.93,24.74c0.45-0.26,0.81-0.62,1.06-1.09c0.25-0.47,0.38-1.01,0.38-1.61c0-0.61-0.13-1.14-0.38-1.61
			c-0.25-0.47-0.61-0.83-1.06-1.08c-0.45-0.25-0.95-0.38-1.51-0.38c-0.56,0-1.07,0.13-1.51,0.38c-0.45,0.25-0.8,0.62-1.06,1.08
			c-0.26,0.47-0.39,1.01-0.39,1.61c0,0.61,0.13,1.15,0.39,1.61c0.26,0.47,0.61,0.83,1.06,1.09c0.45,0.26,0.95,0.39,1.51,0.39
			C129.98,25.13,130.48,25,130.93,24.74z"/>
		<path class="st1" d="M136.98,15.66c-0.2-0.2-0.31-0.44-0.31-0.73c0-0.29,0.1-0.53,0.31-0.74c0.2-0.2,0.46-0.31,0.77-0.31
			c0.31,0,0.57,0.1,0.77,0.29c0.2,0.19,0.31,0.43,0.31,0.72c0,0.3-0.1,0.55-0.31,0.75s-0.46,0.31-0.77,0.31
			C137.44,15.96,137.19,15.86,136.98,15.66z M136.96,17.65h1.59v8.77h-1.59V17.65z"/>
		<path class="st1" d="M142.02,26.23c-0.66-0.19-1.18-0.44-1.56-0.74l0.66-1.26c0.39,0.28,0.85,0.5,1.41,0.66s1.11,0.25,1.67,0.25
			c1.39,0,2.08-0.4,2.08-1.19c0-0.26-0.09-0.47-0.28-0.63c-0.19-0.15-0.42-0.27-0.7-0.34c-0.28-0.07-0.68-0.15-1.2-0.24
			c-0.71-0.11-1.28-0.24-1.73-0.38c-0.45-0.14-0.83-0.39-1.15-0.73c-0.32-0.34-0.48-0.82-0.48-1.44c0-0.79,0.33-1.43,0.99-1.91
			s1.55-0.72,2.66-0.72c0.58,0,1.17,0.07,1.75,0.21c0.58,0.14,1.06,0.34,1.44,0.58l-0.68,1.26c-0.72-0.46-1.56-0.69-2.53-0.69
			c-0.67,0-1.19,0.11-1.54,0.33s-0.53,0.51-0.53,0.88c0,0.29,0.1,0.51,0.3,0.68c0.2,0.17,0.44,0.29,0.74,0.36
			c0.29,0.08,0.7,0.17,1.23,0.26c0.71,0.12,1.28,0.25,1.71,0.39c0.44,0.14,0.81,0.37,1.12,0.7s0.46,0.79,0.46,1.39
			c0,0.79-0.34,1.43-1.02,1.9c-0.68,0.47-1.6,0.7-2.77,0.7C143.37,26.52,142.68,26.42,142.02,26.23z"/>
		<path class="st1" d="M154.8,25.9c-0.23,0.2-0.52,0.35-0.86,0.46c-0.34,0.1-0.7,0.16-1.06,0.16c-0.88,0-1.57-0.24-2.05-0.71
			c-0.49-0.47-0.73-1.15-0.73-2.04v-4.82h-1.49v-1.31h1.49v-1.92h1.59v1.92h2.52v1.31h-2.52v4.75c0,0.47,0.12,0.84,0.36,1.09
			c0.24,0.25,0.58,0.38,1.02,0.38c0.49,0,0.9-0.14,1.24-0.41L154.8,25.9z"/>
		<path class="st1" d="M164.32,22.56h-7.12c0.1,0.77,0.44,1.39,1.02,1.86c0.58,0.47,1.3,0.7,2.16,0.7c1.05,0,1.89-0.35,2.53-1.06
			l0.88,1.03c-0.4,0.46-0.89,0.82-1.48,1.06c-0.59,0.24-1.25,0.36-1.98,0.36c-0.93,0-1.75-0.19-2.47-0.57
			c-0.72-0.38-1.27-0.91-1.66-1.6c-0.39-0.68-0.59-1.46-0.59-2.32c0-0.85,0.19-1.62,0.57-2.3c0.38-0.68,0.9-1.22,1.57-1.6
			s1.42-0.57,2.26-0.57s1.59,0.19,2.24,0.57c0.66,0.38,1.17,0.91,1.54,1.6s0.55,1.47,0.55,2.35
			C164.35,22.2,164.34,22.36,164.32,22.56z M158.1,19.6c-0.51,0.46-0.81,1.07-0.9,1.82h5.63c-0.09-0.74-0.39-1.34-0.9-1.81
			c-0.51-0.47-1.15-0.7-1.91-0.7S158.61,19.13,158.1,19.6z"/>
		<path class="st1" d="M168.26,21.59c0.15-0.34,0.33-0.62,0.55-0.85c0.22-0.23,0.5-0.51,0.85-0.83c0.44-0.39,0.77-0.72,0.98-1
			c0.21-0.28,0.31-0.62,0.31-1.02c0-0.54-0.21-0.97-0.63-1.3c-0.42-0.33-1-0.49-1.74-0.49c-1.29,0-2.28,0.44-2.96,1.31l-1.21-0.86
			c0.46-0.6,1.06-1.05,1.78-1.37s1.56-0.48,2.51-0.48c1.2,0,2.16,0.26,2.86,0.79s1.06,1.24,1.06,2.16c0,0.45-0.08,0.85-0.22,1.2
			c-0.15,0.35-0.33,0.64-0.54,0.87s-0.49,0.51-0.84,0.83c-0.45,0.41-0.79,0.77-1,1.08c-0.22,0.31-0.32,0.69-0.32,1.14h-1.66
			C168.04,22.32,168.11,21.93,168.26,21.59z M168.11,26.21c-0.2-0.2-0.31-0.46-0.31-0.75s0.1-0.55,0.31-0.75
			c0.2-0.2,0.46-0.31,0.77-0.31c0.31,0,0.56,0.1,0.76,0.31c0.2,0.2,0.3,0.46,0.3,0.75s-0.1,0.55-0.31,0.75s-0.46,0.31-0.75,0.31
			C168.57,26.52,168.32,26.41,168.11,26.21z"/>
	</g>
	<g>
		<g>
			<path class="st1" d="M29.65,29.65H14.78c-0.16,0-0.31-0.07-0.41-0.18c-0.1-0.12-0.15-0.27-0.14-0.43l1.65-14.84
				c0.03-0.28,0.27-0.49,0.55-0.49H28c0.28,0,0.52,0.21,0.55,0.49l0.44,4.12c0.03,0.3-0.19,0.57-0.49,0.6
				c-0.3,0.03-0.57-0.19-0.6-0.49l-0.39-3.63H16.92l-1.53,13.74h13.64l-0.34-3.07c-0.03-0.3,0.18-0.57,0.49-0.61
				c0.3-0.03,0.57,0.18,0.61,0.49l0.41,3.68c0.02,0.16-0.03,0.31-0.14,0.43C29.95,29.58,29.8,29.65,29.65,29.65z"/>
			<path class="st1" d="M25.91,14.2c-0.3,0-0.55-0.25-0.55-0.55c0-1.76-1.43-3.19-3.19-3.19c-1.76,0-3.19,1.43-3.19,3.19
				c0,0.3-0.25,0.55-0.55,0.55s-0.55-0.25-0.55-0.55c0-2.36,1.92-4.29,4.29-4.29s4.29,1.92,4.29,4.29
				C26.46,13.96,26.21,14.2,25.91,14.2z"/>
		</g>
		<circle class="st2" cx="29.2" cy="25.39" r="1.24"/>
	</g>
</g>
</svg>
