<?xml version="1.0" encoding="utf-8"?>
<!-- Generator: Adobe Illustrator 24.1.1, SVG Export Plug-In . SVG Version: 6.00 Build 0)  -->
<svg version="1.1" id="Capa_1" xmlns="http://www.w3.org/2000/svg" xmlns:xlink="http://www.w3.org/1999/xlink" x="0px" y="0px"
	 viewBox="0 0 213 40" style="enable-background:new 0 0 213 40;" xml:space="preserve">
<style type="text/css">
	.st0{fill:#151E3F;}
	.st1{fill:#FFFFFF;}
	.st2{fill:#F80F49;}
</style>
<g>
	<path class="st0" d="M201.12,37.79H10.88c-4.76,0-8.61-3.86-8.61-8.61V10.82c0-4.76,3.86-8.61,8.61-8.61h190.24
		c4.76,0,8.61,3.86,8.61,8.61v18.36C209.74,33.94,205.88,37.79,201.12,37.79z"/>
	<g>
		<path class="st1" d="M38.64,28.33c-0.71-0.51-1.07-1.2-1.07-2.06c0-0.44,0.07-0.83,0.22-1.17s0.33-0.63,0.54-0.86
			c0.21-0.23,0.49-0.5,0.83-0.81c0.44-0.38,0.77-0.71,0.99-1.02c0.22-0.3,0.33-0.67,0.33-1.1h1.65c0,0.42-0.07,0.79-0.22,1.12
			s-0.33,0.6-0.55,0.83c-0.22,0.23-0.5,0.49-0.85,0.8c-0.44,0.4-0.77,0.73-0.98,1.01c-0.21,0.28-0.31,0.61-0.31,0.99
			c0,0.46,0.21,0.85,0.65,1.17c0.43,0.31,1,0.47,1.72,0.47c1.29,0,2.28-0.44,2.96-1.31l1.21,0.86c-0.46,0.6-1.05,1.05-1.77,1.37
			c-0.72,0.32-1.55,0.48-2.5,0.48C40.3,29.1,39.35,28.84,38.64,28.33z M40.54,19.38c-0.2-0.2-0.31-0.45-0.31-0.74
			s0.1-0.55,0.31-0.76s0.46-0.31,0.77-0.31c0.31,0,0.57,0.1,0.77,0.31c0.2,0.21,0.31,0.46,0.31,0.76c0,0.29-0.1,0.53-0.31,0.74
			c-0.2,0.2-0.46,0.31-0.77,0.31C41,19.68,40.75,19.58,40.54,19.38z"/>
		<path class="st1" d="M55.71,15.91c0.86,0.72,1.29,1.7,1.29,2.96s-0.43,2.25-1.29,2.96c-0.86,0.72-2.04,1.08-3.54,1.08H49.3v3.51
			h-1.66V14.83h4.52C53.67,14.83,54.85,15.19,55.71,15.91z M54.52,20.8c0.55-0.45,0.83-1.09,0.83-1.93c0-0.84-0.28-1.48-0.83-1.93
			c-0.55-0.45-1.35-0.67-2.4-0.67H49.3v5.2h2.81C53.17,21.47,53.97,21.24,54.52,20.8z"/>
		<path class="st1" d="M60.58,25.94c-0.7-0.39-1.24-0.92-1.63-1.6c-0.39-0.68-0.59-1.45-0.59-2.31c0-0.86,0.2-1.63,0.59-2.31
			s0.94-1.21,1.63-1.59s1.48-0.57,2.35-0.57s1.65,0.19,2.34,0.57s1.23,0.91,1.62,1.59s0.59,1.45,0.59,2.31
			c0,0.86-0.2,1.63-0.59,2.31c-0.39,0.68-0.93,1.21-1.62,1.6c-0.69,0.39-1.47,0.58-2.34,0.58S61.27,26.32,60.58,25.94z M64.44,24.74
			c0.45-0.26,0.8-0.62,1.05-1.09c0.25-0.47,0.38-1.01,0.38-1.61c0-0.61-0.13-1.14-0.38-1.61c-0.25-0.47-0.6-0.83-1.05-1.08
			c-0.45-0.25-0.95-0.38-1.51-0.38c-0.56,0-1.07,0.13-1.51,0.38c-0.45,0.25-0.8,0.62-1.06,1.08c-0.26,0.47-0.39,1.01-0.39,1.61
			c0,0.61,0.13,1.15,0.39,1.61c0.26,0.47,0.61,0.83,1.06,1.09c0.45,0.26,0.95,0.39,1.51,0.39C63.49,25.13,63.99,25,64.44,24.74z"/>
		<path class="st1" d="M72.43,17.96c0.54-0.26,1.2-0.4,1.97-0.4v1.54c-0.09-0.01-0.21-0.02-0.36-0.02c-0.86,0-1.54,0.26-2.03,0.77
			c-0.49,0.51-0.74,1.24-0.74,2.19v4.37h-1.59v-8.77h1.52v1.47C71.48,18.61,71.88,18.22,72.43,17.96z"/>
		<path class="st1" d="M89.19,17.65v11.98H87.6v-4.53c-0.36,0.46-0.81,0.82-1.33,1.06c-0.52,0.24-1.1,0.36-1.73,0.36
			c-0.85,0-1.61-0.19-2.28-0.56c-0.67-0.38-1.2-0.9-1.58-1.58c-0.38-0.68-0.57-1.46-0.57-2.34c0-0.88,0.19-1.66,0.57-2.33
			c0.38-0.67,0.91-1.2,1.58-1.57s1.43-0.56,2.28-0.56c0.65,0,1.25,0.12,1.79,0.37c0.54,0.25,0.99,0.62,1.34,1.1v-1.39H89.19z
			 M86.18,24.74c0.45-0.26,0.81-0.62,1.06-1.09c0.25-0.47,0.38-1.01,0.38-1.61c0-0.61-0.13-1.14-0.39-1.6
			c-0.26-0.46-0.61-0.83-1.06-1.08c-0.45-0.26-0.95-0.39-1.5-0.39c-0.56,0-1.07,0.13-1.51,0.38c-0.45,0.25-0.8,0.62-1.06,1.08
			c-0.26,0.47-0.39,1.01-0.39,1.61c0,0.61,0.13,1.15,0.39,1.61c0.26,0.47,0.61,0.83,1.06,1.09s0.95,0.39,1.51,0.39
			C85.22,25.13,85.73,25,86.18,24.74z"/>
		<path class="st1" d="M100.38,17.65v8.77h-1.51v-1.32c-0.32,0.45-0.74,0.8-1.27,1.05c-0.52,0.25-1.1,0.37-1.71,0.37
			c-1.17,0-2.09-0.32-2.76-0.97c-0.67-0.65-1.01-1.6-1.01-2.85v-5.05h1.59v4.87c0,0.85,0.2,1.49,0.61,1.93
			c0.41,0.44,0.99,0.65,1.75,0.65c0.84,0,1.5-0.25,1.99-0.76c0.49-0.51,0.73-1.23,0.73-2.15v-4.53H100.38z"/>
		<path class="st1" d="M111.3,22.56h-7.12c0.1,0.77,0.44,1.39,1.02,1.86c0.58,0.47,1.3,0.7,2.16,0.7c1.05,0,1.89-0.35,2.53-1.06
			l0.88,1.03c-0.4,0.46-0.89,0.82-1.48,1.06c-0.59,0.24-1.25,0.36-1.98,0.36c-0.93,0-1.75-0.19-2.47-0.57
			c-0.72-0.38-1.27-0.91-1.66-1.6c-0.39-0.68-0.59-1.46-0.59-2.32c0-0.85,0.19-1.62,0.57-2.3c0.38-0.68,0.9-1.22,1.57-1.6
			c0.67-0.38,1.42-0.57,2.26-0.57s1.59,0.19,2.24,0.57c0.66,0.38,1.17,0.91,1.54,1.6s0.55,1.47,0.55,2.35
			C111.33,22.2,111.32,22.36,111.3,22.56z M105.09,19.6c-0.51,0.46-0.81,1.07-0.9,1.82h5.63c-0.09-0.74-0.39-1.34-0.9-1.81
			s-1.15-0.7-1.91-0.7S105.6,19.13,105.09,19.6z M107.99,14.22h2.02l-2.78,2.15h-1.49L107.99,14.22z"/>
		<path class="st1" d="M125.33,18.53c0.66,0.65,0.98,1.59,0.98,2.84v5.05h-1.59v-4.87c0-0.85-0.2-1.49-0.61-1.92
			c-0.41-0.43-0.99-0.65-1.75-0.65c-0.86,0-1.54,0.25-2.04,0.75c-0.5,0.5-0.75,1.22-0.75,2.16v4.52h-1.59v-8.77h1.52v1.32
			c0.32-0.45,0.75-0.8,1.3-1.04c0.55-0.24,1.17-0.36,1.86-0.36C123.79,17.56,124.67,17.88,125.33,18.53z"/>
		<path class="st1" d="M130.71,25.94c-0.7-0.39-1.24-0.92-1.63-1.6c-0.39-0.68-0.59-1.45-0.59-2.31c0-0.86,0.2-1.63,0.59-2.31
			c0.39-0.68,0.94-1.21,1.63-1.59c0.69-0.38,1.48-0.57,2.35-0.57c0.87,0,1.65,0.19,2.34,0.57c0.69,0.38,1.23,0.91,1.62,1.59
			s0.59,1.45,0.59,2.31c0,0.86-0.2,1.63-0.59,2.31c-0.39,0.68-0.93,1.21-1.62,1.6c-0.69,0.39-1.47,0.58-2.34,0.58
			C132.19,26.52,131.41,26.32,130.71,25.94z M134.58,24.74c0.45-0.26,0.8-0.62,1.05-1.09c0.25-0.47,0.38-1.01,0.38-1.61
			c0-0.61-0.13-1.14-0.38-1.61c-0.25-0.47-0.6-0.83-1.05-1.08c-0.45-0.25-0.95-0.38-1.51-0.38c-0.56,0-1.07,0.13-1.51,0.38
			c-0.45,0.25-0.8,0.62-1.06,1.08c-0.26,0.47-0.39,1.01-0.39,1.61c0,0.61,0.13,1.15,0.39,1.61c0.26,0.47,0.61,0.83,1.06,1.09
			s0.95,0.39,1.51,0.39C133.63,25.13,134.13,25,134.58,24.74z"/>
		<path class="st1" d="M140.26,26.23c-0.66-0.19-1.18-0.44-1.56-0.74l0.66-1.26c0.39,0.28,0.85,0.5,1.41,0.66s1.11,0.25,1.67,0.25
			c1.39,0,2.09-0.4,2.09-1.19c0-0.26-0.09-0.47-0.28-0.63c-0.19-0.15-0.42-0.27-0.7-0.34c-0.28-0.07-0.68-0.15-1.2-0.24
			c-0.71-0.11-1.28-0.24-1.73-0.38c-0.45-0.14-0.83-0.39-1.15-0.73c-0.32-0.34-0.48-0.82-0.48-1.44c0-0.79,0.33-1.43,0.99-1.91
			s1.55-0.72,2.67-0.72c0.58,0,1.17,0.07,1.75,0.21c0.58,0.14,1.06,0.34,1.44,0.58l-0.68,1.26c-0.72-0.46-1.56-0.69-2.53-0.69
			c-0.67,0-1.19,0.11-1.54,0.33c-0.35,0.22-0.53,0.51-0.53,0.88c0,0.29,0.1,0.51,0.3,0.68s0.44,0.29,0.74,0.36s0.7,0.17,1.23,0.26
			c0.71,0.12,1.28,0.25,1.71,0.39c0.44,0.14,0.81,0.37,1.12,0.7c0.31,0.33,0.46,0.79,0.46,1.39c0,0.79-0.34,1.43-1.02,1.9
			c-0.68,0.47-1.6,0.7-2.77,0.7C141.62,26.52,140.93,26.42,140.26,26.23z"/>
		<path class="st1" d="M149.52,25.94c-0.7-0.39-1.24-0.92-1.63-1.6c-0.39-0.68-0.59-1.45-0.59-2.31c0-0.86,0.2-1.63,0.59-2.31
			s0.94-1.21,1.63-1.59s1.48-0.57,2.35-0.57s1.65,0.19,2.34,0.57c0.69,0.38,1.23,0.91,1.62,1.59c0.39,0.68,0.59,1.45,0.59,2.31
			c0,0.86-0.2,1.63-0.59,2.31c-0.39,0.68-0.93,1.21-1.62,1.6c-0.69,0.39-1.47,0.58-2.34,0.58S150.21,26.32,149.52,25.94z
			 M153.38,24.74c0.45-0.26,0.8-0.62,1.05-1.09c0.25-0.47,0.38-1.01,0.38-1.61c0-0.61-0.13-1.14-0.38-1.61
			c-0.25-0.47-0.6-0.83-1.05-1.08c-0.45-0.25-0.95-0.38-1.51-0.38c-0.56,0-1.07,0.13-1.51,0.38c-0.45,0.25-0.8,0.62-1.06,1.08
			c-0.26,0.47-0.39,1.01-0.39,1.61c0,0.61,0.13,1.15,0.39,1.61c0.26,0.47,0.61,0.83,1.06,1.09c0.45,0.26,0.95,0.39,1.51,0.39
			C152.43,25.13,152.93,25,153.38,24.74z"/>
		<path class="st1" d="M163.55,25.9c-0.23,0.2-0.52,0.35-0.86,0.46c-0.34,0.1-0.7,0.16-1.06,0.16c-0.88,0-1.57-0.24-2.05-0.71
			c-0.49-0.47-0.73-1.15-0.73-2.04v-4.82h-1.49v-1.31h1.49v-1.92h1.59v1.92h2.52v1.31h-2.52v4.75c0,0.47,0.12,0.84,0.36,1.09
			s0.58,0.38,1.02,0.38c0.49,0,0.9-0.14,1.24-0.41L163.55,25.9z"/>
		<path class="st1" d="M168.22,17.96c0.54-0.26,1.2-0.4,1.97-0.4v1.54c-0.09-0.01-0.21-0.02-0.36-0.02c-0.86,0-1.54,0.26-2.03,0.77
			s-0.74,1.24-0.74,2.19v4.37h-1.59v-8.77h1.52v1.47C167.27,18.61,167.68,18.22,168.22,17.96z"/>
		<path class="st1" d="M173.46,25.94c-0.7-0.39-1.24-0.92-1.63-1.6c-0.39-0.68-0.59-1.45-0.59-2.31c0-0.86,0.2-1.63,0.59-2.31
			s0.94-1.21,1.63-1.59c0.69-0.38,1.48-0.57,2.35-0.57s1.65,0.19,2.34,0.57s1.23,0.91,1.62,1.59s0.59,1.45,0.59,2.31
			c0,0.86-0.2,1.63-0.59,2.31c-0.39,0.68-0.93,1.21-1.62,1.6c-0.69,0.39-1.47,0.58-2.34,0.58S174.16,26.32,173.46,25.94z
			 M177.33,24.74c0.45-0.26,0.8-0.62,1.05-1.09c0.25-0.47,0.38-1.01,0.38-1.61c0-0.61-0.13-1.14-0.38-1.61
			c-0.25-0.47-0.6-0.83-1.05-1.08c-0.45-0.25-0.95-0.38-1.51-0.38s-1.07,0.13-1.51,0.38c-0.45,0.25-0.8,0.62-1.06,1.08
			c-0.26,0.47-0.39,1.01-0.39,1.61c0,0.61,0.13,1.15,0.39,1.61c0.26,0.47,0.61,0.83,1.06,1.09c0.45,0.26,0.95,0.39,1.51,0.39
			S176.88,25,177.33,24.74z"/>
		<path class="st1" d="M183.01,26.23c-0.66-0.19-1.18-0.44-1.56-0.74l0.66-1.26c0.39,0.28,0.86,0.5,1.41,0.66
			c0.55,0.17,1.11,0.25,1.67,0.25c1.39,0,2.09-0.4,2.09-1.19c0-0.26-0.09-0.47-0.28-0.63c-0.19-0.15-0.42-0.27-0.7-0.34
			c-0.28-0.07-0.68-0.15-1.2-0.24c-0.71-0.11-1.28-0.24-1.73-0.38c-0.45-0.14-0.83-0.39-1.15-0.73c-0.32-0.34-0.48-0.82-0.48-1.44
			c0-0.79,0.33-1.43,0.99-1.91s1.55-0.72,2.67-0.72c0.58,0,1.17,0.07,1.75,0.21c0.58,0.14,1.06,0.34,1.44,0.58l-0.68,1.26
			c-0.72-0.46-1.56-0.69-2.53-0.69c-0.67,0-1.19,0.11-1.54,0.33c-0.35,0.22-0.53,0.51-0.53,0.88c0,0.29,0.1,0.51,0.3,0.68
			c0.2,0.17,0.44,0.29,0.74,0.36c0.29,0.08,0.7,0.17,1.23,0.26c0.71,0.12,1.28,0.25,1.71,0.39c0.44,0.14,0.81,0.37,1.12,0.7
			s0.46,0.79,0.46,1.39c0,0.79-0.34,1.43-1.02,1.9c-0.68,0.47-1.6,0.7-2.77,0.7C184.36,26.52,183.67,26.42,183.01,26.23z"/>
		<path class="st1" d="M193.07,21.59c0.15-0.34,0.33-0.62,0.55-0.85c0.21-0.23,0.5-0.51,0.85-0.83c0.44-0.39,0.77-0.72,0.98-1
			c0.21-0.28,0.31-0.62,0.31-1.02c0-0.54-0.21-0.97-0.63-1.3c-0.42-0.33-1-0.49-1.74-0.49c-1.29,0-2.28,0.44-2.96,1.31l-1.21-0.86
			c0.46-0.6,1.06-1.05,1.78-1.37s1.56-0.48,2.51-0.48c1.2,0,2.16,0.26,2.86,0.79c0.71,0.52,1.06,1.24,1.06,2.16
			c0,0.45-0.07,0.85-0.22,1.2c-0.15,0.35-0.33,0.64-0.54,0.87c-0.21,0.23-0.49,0.51-0.84,0.83c-0.45,0.41-0.79,0.77-1,1.08
			c-0.21,0.31-0.32,0.69-0.32,1.14h-1.66C192.84,22.32,192.92,21.93,193.07,21.59z M192.92,26.21c-0.2-0.2-0.31-0.46-0.31-0.75
			s0.1-0.55,0.31-0.75c0.2-0.2,0.46-0.31,0.77-0.31s0.56,0.1,0.76,0.31c0.2,0.2,0.3,0.46,0.3,0.75s-0.1,0.55-0.31,0.75
			s-0.46,0.31-0.75,0.31C193.38,26.52,193.12,26.41,192.92,26.21z"/>
	</g>
	<g>
		<g>
			<path class="st1" d="M29.15,29.65H14.28c-0.16,0-0.31-0.07-0.41-0.18c-0.1-0.12-0.15-0.27-0.14-0.43l1.65-14.84
				c0.03-0.28,0.27-0.49,0.55-0.49H27.5c0.28,0,0.52,0.21,0.55,0.49l0.44,4.12c0.03,0.3-0.19,0.57-0.49,0.6
				c-0.3,0.03-0.57-0.19-0.6-0.49L27,14.81H16.42l-1.53,13.74h13.64l-0.34-3.07c-0.03-0.3,0.18-0.57,0.49-0.61
				c0.3-0.03,0.57,0.18,0.61,0.49l0.41,3.68c0.02,0.16-0.03,0.31-0.14,0.43C29.45,29.58,29.3,29.65,29.15,29.65z"/>
			<path class="st1" d="M25.41,14.2c-0.3,0-0.55-0.25-0.55-0.55c0-1.76-1.43-3.19-3.19-3.19c-1.76,0-3.19,1.43-3.19,3.19
				c0,0.3-0.25,0.55-0.55,0.55s-0.55-0.25-0.55-0.55c0-2.36,1.92-4.29,4.29-4.29s4.29,1.92,4.29,4.29
				C25.96,13.96,25.71,14.2,25.41,14.2z"/>
		</g>
		<circle class="st2" cx="28.7" cy="25.39" r="1.24"/>
	</g>
</g>
</svg>
