<?xml version="1.0" encoding="utf-8"?>
<!-- Generator: Adobe Illustrator 24.1.1, SVG Export Plug-In . SVG Version: 6.00 Build 0)  -->
<svg version="1.1" id="Capa_1" xmlns="http://www.w3.org/2000/svg" xmlns:xlink="http://www.w3.org/1999/xlink" x="0px" y="0px"
	 viewBox="0 0 90 20" style="enable-background:new 0 0 90 20;" xml:space="preserve">
<style type="text/css">
	.st0{fill:#4ED7E5;}
	.st1{fill:#F80F49;}
</style>
<g>
	<g>
		<g>
			<path class="st0" d="M23.94,6.4h1.82v8.26h5.12v1.54h-6.94V6.4z"/>
			<path class="st0" d="M33.4,15.81c-0.61-0.33-1.08-0.78-1.42-1.37s-0.51-1.24-0.51-1.98s0.17-1.4,0.51-1.97
				c0.34-0.58,0.81-1.03,1.42-1.36c0.61-0.33,1.29-0.49,2.04-0.49c0.77,0,1.45,0.16,2.06,0.49c0.61,0.33,1.08,0.78,1.42,1.36
				c0.34,0.58,0.51,1.24,0.51,1.97s-0.17,1.4-0.51,1.98s-0.81,1.04-1.42,1.37c-0.61,0.33-1.29,0.49-2.06,0.49
				C34.69,16.3,34.01,16.13,33.4,15.81z M37.04,14.15c0.42-0.43,0.63-0.99,0.63-1.69c0-0.7-0.21-1.26-0.63-1.69s-0.95-0.64-1.6-0.64
				s-1.17,0.21-1.59,0.64c-0.42,0.43-0.62,0.99-0.62,1.69c0,0.7,0.21,1.26,0.62,1.69c0.42,0.43,0.94,0.64,1.59,0.64
				S36.62,14.58,37.04,14.15z"/>
			<path class="st0" d="M51.49,9.46c0.57,0.55,0.85,1.37,0.85,2.45v4.28H50.6v-4.06c0-0.65-0.15-1.15-0.46-1.48
				c-0.31-0.33-0.75-0.5-1.32-0.5c-0.64,0-1.15,0.19-1.53,0.58c-0.37,0.39-0.56,0.95-0.56,1.67v3.78h-1.75V8.72h1.67v0.97
				c0.29-0.34,0.65-0.61,1.09-0.78c0.44-0.18,0.93-0.27,1.48-0.27C50.17,8.64,50.92,8.91,51.49,9.46z"/>
			<path class="st0" d="M61.81,8.72v7.48h-1.67v-0.95c-0.28,0.34-0.63,0.6-1.05,0.78c-0.42,0.18-0.87,0.27-1.36,0.27
				c-1,0-1.79-0.28-2.36-0.83c-0.57-0.56-0.86-1.38-0.86-2.47V8.72h1.75v4.03c0,0.67,0.15,1.17,0.46,1.5s0.74,0.5,1.29,0.5
				c0.63,0,1.12-0.19,1.49-0.58c0.37-0.39,0.55-0.95,0.55-1.67V8.72H61.81z"/>
			<path class="st0" d="M71.11,13.02h-5.87c0.1,0.55,0.37,0.99,0.8,1.31c0.43,0.32,0.97,0.48,1.62,0.48c0.82,0,1.5-0.27,2.03-0.81
				l0.94,1.08c-0.34,0.4-0.76,0.71-1.27,0.91c-0.51,0.21-1.09,0.31-1.74,0.31c-0.82,0-1.54-0.16-2.17-0.49
				c-0.63-0.33-1.11-0.78-1.45-1.37s-0.51-1.24-0.51-1.98c0-0.73,0.17-1.38,0.5-1.97c0.33-0.58,0.79-1.04,1.38-1.36
				c0.59-0.33,1.25-0.49,1.99-0.49c0.73,0,1.38,0.16,1.95,0.48c0.57,0.32,1.02,0.78,1.34,1.36c0.32,0.58,0.48,1.26,0.48,2.02
				C71.13,12.62,71.12,12.8,71.11,13.02z M65.93,10.53c-0.39,0.33-0.62,0.77-0.71,1.32h4.24c-0.07-0.54-0.3-0.98-0.69-1.32
				c-0.38-0.34-0.86-0.5-1.43-0.5C66.79,10.04,66.32,10.2,65.93,10.53z"/>
			<path class="st0" d="M79.67,8.72l-3.21,7.48h-1.81l-3.21-7.48h1.82l2.32,5.54l2.39-5.54H79.67z"/>
			<path class="st0" d="M81.87,15.81c-0.61-0.33-1.08-0.78-1.42-1.37s-0.51-1.24-0.51-1.98s0.17-1.4,0.51-1.97
				c0.34-0.58,0.81-1.03,1.42-1.36c0.61-0.33,1.29-0.49,2.04-0.49c0.77,0,1.45,0.16,2.06,0.49c0.61,0.33,1.08,0.78,1.42,1.36
				c0.34,0.58,0.51,1.24,0.51,1.97s-0.17,1.4-0.51,1.98s-0.81,1.04-1.42,1.37c-0.61,0.33-1.29,0.49-2.06,0.49
				C83.16,16.3,82.48,16.13,81.87,15.81z M85.51,14.15c0.42-0.43,0.63-0.99,0.63-1.69c0-0.7-0.21-1.26-0.63-1.69
				s-0.95-0.64-1.6-0.64s-1.17,0.21-1.59,0.64c-0.42,0.43-0.62,0.99-0.62,1.69c0,0.7,0.21,1.26,0.62,1.69
				c0.42,0.43,0.94,0.64,1.59,0.64S85.09,14.58,85.51,14.15z"/>
		</g>
	</g>
	<g>
		<path class="st0" d="M16.18,19.19c-0.1,0-0.19-0.02-0.28-0.07l-5.31-2.79l-5.3,2.79c-0.2,0.11-0.45,0.09-0.63-0.05
			c-0.19-0.13-0.28-0.36-0.24-0.59l1.01-5.91L1.14,8.4C0.98,8.24,0.92,8,0.99,7.79c0.07-0.22,0.26-0.38,0.48-0.41l5.93-0.86
			l2.65-5.37c0.2-0.41,0.87-0.41,1.08,0l2.65,5.37l5.93,0.86c0.33,0.05,0.56,0.35,0.51,0.68c-0.05,0.33-0.35,0.55-0.68,0.51
			L13.3,7.66c-0.2-0.03-0.36-0.15-0.45-0.33L10.6,2.76L8.34,7.33c-0.09,0.18-0.26,0.3-0.45,0.33L2.85,8.39l3.65,3.55
			c0.14,0.14,0.21,0.34,0.17,0.53L5.81,17.5l4.51-2.37c0.17-0.09,0.38-0.09,0.56,0l4.51,2.37l-0.86-5.02
			c-0.06-0.33,0.16-0.64,0.49-0.69c0.33-0.06,0.64,0.16,0.69,0.49l1.07,6.22c0.04,0.23-0.05,0.45-0.24,0.59
			C16.43,19.15,16.31,19.19,16.18,19.19z"/>
	</g>
	<path class="st1" d="M15.18,11.81c0.77,0,1.39,0.62,1.39,1.39c0,0.77-0.62,1.39-1.39,1.39c-0.77,0-1.39-0.62-1.39-1.39
		C13.79,12.43,14.41,11.81,15.18,11.81z"/>
</g>
</svg>
