<?xml version="1.0" encoding="utf-8"?>
<!-- Generator: Adobe Illustrator 24.1.1, SVG Export Plug-In . SVG Version: 6.00 Build 0)  -->
<svg version="1.1" id="Capa_1" xmlns="http://www.w3.org/2000/svg" xmlns:xlink="http://www.w3.org/1999/xlink" x="0px" y="0px"
	 viewBox="0 0 76 20" style="enable-background:new 0 0 76 20;" xml:space="preserve">
<style type="text/css">
	.st0{fill:#4ED7E5;}
	.st1{fill:#F80F49;}
</style>
<g>
	<g>
		<path class="st0" d="M25.11,16.12c-0.8-0.43-1.43-1.04-1.89-1.81c-0.46-0.77-0.69-1.63-0.69-2.58c0-0.95,0.23-1.81,0.69-2.58
			c0.46-0.77,1.09-1.37,1.89-1.81s1.7-0.65,2.7-0.65c1,0,1.9,0.22,2.7,0.65c0.8,0.43,1.43,1.03,1.89,1.8
			c0.46,0.77,0.69,1.63,0.69,2.59s-0.23,1.82-0.69,2.59c-0.46,0.77-1.09,1.37-1.89,1.8c-0.8,0.43-1.7,0.65-2.7,0.65
			C26.82,16.77,25.92,16.56,25.11,16.12z M29.58,14.74c0.52-0.29,0.93-0.7,1.23-1.23c0.3-0.53,0.45-1.12,0.45-1.77
			s-0.15-1.24-0.45-1.77c-0.3-0.53-0.71-0.94-1.23-1.23c-0.52-0.29-1.11-0.44-1.76-0.44s-1.24,0.15-1.76,0.44
			c-0.52,0.29-0.93,0.7-1.23,1.23s-0.45,1.12-0.45,1.77s0.15,1.24,0.45,1.77s0.71,0.94,1.23,1.23c0.52,0.29,1.11,0.44,1.76,0.44
			S29.06,15.03,29.58,14.74z"/>
		<path class="st0" d="M36.79,8.76v0.45h2.06v1.4h-2v6.02h-1.75v-6.02h-1.23v-1.4h1.23V8.74c0-0.8,0.23-1.44,0.7-1.9
			s1.12-0.69,1.97-0.69c0.67,0,1.2,0.14,1.58,0.41l-0.49,1.32c-0.3-0.21-0.62-0.31-0.97-0.31C37.16,7.56,36.79,7.96,36.79,8.76z"/>
		<path class="st0" d="M46.91,13.45h-5.87c0.1,0.55,0.37,0.99,0.8,1.31c0.43,0.32,0.97,0.48,1.62,0.48c0.82,0,1.5-0.27,2.03-0.81
			l0.94,1.08c-0.34,0.4-0.76,0.71-1.27,0.91s-1.09,0.31-1.74,0.31c-0.82,0-1.54-0.16-2.17-0.49c-0.63-0.33-1.11-0.78-1.45-1.37
			c-0.34-0.58-0.51-1.24-0.51-1.98c0-0.73,0.17-1.38,0.5-1.97c0.33-0.58,0.79-1.04,1.38-1.36c0.59-0.33,1.25-0.49,1.99-0.49
			c0.73,0,1.38,0.16,1.95,0.48c0.57,0.32,1.02,0.77,1.34,1.36c0.32,0.58,0.48,1.26,0.48,2.02C46.94,13.06,46.93,13.23,46.91,13.45z
			 M41.74,10.97c-0.39,0.33-0.62,0.77-0.71,1.32h4.24c-0.07-0.54-0.3-0.98-0.69-1.32c-0.38-0.34-0.86-0.5-1.43-0.5
			C42.6,10.47,42.12,10.64,41.74,10.97z"/>
		<path class="st0" d="M52.94,9.07v1.67c-0.15-0.03-0.29-0.04-0.41-0.04c-0.68,0-1.21,0.2-1.6,0.6c-0.38,0.4-0.57,0.97-0.57,1.71
			v3.63h-1.75V9.16h1.67v1.09C50.79,9.46,51.67,9.07,52.94,9.07z"/>
		<path class="st0" d="M59.2,16.23c-0.21,0.17-0.46,0.29-0.75,0.38s-0.6,0.13-0.93,0.13c-0.82,0-1.46-0.21-1.9-0.64
			c-0.45-0.43-0.67-1.05-0.67-1.88v-3.6h-1.23v-1.4h1.23V7.5h1.75v1.71h2v1.4h-2v3.56c0,0.36,0.09,0.64,0.27,0.83
			s0.43,0.29,0.77,0.29c0.39,0,0.72-0.1,0.98-0.31L59.2,16.23z"/>
		<path class="st0" d="M66.03,9.86c0.58,0.53,0.88,1.32,0.88,2.39v4.38h-1.65v-0.91c-0.21,0.33-0.52,0.58-0.92,0.75
			c-0.4,0.17-0.88,0.26-1.44,0.26s-1.05-0.1-1.47-0.29c-0.42-0.19-0.74-0.46-0.97-0.8c-0.23-0.34-0.34-0.72-0.34-1.15
			c0-0.67,0.25-1.21,0.75-1.62c0.5-0.41,1.29-0.61,2.36-0.61h1.93v-0.11c0-0.52-0.16-0.92-0.47-1.2c-0.31-0.28-0.78-0.42-1.39-0.42
			c-0.42,0-0.83,0.07-1.24,0.2c-0.41,0.13-0.75,0.31-1.03,0.55L60.34,10c0.39-0.3,0.86-0.53,1.41-0.69s1.13-0.24,1.75-0.24
			C64.6,9.07,65.44,9.34,66.03,9.86z M64.43,15.16c0.34-0.2,0.58-0.49,0.72-0.86v-0.87h-1.81c-1.01,0-1.51,0.33-1.51,0.99
			c0,0.32,0.13,0.57,0.38,0.76c0.25,0.19,0.6,0.28,1.05,0.28C63.7,15.46,64.09,15.36,64.43,15.16z"/>
		<path class="st0" d="M69.67,16.49c-0.58-0.16-1.04-0.36-1.39-0.6l0.67-1.33c0.34,0.22,0.74,0.4,1.21,0.54
			c0.47,0.14,0.94,0.2,1.39,0.2c1.05,0,1.57-0.27,1.57-0.83c0-0.26-0.13-0.44-0.4-0.55c-0.27-0.1-0.69-0.2-1.28-0.29
			c-0.62-0.09-1.12-0.2-1.5-0.32c-0.39-0.12-0.72-0.33-1.01-0.64c-0.28-0.3-0.43-0.73-0.43-1.27c0-0.71,0.3-1.28,0.89-1.7
			c0.59-0.42,1.39-0.64,2.4-0.64c0.51,0,1.03,0.06,1.54,0.18c0.51,0.12,0.93,0.27,1.26,0.47l-0.67,1.33
			c-0.63-0.37-1.35-0.56-2.14-0.56c-0.51,0-0.9,0.08-1.17,0.23s-0.4,0.36-0.4,0.61c0,0.28,0.14,0.48,0.43,0.6s0.73,0.23,1.32,0.33
			c0.6,0.09,1.09,0.2,1.47,0.32c0.38,0.12,0.71,0.33,0.99,0.62c0.27,0.29,0.41,0.7,0.41,1.23c0,0.7-0.3,1.26-0.91,1.68
			c-0.61,0.42-1.43,0.63-2.48,0.63C70.85,16.73,70.25,16.65,69.67,16.49z"/>
	</g>
	<g>
		<path class="st0" d="M9.56,19.72c-0.16,0-0.32-0.07-0.44-0.18l-8.15-8.15c-0.24-0.24-0.24-0.63,0-0.87l7.56-7.56
			c0.05-0.05,0.1-0.09,0.16-0.12l5-2.5c0.24-0.12,0.52-0.07,0.71,0.12l5.65,5.65c0.19,0.19,0.23,0.47,0.12,0.71l-2.38,4.88
			c-0.15,0.31-0.52,0.43-0.83,0.28c-0.31-0.15-0.43-0.52-0.28-0.83l2.18-4.48l-5.02-5.02L9.34,3.9l-7.05,7.05l7.27,7.27l2.09-2.09
			c0.24-0.24,0.63-0.24,0.87,0c0.24,0.24,0.24,0.63,0,0.87L10,19.54C9.88,19.66,9.72,19.72,9.56,19.72z"/>
		<g>
			<g>
				<path class="st0" d="M13.76,5.83c-0.25,0-0.46,0.09-0.65,0.28c-0.37,0.37-0.37,0.96,0,1.3c0.19,0.19,0.43,0.28,0.65,0.28
					c0.22,0,0.46-0.09,0.65-0.28c0.37-0.37,0.37-0.96,0-1.3C14.25,5.93,14,5.83,13.76,5.83L13.76,5.83z"/>
			</g>
		</g>
		<path class="st1" d="M12.09,15.18c0.77,0,1.39,0.62,1.39,1.39c0,0.77-0.62,1.39-1.39,1.39c-0.77,0-1.39-0.62-1.39-1.39
			C10.7,15.81,11.32,15.18,12.09,15.18z"/>
	</g>
</g>
</svg>
