<?xml version="1.0" encoding="utf-8"?>
<!-- Generator: Adobe Illustrator 24.1.1, SVG Export Plug-In . SVG Version: 6.00 Build 0)  -->
<svg version="1.0" id="Capa_1" xmlns="http://www.w3.org/2000/svg" xmlns:xlink="http://www.w3.org/1999/xlink" x="0px" y="0px"
	 viewBox="0 0 49.13 50.69" style="enable-background:new 0 0 49.13 50.69;" xml:space="preserve">
<style type="text/css">
	.st0{fill:#F80F49;}
</style>
<path class="st0" d="M24.34,0c0.15,0,0.3,0,0.45,0c1.27,1.33,2.57,2.63,3.81,3.99c0.52,0.57,0.99,0.63,1.69,0.36
	c1.68-0.65,3.39-1.22,5.19-1.87c0.63,1.81,1.24,3.46,1.77,5.15c0.26,0.82,0.65,1.22,1.58,1.27c1.76,0.1,3.52,0.36,5.39,0.56
	c-0.2,1.95-0.45,3.78-0.54,5.62c-0.03,0.49,0.28,1.2,0.67,1.47c1.54,1.08,3.18,2.02,4.79,3.01c0,0.08,0,0.15,0,0.23
	c-1.07,1.64-2.15,3.28-3.18,4.95c-0.15,0.25-0.15,0.76,0.01,1.01c1.02,1.67,2.1,3.31,3.17,4.96c0,0.08,0,0.15,0,0.23
	c-1.51,0.93-2.99,1.89-4.54,2.76c-0.81,0.46-1.1,1-0.97,1.93c0.25,1.75,0.4,3.52,0.6,5.38c-1.48,0.16-2.82,0.3-4.17,0.44
	c-2.42,0.26-2.41,0.27-3.2,2.59c-0.44,1.3-0.92,2.6-1.39,3.93c-1.86-0.65-3.55-1.19-5.2-1.84c-0.72-0.28-1.17-0.17-1.68,0.38
	c-1.26,1.39-2.58,2.73-3.95,4.18c-1.53-1.56-2.87-2.89-4.17-4.26c-0.45-0.47-0.83-0.6-1.48-0.34c-1.4,0.57-2.88,0.95-4.27,1.54
	c-0.93,0.39-1.25,0.11-1.5-0.77c-0.4-1.38-0.94-2.72-1.36-4.09c-0.22-0.74-0.56-1.1-1.4-1.16c-1.8-0.13-3.6-0.4-5.49-0.62
	c0.03-0.53,0.04-0.98,0.09-1.42c0.15-1.43,0.36-2.86,0.44-4.29c0.02-0.41-0.18-1.03-0.49-1.24c-1.63-1.09-3.32-2.08-4.99-3.1
	c0-0.08,0-0.15,0-0.23c1.06-1.65,2.15-3.28,3.17-4.96c0.15-0.25,0.16-0.76,0.01-1.01c-1.02-1.67-2.11-3.3-3.18-4.95
	c0-0.08,0-0.15,0-0.23c1.57-0.97,3.14-1.96,4.73-2.9c0.68-0.4,0.88-0.91,0.78-1.69c-0.24-1.79-0.39-3.59-0.59-5.52
	c1.49-0.15,2.88-0.42,4.26-0.4c1.8,0.02,2.72-0.72,3.1-2.49c0.3-1.37,0.9-2.68,1.39-4.08c1.88,0.67,3.58,1.31,5.29,1.88
	c0.35,0.12,0.93,0.19,1.13,0C21.55,2.95,22.93,1.46,24.34,0z"/>
<g>
</g>
<g>
</g>
<g>
</g>
<g>
</g>
<g>
</g>
<g>
</g>
<g>
</g>
<g>
</g>
<g>
</g>
<g>
</g>
<g>
</g>
<g>
</g>
<g>
</g>
<g>
</g>
<g>
</g>
</svg>
