<?xml version="1.0" encoding="utf-8"?>
<!-- Generator: Adobe Illustrator 24.1.1, SVG Export Plug-In . SVG Version: 6.00 Build 0)  -->
<svg version="1.0" id="Capa_1" xmlns="http://www.w3.org/2000/svg" xmlns:xlink="http://www.w3.org/1999/xlink" x="0px" y="0px"
	 viewBox="0 0 200 200" style="enable-background:new 0 0 200 200;" xml:space="preserve">
<style type="text/css">
	.st0{fill:#B3B3B3;}
</style>
<g>
	<g>
		<path class="st0" d="M60.07,100.01c0-13.83-11.21-25.03-25.03-25.03C21.21,74.98,10,86.18,10,100.01c0,10.22,6.13,19,14.92,22.89
			c-5.97-3.48-9.97-9.94-9.97-17.35c0-11.09,8.99-20.09,20.09-20.09c11.09,0,20.08,9,20.08,20.09c0,7.41-4,13.87-9.97,17.35
			C53.94,119.01,60.07,110.23,60.07,100.01z"/>
		<path class="st0" d="M40.54,87.8c5.06,2.15,8.6,7.16,8.6,13c0,7.78-6.31,14.1-14.1,14.1c-7.79,0-14.11-6.32-14.11-14.1
			c0-5.85,3.55-10.85,8.61-13c-7.82,2.36-13.52,9.62-13.52,18.2c0,10.5,8.51,19.02,19.02,19.02c10.5,0,19.02-8.52,19.02-19.02
			C54.05,97.41,48.35,90.16,40.54,87.8z"/>
		<path class="st0" d="M35.04,113.23c2.35,0,4.25-1.9,4.25-4.26c0-2.35-1.91-4.25-4.25-4.25c-2.35,0-4.26,1.9-4.26,4.25
			C30.78,111.33,32.69,113.23,35.04,113.23z"/>
	</g>
	<g>
		<path class="st0" d="M77.58,117.01c-0.33,1.92-0.98,3.35-1.9,4.35c-0.99,0.91-2.23,1.42-3.81,1.42c-1.07,0-1.9-0.16-2.56-0.59
			c-0.66-0.41-1.09-1-1.32-1.83l2.89-2.26c0.09,0.26,0.16,0.58,0.34,0.76c0.24,0.25,0.41,0.34,0.75,0.34c0.49,0,0.91-0.26,1.16-0.67
			c0.25-0.5,0.4-1.42,0.67-2.85l1.58-8.77h3.96L77.58,117.01z"/>
		<path class="st0" d="M93.67,115.26c-0.51,2.94-1.33,4.85-2.5,5.94c-1.15,1.08-2.98,1.59-5.38,1.59c-2.48,0-4.14-0.51-4.89-1.59
			c-0.82-1.09-0.99-3-0.48-5.94l1.49-8.36h3.97l-1.41,8.44c-0.24,1.51-0.24,2.52,0,3.09c0.33,0.51,0.91,0.77,1.91,0.77
			c1,0,1.75-0.26,2.16-0.77c0.49-0.58,0.91-1.58,1.14-3.09l1.5-8.44h3.97L93.67,115.26z"/>
		<path class="st0" d="M104,112.33L104,112.33c0.18-0.74,0.09-1.34-0.24-1.59c-0.34-0.33-0.92-0.51-1.82-0.51h-0.83l-0.75,4.1h0.75
			c0.91,0,1.57-0.15,2.06-0.5C103.58,113.51,103.92,112.99,104,112.33 M107.25,122.45h-4.73l-2.49-6.02l-1.08,6.02h-3.97l2.73-15.55
			h4.65c2.47,0,4.22,0.41,5.05,1.17c0.91,0.84,1.15,2.09,0.91,3.77c-0.25,1.16-0.66,2.16-1.41,2.93c-0.75,0.75-1.64,1.25-2.82,1.5
			L107.25,122.45z"/>
		<polygon class="st0" points="112.79,122.45 108.71,122.45 111.45,106.9 115.52,106.9 		"/>
		<path class="st0" d="M126.77,117.51c-0.24,1.6-0.99,2.94-2.23,3.86c-1.34,0.91-2.83,1.42-4.64,1.42c-1.08,0-1.98-0.16-2.81-0.51
			c-0.83-0.41-1.57-1-2.23-1.75l2.4-2.93c0.43,0.67,0.91,1.08,1.49,1.43c0.5,0.32,1.16,0.41,1.83,0.41c0.58,0,0.99-0.09,1.4-0.41
			c0.41-0.26,0.68-0.67,0.75-1.18c0.08-0.49,0-0.84-0.26-1.18c-0.25-0.23-0.91-0.57-1.99-0.82c-1.32-0.33-2.31-0.93-2.8-1.6
			c-0.59-0.74-0.75-1.67-0.51-2.82c0.23-1.51,0.92-2.59,2.07-3.52c1.07-0.93,2.47-1.35,4.06-1.35c0.9,0,1.66,0.17,2.39,0.34
			c0.66,0.25,1.33,0.58,1.91,1.08l-1.83,3.09c-0.41-0.41-0.82-0.66-1.32-0.91c-0.42-0.16-0.9-0.24-1.4-0.24
			c-0.59,0-1.02,0.08-1.35,0.32c-0.33,0.17-0.57,0.43-0.64,0.83c-0.09,0.67,0.56,1.26,1.99,1.59c0.07,0.08,0.15,0.08,0.24,0.08
			c1.49,0.42,2.48,1.01,2.98,1.75C126.87,115.26,127.02,116.26,126.77,117.51"/>
		<path class="st0" d="M139.28,121.79c-0.59,0.32-1.15,0.58-1.9,0.73c-0.75,0.19-1.49,0.27-2.4,0.27c-2.24,0-3.99-0.75-5.22-2.26
			c-1.25-1.59-1.57-3.52-1.25-5.87c0.44-2.25,1.51-4.25,3.33-5.76c1.74-1.6,3.72-2.35,6.04-2.35c0.82,0,1.58,0.08,2.24,0.25
			c0.65,0.16,1.23,0.43,1.65,0.76l-0.83,4.6c-0.31-0.58-0.82-0.92-1.4-1.26c-0.58-0.25-1.24-0.42-1.9-0.42
			c-1.24,0-2.33,0.42-3.23,1.18c-0.91,0.83-1.5,1.84-1.66,3.09c-0.25,1.25,0,2.16,0.58,3c0.67,0.76,1.57,1.1,2.82,1.1
			c0.66,0,1.32-0.09,2.06-0.43c0.68-0.24,1.33-0.67,1.91-1.25L139.28,121.79z"/>
		<path class="st0" d="M185.74,112.17L185.74,112.17c0.09-0.67,0-1.17-0.41-1.51c-0.33-0.34-1.01-0.43-1.91-0.43h-0.59l-0.65,3.85
			h0.51c0.97,0,1.72-0.17,2.14-0.42C185.33,113.33,185.57,112.83,185.74,112.17 M189.87,112.26c-0.32,1.66-1.06,2.92-2.39,3.84
			c-1.25,0.83-2.97,1.27-5.23,1.27h-0.64l-0.93,5.09h-3.97l2.74-15.55h4.46c2.4,0,4.07,0.41,4.98,1.33
			C189.87,109.07,190.22,110.41,189.87,112.26"/>
		<path class="st0" d="M172.39,114.84L172.39,114.84c0-1.16-0.41-2.18-1.14-2.94c-0.83-0.83-1.74-1.16-2.98-1.16
			c-1.16,0-2.17,0.32-2.99,1.16c-0.76,0.76-1.06,1.77-1.06,2.94c0,1.17,0.31,2.18,1.14,2.92c0.74,0.85,1.75,1.18,2.91,1.18
			c1.24,0,2.15-0.33,2.98-1.18C171.98,117.01,172.39,116.01,172.39,114.84 M176.47,114.84c0,2.26-0.76,4.19-2.32,5.69
			c-1.58,1.51-3.57,2.26-5.88,2.26c-2.34,0-4.23-0.75-5.81-2.26c-1.56-1.5-2.39-3.43-2.39-5.69c0-2.26,0.82-4.09,2.39-5.68
			c1.58-1.51,3.47-2.26,5.81-2.26c2.31,0,4.3,0.75,5.88,2.26C175.72,110.74,176.47,112.58,176.47,114.84"/>
		<path class="st0" d="M183.08,90.89L183.08,90.89c0-1.95-0.67-3.6-1.89-4.86c-1.39-1.37-2.9-1.93-4.94-1.93
			c-1.93,0-3.58,0.55-4.94,1.93c-1.24,1.26-1.79,2.92-1.79,4.86c0,1.95,0.54,3.61,1.93,4.84c1.22,1.38,2.87,1.93,4.8,1.93
			c2.05,0,3.55-0.55,4.94-1.93C182.41,94.5,183.08,92.84,183.08,90.89 M189.82,90.89c0,3.75-1.25,6.92-3.85,9.42
			c-2.61,2.5-5.89,3.74-9.72,3.74c-3.86,0-7-1.24-9.59-3.74c-2.61-2.5-3.99-5.67-3.99-9.42c0-3.74,1.38-6.79,3.99-9.44
			c2.59-2.48,5.74-3.71,9.59-3.71c3.83,0,7.11,1.23,9.72,3.71C188.57,84.1,189.82,87.15,189.82,90.89"/>
		<path class="st0" d="M154.73,87.23L154.73,87.23c0.15-1.11,0-1.94-0.67-2.51c-0.56-0.56-1.67-0.69-3.15-0.69h-0.99l-1.08,6.39
			h0.83c1.64,0,2.87-0.27,3.54-0.68C154.06,89.17,154.48,88.34,154.73,87.23 M161.61,87.37c-0.56,2.79-1.8,4.87-3.98,6.38
			c-2.07,1.4-4.94,2.11-8.66,2.11h-1.12l-1.5,8.46h-6.62l4.56-25.84h7.42c3.98,0,6.72,0.68,8.25,2.21
			C161.61,82.08,162.15,84.31,161.61,87.37"/>
		<path class="st0" d="M137.98,92.08c-0.81,4.63-2.13,7.66-4.04,9.38c-1.84,1.72-4.78,2.52-8.66,2.52c-4.02,0-6.69-0.8-7.89-2.52
			c-1.36-1.72-1.6-4.75-0.81-9.38L119,78.85h6.41l-2.29,13.36c-0.38,2.38-0.38,3.97,0,4.89c0.55,0.79,1.48,1.2,3.08,1.2
			c1.61,0,2.83-0.41,3.49-1.2c0.77-0.92,1.47-2.51,1.87-4.89l2.38-13.36h6.44L137.98,92.08z"/>
		<path class="st0" d="M107.25,87.41L107.25,87.41c0.27-1.24,0.12-2.21-0.42-2.63c-0.53-0.55-1.51-0.82-3.01-0.82h-1.36l-1.25,6.79
			h1.25c1.5,0,2.6-0.28,3.42-0.81C106.55,89.35,107.1,88.51,107.25,87.41 M112.59,104.15h-7.81l-4.1-9.95l-1.78,9.95h-6.56
			l4.51-25.73h7.67c4.11,0,6.97,0.67,8.33,1.92c1.52,1.39,1.92,3.47,1.52,6.25c-0.42,1.92-1.09,3.59-2.33,4.83
			c-1.24,1.26-2.75,2.09-4.66,2.49L112.59,104.15z"/>
		<path class="st0" d="M92.41,85.33l-7.09,0.88c-0.66-2.07-1.97-3.13-3.94-3.13c-1.94,0-3.49,1.12-4.63,3.33
			c-1.12,2.21-1.7,4.58-1.7,7.11c0,1.47,0.44,2.7,1.26,3.67c0.86,0.99,1.93,1.47,3.24,1.47h0.05c1.49,0,2.79-0.42,3.93-1.28
			l0.52-2.82h-4.4l1.06-5.5h10.88l-2.33,12.38c-3.64,2.03-7.25,3.06-10.81,3.06c-3.21,0-5.76-0.98-7.63-2.95
			c-1.89-1.97-2.82-4.72-2.82-8.28c0-2.97,0.59-5.69,1.79-8.18c1.19-2.47,2.88-4.41,5.07-5.77c2.18-1.37,4.67-2.05,7.49-2.05
			C87.86,77.27,91.2,79.96,92.41,85.33"/>
		<g>
			<path class="st0" d="M144.6,109.28c-2.99,3.25-2.78,8.3,0.48,11.29c3.25,2.99,8.31,2.78,11.29-0.48c2.22-2.41,2.67-5.8,1.45-8.6
				c0.65,2.1,0.19,4.49-1.41,6.23c-2.4,2.6-6.45,2.78-9.06,0.39c-2.61-2.4-2.78-6.46-0.38-9.07c1.59-1.73,3.93-2.39,6.08-1.93
				C150.14,106.13,146.8,106.87,144.6,109.28z"/>
			<path class="st0" d="M146.55,116.37c-0.74-1.59-0.48-3.54,0.78-4.92c1.69-1.83,4.54-1.95,6.36-0.26
				c1.83,1.68,1.96,4.53,0.27,6.37c-1.25,1.37-3.17,1.78-4.83,1.19c2.35,1.14,5.26,0.66,7.11-1.37c2.27-2.47,2.11-6.31-0.36-8.58
				c-2.47-2.27-6.3-2.11-8.57,0.36C145.45,111.19,145.22,114.13,146.55,116.37z"/>
		</g>
	</g>
</g>
</svg>
