<?xml version="1.0" encoding="utf-8"?>
<!-- Generator: Adobe Illustrator 24.1.1, SVG Export Plug-In . SVG Version: 6.00 Build 0)  -->
<svg version="1.0" id="Capa_1" xmlns="http://www.w3.org/2000/svg" xmlns:xlink="http://www.w3.org/1999/xlink" x="0px" y="0px"
	 viewBox="0 0 200 200" style="enable-background:new 0 0 200 200;" xml:space="preserve">
<style type="text/css">
	.st0{fill:#B3B3B3;}
</style>
<g>
	<g>
		<path class="st0" d="M32.21,97.83h-3.89c-0.36,0-0.66,0.26-0.72,0.61c-0.47,2.81-2.32,4.35-5.24,4.35c-3.81,0-6.08-3.15-6.08-8.43
			c0-5.36,2.34-8.56,6.25-8.56c2.72,0,4.32,1.24,5.03,3.92c0.09,0.32,0.37,0.54,0.7,0.54h3.83c0.21,0,0.41-0.09,0.54-0.24
			c0.14-0.15,0.2-0.36,0.18-0.56c-0.21-1.84-0.69-3.11-1.64-4.38c-1.94-2.57-5.07-3.98-8.81-3.98c-7.12,0-11.54,5.06-11.54,13.2
			c0,8.1,4.37,13.14,11.4,13.14c6.04,0,10.14-3.38,10.71-8.81c0.02-0.2-0.05-0.41-0.18-0.56C32.61,97.92,32.41,97.83,32.21,97.83z"
			/>
		<path class="st0" d="M49.21,81.1c-3.54,0-6.42,1.17-8.56,3.49c-2.24,2.41-3.52,5.93-3.52,9.68c0,3.78,1.28,7.31,3.52,9.68
			c2.18,2.35,4.99,3.49,8.6,3.49c3.61,0,6.42-1.14,8.6-3.49c2.17-2.31,3.52-5.95,3.52-9.51c0-3.89-1.28-7.48-3.52-9.85
			C55.63,82.21,52.89,81.1,49.21,81.1z M55.9,94.41c0,4.98-2.68,8.32-6.66,8.32c-4.04,0-6.66-3.32-6.66-8.46s2.61-8.46,6.66-8.46
			C53.35,85.81,55.9,89.11,55.9,94.41z"/>
		<path class="st0" d="M77.21,81.1c-3.54,0-6.42,1.17-8.56,3.49c-2.24,2.41-3.52,5.93-3.52,9.68c0,3.78,1.28,7.31,3.52,9.68
			c2.18,2.35,4.99,3.49,8.6,3.49c3.61,0,6.42-1.14,8.6-3.49c2.17-2.31,3.52-5.95,3.52-9.51c0-3.89-1.28-7.48-3.52-9.85
			C83.63,82.21,80.89,81.1,77.21,81.1z M83.9,94.41c0,4.98-2.68,8.32-6.66,8.32c-4.04,0-6.66-3.32-6.66-8.46s2.61-8.46,6.66-8.46
			C81.35,85.81,83.9,89.11,83.9,94.41z"/>
		<path class="st0" d="M112.14,81.51h-3.96c-0.32,0-0.61,0.22-0.7,0.53l-4.77,16.47c-0.06,0.2-0.22,0.27-0.35,0.27c0,0,0,0,0,0
			c-0.13,0-0.3-0.07-0.35-0.27l-4.86-16.48c-0.09-0.31-0.38-0.52-0.7-0.52h-3.96c-0.24,0-0.45,0.11-0.59,0.3
			c-0.14,0.19-0.17,0.43-0.1,0.66l8,23.7c0.1,0.3,0.38,0.49,0.69,0.49h3.53c0.31,0,0.59-0.2,0.69-0.49l8.13-23.7
			c0.08-0.23,0.04-0.47-0.1-0.66C112.6,81.62,112.38,81.51,112.14,81.51z"/>
		<path class="st0" d="M120.96,81.51h-4c-0.4,0-0.73,0.33-0.73,0.73v23.7c0,0.4,0.33,0.73,0.73,0.73h4c0.4,0,0.73-0.33,0.73-0.73
			v-23.7C121.69,81.84,121.36,81.51,120.96,81.51z"/>
		<path class="st0" d="M144.62,81.51h-18.76c-0.4,0-0.73,0.33-0.73,0.73v3.15c0,0.4,0.33,0.73,0.73,0.73h6.79v19.81
			c0,0.4,0.33,0.73,0.73,0.73h4c0.4,0,0.73-0.33,0.73-0.73V86.12h6.52c0.4,0,0.73-0.33,0.73-0.73v-3.15
			C145.34,81.84,145.02,81.51,144.62,81.51z"/>
		<path class="st0" d="M167.37,102.05h-12.34c-0.2,0-0.37-0.17-0.37-0.37v-5.33c0-0.2,0.17-0.37,0.37-0.37h10.77
			c0.4,0,0.73-0.33,0.73-0.73V92.1c0-0.4-0.33-0.73-0.73-0.73h-10.77c-0.2,0-0.37-0.17-0.37-0.37v-4.51c0-0.2,0.17-0.37,0.37-0.37
			h11.72c0.4,0,0.73-0.33,0.73-0.73v-3.15c0-0.4-0.33-0.73-0.73-0.73h-16.83c-0.4,0-0.73,0.33-0.73,0.73v23.7
			c0,0.4,0.33,0.73,0.73,0.73h17.44c0.4,0,0.73-0.33,0.73-0.73v-3.15C168.09,102.38,167.77,102.05,167.37,102.05z"/>
		<path class="st0" d="M189.15,102.05h-10.77c-0.2,0-0.37-0.17-0.37-0.37V82.24c0-0.4-0.33-0.73-0.73-0.73h-4
			c-0.4,0-0.73,0.33-0.73,0.73v23.7c0,0.4,0.33,0.73,0.73,0.73h15.87c0.4,0,0.73-0.33,0.73-0.73v-3.15
			C189.88,102.38,189.55,102.05,189.15,102.05z"/>
	</g>
	<g>
		<path class="st0" d="M13.36,116.53c-0.64,0-1.18-0.13-1.64-0.39c-0.45-0.26-0.8-0.62-1.05-1.09c-0.24-0.47-0.36-1.03-0.36-1.67
			c0-0.64,0.12-1.2,0.36-1.67c0.24-0.47,0.59-0.83,1.05-1.09c0.45-0.26,1-0.39,1.64-0.39c0.32,0,0.63,0.04,0.94,0.12
			c0.31,0.08,0.58,0.2,0.81,0.35c0.15,0.1,0.24,0.22,0.27,0.35c0.03,0.14,0.01,0.26-0.05,0.37c-0.06,0.11-0.16,0.19-0.29,0.23
			s-0.27,0-0.43-0.1c-0.18-0.12-0.37-0.2-0.58-0.25c-0.21-0.05-0.42-0.08-0.63-0.08c-0.62,0-1.09,0.19-1.41,0.56
			c-0.32,0.37-0.49,0.9-0.49,1.59c0,0.69,0.16,1.22,0.49,1.6c0.32,0.38,0.8,0.56,1.41,0.56c0.22,0,0.44-0.03,0.65-0.08
			c0.21-0.05,0.42-0.14,0.61-0.26c0.16-0.1,0.29-0.13,0.42-0.1c0.12,0.03,0.21,0.11,0.27,0.21c0.06,0.11,0.08,0.22,0.06,0.35
			c-0.02,0.13-0.1,0.24-0.23,0.34c-0.23,0.17-0.51,0.3-0.83,0.39C14.02,116.48,13.69,116.53,13.36,116.53z"/>
		<path class="st0" d="M17.95,116.53c-0.44,0-0.82-0.09-1.15-0.27c-0.32-0.18-0.58-0.44-0.76-0.77c-0.18-0.33-0.27-0.72-0.27-1.18
			c0-0.45,0.09-0.84,0.27-1.17c0.18-0.33,0.43-0.58,0.76-0.76c0.32-0.18,0.71-0.27,1.15-0.27c0.44,0,0.82,0.09,1.15,0.27
			c0.32,0.18,0.58,0.43,0.76,0.76c0.18,0.33,0.27,0.72,0.27,1.17c0,0.45-0.09,0.84-0.27,1.18c-0.18,0.33-0.43,0.59-0.76,0.77
			C18.77,116.44,18.39,116.53,17.95,116.53z M17.95,115.7c0.32,0,0.58-0.12,0.78-0.35c0.2-0.23,0.3-0.58,0.3-1.04
			c0-0.46-0.1-0.81-0.3-1.04c-0.2-0.23-0.46-0.34-0.78-0.34c-0.32,0-0.58,0.11-0.78,0.34c-0.2,0.23-0.3,0.57-0.3,1.04
			c0,0.46,0.1,0.8,0.3,1.04C17.36,115.58,17.62,115.7,17.95,115.7z"/>
		<path class="st0" d="M22.95,116.53c-0.44,0-0.82-0.09-1.15-0.27c-0.32-0.18-0.58-0.44-0.76-0.77c-0.18-0.33-0.27-0.72-0.27-1.18
			c0-0.45,0.09-0.84,0.27-1.17c0.18-0.33,0.43-0.58,0.76-0.76c0.32-0.18,0.71-0.27,1.15-0.27c0.44,0,0.82,0.09,1.15,0.27
			c0.32,0.18,0.58,0.43,0.76,0.76c0.18,0.33,0.27,0.72,0.27,1.17c0,0.45-0.09,0.84-0.27,1.18c-0.18,0.33-0.43,0.59-0.76,0.77
			C23.77,116.44,23.39,116.53,22.95,116.53z M22.95,115.7c0.32,0,0.58-0.12,0.78-0.35c0.2-0.23,0.3-0.58,0.3-1.04
			c0-0.46-0.1-0.81-0.3-1.04c-0.2-0.23-0.46-0.34-0.78-0.34c-0.32,0-0.58,0.11-0.78,0.34c-0.2,0.23-0.3,0.57-0.3,1.04
			c0,0.46,0.1,0.8,0.3,1.04C22.36,115.58,22.62,115.7,22.95,115.7z"/>
		<path class="st0" d="M26.55,118.07c-0.36,0-0.54-0.18-0.54-0.55v-4.85c0-0.36,0.18-0.55,0.53-0.55c0.36,0,0.54,0.18,0.54,0.55
			v0.18c0.12-0.23,0.3-0.41,0.55-0.54c0.24-0.14,0.52-0.2,0.83-0.2c0.37,0,0.7,0.09,0.98,0.27c0.28,0.18,0.5,0.43,0.66,0.76
			c0.16,0.33,0.23,0.72,0.23,1.18c0,0.45-0.08,0.84-0.23,1.18s-0.37,0.59-0.65,0.77c-0.28,0.18-0.6,0.27-0.98,0.27
			c-0.3,0-0.57-0.06-0.81-0.2c-0.24-0.13-0.42-0.3-0.55-0.52v1.72C27.09,117.89,26.91,118.07,26.55,118.07z M28.15,115.7
			c0.32,0,0.58-0.12,0.78-0.35c0.2-0.23,0.29-0.58,0.29-1.04c0-0.46-0.1-0.81-0.29-1.04c-0.2-0.23-0.46-0.34-0.78-0.34
			c-0.32,0-0.58,0.11-0.78,0.34c-0.2,0.23-0.3,0.57-0.3,1.04c0,0.46,0.1,0.8,0.3,1.04C27.57,115.58,27.83,115.7,28.15,115.7z"/>
		<path class="st0" d="M33.31,116.53c-0.48,0-0.89-0.09-1.24-0.27c-0.35-0.18-0.61-0.43-0.8-0.76c-0.19-0.33-0.28-0.72-0.28-1.17
			c0-0.44,0.09-0.82,0.27-1.15c0.18-0.33,0.43-0.59,0.76-0.78c0.32-0.19,0.69-0.28,1.1-0.28c0.6,0,1.08,0.19,1.43,0.57
			c0.35,0.38,0.53,0.9,0.53,1.56c0,0.21-0.14,0.32-0.42,0.32h-2.62c0.08,0.76,0.51,1.14,1.3,1.14c0.15,0,0.32-0.02,0.51-0.06
			c0.19-0.04,0.37-0.1,0.53-0.2c0.15-0.09,0.28-0.11,0.38-0.08c0.1,0.03,0.18,0.09,0.22,0.19c0.04,0.09,0.05,0.2,0.02,0.31
			c-0.03,0.11-0.11,0.21-0.25,0.29c-0.2,0.13-0.44,0.22-0.7,0.28C33.78,116.5,33.53,116.53,33.31,116.53z M33.15,112.85
			c-0.32,0-0.58,0.1-0.77,0.3c-0.2,0.2-0.32,0.46-0.36,0.8h2.13c-0.02-0.35-0.12-0.62-0.29-0.81
			C33.7,112.94,33.46,112.85,33.15,112.85z"/>
		<path class="st0" d="M36.48,116.51c-0.37,0-0.56-0.19-0.56-0.56v-3.28c0-0.36,0.18-0.55,0.53-0.55c0.35,0,0.53,0.18,0.53,0.55
			v0.27c0.21-0.5,0.65-0.78,1.34-0.83c0.25-0.03,0.39,0.11,0.42,0.43c0.03,0.31-0.12,0.48-0.45,0.51l-0.19,0.02
			c-0.71,0.07-1.07,0.43-1.07,1.09v1.8C37.02,116.32,36.84,116.51,36.48,116.51z"/>
		<path class="st0" d="M40.68,116.53c-0.31,0-0.58-0.06-0.82-0.18c-0.24-0.12-0.43-0.28-0.56-0.48c-0.14-0.2-0.2-0.43-0.2-0.69
			c0-0.31,0.08-0.56,0.24-0.74c0.16-0.18,0.43-0.31,0.79-0.39c0.36-0.08,0.85-0.12,1.47-0.12h0.3v-0.18c0-0.29-0.06-0.5-0.19-0.62
			c-0.13-0.13-0.34-0.19-0.64-0.19c-0.17,0-0.35,0.02-0.54,0.06c-0.19,0.04-0.4,0.11-0.61,0.21c-0.14,0.06-0.25,0.07-0.35,0.02
			c-0.09-0.05-0.15-0.13-0.19-0.23c-0.03-0.11-0.03-0.22,0.02-0.33c0.04-0.11,0.13-0.19,0.26-0.24c0.27-0.11,0.52-0.19,0.77-0.23
			c0.25-0.05,0.47-0.07,0.67-0.07c0.62,0,1.08,0.14,1.38,0.43s0.45,0.73,0.45,1.33v2.08c0,0.37-0.17,0.56-0.5,0.56
			c-0.34,0-0.51-0.19-0.51-0.56v-0.19c-0.1,0.24-0.25,0.42-0.47,0.56C41.23,116.46,40.97,116.53,40.68,116.53z M40.9,115.78
			c0.28,0,0.52-0.1,0.71-0.3c0.19-0.2,0.28-0.45,0.28-0.75v-0.19h-0.3c-0.54,0-0.92,0.04-1.13,0.13c-0.21,0.08-0.32,0.24-0.32,0.46
			c0,0.19,0.07,0.35,0.2,0.47C40.48,115.72,40.66,115.78,40.9,115.78z"/>
		<path class="st0" d="M45.97,116.53c-1.12,0-1.68-0.56-1.68-1.67v-1.85h-0.45c-0.29,0-0.43-0.14-0.43-0.41
			c0-0.27,0.14-0.41,0.43-0.41h0.45v-0.79c0-0.36,0.18-0.55,0.55-0.55c0.36,0,0.54,0.18,0.54,0.55v0.79h0.92
			c0.29,0,0.43,0.14,0.43,0.41c0,0.27-0.14,0.41-0.43,0.41h-0.92v1.79c0,0.28,0.06,0.49,0.18,0.62c0.12,0.14,0.32,0.21,0.59,0.21
			c0.1,0,0.19-0.01,0.26-0.03c0.08-0.02,0.14-0.03,0.2-0.03c0.07-0.01,0.13,0.02,0.17,0.07c0.05,0.05,0.07,0.15,0.07,0.3
			c0,0.12-0.02,0.22-0.06,0.31c-0.04,0.09-0.11,0.15-0.2,0.19c-0.08,0.02-0.17,0.04-0.29,0.07
			C46.17,116.52,46.06,116.53,45.97,116.53z"/>
		<path class="st0" d="M48.01,111.33c-0.2,0-0.36-0.05-0.47-0.15c-0.11-0.1-0.17-0.24-0.17-0.42c0-0.19,0.06-0.33,0.17-0.43
			c0.11-0.1,0.27-0.15,0.47-0.15c0.43,0,0.64,0.19,0.64,0.57C48.65,111.14,48.44,111.33,48.01,111.33z M48.01,116.5
			c-0.17,0-0.31-0.05-0.4-0.16c-0.09-0.1-0.14-0.25-0.14-0.43v-3.18c0-0.39,0.18-0.59,0.54-0.59c0.36,0,0.55,0.2,0.55,0.59v3.18
			c0,0.19-0.05,0.33-0.14,0.43C48.32,116.45,48.19,116.5,48.01,116.5z"/>
		<path class="st0" d="M51.4,116.51c-0.29,0-0.5-0.15-0.64-0.46l-1.38-3.2c-0.08-0.19-0.08-0.36,0-0.5
			c0.08-0.14,0.24-0.22,0.47-0.22c0.13,0,0.24,0.03,0.32,0.09c0.08,0.06,0.15,0.18,0.22,0.34l1.04,2.6l1.08-2.61
			c0.06-0.16,0.14-0.27,0.22-0.33c0.08-0.06,0.2-0.09,0.34-0.09c0.18,0,0.32,0.07,0.39,0.22c0.08,0.14,0.07,0.31-0.01,0.49
			l-1.41,3.21C51.92,116.35,51.7,116.51,51.4,116.51z"/>
		<path class="st0" d="M55.57,116.53c-0.31,0-0.58-0.06-0.82-0.18c-0.24-0.12-0.43-0.28-0.56-0.48c-0.14-0.2-0.2-0.43-0.2-0.69
			c0-0.31,0.08-0.56,0.24-0.74c0.16-0.18,0.43-0.31,0.79-0.39c0.36-0.08,0.85-0.12,1.47-0.12h0.3v-0.18c0-0.29-0.06-0.5-0.19-0.62
			c-0.13-0.13-0.34-0.19-0.64-0.19c-0.17,0-0.35,0.02-0.54,0.06c-0.19,0.04-0.4,0.11-0.61,0.21c-0.14,0.06-0.25,0.07-0.35,0.02
			c-0.09-0.05-0.15-0.13-0.19-0.23c-0.03-0.11-0.03-0.22,0.02-0.33c0.04-0.11,0.13-0.19,0.26-0.24c0.27-0.11,0.52-0.19,0.77-0.23
			c0.25-0.05,0.47-0.07,0.67-0.07c0.62,0,1.08,0.14,1.38,0.43c0.3,0.29,0.45,0.73,0.45,1.33v2.08c0,0.37-0.17,0.56-0.5,0.56
			c-0.34,0-0.51-0.19-0.51-0.56v-0.19c-0.1,0.24-0.25,0.42-0.47,0.56C56.12,116.46,55.86,116.53,55.57,116.53z M55.79,115.78
			c0.28,0,0.52-0.1,0.71-0.3c0.19-0.2,0.28-0.45,0.28-0.75v-0.19h-0.3c-0.54,0-0.92,0.04-1.13,0.13c-0.21,0.08-0.32,0.24-0.32,0.46
			c0,0.19,0.07,0.35,0.2,0.47C55.37,115.72,55.56,115.78,55.79,115.78z"/>
		<path class="st0" d="M61.96,116.44c-0.39,0-0.59-0.2-0.59-0.59v-4.94c0-0.39,0.2-0.59,0.59-0.59h3.1c0.3,0,0.45,0.14,0.45,0.43
			c0,0.3-0.15,0.45-0.45,0.45h-2.62v1.68h2.43c0.3,0,0.45,0.15,0.45,0.44s-0.15,0.44-0.45,0.44h-2.43v1.78h2.62
			c0.3,0,0.45,0.15,0.45,0.44s-0.15,0.44-0.45,0.44H61.96z"/>
		<path class="st0" d="M67.01,116.51c-0.36,0-0.54-0.19-0.54-0.56v-3.28c0-0.36,0.18-0.55,0.53-0.55c0.35,0,0.53,0.18,0.53,0.55
			v0.17c0.13-0.23,0.3-0.41,0.53-0.54c0.23-0.13,0.49-0.2,0.78-0.2c0.64,0,1.05,0.28,1.25,0.83c0.13-0.26,0.32-0.46,0.57-0.61
			c0.25-0.15,0.53-0.22,0.85-0.22c0.95,0,1.43,0.58,1.43,1.74v2.1c0,0.37-0.18,0.56-0.55,0.56c-0.36,0-0.54-0.19-0.54-0.56v-2.06
			c0-0.32-0.05-0.56-0.16-0.71c-0.11-0.15-0.29-0.23-0.54-0.23c-0.28,0-0.51,0.1-0.67,0.3c-0.16,0.2-0.24,0.48-0.24,0.83v1.87
			c0,0.37-0.18,0.56-0.54,0.56c-0.36,0-0.55-0.19-0.55-0.56v-2.06c0-0.32-0.05-0.56-0.16-0.71c-0.11-0.15-0.28-0.23-0.53-0.23
			c-0.28,0-0.51,0.1-0.67,0.3c-0.16,0.2-0.24,0.48-0.24,0.83v1.87C67.55,116.32,67.37,116.51,67.01,116.51z"/>
		<path class="st0" d="M74.6,118.07c-0.36,0-0.54-0.18-0.54-0.55v-4.85c0-0.36,0.18-0.55,0.53-0.55c0.36,0,0.54,0.18,0.54,0.55v0.18
			c0.12-0.23,0.3-0.41,0.55-0.54c0.24-0.14,0.52-0.2,0.83-0.2c0.37,0,0.7,0.09,0.98,0.27c0.28,0.18,0.5,0.43,0.66,0.76
			c0.16,0.33,0.23,0.72,0.23,1.18c0,0.45-0.08,0.84-0.23,1.18c-0.16,0.33-0.37,0.59-0.65,0.77c-0.28,0.18-0.6,0.27-0.98,0.27
			c-0.3,0-0.57-0.06-0.81-0.2c-0.24-0.13-0.42-0.3-0.55-0.52v1.72C75.15,117.89,74.96,118.07,74.6,118.07z M76.21,115.7
			c0.32,0,0.58-0.12,0.78-0.35c0.2-0.23,0.29-0.58,0.29-1.04c0-0.46-0.1-0.81-0.29-1.04c-0.2-0.23-0.46-0.34-0.78-0.34
			c-0.32,0-0.58,0.11-0.78,0.34c-0.2,0.23-0.3,0.57-0.3,1.04c0,0.46,0.1,0.8,0.3,1.04C75.62,115.58,75.88,115.7,76.21,115.7z"/>
		<path class="st0" d="M79.82,116.51c-0.37,0-0.56-0.19-0.56-0.56v-3.28c0-0.36,0.18-0.55,0.53-0.55c0.35,0,0.53,0.18,0.53,0.55
			v0.27c0.21-0.5,0.65-0.78,1.34-0.83c0.25-0.03,0.39,0.11,0.42,0.43c0.03,0.31-0.12,0.48-0.45,0.51l-0.19,0.02
			c-0.71,0.07-1.07,0.43-1.07,1.09v1.8C80.37,116.32,80.19,116.51,79.82,116.51z"/>
		<path class="st0" d="M84.69,116.53c-0.48,0-0.89-0.09-1.24-0.27c-0.35-0.18-0.61-0.43-0.8-0.76c-0.19-0.33-0.28-0.72-0.28-1.17
			c0-0.44,0.09-0.82,0.27-1.15s0.43-0.59,0.76-0.78c0.32-0.19,0.69-0.28,1.1-0.28c0.6,0,1.08,0.19,1.43,0.57
			c0.35,0.38,0.53,0.9,0.53,1.56c0,0.21-0.14,0.32-0.42,0.32h-2.62c0.08,0.76,0.51,1.14,1.3,1.14c0.15,0,0.32-0.02,0.51-0.06
			s0.37-0.1,0.53-0.2c0.15-0.09,0.28-0.11,0.38-0.08c0.1,0.03,0.18,0.09,0.22,0.19c0.04,0.09,0.05,0.2,0.02,0.31
			c-0.03,0.11-0.11,0.21-0.25,0.29c-0.2,0.13-0.44,0.22-0.7,0.28C85.16,116.5,84.92,116.53,84.69,116.53z M84.54,112.85
			c-0.32,0-0.58,0.1-0.77,0.3c-0.2,0.2-0.32,0.46-0.36,0.8h2.13c-0.02-0.35-0.12-0.62-0.29-0.81
			C85.08,112.94,84.84,112.85,84.54,112.85z"/>
		<path class="st0" d="M88.86,116.53c-0.25,0-0.51-0.03-0.79-0.08c-0.28-0.05-0.53-0.14-0.75-0.27c-0.12-0.07-0.2-0.15-0.23-0.26
			c-0.03-0.1-0.02-0.2,0.01-0.29c0.04-0.09,0.1-0.15,0.19-0.2c0.09-0.04,0.2-0.03,0.32,0.03c0.23,0.11,0.45,0.19,0.65,0.23
			c0.2,0.04,0.4,0.07,0.6,0.07c0.28,0,0.48-0.05,0.62-0.14c0.14-0.1,0.2-0.22,0.2-0.38c0-0.24-0.18-0.4-0.54-0.47l-0.87-0.16
			c-0.73-0.14-1.1-0.52-1.1-1.15c0-0.28,0.08-0.52,0.23-0.72c0.15-0.2,0.37-0.36,0.64-0.47c0.27-0.11,0.58-0.16,0.94-0.16
			c0.51,0,0.96,0.11,1.36,0.34c0.11,0.06,0.17,0.14,0.2,0.24c0.02,0.1,0.01,0.2-0.03,0.29c-0.04,0.09-0.11,0.15-0.2,0.19
			c-0.09,0.04-0.2,0.03-0.32-0.03c-0.18-0.09-0.35-0.16-0.52-0.2c-0.16-0.04-0.32-0.06-0.47-0.06c-0.28,0-0.49,0.05-0.63,0.15
			c-0.14,0.1-0.2,0.23-0.2,0.39c0,0.25,0.16,0.41,0.49,0.47l0.87,0.16c0.38,0.07,0.66,0.2,0.85,0.38c0.19,0.19,0.29,0.43,0.29,0.75
			c0,0.42-0.16,0.75-0.49,0.99C89.85,116.41,89.41,116.53,88.86,116.53z"/>
		<path class="st0" d="M92.94,116.53c-0.31,0-0.58-0.06-0.82-0.18c-0.24-0.12-0.43-0.28-0.56-0.48c-0.14-0.2-0.2-0.43-0.2-0.69
			c0-0.31,0.08-0.56,0.24-0.74c0.16-0.18,0.43-0.31,0.79-0.39c0.36-0.08,0.85-0.12,1.47-0.12h0.3v-0.18c0-0.29-0.06-0.5-0.19-0.62
			c-0.13-0.13-0.34-0.19-0.64-0.19c-0.17,0-0.35,0.02-0.54,0.06c-0.19,0.04-0.4,0.11-0.61,0.21c-0.14,0.06-0.25,0.07-0.35,0.02
			c-0.09-0.05-0.15-0.13-0.19-0.23c-0.03-0.11-0.03-0.22,0.02-0.33c0.04-0.11,0.13-0.19,0.26-0.24c0.27-0.11,0.52-0.19,0.77-0.23
			c0.25-0.05,0.47-0.07,0.67-0.07c0.62,0,1.08,0.14,1.38,0.43c0.3,0.29,0.45,0.73,0.45,1.33v2.08c0,0.37-0.17,0.56-0.5,0.56
			c-0.34,0-0.51-0.19-0.51-0.56v-0.19c-0.1,0.24-0.25,0.42-0.47,0.56C93.49,116.46,93.23,116.53,92.94,116.53z M93.16,115.78
			c0.28,0,0.52-0.1,0.71-0.3c0.19-0.2,0.28-0.45,0.28-0.75v-0.19h-0.3c-0.54,0-0.92,0.04-1.13,0.13c-0.21,0.08-0.32,0.24-0.32,0.46
			c0,0.19,0.07,0.35,0.2,0.47C92.74,115.72,92.93,115.78,93.16,115.78z"/>
		<path class="st0" d="M96.84,116.51c-0.37,0-0.56-0.19-0.56-0.56v-3.28c0-0.36,0.18-0.55,0.53-0.55c0.35,0,0.53,0.18,0.53,0.55
			v0.27c0.21-0.5,0.65-0.78,1.34-0.83c0.25-0.03,0.39,0.11,0.42,0.43c0.03,0.31-0.12,0.48-0.45,0.51l-0.19,0.02
			c-0.71,0.07-1.07,0.43-1.07,1.09v1.8C97.39,116.32,97.21,116.51,96.84,116.51z"/>
		<path class="st0" d="M100.23,111.33c-0.2,0-0.36-0.05-0.47-0.15c-0.11-0.1-0.17-0.24-0.17-0.42c0-0.19,0.06-0.33,0.17-0.43
			c0.11-0.1,0.27-0.15,0.47-0.15c0.43,0,0.64,0.19,0.64,0.57C100.87,111.14,100.66,111.33,100.23,111.33z M100.23,116.5
			c-0.17,0-0.31-0.05-0.4-0.16c-0.09-0.1-0.14-0.25-0.14-0.43v-3.18c0-0.39,0.18-0.59,0.54-0.59c0.36,0,0.55,0.2,0.55,0.59v3.18
			c0,0.19-0.05,0.33-0.14,0.43C100.54,116.45,100.41,116.5,100.23,116.5z"/>
		<path class="st0" d="M103.3,116.53c-0.31,0-0.58-0.06-0.82-0.18c-0.24-0.12-0.43-0.28-0.56-0.48c-0.14-0.2-0.2-0.43-0.2-0.69
			c0-0.31,0.08-0.56,0.24-0.74c0.16-0.18,0.43-0.31,0.79-0.39c0.36-0.08,0.85-0.12,1.47-0.12h0.3v-0.18c0-0.29-0.06-0.5-0.19-0.62
			c-0.13-0.13-0.34-0.19-0.64-0.19c-0.17,0-0.35,0.02-0.54,0.06c-0.19,0.04-0.4,0.11-0.61,0.21c-0.14,0.06-0.25,0.07-0.35,0.02
			c-0.09-0.05-0.15-0.13-0.19-0.23c-0.03-0.11-0.03-0.22,0.02-0.33c0.04-0.11,0.13-0.19,0.26-0.24c0.27-0.11,0.52-0.19,0.77-0.23
			c0.25-0.05,0.47-0.07,0.67-0.07c0.62,0,1.08,0.14,1.38,0.43s0.45,0.73,0.45,1.33v2.08c0,0.37-0.17,0.56-0.5,0.56
			c-0.34,0-0.51-0.19-0.51-0.56v-0.19c-0.1,0.24-0.25,0.42-0.47,0.56C103.85,116.46,103.6,116.53,103.3,116.53z M103.53,115.78
			c0.28,0,0.52-0.1,0.71-0.3c0.19-0.2,0.28-0.45,0.28-0.75v-0.19h-0.3c-0.54,0-0.92,0.04-1.13,0.13c-0.21,0.08-0.32,0.24-0.32,0.46
			c0,0.19,0.07,0.35,0.2,0.47C103.1,115.72,103.29,115.78,103.53,115.78z"/>
		<g>
			<path class="st0" d="M106.95,116.55c-0.38,0-0.56-0.19-0.56-0.58v-5.19c0-0.39,0.19-0.58,0.56-0.58c0.38,0,0.56,0.19,0.56,0.58
				v5.19C107.52,116.36,107.33,116.55,106.95,116.55z"/>
		</g>
		<path class="st0" d="M113.4,116.53c-0.37,0-0.7-0.09-0.98-0.27c-0.28-0.18-0.5-0.44-0.66-0.77c-0.16-0.33-0.23-0.72-0.23-1.18
			c0-0.46,0.08-0.85,0.23-1.18c0.16-0.33,0.37-0.58,0.66-0.76c0.28-0.18,0.61-0.27,0.98-0.27c0.3,0,0.57,0.07,0.82,0.2
			c0.24,0.13,0.43,0.31,0.55,0.53v-2.04c0-0.36,0.18-0.55,0.54-0.55c0.36,0,0.55,0.18,0.55,0.55v5.16c0,0.37-0.18,0.56-0.54,0.56
			c-0.36,0-0.54-0.19-0.54-0.56v-0.18c-0.12,0.23-0.3,0.42-0.55,0.55C113.98,116.46,113.71,116.53,113.4,116.53z M113.71,115.7
			c0.32,0,0.58-0.12,0.78-0.35c0.2-0.23,0.3-0.58,0.3-1.04c0-0.46-0.1-0.81-0.3-1.04c-0.2-0.23-0.46-0.34-0.78-0.34
			c-0.32,0-0.58,0.11-0.78,0.34c-0.2,0.23-0.3,0.57-0.3,1.04c0,0.46,0.1,0.8,0.3,1.04C113.12,115.58,113.38,115.7,113.71,115.7z"/>
		<path class="st0" d="M119.07,116.53c-0.48,0-0.89-0.09-1.24-0.27c-0.35-0.18-0.61-0.43-0.8-0.76c-0.19-0.33-0.28-0.72-0.28-1.17
			c0-0.44,0.09-0.82,0.27-1.15c0.18-0.33,0.43-0.59,0.76-0.78c0.32-0.19,0.69-0.28,1.1-0.28c0.6,0,1.08,0.19,1.43,0.57
			c0.35,0.38,0.53,0.9,0.53,1.56c0,0.21-0.14,0.32-0.42,0.32h-2.62c0.08,0.76,0.51,1.14,1.3,1.14c0.15,0,0.32-0.02,0.51-0.06
			s0.37-0.1,0.53-0.2c0.15-0.09,0.28-0.11,0.38-0.08c0.1,0.03,0.18,0.09,0.22,0.19c0.04,0.09,0.05,0.2,0.02,0.31
			c-0.03,0.11-0.11,0.21-0.25,0.29c-0.2,0.13-0.44,0.22-0.7,0.28C119.54,116.5,119.29,116.53,119.07,116.53z M118.91,112.85
			c-0.32,0-0.58,0.1-0.77,0.3c-0.2,0.2-0.32,0.46-0.36,0.8h2.13c-0.02-0.35-0.12-0.62-0.29-0.81
			C119.46,112.94,119.22,112.85,118.91,112.85z"/>
		<path class="st0" d="M124.2,116.51c-0.2,0-0.35-0.07-0.43-0.21c-0.09-0.14-0.08-0.31,0.01-0.5l2.29-5.08
			c0.08-0.17,0.17-0.29,0.27-0.36c0.11-0.07,0.23-0.11,0.37-0.11c0.13,0,0.25,0.04,0.36,0.11c0.11,0.07,0.2,0.19,0.27,0.36l2.3,5.08
			c0.09,0.2,0.1,0.37,0.02,0.51c-0.08,0.14-0.22,0.2-0.42,0.2c-0.16,0-0.29-0.04-0.38-0.12c-0.09-0.08-0.17-0.2-0.24-0.36
			l-0.43-1.01h-2.99l-0.43,1.01c-0.08,0.17-0.15,0.29-0.23,0.36C124.46,116.47,124.35,116.51,124.2,116.51z M126.69,111.53
			l-1.1,2.61h2.22l-1.1-2.61H126.69z"/>
		<path class="st0" d="M131.03,116.51c-0.36,0-0.54-0.19-0.54-0.56v-5.16c0-0.36,0.18-0.55,0.54-0.55c0.36,0,0.55,0.18,0.55,0.55
			v2.01c0.14-0.23,0.34-0.41,0.58-0.53c0.24-0.12,0.51-0.18,0.81-0.18c1,0,1.5,0.58,1.5,1.74v2.1c0,0.37-0.18,0.56-0.54,0.56
			c-0.36,0-0.55-0.19-0.55-0.56v-2.05c0-0.33-0.06-0.57-0.19-0.72c-0.12-0.15-0.32-0.23-0.58-0.23c-0.32,0-0.57,0.1-0.76,0.3
			c-0.19,0.2-0.28,0.46-0.28,0.79v1.9C131.57,116.32,131.39,116.51,131.03,116.51z"/>
		<path class="st0" d="M137.5,116.53c-0.44,0-0.82-0.09-1.15-0.27c-0.32-0.18-0.58-0.44-0.76-0.77c-0.18-0.33-0.27-0.72-0.27-1.18
			c0-0.45,0.09-0.84,0.27-1.17c0.18-0.33,0.43-0.58,0.76-0.76c0.32-0.18,0.71-0.27,1.15-0.27c0.44,0,0.82,0.09,1.15,0.27
			c0.32,0.18,0.58,0.43,0.76,0.76c0.18,0.33,0.27,0.72,0.27,1.17c0,0.45-0.09,0.84-0.27,1.18c-0.18,0.33-0.43,0.59-0.76,0.77
			C138.32,116.44,137.94,116.53,137.5,116.53z M137.5,115.7c0.32,0,0.58-0.12,0.78-0.35c0.2-0.23,0.3-0.58,0.3-1.04
			c0-0.46-0.1-0.81-0.3-1.04c-0.2-0.23-0.46-0.34-0.78-0.34c-0.32,0-0.58,0.11-0.78,0.34c-0.2,0.23-0.3,0.57-0.3,1.04
			c0,0.46,0.1,0.8,0.3,1.04C136.92,115.58,137.18,115.7,137.5,115.7z"/>
		<path class="st0" d="M141.12,116.51c-0.37,0-0.56-0.19-0.56-0.56v-3.28c0-0.36,0.18-0.55,0.53-0.55c0.35,0,0.53,0.18,0.53,0.55
			v0.27c0.21-0.5,0.65-0.78,1.34-0.83c0.25-0.03,0.39,0.11,0.42,0.43c0.03,0.31-0.12,0.48-0.45,0.51l-0.19,0.02
			c-0.71,0.07-1.07,0.43-1.07,1.09v1.8C141.67,116.32,141.49,116.51,141.12,116.51z"/>
		<path class="st0" d="M144.52,116.51c-0.37,0-0.56-0.19-0.56-0.56v-3.28c0-0.36,0.18-0.55,0.53-0.55c0.35,0,0.53,0.18,0.53,0.55
			v0.27c0.21-0.5,0.65-0.78,1.34-0.83c0.25-0.03,0.39,0.11,0.42,0.43c0.03,0.31-0.12,0.48-0.45,0.51l-0.19,0.02
			c-0.71,0.07-1.07,0.43-1.07,1.09v1.8C145.07,116.32,144.89,116.51,144.52,116.51z"/>
		<path class="st0" d="M149.24,116.53c-0.44,0-0.82-0.09-1.15-0.27c-0.32-0.18-0.58-0.44-0.76-0.77c-0.18-0.33-0.27-0.72-0.27-1.18
			c0-0.45,0.09-0.84,0.27-1.17c0.18-0.33,0.43-0.58,0.76-0.76c0.32-0.18,0.71-0.27,1.15-0.27c0.44,0,0.82,0.09,1.15,0.27
			c0.32,0.18,0.58,0.43,0.76,0.76c0.18,0.33,0.27,0.72,0.27,1.17c0,0.45-0.09,0.84-0.27,1.18c-0.18,0.33-0.43,0.59-0.76,0.77
			C150.06,116.44,149.67,116.53,149.24,116.53z M149.24,115.7c0.32,0,0.58-0.12,0.78-0.35c0.2-0.23,0.3-0.58,0.3-1.04
			c0-0.46-0.1-0.81-0.3-1.04c-0.2-0.23-0.46-0.34-0.78-0.34c-0.32,0-0.58,0.11-0.78,0.34c-0.2,0.23-0.3,0.57-0.3,1.04
			c0,0.46,0.1,0.8,0.3,1.04C148.65,115.58,148.91,115.7,149.24,115.7z"/>
		<path class="st0" d="M155.73,118.07c-0.2,0-0.33-0.07-0.41-0.22c-0.08-0.14-0.07-0.31,0.01-0.49l0.49-1.09l-1.48-3.42
			c-0.08-0.19-0.08-0.36,0-0.5c0.08-0.14,0.24-0.22,0.48-0.22c0.13,0,0.24,0.03,0.32,0.09c0.08,0.06,0.15,0.18,0.22,0.34l1.04,2.6
			l1.07-2.61c0.06-0.16,0.14-0.27,0.23-0.33c0.09-0.06,0.2-0.09,0.35-0.09c0.18,0,0.32,0.07,0.39,0.22
			c0.08,0.14,0.07,0.31-0.01,0.49l-2.11,4.82c-0.08,0.16-0.16,0.27-0.24,0.33C155.98,118.04,155.87,118.07,155.73,118.07z"/>
		<path class="st0" d="M164.52,116.53c-0.64,0-1.18-0.13-1.64-0.39c-0.45-0.26-0.8-0.62-1.05-1.09s-0.36-1.03-0.36-1.67
			c0-0.64,0.12-1.2,0.36-1.67c0.24-0.47,0.59-0.83,1.05-1.09c0.45-0.26,1-0.39,1.64-0.39c0.32,0,0.63,0.04,0.94,0.12
			c0.31,0.08,0.58,0.2,0.81,0.35c0.15,0.1,0.24,0.22,0.27,0.35c0.03,0.14,0.01,0.26-0.05,0.37c-0.06,0.11-0.16,0.19-0.29,0.23
			s-0.27,0-0.43-0.1c-0.18-0.12-0.37-0.2-0.58-0.25c-0.21-0.05-0.42-0.08-0.63-0.08c-0.62,0-1.09,0.19-1.41,0.56
			c-0.32,0.37-0.49,0.9-0.49,1.59c0,0.69,0.16,1.22,0.49,1.6c0.32,0.38,0.8,0.56,1.41,0.56c0.22,0,0.44-0.03,0.65-0.08
			c0.21-0.05,0.42-0.14,0.61-0.26c0.16-0.1,0.29-0.13,0.42-0.1c0.12,0.03,0.21,0.11,0.27,0.21c0.06,0.11,0.08,0.22,0.06,0.35
			c-0.02,0.13-0.1,0.24-0.23,0.34c-0.23,0.17-0.51,0.3-0.83,0.39C165.17,116.48,164.85,116.53,164.52,116.53z"/>
		<path class="st0" d="M168.02,116.51c-0.37,0-0.56-0.19-0.56-0.56v-3.28c0-0.36,0.18-0.55,0.53-0.55c0.35,0,0.53,0.18,0.53,0.55
			v0.27c0.21-0.5,0.65-0.78,1.34-0.83c0.25-0.03,0.39,0.11,0.42,0.43c0.03,0.31-0.12,0.48-0.45,0.51l-0.19,0.02
			c-0.71,0.07-1.07,0.43-1.07,1.09v1.8C168.57,116.32,168.39,116.51,168.02,116.51z"/>
		<path class="st0" d="M172.89,116.53c-0.48,0-0.89-0.09-1.24-0.27c-0.35-0.18-0.61-0.43-0.8-0.76c-0.19-0.33-0.28-0.72-0.28-1.17
			c0-0.44,0.09-0.82,0.27-1.15s0.43-0.59,0.76-0.78c0.32-0.19,0.69-0.28,1.1-0.28c0.6,0,1.08,0.19,1.43,0.57
			c0.35,0.38,0.53,0.9,0.53,1.56c0,0.21-0.14,0.32-0.42,0.32h-2.62c0.08,0.76,0.51,1.14,1.3,1.14c0.15,0,0.32-0.02,0.51-0.06
			c0.19-0.04,0.37-0.1,0.53-0.2c0.15-0.09,0.28-0.11,0.38-0.08c0.1,0.03,0.18,0.09,0.22,0.19c0.04,0.09,0.05,0.2,0.02,0.31
			c-0.03,0.11-0.11,0.21-0.25,0.29c-0.2,0.13-0.44,0.22-0.7,0.28C173.36,116.5,173.12,116.53,172.89,116.53z M172.74,112.85
			c-0.32,0-0.58,0.1-0.77,0.3c-0.2,0.2-0.32,0.46-0.36,0.8h2.13c-0.02-0.35-0.12-0.62-0.29-0.81
			C173.28,112.94,173.04,112.85,172.74,112.85z M173.11,111.58c-0.06,0.08-0.13,0.13-0.21,0.14c-0.08,0.01-0.16,0-0.23-0.04
			c-0.08-0.04-0.13-0.1-0.16-0.17c-0.03-0.08-0.02-0.16,0.02-0.25l0.66-1.29c0.06-0.13,0.15-0.21,0.27-0.23
			c0.12-0.02,0.23,0,0.33,0.06c0.11,0.06,0.18,0.14,0.22,0.25c0.04,0.11,0.02,0.22-0.06,0.33L173.11,111.58z"/>
		<path class="st0" d="M177.14,116.53c-0.37,0-0.7-0.09-0.98-0.27c-0.28-0.18-0.5-0.44-0.66-0.77c-0.16-0.33-0.23-0.72-0.23-1.18
			c0-0.46,0.08-0.85,0.23-1.18c0.16-0.33,0.37-0.58,0.66-0.76c0.28-0.18,0.61-0.27,0.98-0.27c0.3,0,0.57,0.07,0.82,0.2
			s0.43,0.31,0.55,0.53v-2.04c0-0.36,0.18-0.55,0.54-0.55c0.36,0,0.55,0.18,0.55,0.55v5.16c0,0.37-0.18,0.56-0.54,0.56
			c-0.36,0-0.54-0.19-0.54-0.56v-0.18c-0.12,0.23-0.3,0.42-0.55,0.55C177.72,116.46,177.44,116.53,177.14,116.53z M177.44,115.7
			c0.32,0,0.58-0.12,0.78-0.35c0.2-0.23,0.3-0.58,0.3-1.04c0-0.46-0.1-0.81-0.3-1.04c-0.2-0.23-0.46-0.34-0.78-0.34
			c-0.32,0-0.58,0.11-0.78,0.34c-0.2,0.23-0.3,0.57-0.3,1.04c0,0.46,0.1,0.8,0.3,1.04C176.86,115.58,177.12,115.7,177.44,115.7z"/>
		<path class="st0" d="M181.25,111.33c-0.2,0-0.36-0.05-0.47-0.15c-0.11-0.1-0.17-0.24-0.17-0.42c0-0.19,0.06-0.33,0.17-0.43
			c0.11-0.1,0.27-0.15,0.47-0.15c0.43,0,0.64,0.19,0.64,0.57C181.89,111.14,181.68,111.33,181.25,111.33z M181.25,116.5
			c-0.17,0-0.31-0.05-0.4-0.16c-0.09-0.1-0.14-0.25-0.14-0.43v-3.18c0-0.39,0.18-0.59,0.54-0.59c0.36,0,0.55,0.2,0.55,0.59v3.18
			c0,0.19-0.05,0.33-0.14,0.43C181.57,116.45,181.43,116.5,181.25,116.5z"/>
		<path class="st0" d="M184.87,116.53c-1.12,0-1.68-0.56-1.68-1.67v-1.85h-0.45c-0.29,0-0.43-0.14-0.43-0.41
			c0-0.27,0.14-0.41,0.43-0.41h0.45v-0.79c0-0.36,0.18-0.55,0.55-0.55c0.36,0,0.54,0.18,0.54,0.55v0.79h0.92
			c0.29,0,0.43,0.14,0.43,0.41c0,0.27-0.14,0.41-0.43,0.41h-0.92v1.79c0,0.28,0.06,0.49,0.18,0.62c0.12,0.14,0.32,0.21,0.59,0.21
			c0.1,0,0.19-0.01,0.26-0.03s0.14-0.03,0.2-0.03c0.07-0.01,0.13,0.02,0.17,0.07c0.05,0.05,0.07,0.15,0.07,0.3
			c0,0.12-0.02,0.22-0.06,0.31c-0.04,0.09-0.11,0.15-0.2,0.19c-0.08,0.02-0.17,0.04-0.29,0.07
			C185.07,116.52,184.96,116.53,184.87,116.53z"/>
		<path class="st0" d="M188.15,116.53c-0.44,0-0.82-0.09-1.15-0.27c-0.32-0.18-0.58-0.44-0.76-0.77c-0.18-0.33-0.27-0.72-0.27-1.18
			c0-0.45,0.09-0.84,0.27-1.17c0.18-0.33,0.43-0.58,0.76-0.76c0.32-0.18,0.71-0.27,1.15-0.27c0.44,0,0.82,0.09,1.15,0.27
			c0.32,0.18,0.58,0.43,0.76,0.76c0.18,0.33,0.27,0.72,0.27,1.17c0,0.45-0.09,0.84-0.27,1.18c-0.18,0.33-0.43,0.59-0.76,0.77
			C188.97,116.44,188.59,116.53,188.15,116.53z M188.15,115.7c0.32,0,0.58-0.12,0.78-0.35c0.2-0.23,0.3-0.58,0.3-1.04
			c0-0.46-0.1-0.81-0.3-1.04c-0.2-0.23-0.46-0.34-0.78-0.34c-0.32,0-0.58,0.11-0.78,0.34c-0.2,0.23-0.3,0.57-0.3,1.04
			c0,0.46,0.1,0.8,0.3,1.04C187.56,115.58,187.82,115.7,188.15,115.7z"/>
	</g>
</g>
</svg>
