<?xml version="1.0" encoding="utf-8"?>
<!-- Generator: Adobe Illustrator 24.1.1, SVG Export Plug-In . SVG Version: 6.00 Build 0)  -->
<svg version="1.0" id="Capa_1" xmlns="http://www.w3.org/2000/svg" xmlns:xlink="http://www.w3.org/1999/xlink" x="0px" y="0px"
	 viewBox="0 0 300 120" style="enable-background:new 0 0 300 120;" xml:space="preserve">
<style type="text/css">
	.st0{fill:#FFFFFF;}
</style>
<g>
	<g>
		<g>
			<path class="st0" d="M120.48,9.48l-1.96,1.82c-1.33-1.37-2.83-2.06-4.49-2.06c-1.4,0-2.59,0.47-3.55,1.4
				c-0.96,0.94-1.44,2.09-1.44,3.46c0,0.96,0.21,1.8,0.64,2.54c0.43,0.74,1.03,1.32,1.81,1.74c0.78,0.42,1.64,0.63,2.6,0.63
				c0.81,0,1.55-0.15,2.23-0.44c0.67-0.3,1.41-0.83,2.22-1.61l1.9,1.93c-1.09,1.03-2.11,1.75-3.08,2.15c-0.97,0.4-2.07,0.6-3.31,0.6
				c-2.28,0-4.15-0.71-5.61-2.12c-1.46-1.41-2.18-3.22-2.18-5.43c0-1.43,0.33-2.7,0.99-3.81s1.61-2,2.85-2.68
				c1.24-0.67,2.57-1.01,3.99-1.01c1.21,0,2.38,0.25,3.5,0.75C118.7,7.85,119.67,8.56,120.48,9.48z"/>
			<path class="st0" d="M126.51,6.96h2.84L135,21.28h-2.91l-1.15-2.95h-6l-1.2,2.95h-2.91L126.51,6.96z M127.95,10.76l-1.97,4.92
				h3.93L127.95,10.76z M128.42,2.04h3.23l-3.66,3.82h-1.96L128.42,2.04z"/>
			<path class="st0" d="M137.69,6.96h2.73l3.41,9.99l3.44-9.99h2.72l2.47,14.32h-2.71l-1.58-9.05l-3.12,9.05h-2.47l-3.09-9.05
				l-1.61,9.05h-2.73L137.69,6.96z"/>
			<path class="st0" d="M158.26,6.96h2.84l5.65,14.32h-2.91l-1.15-2.95h-6l-1.2,2.95h-2.91L158.26,6.96z M159.7,10.76l-1.97,4.92
				h3.93L159.7,10.76z"/>
			<path class="st0" d="M168.2,6.96h2.96c1.62,0,2.78,0.14,3.47,0.42c0.69,0.28,1.24,0.75,1.66,1.41c0.42,0.66,0.63,1.43,0.63,2.33
				c0,0.94-0.23,1.73-0.69,2.36s-1.16,1.11-2.09,1.44l3.48,6.37h-3.06l-3.31-6.07H171v6.07h-2.8V6.96z M171,12.56h0.88
				c0.89,0,1.5-0.11,1.84-0.34c0.34-0.23,0.5-0.61,0.5-1.13c0-0.31-0.08-0.58-0.25-0.82c-0.17-0.23-0.39-0.4-0.67-0.5
				c-0.28-0.1-0.79-0.15-1.53-0.15H171V12.56z"/>
			<path class="st0" d="M183.47,6.96h2.84l5.65,14.32h-2.91l-1.15-2.95h-6l-1.2,2.95h-2.91L183.47,6.96z M184.9,10.76l-1.97,4.92
				h3.93L184.9,10.76z"/>
		</g>
	</g>
	<g>
		<path class="st0" d="M106.43,76.92h12.3v4.09h-8.04v3.97h8.04V89h-8.04v5.78h8.04v4.11h-12.3V76.92z"/>
		<path class="st0" d="M121.35,76.92h4.29V94.9h6.25v3.99h-10.54L121.35,76.92L121.35,76.92z"/>
		<path class="st0" d="M133.79,76.92h12.3v4.09h-8.04v3.97h8.04V89h-8.04v5.78h8.04v4.11h-12.3V76.92z"/>
		<path class="st0" d="M169.42,80.78l-3,2.79c-2.04-2.1-4.34-3.15-6.89-3.15c-2.15,0-3.97,0.72-5.44,2.15
			c-1.47,1.43-2.21,3.2-2.21,5.31c0,1.46,0.33,2.76,0.98,3.9c0.65,1.14,1.58,2.03,2.77,2.68c1.19,0.65,2.52,0.97,3.98,0.97
			c1.24,0,2.38-0.23,3.41-0.68c1.03-0.45,2.16-1.28,3.4-2.47l2.91,2.96c-1.66,1.58-3.24,2.68-4.72,3.29
			c-1.48,0.61-3.17,0.92-5.07,0.92c-3.5,0-6.37-1.08-8.6-3.25c-2.23-2.16-3.35-4.94-3.35-8.32c0-2.19,0.51-4.14,1.52-5.84
			c1.02-1.7,2.47-3.07,4.37-4.11c1.89-1.04,3.93-1.55,6.12-1.55c1.86,0,3.65,0.38,5.37,1.15C166.69,78.28,168.17,79.37,169.42,80.78
			z"/>
		<path class="st0" d="M169.57,76.92h12.46v4.12h-4.11v17.84h-4.35V81.04h-4L169.57,76.92L169.57,76.92z"/>
		<path class="st0" d="M183.88,76.92h4.54c2.49,0,4.26,0.22,5.32,0.65c1.06,0.43,1.9,1.15,2.55,2.16c0.64,1.01,0.96,2.19,0.96,3.57
			c0,1.44-0.36,2.65-1.06,3.62c-0.71,0.97-1.78,1.7-3.21,2.2l5.34,9.76h-4.69l-5.07-9.3h-0.39v9.3h-4.29L183.88,76.92L183.88,76.92
			L183.88,76.92z M188.17,85.51h1.34c1.36,0,2.3-0.17,2.82-0.52c0.51-0.35,0.77-0.93,0.77-1.74c0-0.48-0.13-0.9-0.38-1.25
			c-0.25-0.35-0.6-0.61-1.02-0.76c-0.43-0.15-1.21-0.23-2.35-0.23h-1.18V85.51L188.17,85.51z"/>
		<path class="st0" d="M211.05,76.37c3.19,0,5.93,1.12,8.22,3.37c2.29,2.25,3.44,4.99,3.44,8.23c0,3.21-1.13,5.92-3.4,8.14
			c-2.26,2.22-5.01,3.33-8.24,3.33c-3.38,0-6.19-1.14-8.43-3.42c-2.24-2.28-3.36-4.99-3.36-8.12c0-2.1,0.52-4.03,1.56-5.79
			c1.04-1.76,2.48-3.16,4.3-4.19C206.98,76.89,208.94,76.37,211.05,76.37z M211,80.46c-2.09,0-3.84,0.71-5.26,2.12
			c-1.42,1.41-2.13,3.21-2.13,5.39c0,2.43,0.89,4.35,2.68,5.76c1.39,1.11,2.99,1.66,4.78,1.66c2.03,0,3.77-0.72,5.2-2.15
			c1.43-1.43,2.15-3.2,2.15-5.3c0-2.09-0.72-3.86-2.16-5.31S213.07,80.46,211,80.46z M211.79,69.37h4.95l-5.61,5.85h-3L211.79,69.37
			z"/>
		<path class="st0" d="M225.39,76.92h4.11l9.64,14.45V76.92h4.29v21.96h-4.13l-9.63-14.41v14.41h-4.29V76.92z"/>
		<path class="st0" d="M246.9,76.92h4.26v21.96h-4.26V76.92z"/>
		<path class="st0" d="M275.32,80.78l-3,2.79c-2.04-2.1-4.34-3.15-6.89-3.15c-2.15,0-3.97,0.72-5.44,2.15
			c-1.47,1.43-2.21,3.2-2.21,5.31c0,1.46,0.33,2.76,0.98,3.9c0.65,1.14,1.58,2.03,2.77,2.68c1.19,0.65,2.52,0.97,3.98,0.97
			c1.24,0,2.38-0.23,3.41-0.68c1.03-0.45,2.16-1.28,3.4-2.47l2.91,2.96c-1.66,1.58-3.24,2.68-4.72,3.29
			c-1.48,0.61-3.17,0.92-5.07,0.92c-3.5,0-6.37-1.08-8.6-3.25c-2.23-2.16-3.35-4.94-3.35-8.32c0-2.19,0.51-4.14,1.52-5.84
			c1.02-1.7,2.47-3.07,4.37-4.11c1.89-1.04,3.93-1.55,6.12-1.55c1.86,0,3.65,0.38,5.37,1.15C272.59,78.28,274.07,79.37,275.32,80.78
			z"/>
		<path class="st0" d="M288.33,76.37c3.19,0,5.93,1.12,8.22,3.37c2.29,2.25,3.44,4.99,3.44,8.23c0,3.21-1.13,5.92-3.4,8.14
			c-2.26,2.22-5.01,3.33-8.24,3.33c-3.38,0-6.19-1.14-8.43-3.42c-2.24-2.28-3.36-4.99-3.36-8.12c0-2.1,0.52-4.03,1.56-5.79
			c1.04-1.76,2.48-3.16,4.3-4.19C284.26,76.89,286.23,76.37,288.33,76.37z M288.29,80.46c-2.09,0-3.84,0.71-5.26,2.12
			c-1.42,1.41-2.13,3.21-2.13,5.39c0,2.43,0.89,4.35,2.68,5.76c1.39,1.11,2.99,1.66,4.78,1.66c2.03,0,3.77-0.72,5.2-2.15
			c1.43-1.43,2.15-3.2,2.15-5.3c0-2.09-0.72-3.86-2.16-5.31C292.11,81.19,290.35,80.46,288.29,80.46z"/>
	</g>
	<g>
		<g>
			<path class="st0" d="M120.48,29.21l-1.96,1.82c-1.33-1.37-2.83-2.06-4.49-2.06c-1.4,0-2.59,0.47-3.55,1.4
				c-0.96,0.94-1.44,2.09-1.44,3.46c0,0.96,0.21,1.8,0.64,2.54c0.43,0.74,1.03,1.32,1.81,1.74c0.78,0.42,1.64,0.63,2.6,0.63
				c0.81,0,1.55-0.15,2.23-0.44c0.67-0.3,1.41-0.83,2.22-1.61l1.9,1.93c-1.09,1.03-2.11,1.75-3.08,2.15c-0.97,0.4-2.07,0.6-3.31,0.6
				c-2.28,0-4.15-0.71-5.61-2.12s-2.18-3.22-2.18-5.43c0-1.43,0.33-2.7,0.99-3.81c0.66-1.11,1.61-2,2.85-2.68
				c1.24-0.67,2.57-1.01,3.99-1.01c1.21,0,2.38,0.25,3.5,0.75C118.7,27.58,119.67,28.29,120.48,29.21z"/>
			<path class="st0" d="M128.97,26.34c2.08,0,3.87,0.73,5.36,2.2c1.5,1.47,2.24,3.26,2.24,5.36c0,2.09-0.74,3.86-2.21,5.31
				c-1.48,1.45-3.27,2.17-5.37,2.17c-2.21,0-4.04-0.74-5.5-2.23c-1.46-1.49-2.19-3.25-2.19-5.3c0-1.37,0.34-2.63,1.02-3.78
				c0.68-1.15,1.61-2.06,2.8-2.73C126.31,26.67,127.59,26.34,128.97,26.34z M128.94,29c-1.36,0-2.5,0.46-3.43,1.38
				c-0.93,0.92-1.39,2.09-1.39,3.52c0,1.58,0.58,2.84,1.75,3.76c0.91,0.72,1.95,1.08,3.12,1.08c1.33,0,2.46-0.47,3.39-1.4
				c0.93-0.93,1.4-2.09,1.4-3.46c0-1.36-0.47-2.52-1.41-3.46C131.43,29.48,130.28,29,128.94,29z"/>
			<path class="st0" d="M138.31,26.7h2.8v11.72h4.08v2.6h-6.87V26.7z"/>
			<path class="st0" d="M153.35,26.34c2.08,0,3.87,0.73,5.36,2.2c1.5,1.47,2.24,3.26,2.24,5.36c0,2.09-0.74,3.86-2.21,5.31
				c-1.48,1.45-3.27,2.17-5.37,2.17c-2.21,0-4.04-0.74-5.5-2.23c-1.46-1.49-2.19-3.25-2.19-5.3c0-1.37,0.34-2.63,1.02-3.78
				c0.68-1.15,1.61-2.06,2.8-2.73C150.7,26.67,151.98,26.34,153.35,26.34z M153.32,29c-1.36,0-2.5,0.46-3.43,1.38
				c-0.93,0.92-1.39,2.09-1.39,3.52c0,1.58,0.58,2.84,1.75,3.76c0.91,0.72,1.95,1.08,3.12,1.08c1.33,0,2.46-0.47,3.39-1.4
				c0.93-0.93,1.4-2.09,1.4-3.46c0-1.36-0.47-2.52-1.41-3.46C155.81,29.48,154.67,29,153.32,29z"/>
			<path class="st0" d="M164.12,26.7h2.73l3.41,9.99l3.44-9.99h2.72l2.47,14.32h-2.71l-1.58-9.05l-3.12,9.05h-2.47l-3.09-9.05
				l-1.61,9.05h-2.73L164.12,26.7z"/>
			<path class="st0" d="M180.21,41.02V26.7h2.31c1.34,0,2.32,0.08,2.94,0.25c0.88,0.23,1.58,0.65,2.1,1.27
				c0.52,0.62,0.78,1.34,0.78,2.18c0,0.55-0.12,1.04-0.35,1.48c-0.24,0.44-0.62,0.86-1.15,1.25c0.89,0.41,1.55,0.92,1.96,1.53
				s0.62,1.34,0.62,2.18c0,0.8-0.21,1.54-0.64,2.2c-0.43,0.66-0.98,1.16-1.65,1.49c-0.67,0.33-1.6,0.49-2.79,0.49H180.21z
				 M183.01,29.3v3.02h0.61c0.68,0,1.19-0.14,1.52-0.42c0.33-0.28,0.5-0.66,0.5-1.14c0-0.45-0.16-0.8-0.47-1.07
				c-0.31-0.26-0.79-0.39-1.43-0.39C183.73,29.3,183.01,29.3,183.01,29.3z M183.01,34.75v3.67h0.7c1.16,0,1.95-0.14,2.35-0.43
				c0.4-0.29,0.61-0.7,0.61-1.25c0-0.62-0.24-1.1-0.71-1.46c-0.47-0.36-1.26-0.54-2.36-0.54L183.01,34.75L183.01,34.75z"/>
			<path class="st0" d="M190.98,26.7h2.78v14.32h-2.78V26.7z"/>
			<path class="st0" d="M200.49,26.7h2.84l5.65,14.32h-2.91l-1.15-2.95h-6l-1.2,2.95h-2.91L200.49,26.7z M201.93,30.49l-1.97,4.92
				h3.93L201.93,30.49z"/>
			<path class="st0" d="M210.25,26.7h2.68l6.29,9.43V26.7h2.8v14.32h-2.69l-6.28-9.4v9.4h-2.8L210.25,26.7L210.25,26.7z"/>
			<path class="st0" d="M228.96,26.7h2.84l5.65,14.32h-2.91l-1.15-2.95h-6l-1.2,2.95h-2.91L228.96,26.7z M230.4,30.49l-1.97,4.92
				h3.93L230.4,30.49z"/>
			<path class="st0" d="M243.55,26.7h3.31c2.14,0,3.72,0.26,4.76,0.77c1.04,0.52,1.89,1.35,2.57,2.52c0.67,1.16,1.01,2.52,1.01,4.07
				c0,1.1-0.19,2.12-0.56,3.04c-0.38,0.92-0.9,1.69-1.56,2.3c-0.66,0.61-1.38,1.03-2.15,1.27c-0.77,0.23-2.11,0.35-4.01,0.35h-3.36
				V26.7z M246.33,29.33v9.04h1.3c1.28,0,2.21-0.14,2.78-0.43c0.58-0.29,1.05-0.77,1.41-1.44c0.37-0.68,0.55-1.51,0.55-2.5
				c0-1.52-0.44-2.7-1.31-3.54c-0.79-0.75-2.05-1.13-3.79-1.13L246.33,29.33L246.33,29.33z"/>
			<path class="st0" d="M256.98,26.7H265v2.67h-5.25v2.59H265v2.62h-5.25v3.77H265v2.68h-8.02V26.7z"/>
		</g>
	</g>
	<g>
		<g>
			<path class="st0" d="M128.22,49.97l-3,2.79c-2.04-2.1-4.34-3.15-6.89-3.15c-2.15,0-3.97,0.72-5.44,2.15
				c-1.47,1.43-2.21,3.2-2.21,5.31c0,1.46,0.33,2.76,0.98,3.9c0.65,1.14,1.58,2.03,2.77,2.68c1.19,0.65,2.52,0.97,3.98,0.97
				c1.24,0,2.38-0.23,3.41-0.68c1.03-0.45,2.16-1.28,3.4-2.47l2.91,2.96c-1.66,1.58-3.24,2.68-4.72,3.29
				c-1.48,0.61-3.17,0.92-5.07,0.92c-3.5,0-6.37-1.08-8.6-3.25c-2.23-2.16-3.35-4.94-3.35-8.32c0-2.19,0.51-4.14,1.52-5.84
				c1.02-1.7,2.47-3.07,4.37-4.11c1.89-1.04,3.93-1.55,6.12-1.55c1.86,0,3.65,0.38,5.37,1.15
				C125.49,47.47,126.97,48.56,128.22,49.97z"/>
			<path class="st0" d="M141.23,45.56c3.19,0,5.93,1.12,8.22,3.37s3.44,4.99,3.44,8.23c0,3.21-1.13,5.92-3.4,8.14
				c-2.26,2.22-5.01,3.33-8.24,3.33c-3.38,0-6.19-1.14-8.43-3.42c-2.24-2.28-3.36-4.99-3.36-8.12c0-2.1,0.52-4.03,1.56-5.79
				c1.04-1.76,2.48-3.16,4.3-4.19C137.16,46.07,139.12,45.56,141.23,45.56z M141.18,49.65c-2.09,0-3.84,0.71-5.26,2.12
				c-1.42,1.41-2.13,3.21-2.13,5.39c0,2.43,0.89,4.35,2.68,5.76c1.39,1.11,2.99,1.66,4.78,1.66c2.03,0,3.77-0.72,5.2-2.15
				c1.43-1.43,2.15-3.2,2.15-5.3c0-2.09-0.72-3.86-2.16-5.31C145,50.37,143.25,49.65,141.18,49.65z"/>
			<path class="st0" d="M157.75,46.11h4.18l5.22,15.32l5.27-15.32h4.18l3.78,21.96h-4.15l-2.42-13.87l-4.79,13.87h-3.78L160.5,54.2
				l-2.47,13.87h-4.18L157.75,46.11z"/>
			<path class="st0" d="M182.43,46.11h12.3v4.09h-8.04v3.97h8.04v4.02h-8.04v5.78h8.04v4.11h-12.3V46.11z"/>
			<path class="st0" d="M197.64,46.11h4.54c2.49,0,4.26,0.22,5.32,0.65s1.9,1.15,2.55,2.16c0.64,1.01,0.96,2.19,0.96,3.57
				c0,1.44-0.36,2.65-1.06,3.62c-0.71,0.97-1.78,1.7-3.21,2.2l5.34,9.76h-4.69l-5.07-9.3h-0.39v9.3h-4.29L197.64,46.11L197.64,46.11
				z M201.93,54.69h1.34c1.36,0,2.3-0.17,2.82-0.52c0.51-0.35,0.77-0.93,0.77-1.74c0-0.48-0.13-0.9-0.38-1.25s-0.6-0.61-1.02-0.76
				c-0.43-0.15-1.21-0.23-2.35-0.23h-1.18V54.69z"/>
			<path class="st0" d="M234.89,49.97l-3,2.79c-2.04-2.1-4.34-3.15-6.89-3.15c-2.15,0-3.97,0.72-5.44,2.15
				c-1.47,1.43-2.21,3.2-2.21,5.31c0,1.46,0.33,2.76,0.98,3.9c0.65,1.14,1.58,2.03,2.77,2.68c1.19,0.65,2.52,0.97,3.98,0.97
				c1.24,0,2.38-0.23,3.41-0.68c1.03-0.45,2.16-1.28,3.4-2.47l2.91,2.96c-1.66,1.58-3.24,2.68-4.72,3.29
				c-1.48,0.61-3.17,0.92-5.07,0.92c-3.5,0-6.37-1.08-8.6-3.25c-2.23-2.16-3.35-4.94-3.35-8.32c0-2.19,0.51-4.14,1.52-5.84
				c1.02-1.7,2.47-3.07,4.37-4.11c1.89-1.04,3.93-1.55,6.12-1.55c1.86,0,3.65,0.38,5.37,1.15
				C232.16,47.47,233.64,48.56,234.89,49.97z"/>
			<path class="st0" d="M236.95,46.11h4.26v21.96h-4.26V46.11z"/>
			<path class="st0" d="M255.3,45.56c3.19,0,5.93,1.12,8.22,3.37c2.29,2.25,3.44,4.99,3.44,8.23c0,3.21-1.13,5.92-3.4,8.14
				c-2.26,2.22-5.01,3.33-8.24,3.33c-3.38,0-6.19-1.14-8.43-3.42c-2.24-2.28-3.36-4.99-3.36-8.12c0-2.1,0.52-4.03,1.56-5.79
				c1.04-1.76,2.48-3.16,4.3-4.19C251.23,46.07,253.19,45.56,255.3,45.56z M255.25,49.65c-2.09,0-3.84,0.71-5.26,2.12
				c-1.42,1.41-2.13,3.21-2.13,5.39c0,2.43,0.89,4.35,2.68,5.76c1.39,1.11,2.99,1.66,4.78,1.66c2.03,0,3.77-0.72,5.2-2.15
				c1.43-1.43,2.15-3.2,2.15-5.3c0-2.09-0.72-3.86-2.16-5.31C259.07,50.37,257.32,49.65,255.25,49.65z"/>
		</g>
	</g>
	<g>
		<path class="st0" d="M0.66,48.75C3.55,31.38,12.93,18.49,27.84,9.46c7.22-4.37,15.08-6.69,23.51-7.57
			C62.73,0.7,76.89,7.65,82.32,17.58c3.22,5.9,3.85,12.28,3.07,18.83c-0.73,6.12-2.58,11.85-6.66,16.61
			c-5.93,6.92-13.57,10.24-22.66,10.18c-3.39-0.02-5.48-1.47-6.12-3.91c-0.74-2.81,0.48-5.15,3.21-6.14
			c1.22-0.44,2.49-0.62,3.77-0.68c9.46-0.46,15.61-5.67,17.65-15.01c2.54-11.57-4.73-22.19-16.26-23.49
			c-10.35-1.17-19.98,1.14-28.34,7.41C20.1,28.8,13.22,38.38,11.45,50.83C7.97,75.2,23.17,97.45,47.22,101.42
			c8.14,1.34,16.35,1.39,24.56,1.26c1.24-0.02,2.33-0.04,5.08-1.4c5.08-2.81,5.14-10.92,0.1-13.88c-0.55-0.32-2-0.99-3.62-1.32
			c4.51-0.03,9.06,2.5,11.03,5.97c4.93,8.73-0.46,18.88-8.86,20.52c-5.67,1.1-11.35,1.46-17.12,1.3
			c-6.13-0.18-12.17-0.74-18.05-2.59c-12.31-3.87-22.93-10.2-30.64-20.8c-5.38-7.4-8.21-15.76-9.26-24.79
			C0.36,65.14-0.04,61.51,0,57.83C0.04,53.74,0.53,49.56,0.66,48.75z"/>
		<path class="st0" d="M59.37,19.29c0,0,6.22,1.44,5.79,9.16c0,0-0.22,7.27-10.37,6.98c0,0-23.21,2.19-21.05,25.02
			c0,0,0.6,16.37,19.74,19.42c0.29,0.05,1.85,0.13,1.85,0.13h25.75c0,0,5.03,0.1,5.03-5.55c0,0,0.62-4.01-4.11-5.14H55.4
			c0,0-10.27-0.51-11.19-10.78c0,0-1.54-10.37,11.71-12.22c0,0,16.12-0.92,12.94-17.66C68.85,28.65,66.97,20.83,59.37,19.29z"/>
		<path class="st0" d="M58.66,19.15c2.1,0.4,6.04,2.06,6.5,7.48c0.29,3.37-0.92,8.33-8.85,8.8c0,0,2.34-0.63,2.28-2.89
			c0,0-0.23-2.1-2.38-2.43c-1.16-0.18-2.89-0.21-5.53,0.08c0,0-23.82,2.16-22.9,30.91c0,0,1.13,22.59,25.78,24.85h18.38
			c0,0,7.8,0,8.73,7.39c0,0,1.29,7.03-6.65,9.08c0,0,2.12-0.55,2.12-2.84c0,0-0.29-2.54-3.17-2.33c0,0-14.96-0.39-22.72-0.89
			c-0.16-0.01-0.76-0.07-1.25-0.16c-4.53-0.86-27.79-6.56-32.08-33.63c-0.04-0.25-0.14-1-0.16-1.48
			c-0.17-3.93-0.13-22.81,15.65-34.8c6.95-5.28,14.06-7.67,24.44-7.33C57.14,18.97,58.09,19.04,58.66,19.15z"/>
	</g>
	<g>
		<path class="st0" d="M106.61,104.6h2.47l2.02,5.58l2.18-5.58h1.51l2.14,5.51l2.03-5.51h2.49l-3.67,9.8h-1.6l-2.14-5.59l-2.21,5.59
			h-1.58L106.61,104.6z"/>
		<path class="st0" d="M123.73,104.6h2.47l2.02,5.58l2.18-5.58h1.51l2.14,5.51l2.03-5.51h2.49l-3.67,9.8h-1.6l-2.14-5.59l-2.21,5.59
			h-1.58L123.73,104.6z"/>
		<path class="st0" d="M140.85,104.6h2.47l2.02,5.58l2.18-5.58h1.51l2.14,5.51l2.03-5.51h2.49l-3.67,9.8h-1.6l-2.14-5.59l-2.21,5.59
			h-1.58L140.85,104.6z"/>
		<path class="st0" d="M160.46,111.84c0.4,0,0.74,0.14,1.03,0.41c0.28,0.27,0.43,0.61,0.43,1c0,0.39-0.14,0.72-0.43,1
			c-0.28,0.28-0.63,0.41-1.03,0.41c-0.4,0-0.74-0.14-1.03-0.41c-0.28-0.28-0.43-0.61-0.43-1c0-0.39,0.14-0.72,0.43-1
			C159.72,111.97,160.06,111.84,160.46,111.84z"/>
		<path class="st0" d="M176.2,106.58l-2.1,1.13c-0.4-0.4-0.79-0.68-1.17-0.84c-0.39-0.16-0.84-0.23-1.36-0.23
			c-0.94,0-1.71,0.27-2.29,0.82c-0.58,0.55-0.87,1.25-0.87,2.11c0,0.83,0.28,1.51,0.84,2.04c0.56,0.53,1.3,0.79,2.21,0.79
			c1.13,0,2.01-0.38,2.64-1.13l1.99,1.33c-1.08,1.37-2.6,2.05-4.57,2.05c-1.77,0-3.15-0.51-4.16-1.53c-1-1.02-1.5-2.22-1.5-3.59
			c0-0.95,0.24-1.82,0.73-2.62c0.49-0.8,1.17-1.43,2.04-1.88c0.87-0.46,1.85-0.68,2.93-0.68c1,0,1.9,0.19,2.69,0.58
			S175.7,105.87,176.2,106.58z"/>
		<path class="st0" d="M190.3,106.58l-2.1,1.13c-0.4-0.4-0.79-0.68-1.17-0.84c-0.39-0.16-0.84-0.23-1.36-0.23
			c-0.94,0-1.71,0.27-2.29,0.82c-0.58,0.55-0.87,1.25-0.87,2.11c0,0.83,0.28,1.51,0.84,2.04c0.56,0.53,1.3,0.79,2.21,0.79
			c1.13,0,2.01-0.38,2.64-1.13l1.99,1.33c-1.08,1.37-2.6,2.05-4.57,2.05c-1.77,0-3.15-0.51-4.16-1.53c-1-1.02-1.5-2.22-1.5-3.59
			c0-0.95,0.24-1.82,0.73-2.62c0.49-0.8,1.17-1.43,2.04-1.88c0.87-0.46,1.85-0.68,2.93-0.68c1,0,1.9,0.19,2.69,0.58
			S189.79,105.87,190.3,106.58z"/>
		<path class="st0" d="M204.4,106.58l-2.1,1.13c-0.4-0.4-0.79-0.68-1.17-0.84c-0.39-0.16-0.84-0.23-1.36-0.23
			c-0.94,0-1.71,0.27-2.29,0.82c-0.58,0.55-0.87,1.25-0.87,2.11c0,0.83,0.28,1.51,0.84,2.04c0.56,0.53,1.3,0.79,2.21,0.79
			c1.13,0,2.01-0.38,2.64-1.13l1.99,1.33c-1.08,1.37-2.6,2.05-4.57,2.05c-1.77,0-3.15-0.51-4.16-1.53c-1-1.02-1.5-2.22-1.5-3.59
			c0-0.95,0.24-1.82,0.73-2.62c0.49-0.8,1.17-1.43,2.04-1.88c0.87-0.46,1.85-0.68,2.93-0.68c1,0,1.9,0.19,2.69,0.58
			S203.89,105.87,204.4,106.58z"/>
		<path class="st0" d="M218.72,110.21h-8.11c0.12,0.7,0.43,1.25,0.94,1.66c0.51,0.41,1.16,0.62,1.95,0.62
			c0.94,0,1.75-0.32,2.43-0.96l2.13,0.97c-0.53,0.73-1.17,1.28-1.9,1.63c-0.74,0.35-1.62,0.53-2.64,0.53
			c-1.58,0-2.86-0.48-3.86-1.46c-0.99-0.97-1.49-2.19-1.49-3.64c0-1.5,0.49-2.74,1.48-3.73c0.99-0.99,2.23-1.48,3.72-1.48
			c1.58,0,2.87,0.49,3.86,1.48c0.99,0.99,1.49,2.29,1.49,3.92L218.72,110.21z M216.2,108.28c-0.17-0.55-0.5-0.99-0.99-1.33
			c-0.49-0.34-1.06-0.51-1.71-0.51c-0.7,0-1.32,0.19-1.85,0.58c-0.33,0.24-0.64,0.66-0.93,1.27L216.2,108.28L216.2,108.28
			L216.2,108.28z"/>
		<path class="st0" d="M224.12,111.84c0.4,0,0.74,0.14,1.03,0.41c0.28,0.27,0.43,0.61,0.43,1c0,0.39-0.14,0.72-0.43,1
			c-0.28,0.28-0.63,0.41-1.03,0.41c-0.4,0-0.74-0.14-1.03-0.41c-0.28-0.28-0.43-0.61-0.43-1c0-0.39,0.14-0.72,0.43-1
			C223.38,111.97,223.72,111.84,224.12,111.84z"/>
		<path class="st0" d="M234.74,104.35c0.95,0,1.84,0.23,2.68,0.69c0.84,0.46,1.49,1.09,1.96,1.88c0.47,0.79,0.7,1.65,0.7,2.57
			c0,0.93-0.24,1.79-0.71,2.6c-0.47,0.81-1.11,1.43-1.93,1.89c-0.81,0.45-1.71,0.68-2.69,0.68c-1.44,0-2.67-0.5-3.69-1.5
			c-1.02-1-1.53-2.21-1.53-3.64c0-1.53,0.58-2.81,1.73-3.83C232.26,104.79,233.43,104.35,234.74,104.35z M234.78,106.66
			c-0.78,0-1.44,0.27-1.96,0.8s-0.78,1.21-0.78,2.04c0,0.85,0.26,1.54,0.77,2.07c0.52,0.53,1.17,0.79,1.96,0.79
			c0.79,0,1.45-0.27,1.97-0.8c0.52-0.53,0.79-1.22,0.79-2.06c0-0.84-0.26-1.52-0.77-2.05C236.24,106.93,235.58,106.66,234.78,106.66
			z"/>
		<path class="st0" d="M243.52,104.6h2.16v1.23c0.23-0.49,0.55-0.86,0.93-1.11c0.39-0.25,0.81-0.38,1.28-0.38
			c0.33,0,0.67,0.08,1.03,0.25l-0.79,2.12c-0.3-0.14-0.54-0.22-0.73-0.22c-0.39,0-0.72,0.23-0.98,0.7s-0.4,1.39-0.4,2.76l0.01,0.48
			v3.96h-2.51L243.52,104.6L243.52,104.6z"/>
		<path class="st0" d="M259.57,104.6h2.52v8.4c0,1.66-0.34,2.88-1.03,3.66c-0.92,1.06-2.3,1.59-4.15,1.59
			c-0.99,0-1.82-0.12-2.49-0.36c-0.67-0.24-1.24-0.59-1.7-1.06c-0.46-0.47-0.8-1.03-1.03-1.7h2.78c0.25,0.28,0.56,0.48,0.95,0.63
			c0.39,0.14,0.85,0.21,1.38,0.21c0.68,0,1.22-0.1,1.64-0.31c0.41-0.2,0.7-0.47,0.87-0.79c0.17-0.32,0.25-0.88,0.25-1.68
			c-0.44,0.43-0.91,0.74-1.4,0.93c-0.49,0.19-1.04,0.28-1.66,0.28c-1.35,0-2.49-0.47-3.42-1.42c-0.93-0.95-1.4-2.15-1.4-3.6
			c0-1.56,0.49-2.81,1.48-3.75c0.89-0.85,1.96-1.28,3.2-1.28c0.58,0,1.13,0.1,1.64,0.31c0.51,0.21,1.03,0.55,1.55,1.02L259.57,104.6
			L259.57,104.6z M256.96,106.65c-0.8,0-1.45,0.26-1.97,0.78c-0.52,0.52-0.78,1.17-0.78,1.96c0,0.82,0.27,1.49,0.8,2.01
			c0.53,0.52,1.2,0.78,2,0.78c0.78,0,1.43-0.26,1.94-0.77c0.51-0.51,0.76-1.18,0.76-2.01c0-0.82-0.26-1.48-0.77-1.99
			C258.42,106.9,257.76,106.65,256.96,106.65z"/>
		<path class="st0" d="M267.99,111.84c0.4,0,0.74,0.14,1.03,0.41c0.28,0.27,0.43,0.61,0.43,1c0,0.39-0.14,0.72-0.43,1
			c-0.28,0.28-0.63,0.41-1.03,0.41c-0.4,0-0.74-0.14-1.03-0.41c-0.28-0.28-0.43-0.61-0.43-1c0-0.39,0.14-0.72,0.43-1
			C267.25,111.97,267.59,111.84,267.99,111.84z"/>
		<path class="st0" d="M283.73,106.58l-2.1,1.13c-0.4-0.4-0.79-0.68-1.17-0.84c-0.39-0.16-0.84-0.23-1.36-0.23
			c-0.94,0-1.71,0.27-2.29,0.82c-0.58,0.55-0.87,1.25-0.87,2.11c0,0.83,0.28,1.51,0.84,2.04c0.56,0.53,1.3,0.79,2.21,0.79
			c1.13,0,2.01-0.38,2.64-1.13l1.99,1.33c-1.08,1.37-2.6,2.05-4.57,2.05c-1.77,0-3.15-0.51-4.16-1.53s-1.5-2.22-1.5-3.59
			c0-0.95,0.24-1.82,0.73-2.62c0.49-0.8,1.17-1.43,2.04-1.88c0.87-0.46,1.85-0.68,2.93-0.68c1,0,1.9,0.19,2.69,0.58
			C282.58,105.32,283.23,105.87,283.73,106.58z"/>
		<path class="st0" d="M292.71,104.35c0.95,0,1.84,0.23,2.68,0.69c0.84,0.46,1.49,1.09,1.96,1.88c0.47,0.79,0.7,1.65,0.7,2.57
			c0,0.93-0.24,1.79-0.71,2.6c-0.47,0.81-1.11,1.43-1.93,1.89c-0.81,0.45-1.71,0.68-2.69,0.68c-1.44,0-2.67-0.5-3.69-1.5
			c-1.02-1-1.53-2.21-1.53-3.64c0-1.53,0.58-2.81,1.73-3.83C290.23,104.79,291.39,104.35,292.71,104.35z M292.75,106.66
			c-0.78,0-1.44,0.27-1.96,0.8s-0.78,1.21-0.78,2.04c0,0.85,0.26,1.54,0.77,2.07c0.52,0.53,1.17,0.79,1.96,0.79s1.45-0.27,1.97-0.8
			c0.52-0.53,0.79-1.22,0.79-2.06c0-0.84-0.26-1.52-0.77-2.05C294.21,106.93,293.55,106.66,292.75,106.66z"/>
	</g>
</g>
</svg>
