<?xml version="1.0" encoding="utf-8"?>
<!-- Generator: Adobe Illustrator 24.1.1, SVG Export Plug-In . SVG Version: 6.00 Build 0)  -->
<svg version="1.0" id="Capa_1" xmlns="http://www.w3.org/2000/svg" xmlns:xlink="http://www.w3.org/1999/xlink" x="0px" y="0px"
	 viewBox="0 0 300 110" style="enable-background:new 0 0 300 110;" xml:space="preserve">
<style type="text/css">
	.st0{fill:#FFFFFF;}
</style>
<g>
	<path class="st0" d="M103.98,89.61c-6.98,0-12.72-6.06-12.72-13.47V65.89c0-1.77,1.34-3.22,3.01-3.22c1.72,0,3.38,1.45,3.38,3.22
		v10.25c0,3.86,3.22,6.98,6.33,6.98c3.65,0,6.39-3.11,6.39-6.98v-9.82c0-1.82,1.88-3.22,3.33-3.22c1.66,0,3.06,1.4,3.06,3.22v9.82
		C116.76,83.55,111.02,89.61,103.98,89.61"/>
	<path class="st0" d="M151.64,75.82c0,7.51-6.12,13.58-13.58,13.58c-2.85,0-5.53-0.86-7.67-2.36c-0.43,1.29-1.66,2.25-3.11,2.25
		c-1.82,0-3.27-1.45-3.27-3.22V51.93c0-1.77,1.45-3.27,3.27-3.27c1.77,0,3.22,1.5,3.22,3.27v12.56c2.2-1.4,4.78-2.25,7.57-2.25
		C145.52,62.24,151.64,68.3,151.64,75.82 M145.15,75.82c0-3.92-3.22-7.08-7.08-7.08c-3.92,0-7.08,3.17-7.08,7.08
		c0,3.92,3.17,7.09,7.08,7.09C141.93,82.9,145.15,79.74,145.15,75.82"/>
	<path class="st0" d="M171.06,89.61c-6.98,0-12.72-6.06-12.72-13.47V65.89c0-1.77,1.34-3.22,3.01-3.22c1.72,0,3.38,1.45,3.38,3.22
		v10.25c0,3.86,3.22,6.98,6.33,6.98c3.65,0,6.39-3.11,6.39-6.98v-9.82c0-1.82,1.88-3.22,3.33-3.22c1.66,0,3.06,1.4,3.06,3.22v9.82
		C183.84,83.55,178.09,89.61,171.06,89.61"/>
	<path class="st0" d="M216.68,75.98v10.14c0,1.77-1.4,3.22-3.17,3.22c-1.82,0-3.22-1.45-3.22-3.22V75.98c0-3.81-2.79-6.87-6.17-6.87
		c-4.19,0-6.33,4.19-6.33,7.89v9.12c0,1.77-1.45,3.22-3.22,3.22c-1.77,0-3.22-1.45-3.22-3.22v-20.5c0-1.77,1.45-3.22,3.22-3.22
		c1.4,0,2.58,0.91,3.01,2.2c1.93-1.23,4.13-1.93,6.55-1.93C211.04,62.67,216.68,68.63,216.68,75.98"/>
	<path class="st0" d="M238.25,86.07c0,1.82-1.45,3.22-3.22,3.22c-0.48,0-0.91,0-1.4-0.05c-1.77-0.27-3.49-1.02-4.72-2.42
		c-1.07-1.23-1.82-3.17-1.82-4.83V68.47h-2.31c-1.77,0-3.22-1.45-3.22-3.22c0-1.77,1.45-3.22,3.22-3.22h2.31V51.77
		c0-1.77,1.45-3.22,3.22-3.22c1.77,0,3.22,1.45,3.22,3.22v10.25h1.77c1.77,0,3.22,1.45,3.22,3.22c0,1.77-1.45,3.22-3.22,3.22h-1.77
		v12.77c0.11,0.43,0,1.07,0.38,1.4c0.27,0.27,0.75,0.21,1.13,0.21C236.8,82.85,238.25,84.3,238.25,86.07"/>
	<path class="st0" d="M267.02,77.8h-16.53c0.75,3.06,3.49,5.42,6.82,5.42c1.72,0,4.24-0.7,5.64-2.04c1.29-1.23,3.33-1.23,4.56,0.05
		c1.29,1.23,1.24,3.33-0.05,4.56c-2.95,2.84-7.08,3.81-10.14,3.81c-7.46,0-13.42-6.01-13.42-13.47c0-7.35,5.96-13.47,13.42-13.47
		c0.8,0,1.56,0.05,2.36,0.21c3.65,0.7,6.76,2.95,8.69,6.17c0.86,1.5,1.82,3.49,1.72,5.26c0,0.48-0.22,1.02-0.43,1.56
		C269.22,76.89,268.3,77.8,267.02,77.8 M251.4,72.38h11.38c-1.07-2.04-3.06-3.22-5.47-3.22C254.83,69.16,252.69,70.4,251.4,72.38"/>
	<path class="st0" d="M289.71,89.29c-3.54,0-6.82-1.34-9.34-3.76c-2.58-2.52-4.03-5.85-4.13-9.45c-0.05-3.54,1.23-6.98,3.81-9.55
		c2.47-2.58,5.8-4.03,9.39-4.13c3.6-0.05,6.98,1.29,9.55,3.81c1.29,1.18,1.34,3.27,0.11,4.51c-1.23,1.29-3.27,1.34-4.56,0.11
		c-1.34-1.29-3.11-1.99-4.99-1.99c-1.88,0-3.6,0.8-4.94,2.15c-1.23,1.34-1.99,3.11-1.93,4.99c0,1.83,0.81,3.65,2.15,4.88
		c1.34,1.34,3.11,2.04,4.94,1.99c1.77,0,3.44-0.7,4.72-1.88c1.23-1.23,3.33-1.13,4.51,0.16c1.23,1.29,1.13,3.33-0.16,4.56
		c-2.41,2.25-5.58,3.54-8.91,3.6H289.71z"/>
	<path class="st0" d="M36.65,110.94C16.44,110.94,0,94.49,0,74.29s16.44-36.65,36.65-36.65c1.56,0,2.83,1.27,2.83,2.83
		c0,1.56-1.27,2.83-2.83,2.83c-17.08,0-30.98,13.9-30.98,30.98c0,17.08,13.9,30.98,30.98,30.98c17.08,0,30.98-13.9,30.98-30.98
		c0-6.33-1.89-12.41-5.47-17.59c-0.89-1.29-0.57-3.05,0.72-3.94c1.29-0.89,3.05-0.57,3.94,0.72c4.24,6.13,6.48,13.33,6.48,20.81
		C73.3,94.49,56.86,110.94,36.65,110.94"/>
	<path class="st0" d="M36.62,90.32c-7.16,0-13.06-6.23-13.06-13.83V65.96c0-1.82,1.38-3.31,3.09-3.31c1.76,0,3.47,1.49,3.47,3.31
		v10.53c0,3.97,3.31,7.17,6.5,7.17c3.75,0,6.56-3.2,6.56-7.17V66.4c0-1.87,1.93-3.31,3.42-3.31c1.71,0,3.14,1.43,3.14,3.31v10.09
		C49.74,84.09,43.84,90.32,36.62,90.32"/>
	<path class="st0" d="M58.3,42.5l-2.78-0.12l0.12-2.78c0.08-1.87-1.36-3.44-3.23-3.53c-1.87-0.08-3.44,1.36-3.53,3.23l-0.12,2.78
		l-2.78-0.12c-1.87-0.08-3.45,1.36-3.53,3.23c-0.08,1.86,1.36,3.44,3.23,3.53l2.78,0.12l-0.12,2.78c-0.08,1.87,1.36,3.44,3.23,3.53
		c0.64,0.03,1.25-0.12,1.78-0.41c1-0.55,1.69-1.59,1.75-2.81l0.12-2.78L58,49.25c0.64,0.03,1.25-0.12,1.78-0.42
		c1-0.55,1.69-1.59,1.75-2.81C61.61,44.16,60.17,42.58,58.3,42.5"/>
</g>
<g>
	<path class="st0" d="M39.01,17.95c-1.16-0.64-2.07-1.52-2.72-2.63c-0.65-1.11-0.98-2.36-0.98-3.75s0.33-2.64,0.98-3.75
		c0.65-1.11,1.56-1.99,2.72-2.63c1.16-0.64,2.46-0.96,3.89-0.96c1.43,0,2.72,0.31,3.86,0.95c1.15,0.63,2.05,1.51,2.71,2.63
		c0.66,1.12,0.99,2.37,0.99,3.76s-0.33,2.64-0.99,3.76c-0.66,1.12-1.56,2-2.71,2.63c-1.15,0.63-2.44,0.95-3.86,0.95
		C41.47,18.9,40.17,18.59,39.01,17.95z M45.99,16.77c0.92-0.51,1.64-1.23,2.16-2.14c0.52-0.91,0.78-1.93,0.78-3.06
		s-0.26-2.15-0.78-3.06c-0.52-0.91-1.24-1.63-2.16-2.14c-0.92-0.51-1.95-0.77-3.09-0.77c-1.14,0-2.17,0.26-3.1,0.77
		s-1.66,1.23-2.18,2.14c-0.53,0.91-0.79,1.93-0.79,3.06s0.26,2.15,0.79,3.06c0.53,0.91,1.26,1.63,2.18,2.14s1.96,0.77,3.1,0.77
		C44.04,17.55,45.07,17.29,45.99,16.77z"/>
	<path class="st0" d="M61.92,8.55c0.82,0.46,1.47,1.11,1.94,1.95c0.47,0.84,0.7,1.79,0.7,2.87c0,1.09-0.23,2.05-0.7,2.89
		c-0.47,0.84-1.11,1.49-1.93,1.95c-0.82,0.46-1.74,0.69-2.77,0.69c-0.88,0-1.67-0.18-2.38-0.55c-0.71-0.36-1.29-0.9-1.74-1.6v6.04
		h-1.46V7.94h1.4v2.14c0.44-0.71,1.02-1.27,1.74-1.65c0.72-0.38,1.54-0.58,2.44-0.58C60.18,7.86,61.1,8.09,61.92,8.55z M61.12,17.06
		c0.62-0.35,1.1-0.85,1.45-1.5c0.35-0.65,0.53-1.38,0.53-2.2c0-0.83-0.18-1.56-0.53-2.2c-0.35-0.64-0.83-1.14-1.45-1.49
		c-0.62-0.36-1.31-0.54-2.06-0.54c-0.77,0-1.46,0.18-2.07,0.54c-0.61,0.36-1.09,0.85-1.44,1.49c-0.35,0.64-0.53,1.37-0.53,2.2
		c0,0.82,0.18,1.56,0.53,2.2c0.35,0.65,0.83,1.14,1.44,1.5c0.61,0.35,1.3,0.52,2.07,0.52C59.81,17.59,60.5,17.41,61.12,17.06z"/>
	<path class="st0" d="M76.99,13.82h-9.07c0.08,1.13,0.51,2.04,1.3,2.73c0.78,0.69,1.77,1.04,2.97,1.04c0.67,0,1.29-0.12,1.85-0.36
		c0.56-0.24,1.05-0.59,1.46-1.06l0.82,0.95c-0.48,0.58-1.08,1.02-1.8,1.32c-0.72,0.3-1.52,0.45-2.38,0.45
		c-1.11,0-2.1-0.24-2.96-0.71c-0.86-0.47-1.53-1.13-2.01-1.97c-0.48-0.84-0.72-1.79-0.72-2.84c0-1.06,0.23-2.01,0.69-2.85
		c0.46-0.84,1.09-1.49,1.9-1.96c0.8-0.47,1.71-0.7,2.71-0.7s1.9,0.23,2.7,0.7c0.8,0.47,1.42,1.12,1.88,1.95s0.68,1.78,0.68,2.86
		L76.99,13.82z M69.12,10.11c-0.71,0.67-1.11,1.54-1.21,2.61h7.69c-0.1-1.07-0.5-1.94-1.21-2.61c-0.71-0.67-1.59-1-2.65-1
		C70.71,9.12,69.83,9.45,69.12,10.11z"/>
	<path class="st0" d="M82.94,8.41c0.68-0.37,1.52-0.56,2.53-0.56v1.42l-0.35-0.02c-1.14,0-2.03,0.35-2.68,1.05
		c-0.65,0.7-0.97,1.68-0.97,2.95v5.52H80V7.94h1.4v2.12C81.74,9.34,82.25,8.78,82.94,8.41z"/>
	<path class="st0" d="M95.13,8.92c0.76,0.71,1.13,1.75,1.13,3.14v6.72h-1.4v-1.69c-0.33,0.56-0.81,1-1.45,1.32
		c-0.64,0.31-1.4,0.47-2.28,0.47c-1.21,0-2.17-0.29-2.89-0.87c-0.71-0.58-1.07-1.34-1.07-2.29c0-0.92,0.33-1.66,1-2.23
		c0.67-0.56,1.73-0.84,3.18-0.84h3.44V12c0-0.93-0.26-1.65-0.78-2.13c-0.52-0.49-1.29-0.73-2.29-0.73c-0.69,0-1.35,0.11-1.98,0.34
		c-0.63,0.23-1.18,0.54-1.63,0.94l-0.66-1.09c0.55-0.47,1.21-0.83,1.98-1.08c0.77-0.25,1.58-0.38,2.43-0.38
		C93.29,7.86,94.37,8.21,95.13,8.92z M93.48,17.16c0.59-0.38,1.03-0.92,1.32-1.64v-1.77h-3.4c-1.85,0-2.78,0.65-2.78,1.94
		c0,0.63,0.24,1.13,0.72,1.49c0.48,0.36,1.15,0.55,2.02,0.55C92.18,17.73,92.89,17.54,93.48,17.16z"/>
	<path class="st0" d="M110.18,3.49v15.3h-1.4v-2.14c-0.44,0.73-1.02,1.28-1.74,1.67c-0.72,0.38-1.54,0.58-2.44,0.58
		c-1.02,0-1.94-0.23-2.76-0.7c-0.82-0.47-1.47-1.12-1.94-1.96c-0.47-0.84-0.7-1.79-0.7-2.86c0-1.07,0.23-2.03,0.7-2.87
		s1.11-1.49,1.94-1.95c0.82-0.46,1.74-0.69,2.76-0.69c0.88,0,1.67,0.18,2.38,0.54c0.71,0.36,1.29,0.9,1.74,1.6V3.49H110.18z
		 M106.77,17.06c0.61-0.35,1.09-0.85,1.44-1.5c0.35-0.65,0.53-1.38,0.53-2.2c0-0.83-0.18-1.56-0.53-2.21
		c-0.35-0.65-0.83-1.14-1.44-1.5c-0.61-0.35-1.3-0.52-2.05-0.52c-0.77,0-1.46,0.17-2.07,0.52c-0.61,0.35-1.09,0.85-1.44,1.5
		c-0.35,0.65-0.53,1.38-0.53,2.21c0,0.82,0.18,1.56,0.53,2.2c0.35,0.65,0.83,1.14,1.44,1.5c0.61,0.35,1.3,0.52,2.07,0.52
		C105.47,17.59,106.15,17.41,106.77,17.06z"/>
	<path class="st0" d="M115.87,18.17c-0.84-0.47-1.5-1.13-1.98-1.97c-0.48-0.84-0.72-1.79-0.72-2.84c0-1.06,0.24-2.01,0.72-2.85
		c0.48-0.84,1.14-1.49,1.98-1.96c0.84-0.47,1.78-0.7,2.82-0.7c1.04,0,1.99,0.23,2.82,0.7c0.84,0.47,1.49,1.12,1.97,1.96
		c0.47,0.84,0.71,1.79,0.71,2.85c0,1.06-0.24,2.01-0.71,2.84c-0.47,0.84-1.13,1.5-1.97,1.97c-0.84,0.47-1.78,0.71-2.82,0.71
		C117.64,18.89,116.7,18.65,115.87,18.17z M120.76,17.06c0.61-0.35,1.09-0.85,1.43-1.5c0.34-0.65,0.52-1.38,0.52-2.2
		c0-0.83-0.17-1.56-0.52-2.21s-0.82-1.14-1.43-1.5c-0.61-0.35-1.3-0.52-2.07-0.52c-0.77,0-1.46,0.17-2.07,0.52
		c-0.61,0.35-1.09,0.85-1.44,1.5c-0.35,0.65-0.53,1.38-0.53,2.21c0,0.82,0.18,1.56,0.53,2.2c0.35,0.65,0.83,1.14,1.44,1.5
		c0.61,0.35,1.3,0.52,2.07,0.52C119.46,17.59,120.15,17.41,120.76,17.06z"/>
	<path class="st0" d="M140.93,8.55c0.82,0.46,1.47,1.11,1.94,1.95s0.7,1.79,0.7,2.87c0,1.09-0.23,2.05-0.7,2.89
		c-0.47,0.84-1.11,1.49-1.93,1.95c-0.82,0.46-1.74,0.69-2.77,0.69c-0.88,0-1.67-0.18-2.38-0.55c-0.71-0.36-1.29-0.9-1.74-1.6v6.04
		h-1.46V7.94h1.4v2.14c0.44-0.71,1.02-1.27,1.74-1.65c0.72-0.38,1.54-0.58,2.44-0.58C139.19,7.86,140.11,8.09,140.93,8.55z
		 M140.13,17.06c0.62-0.35,1.1-0.85,1.45-1.5c0.35-0.65,0.53-1.38,0.53-2.2c0-0.83-0.18-1.56-0.53-2.2
		c-0.35-0.64-0.83-1.14-1.45-1.49c-0.62-0.36-1.31-0.54-2.06-0.54c-0.77,0-1.46,0.18-2.07,0.54c-0.61,0.36-1.09,0.85-1.44,1.49
		c-0.35,0.64-0.53,1.37-0.53,2.2c0,0.82,0.18,1.56,0.53,2.2c0.35,0.65,0.83,1.14,1.44,1.5c0.61,0.35,1.3,0.52,2.07,0.52
		C138.82,17.59,139.51,17.41,140.13,17.06z"/>
	<path class="st0" d="M148.17,18.17c-0.84-0.47-1.5-1.13-1.98-1.97c-0.48-0.84-0.72-1.79-0.72-2.84c0-1.06,0.24-2.01,0.72-2.85
		c0.48-0.84,1.14-1.49,1.98-1.96c0.84-0.47,1.78-0.7,2.82-0.7c1.04,0,1.99,0.23,2.82,0.7c0.84,0.47,1.49,1.12,1.97,1.96
		c0.47,0.84,0.71,1.79,0.71,2.85c0,1.06-0.24,2.01-0.71,2.84c-0.47,0.84-1.13,1.5-1.97,1.97c-0.84,0.47-1.78,0.71-2.82,0.71
		C149.95,18.89,149,18.65,148.17,18.17z M153.06,17.06c0.61-0.35,1.09-0.85,1.43-1.5c0.34-0.65,0.52-1.38,0.52-2.2
		c0-0.83-0.17-1.56-0.52-2.21s-0.82-1.14-1.43-1.5c-0.61-0.35-1.3-0.52-2.07-0.52c-0.77,0-1.46,0.17-2.07,0.52
		c-0.61,0.35-1.09,0.85-1.44,1.5c-0.35,0.65-0.53,1.38-0.53,2.21c0,0.82,0.18,1.56,0.53,2.2c0.35,0.65,0.83,1.14,1.44,1.5
		c0.61,0.35,1.3,0.52,2.07,0.52C151.76,17.59,152.45,17.41,153.06,17.06z"/>
	<path class="st0" d="M162.42,8.41c0.68-0.37,1.52-0.56,2.53-0.56v1.42l-0.35-0.02c-1.14,0-2.03,0.35-2.68,1.05
		c-0.65,0.7-0.97,1.68-0.97,2.95v5.52h-1.46V7.94h1.4v2.12C161.23,9.34,161.74,8.78,162.42,8.41z"/>
	<path class="st0" d="M174.9,17.3c-1.04-1.07-1.57-2.63-1.57-4.68V4.35h1.53v8.21c0,1.68,0.38,2.93,1.13,3.75
		c0.76,0.82,1.85,1.24,3.28,1.24c1.44,0,2.54-0.41,3.3-1.24c0.76-0.82,1.13-2.08,1.13-3.75V4.35h1.48v8.27
		c0,2.05-0.52,3.61-1.56,4.68c-1.04,1.07-2.49,1.61-4.36,1.61C177.4,18.9,175.95,18.37,174.9,17.3z"/>
	<path class="st0" d="M197.82,8.55c0.82,0.46,1.47,1.11,1.94,1.95s0.7,1.79,0.7,2.87c0,1.07-0.23,2.03-0.7,2.86
		c-0.47,0.84-1.11,1.49-1.94,1.96c-0.82,0.47-1.75,0.7-2.76,0.7c-0.91,0-1.72-0.19-2.44-0.58c-0.72-0.39-1.3-0.94-1.74-1.67v2.14
		h-1.4V3.49h1.46V10c0.45-0.7,1.03-1.23,1.74-1.6c0.71-0.36,1.5-0.54,2.38-0.54C196.08,7.86,197,8.09,197.82,8.55z M197.02,17.06
		c0.62-0.35,1.1-0.85,1.45-1.5c0.35-0.65,0.53-1.38,0.53-2.2c0-0.83-0.18-1.56-0.53-2.21s-0.83-1.14-1.45-1.5
		c-0.62-0.35-1.31-0.52-2.06-0.52c-0.77,0-1.46,0.17-2.07,0.52c-0.61,0.35-1.09,0.85-1.44,1.5c-0.35,0.65-0.53,1.38-0.53,2.21
		c0,0.82,0.18,1.56,0.53,2.2c0.35,0.65,0.83,1.14,1.44,1.5c0.61,0.35,1.3,0.52,2.07,0.52C195.71,17.59,196.4,17.41,197.02,17.06z"/>
	<path class="st0" d="M213.22,7.94v10.84h-1.4V16.8c-0.38,0.66-0.91,1.17-1.59,1.53c-0.67,0.36-1.44,0.55-2.31,0.55
		c-1.42,0-2.53-0.39-3.35-1.18c-0.82-0.79-1.23-1.95-1.23-3.47V7.94h1.46v6.14c0,1.14,0.28,2.01,0.84,2.6
		c0.56,0.59,1.37,0.89,2.41,0.89c1.14,0,2.04-0.35,2.7-1.04c0.66-0.69,0.99-1.66,0.99-2.9V7.94H213.22z"/>
	<path class="st0" d="M226.09,9.04c0.8,0.79,1.21,1.94,1.21,3.45v6.29h-1.46v-6.14c0-1.13-0.28-1.98-0.84-2.58
		c-0.56-0.59-1.37-0.89-2.41-0.89c-1.17,0-2.09,0.35-2.77,1.04c-0.68,0.7-1.02,1.65-1.02,2.88v5.69h-1.46V7.94h1.4v2
		c0.4-0.66,0.95-1.17,1.66-1.54c0.71-0.36,1.53-0.54,2.46-0.54C224.21,7.86,225.29,8.25,226.09,9.04z"/>
	<path class="st0" d="M236.99,18.12c-0.28,0.25-0.61,0.44-1.02,0.57c-0.41,0.13-0.83,0.2-1.27,0.2c-1.02,0-1.8-0.28-2.35-0.82
		c-0.55-0.55-0.82-1.33-0.82-2.33V9.18h-1.94V7.94h1.94V5.57h1.46v2.37h3.3v1.24h-3.3v6.47c0,0.65,0.16,1.14,0.48,1.47
		c0.32,0.34,0.79,0.51,1.39,0.51c0.3,0,0.59-0.05,0.88-0.14c0.28-0.1,0.52-0.23,0.73-0.41L236.99,18.12z"/>
	<path class="st0" d="M248.7,13.82h-9.07c0.08,1.13,0.51,2.04,1.3,2.73c0.78,0.69,1.77,1.04,2.97,1.04c0.67,0,1.29-0.12,1.85-0.36
		c0.56-0.24,1.05-0.59,1.46-1.06l0.82,0.95c-0.48,0.58-1.08,1.02-1.8,1.32c-0.72,0.3-1.52,0.45-2.38,0.45
		c-1.11,0-2.1-0.24-2.96-0.71c-0.86-0.47-1.53-1.13-2.01-1.97c-0.48-0.84-0.72-1.79-0.72-2.84c0-1.06,0.23-2.01,0.69-2.85
		c0.46-0.84,1.09-1.49,1.9-1.96c0.8-0.47,1.71-0.7,2.71-0.7s1.9,0.23,2.7,0.7c0.8,0.47,1.42,1.12,1.88,1.95
		c0.45,0.83,0.68,1.78,0.68,2.86L248.7,13.82z M240.83,10.11c-0.71,0.67-1.11,1.54-1.21,2.61h7.69c-0.1-1.07-0.5-1.94-1.21-2.61
		c-0.71-0.67-1.59-1-2.65-1C242.42,9.12,241.54,9.45,240.83,10.11z"/>
	<path class="st0" d="M253.32,18.18c-0.85-0.47-1.51-1.12-1.99-1.97c-0.48-0.85-0.72-1.8-0.72-2.85c0-1.06,0.24-2.01,0.72-2.85
		c0.48-0.84,1.14-1.49,1.99-1.96c0.84-0.47,1.8-0.7,2.88-0.7c0.93,0,1.77,0.18,2.5,0.54c0.73,0.36,1.32,0.9,1.74,1.6l-1.09,0.74
		c-0.36-0.54-0.81-0.94-1.36-1.21c-0.55-0.27-1.15-0.4-1.79-0.4c-0.78,0-1.49,0.17-2.11,0.52c-0.63,0.35-1.11,0.85-1.46,1.5
		c-0.35,0.65-0.53,1.38-0.53,2.21c0,0.84,0.18,1.58,0.53,2.22c0.35,0.64,0.84,1.13,1.46,1.48c0.62,0.35,1.33,0.52,2.11,0.52
		c0.65,0,1.24-0.13,1.79-0.39c0.55-0.26,1-0.66,1.36-1.2l1.09,0.74c-0.43,0.7-1.01,1.23-1.75,1.6c-0.74,0.36-1.57,0.55-2.49,0.55
		C255.13,18.89,254.17,18.65,253.32,18.18z"/>
	<path class="st0" d="M262.8,9.77c-0.21-0.22-0.32-0.49-0.32-0.8c0-0.32,0.11-0.58,0.32-0.79c0.21-0.21,0.47-0.32,0.77-0.32
		c0.3,0,0.56,0.1,0.78,0.32c0.22,0.21,0.33,0.48,0.33,0.79c0,0.31-0.11,0.58-0.33,0.8c-0.22,0.22-0.48,0.33-0.78,0.33
		C263.28,10.1,263.02,9.99,262.8,9.77z M262.8,18.56c-0.21-0.22-0.32-0.49-0.32-0.8c0-0.32,0.11-0.58,0.32-0.79s0.47-0.32,0.77-0.32
		c0.3,0,0.56,0.1,0.78,0.32c0.22,0.21,0.33,0.48,0.33,0.79c0,0.31-0.11,0.58-0.33,0.8c-0.22,0.22-0.48,0.33-0.78,0.33
		C263.28,18.89,263.02,18.78,262.8,18.56z"/>
</g>
</svg>
