<?xml version="1.0" encoding="utf-8"?>
<!-- Generator: Adobe Illustrator 21.0.2, SVG Export Plug-In . SVG Version: 6.00 Build 0)  -->
<svg version="1.1" id="Capa_1" xmlns="http://www.w3.org/2000/svg" xmlns:xlink="http://www.w3.org/1999/xlink" x="0px" y="0px"
	 viewBox="0 0 115 26" enable-background="new 0 0 115 26" xml:space="preserve">
<g>
	<path fill="#FFFFFF" d="M23.006,19.529c3.296,1.953,6.733,2.646,10.304,1.474c1.839-0.604,3.58-1.664,5.176-2.784
		c0.946-0.665,1.455-0.683,2.259,0.057c2.287,2.105,2.305,2.16-0.204,4.102c-5.734,4.437-13.869,4.781-20.114,0.787
		c-0.764-0.488-1.321-0.531-2.153-0.187c-4.886,2.023-10.692,0.877-14.056-2.694c-3.401-3.611-4.112-9.185-1.785-13.986
		c3.334-6.876,13.52-8.415,19.09-2.884c4.147,4.119,4.967,9.72,2.173,14.85C23.488,18.644,23.28,19.026,23.006,19.529z
		 M19.052,15.394c2.026-3.023,0.49-7.463-1.52-9.16c-2.37-2.001-6.538-1.947-8.784,0.125C6.044,8.853,5.66,13.242,7.871,16.385
		c1.79,2.545,5.234,3.588,7.593,2.359c0.14-1.452-2.588-2.271-0.897-3.921c0.683-0.666,1.885-1.071,2.852-1.074
		C17.962,13.748,18.508,14.811,19.052,15.394z"/>
	<path fill="#FFFFFF" d="M65.617,23.491c-1.846,0-3.479,0.093-5.089-0.062c-0.426-0.041-0.917-0.786-1.141-1.308
		c-1.077-2.521-1.048-2.533-3.764-2.533c-1.789,0-3.58,0.051-5.366-0.02c-0.944-0.038-1.42,0.269-1.732,1.174
		c-1.118,3.237-0.355,2.713-4.021,2.765c-0.829,0.012-1.658,0.002-2.66,0.002c0.142-0.614,0.185-0.997,0.319-1.346
		c2.621-6.842,5.268-13.675,7.865-20.527c0.359-0.946,0.888-1.313,1.882-1.261c1.239,0.065,2.485,0.052,3.725,0.004
		c0.869-0.033,1.353,0.286,1.671,1.117c2.618,6.844,5.274,13.674,7.91,20.511C65.369,22.4,65.44,22.824,65.617,23.491z
		 M50.472,14.967c2.279,0,4.261,0,6.476,0c-1.089-2.982-2.105-5.764-3.254-8.91C52.55,9.22,51.551,11.982,50.472,14.967z"/>
	<path fill="#FFFFFF" d="M113.925,23.478c-1.887,0-3.567,0.079-5.228-0.061c-0.372-0.031-0.799-0.783-0.997-1.283
		c-1.005-2.538-0.982-2.547-3.727-2.547c-1.789,0-3.581,0.054-5.367-0.021c-0.958-0.04-1.401,0.312-1.732,1.189
		c-1.043,2.767-1.078,2.754-4.056,2.753c-0.828,0-1.656,0-2.742,0c0.21-0.727,0.306-1.19,0.474-1.626
		c2.59-6.696,5.215-13.379,7.762-20.092c0.403-1.063,0.944-1.498,2.068-1.419c1.137,0.08,2.288,0.067,3.427,0.003
		c0.984-0.055,1.529,0.286,1.891,1.242c2.575,6.808,5.202,13.597,7.805,20.396C113.657,22.407,113.741,22.828,113.925,23.478z
		 M102.19,6.477c-0.109,0.004-0.218,0.008-0.327,0.011c-1.002,2.787-2.003,5.574-3.041,8.462c2.283,0,4.261,0,6.436,0
		C104.187,11.991,103.189,9.234,102.19,6.477z"/>
	<path fill="#FFFFFF" d="M42.485,7.381c0,1.734,0.193,3.494-0.038,5.197c-0.555,4.086-4.478,6.445-9.127,5.658
		c-4.018-0.68-6.098-3.091-6.126-7.146c-0.019-2.776,0.027-5.552-0.017-8.327c-0.018-1.152,0.429-1.578,1.586-1.561
		c3.512,0.051,3.057-0.23,3.081,2.998c0.016,2.23-0.047,4.463,0.025,6.691c0.071,2.187,1.132,3.195,3.113,3.143
		c1.958-0.052,2.905-1.121,2.914-3.325c0.011-2.677,0.034-5.354-0.01-8.03c-0.018-1.095,0.411-1.49,1.498-1.476
		c3.707,0.047,3.111-0.248,3.156,3.055c0.014,1.041,0.002,2.082,0.002,3.123C42.523,7.381,42.504,7.381,42.485,7.381z"/>
	<path fill="#FFFFFF" d="M66.585,11.909c0-3.268,0.044-6.537-0.022-9.803c-0.025-1.251,0.31-1.781,1.667-1.741
		c4.251,0.124,3.55-0.499,3.585,3.502c0.04,4.505,0.044,9.012-0.014,13.517c-0.015,1.178,0.364,1.546,1.533,1.504
		c2.231-0.081,4.469,0.011,6.702-0.037c1.069-0.023,1.526,0.343,1.512,1.455c-0.05,3.874,0.275,3.153-3.132,3.194
		c-3.376,0.04-6.754-0.041-10.129,0.034c-1.283,0.028-1.759-0.346-1.728-1.672C66.637,18.545,66.585,15.227,66.585,11.909z"/>
	<path fill="#FFFFFF" d="M83.845,15.11c0.001-2.328,0.026-4.655-0.011-6.982c-0.014-0.89,0.316-1.247,1.216-1.234
		c4.892,0.073,3.934-0.592,3.997,3.663c0.056,3.812-0.025,7.627,0.033,11.439c0.018,1.176-0.392,1.531-1.549,1.535
		c-3.686,0.013-3.686,0.053-3.686-3.667C83.844,18.279,83.844,16.694,83.845,15.11z"/>
	<path fill="#FFFFFF" d="M86.336,5.888c-1.549-0.016-2.726-1.205-2.703-2.729c0.023-1.515,1.248-2.696,2.78-2.679
		c1.548,0.016,2.681,1.188,2.67,2.76C89.071,4.827,87.953,5.905,86.336,5.888z"/>
</g>
</svg>
