<?xml version="1.0" encoding="utf-8"?>
<!-- Generator: Adobe Illustrator 24.1.1, SVG Export Plug-In . SVG Version: 6.00 Build 0)  -->
<svg version="1.0" id="Capa_1" xmlns="http://www.w3.org/2000/svg" xmlns:xlink="http://www.w3.org/1999/xlink" x="0px" y="0px"
	 viewBox="0 0 300 74.87" style="enable-background:new 0 0 300 74.87;" xml:space="preserve">
<style type="text/css">
	.st0{fill:#FFFFFF;}
</style>
<g>
	<path class="st0" d="M103.98,53.55c-6.98,0-12.72-6.06-12.72-13.47V29.82c0-1.77,1.34-3.22,3.01-3.22c1.72,0,3.38,1.45,3.38,3.22
		v10.25c0,3.86,3.22,6.98,6.33,6.98c3.65,0,6.39-3.11,6.39-6.98v-9.82c0-1.82,1.88-3.22,3.33-3.22c1.66,0,3.06,1.4,3.06,3.22v9.82
		C116.76,47.48,111.02,53.55,103.98,53.55"/>
	<path class="st0" d="M151.64,39.75c0,7.51-6.12,13.58-13.58,13.58c-2.85,0-5.53-0.86-7.67-2.36c-0.43,1.29-1.66,2.25-3.11,2.25
		c-1.82,0-3.27-1.45-3.27-3.22V15.87c0-1.77,1.45-3.27,3.27-3.27c1.77,0,3.22,1.5,3.22,3.27v12.56c2.2-1.4,4.78-2.25,7.57-2.25
		C145.52,26.18,151.64,32.24,151.64,39.75 M145.15,39.75c0-3.92-3.22-7.08-7.08-7.08c-3.92,0-7.08,3.17-7.08,7.08
		c0,3.92,3.17,7.09,7.08,7.09C141.93,46.84,145.15,43.67,145.15,39.75"/>
	<path class="st0" d="M171.06,53.55c-6.98,0-12.72-6.06-12.72-13.47V29.82c0-1.77,1.34-3.22,3.01-3.22c1.72,0,3.38,1.45,3.38,3.22
		v10.25c0,3.86,3.22,6.98,6.33,6.98c3.65,0,6.39-3.11,6.39-6.98v-9.82c0-1.82,1.88-3.22,3.33-3.22c1.66,0,3.06,1.4,3.06,3.22v9.82
		C183.84,47.48,178.09,53.55,171.06,53.55"/>
	<path class="st0" d="M216.68,39.91v10.14c0,1.77-1.4,3.22-3.17,3.22c-1.82,0-3.22-1.45-3.22-3.22V39.91c0-3.81-2.79-6.87-6.17-6.87
		c-4.19,0-6.33,4.19-6.33,7.89v9.12c0,1.77-1.45,3.22-3.22,3.22c-1.77,0-3.22-1.45-3.22-3.22v-20.5c0-1.77,1.45-3.22,3.22-3.22
		c1.4,0,2.58,0.91,3.01,2.2c1.93-1.23,4.13-1.93,6.55-1.93C211.04,26.6,216.68,32.56,216.68,39.91"/>
	<path class="st0" d="M238.25,50.01c0,1.82-1.45,3.22-3.22,3.22c-0.48,0-0.91,0-1.4-0.05c-1.77-0.27-3.49-1.02-4.72-2.42
		c-1.07-1.23-1.82-3.17-1.82-4.83V32.4h-2.31c-1.77,0-3.22-1.45-3.22-3.22c0-1.77,1.45-3.22,3.22-3.22h2.31V15.71
		c0-1.77,1.45-3.22,3.22-3.22c1.77,0,3.22,1.45,3.22,3.22v10.25h1.77c1.77,0,3.22,1.45,3.22,3.22c0,1.77-1.45,3.22-3.22,3.22h-1.77
		v12.77c0.11,0.43,0,1.07,0.38,1.4c0.27,0.27,0.75,0.21,1.13,0.21C236.8,46.78,238.25,48.23,238.25,50.01"/>
	<path class="st0" d="M267.02,41.74h-16.53c0.75,3.06,3.49,5.42,6.82,5.42c1.72,0,4.24-0.7,5.64-2.04c1.29-1.23,3.33-1.23,4.56,0.05
		c1.29,1.23,1.24,3.33-0.05,4.56c-2.95,2.84-7.08,3.81-10.14,3.81c-7.46,0-13.42-6.01-13.42-13.47c0-7.35,5.96-13.47,13.42-13.47
		c0.8,0,1.56,0.05,2.36,0.21c3.65,0.7,6.76,2.95,8.69,6.17c0.86,1.5,1.82,3.49,1.72,5.26c0,0.48-0.22,1.02-0.43,1.56
		C269.22,40.83,268.3,41.74,267.02,41.74 M251.4,36.32h11.38c-1.07-2.04-3.06-3.22-5.47-3.22C254.83,33.1,252.69,34.33,251.4,36.32"
		/>
	<path class="st0" d="M289.71,53.22c-3.54,0-6.82-1.34-9.34-3.76c-2.58-2.52-4.03-5.85-4.13-9.45c-0.05-3.54,1.23-6.98,3.81-9.55
		c2.47-2.58,5.8-4.03,9.39-4.13c3.6-0.05,6.98,1.29,9.55,3.81c1.29,1.18,1.34,3.27,0.11,4.51c-1.23,1.29-3.27,1.34-4.56,0.11
		c-1.34-1.29-3.11-1.99-4.99-1.99c-1.88,0-3.6,0.8-4.94,2.15c-1.23,1.34-1.99,3.11-1.93,4.99c0,1.83,0.81,3.65,2.15,4.88
		c1.34,1.34,3.11,2.04,4.94,1.99c1.77,0,3.44-0.7,4.72-1.88c1.23-1.23,3.33-1.13,4.51,0.16c1.23,1.29,1.13,3.33-0.16,4.56
		c-2.41,2.25-5.58,3.54-8.91,3.6H289.71z"/>
	<path class="st0" d="M36.65,74.87C16.44,74.87,0,58.43,0,38.22S16.44,1.57,36.65,1.57c1.56,0,2.83,1.27,2.83,2.83
		c0,1.56-1.27,2.83-2.83,2.83c-17.08,0-30.98,13.9-30.98,30.98c0,17.08,13.9,30.98,30.98,30.98c17.08,0,30.98-13.9,30.98-30.98
		c0-6.33-1.89-12.41-5.47-17.59c-0.89-1.29-0.57-3.05,0.72-3.94c1.29-0.89,3.05-0.57,3.94,0.72c4.24,6.13,6.48,13.33,6.48,20.81
		C73.3,58.43,56.86,74.87,36.65,74.87"/>
	<path class="st0" d="M36.62,54.26c-7.16,0-13.06-6.23-13.06-13.83V29.9c0-1.82,1.38-3.31,3.09-3.31c1.76,0,3.47,1.49,3.47,3.31
		v10.53c0,3.97,3.31,7.17,6.5,7.17c3.75,0,6.56-3.2,6.56-7.17V30.34c0-1.87,1.93-3.31,3.42-3.31c1.71,0,3.14,1.43,3.14,3.31v10.09
		C49.74,48.03,43.84,54.26,36.62,54.26"/>
	<path class="st0" d="M58.3,6.43l-2.78-0.12l0.12-2.78c0.08-1.87-1.36-3.44-3.23-3.53c-1.87-0.08-3.44,1.36-3.53,3.23l-0.12,2.78
		l-2.78-0.12c-1.87-0.08-3.45,1.36-3.53,3.23c-0.08,1.86,1.36,3.44,3.23,3.53l2.78,0.12l-0.12,2.78c-0.08,1.87,1.36,3.44,3.23,3.53
		c0.64,0.03,1.25-0.12,1.78-0.41c1-0.55,1.69-1.59,1.75-2.81l0.12-2.78L58,13.19c0.64,0.03,1.25-0.12,1.78-0.42
		c1-0.55,1.69-1.59,1.75-2.81C61.61,8.1,60.17,6.52,58.3,6.43"/>
</g>
</svg>
