<?xml version="1.0" encoding="utf-8"?>
<!-- Generator: Adobe Illustrator 24.1.1, SVG Export Plug-In . SVG Version: 6.00 Build 0)  -->
<svg version="1.0" id="Capa_1" xmlns="http://www.w3.org/2000/svg" xmlns:xlink="http://www.w3.org/1999/xlink" x="0px" y="0px"
	 viewBox="0 0 300 74.87" style="enable-background:new 0 0 300 74.87;" xml:space="preserve">
<style type="text/css">
	.st0{fill:#FFFFFF;}
</style>
<g>
	<path class="st0" d="M299.99,41.07c-77.92,0-155.77,0-233.64,0c0,0.37,0,0.7,0,1.04c77.91,0,155.76,0,233.64,0
		C299.99,41.76,299.99,41.44,299.99,41.07z"/>
	<path class="st0" d="M232.7,34.19c0.11-0.34-0.03-0.43-0.29-0.48c-0.57-0.11-0.8-0.52-0.85-1.06c-0.03-0.34-0.05-0.68-0.05-1.03
		c0-1.88,0.01-3.77-0.01-5.65c-0.01-0.49,0.13-0.87,0.47-1.21c0.17-0.17,0.32-0.34,0.5-0.5c0.46-0.41,0.99-0.64,1.59-0.41
		c0.6,0.23,0.76,0.77,0.76,1.36c0.02,1.95,0.05,3.89,0.06,5.84c0,0.49-0.03,0.98-0.05,1.47c-0.02,0.63-0.29,1.07-0.94,1.2
		c-0.3,0.06-0.29,0.24-0.22,0.46c2,0,3.97,0,5.93,0c0.14-0.33-0.02-0.43-0.3-0.48c-0.52-0.1-0.82-0.43-0.88-0.97
		c-0.02-0.21-0.06-0.43-0.06-0.64c0-2.12-0.01-4.24,0-6.35c0-0.18,0.02-0.4,0.12-0.54c0.36-0.51,0.78-0.97,1.35-1.25
		c0.91-0.44,1.63-0.08,1.81,0.9c0.03,0.15,0.05,0.3,0.05,0.45c0.01,2.33,0.01,4.66,0.01,7c0,0.7-0.24,1.26-1.01,1.43
		c-0.26,0.06-0.28,0.22-0.2,0.46c1.98,0,3.96,0,5.93,0c0.14-0.36-0.05-0.43-0.32-0.49c-0.53-0.11-0.79-0.48-0.82-1.01
		c-0.02-0.38-0.04-0.77-0.04-1.15c-0.01-1.58,0.02-3.17-0.01-4.75c-0.02-0.81-0.07-1.63-0.22-2.42c-0.26-1.31-1.32-2.12-2.65-2.21
		c-1.38-0.09-2.49,0.46-3.47,1.38c-0.23,0.22-0.45,0.44-0.71,0.69c-0.14-0.25-0.25-0.46-0.37-0.66c-0.53-0.86-1.32-1.32-2.32-1.4
		c-1.19-0.1-2.24,0.24-3.13,1.04c-0.25,0.22-0.5,0.44-0.82,0.72c-0.03-0.52-0.05-0.94-0.07-1.37c-1.6,0-3.16,0-4.69,0
		c-0.13,0.35,0.09,0.42,0.3,0.46c0.62,0.11,0.83,0.54,0.88,1.1c0.01,0.11,0.02,0.21,0.02,0.32c0,2.63,0,5.26,0,7.9
		c0,0.71-0.21,1.26-1.01,1.4c-0.26,0.04-0.29,0.21-0.19,0.45C228.75,34.19,230.72,34.19,232.7,34.19z"/>
	<path class="st0" d="M211.23,30.4c-0.57,0.55-1.01,0.99-1.47,1.4c-1.02,0.9-2.2,1.47-3.57,1.6c-2.74,0.26-4.64-0.84-5.56-3.32
		c-0.05-0.14-0.1-0.28-0.14-0.43c-0.45-1.4-0.61-2.85-0.59-4.3c0.01-1.46,0.26-2.9,0.86-4.25c1-2.23,3.31-3.5,5.71-3.08
		c2.03,0.35,3.37,1.57,4.17,3.43c0.14,0.31,0.23,0.64,0.33,0.97c0.08,0.27,0.25,0.33,0.52,0.19c0-1.9,0-3.82,0-5.72
		c-0.42-0.21-0.45,0.1-0.54,0.33c-0.29,0.75-0.69,0.95-1.45,0.72c-0.45-0.14-0.89-0.31-1.33-0.47c-1.62-0.59-3.28-0.83-4.98-0.54
		c-5.75,1-8.41,6.29-7.68,10.44c0.48,2.76,1.86,4.89,4.4,6.18c1.79,0.91,3.7,1.15,5.68,1.01c2.07-0.15,3.83-0.98,5.29-2.45
		c0.14-0.14,0.31-0.33,0.34-0.52C211.27,31.26,211.23,30.9,211.23,30.4z"/>
	<path class="st0" d="M89.34,34.19c0.1-0.36-0.06-0.43-0.31-0.48c-0.57-0.1-0.83-0.48-0.86-1.03c-0.02-0.3-0.03-0.6-0.03-0.9
		c0-1.52,0.01-3.04-0.01-4.55c-0.01-0.77-0.04-1.54-0.11-2.31c-0.14-1.54-1.31-2.84-3.1-2.77c-1.12,0.04-2,0.54-2.8,1.26
		c-0.17,0.15-0.33,0.31-0.58,0.54c-0.03-0.54-0.05-0.95-0.07-1.39c-1.59,0-3.13,0-4.67,0c-0.13,0.4,0.14,0.42,0.37,0.48
		c0.47,0.12,0.73,0.41,0.76,0.9c0.03,0.43,0.08,0.85,0.08,1.28c0.01,2.1,0.01,4.19,0,6.29c0,0.34-0.03,0.68-0.04,1.02
		c-0.02,0.63-0.28,1.07-0.94,1.19c-0.29,0.05-0.32,0.22-0.23,0.46c1.94,0,3.88,0,5.82,0c-0.04-0.37-0.03-0.38-0.3-0.47
		c-0.46-0.15-0.71-0.45-0.75-0.94c-0.03-0.34-0.08-0.68-0.08-1.02c-0.01-1.9,0-3.81,0-5.71c0-0.93,0.71-1.88,1.6-2.15
		c0.66-0.2,1.2,0.08,1.39,0.75c0.05,0.18,0.09,0.38,0.09,0.57c0.01,2.39,0.01,4.79,0.01,7.18c0,0.63-0.21,1.14-0.88,1.33
		c-0.25,0.07-0.28,0.23-0.2,0.47C85.44,34.19,87.37,34.19,89.34,34.19z"/>
	<path class="st0" d="M105.26,22.55c0.08,0.39,0.07,0.41,0.36,0.48c0.54,0.13,0.8,0.46,0.82,1c0.02,0.34,0.06,0.68,0.07,1.02
		c0.01,1.54-0.01,3.08,0.01,4.62c0.01,0.83,0.05,1.67,0.17,2.49c0.17,1.19,1.14,2.14,2.33,2.35c1.27,0.23,2.36-0.19,3.3-1.02
		c0.23-0.21,0.46-0.42,0.76-0.71c0.03,0.54,0.05,0.97,0.07,1.41c1.61,0,3.16,0,4.7,0c0.1-0.31-0.02-0.42-0.29-0.47
		c-0.61-0.1-0.85-0.51-0.88-1.09c-0.02-0.36-0.03-0.73-0.03-1.09c0-2.76,0-5.52,0-8.28c0-0.23,0-0.46,0-0.7c-1.64,0-3.19,0-4.74,0
		c0.06,0.37,0.05,0.39,0.39,0.48c0.51,0.13,0.74,0.47,0.79,0.96c0.02,0.26,0.04,0.51,0.04,0.77c0,2.03,0,4.06,0,6.09
		c0,0.17,0.03,0.37-0.05,0.5c-0.36,0.56-0.75,1.11-1.38,1.39c-0.77,0.34-1.44-0.01-1.58-0.83c-0.08-0.48-0.09-0.98-0.1-1.47
		c-0.01-2.4,0-4.79,0-7.19c0-0.23,0-0.46,0-0.72C108.37,22.55,106.84,22.55,105.26,22.55z"/>
	<path class="st0" d="M75.18,34.2c0.09-0.32-0.01-0.43-0.26-0.44c-0.26-0.01-0.52-0.01-0.77-0.05c-0.78-0.12-1.21-0.59-1.26-1.37
		c-0.02-0.36-0.03-0.73-0.03-1.09c0-2.44,0-4.88,0-7.31c0-1.54-0.01-3.08,0.02-4.62c0.02-1.1,0.52-1.59,1.62-1.65
		c0.23-0.01,0.46,0,0.85,0c-0.16-0.23-0.21-0.37-0.3-0.41c-0.13-0.05-0.29-0.03-0.44-0.03c-2.52,0-5.05,0-7.57,0
		c-0.15,0-0.31-0.02-0.44,0.03c-0.1,0.04-0.15,0.18-0.28,0.34c0.54,0.07,0.96,0.08,1.37,0.18c0.62,0.14,1.02,0.52,1.06,1.2
		c0.02,0.32,0.05,0.64,0.05,0.96c0,3.85,0,7.7,0,11.55c0,0.34-0.02,0.69-0.07,1.02c-0.11,0.76-0.49,1.12-1.26,1.22
		c-0.25,0.03-0.51,0.03-0.77,0.04c-0.31,0.01-0.33,0.18-0.26,0.44C69.35,34.2,72.25,34.2,75.18,34.2z"/>
	<path class="st0" d="M183.14,30.12c-0.14-0.17-0.2-0.21-0.22-0.27c-0.73-1.68-1.47-3.37-2.19-5.06c-0.11-0.25-0.2-0.52-0.25-0.79
		c-0.11-0.54,0.05-0.8,0.57-0.97c0.1-0.03,0.23-0.03,0.3-0.09c0.09-0.08,0.12-0.21,0.22-0.39c-2.14,0-4.16,0-6.17,0
		c-0.13,0.28-0.02,0.42,0.21,0.52c0.51,0.23,0.85,0.64,1.09,1.13c0.35,0.71,0.69,1.42,1,2.15c1.15,2.62,2.29,5.25,3.43,7.88
		c0.09,0.2,0.19,0.48,0.12,0.66c-0.36,0.96-0.77,1.9-1.19,2.83c-0.1,0.22-0.3,0.42-0.5,0.57c-0.42,0.32-0.72,0.18-0.79-0.34
		c-0.04-0.3-0.05-0.6-0.12-0.89c-0.17-0.7-0.79-1.1-1.5-0.99c-0.68,0.1-1.2,0.63-1.3,1.32c-0.18,1.19,0.65,2.23,1.89,2.35
		c1.23,0.13,2.19-0.33,2.8-1.4c0.4-0.7,0.75-1.44,1.05-2.19c1.05-2.64,2.06-5.3,3.09-7.94c0.54-1.37,1.09-2.74,1.65-4.1
		c0.21-0.51,0.51-0.94,1.08-1.1c0.23-0.06,0.31-0.21,0.16-0.45c-1.25,0-2.5,0-3.74,0c-0.15,0.43,0.17,0.39,0.38,0.44
		c0.78,0.2,1.01,0.55,0.9,1.35c-0.02,0.17-0.04,0.34-0.1,0.5C184.42,26.57,183.8,28.29,183.14,30.12z"/>
	<path class="st0" d="M209.2,46.09c-0.7-0.13-1.37-0.12-1.91,0.06c0,2.42,0,4.86,0,7.3c-0.04,0.01-0.08,0.02-0.13,0.03
		c-1.35-2.49-2.71-4.97-4.05-7.44c-0.7,0-1.33,0-2.01,0c0,3.85,0,7.67,0,11.52c0.63,0,1.22,0,1.9,0c0-0.25,0-0.48,0-0.7
		c0-1.95,0-3.89,0-5.84c0-0.22,0.02-0.43,0.03-0.65c0.05-0.01,0.09-0.01,0.14-0.02c0.15,0.27,0.31,0.55,0.46,0.82
		c1.09,1.99,2.18,3.98,3.27,5.96c0.1,0.17,0.26,0.42,0.4,0.44c0.63,0.05,1.26,0.02,1.88,0.02C209.2,53.69,209.2,49.88,209.2,46.09z"
		/>
	<path class="st0" d="M163.17,57.57c0-3.87,0-7.69,0-11.53c-0.64,0-1.23,0-1.87,0c-0.07,2.47,0.02,4.91-0.11,7.36
		c-0.16-0.14-0.26-0.29-0.35-0.45c-0.36-0.66-0.71-1.31-1.07-1.97c-0.82-1.5-1.63-3.01-2.45-4.51c-0.11-0.2-0.16-0.46-0.47-0.46
		c-0.57,0-1.14,0-1.75,0c0,3.89,0,7.7,0,11.55c0.62,0,1.21,0,1.87,0c0-2.43,0-4.83,0-7.23c0.05-0.01,0.1-0.03,0.15-0.04
		c1.34,2.44,2.68,4.88,4.01,7.29C161.82,57.57,162.46,57.57,163.17,57.57z"/>
	<path class="st0" d="M256.83,57.59c0.13-1.5,0.07-11.08-0.07-11.58c-0.58,0.03-1.17-0.09-1.79,0.09c0,1.24,0,2.46,0,3.67
		c0,1.23,0,2.45,0,3.68c-0.05,0.01-0.1,0.02-0.14,0.03c-0.15-0.27-0.3-0.54-0.45-0.82c-1.12-2.06-2.24-4.13-3.37-6.19
		c-0.09-0.17-0.25-0.42-0.4-0.44c-0.6-0.06-1.22-0.07-1.82,0c0,3.88,0,7.68,0,11.51c0.64,0.05,1.25,0.09,1.89-0.03
		c0-0.83,0-1.61,0-2.4c0-0.81-0.01-1.62,0-2.44c0.01-0.77-0.06-1.55,0.07-2.47c0.19,0.33,0.31,0.52,0.42,0.72
		c1.07,1.95,2.14,3.9,3.2,5.85c0.1,0.19,0.19,0.39,0.32,0.55c0.1,0.12,0.26,0.24,0.39,0.24C255.64,57.61,256.22,57.59,256.83,57.59z
		"/>
	<path class="st0" d="M280,31.24c-0.36,0.31-0.66,0.59-0.98,0.83c-1.1,0.8-2.51,0.68-3.43-0.31c-0.36-0.39-0.64-0.86-0.88-1.32
		c-0.42-0.8-0.63-1.68-0.73-2.58c-0.12-1.13-0.17-2.27,0.21-3.37c0.14-0.41,0.36-0.84,0.66-1.15c0.56-0.58,1.37-0.37,1.63,0.39
		c0.1,0.28,0.1,0.59,0.17,0.88c0.1,0.41,0.17,0.85,0.34,1.22c0.32,0.68,1.14,0.99,1.92,0.78c0.67-0.18,1.06-0.72,1.07-1.49
		c0.01-0.51-0.14-0.97-0.43-1.38c-0.43-0.61-1-1.06-1.71-1.3c-1.86-0.62-4.4-0.39-5.96,1.77c-0.91,1.26-1.34,2.67-1.37,4.2
		c-0.03,1.61,0.37,3.09,1.39,4.37c1.12,1.41,2.61,1.96,4.37,1.74c1.82-0.23,3.09-1.26,3.96-2.82c0.03-0.05,0.04-0.12,0.07-0.2
		C280.21,31.42,280.12,31.34,280,31.24z"/>
	<path class="st0" d="M119.89,30.46c0.16,1.31,0.07,2.67,0.26,4.12c0.21-0.11,0.38-0.14,0.44-0.23c0.3-0.49,0.69-0.45,1.17-0.29
		c0.54,0.19,1.1,0.35,1.66,0.45c1.63,0.28,3.18-0.5,3.91-1.93c0.8-1.59,0.58-3.22-0.65-4.41c-0.54-0.52-1.15-0.95-1.74-1.41
		c-0.58-0.44-1.18-0.85-1.76-1.28c-0.2-0.15-0.4-0.33-0.57-0.52c-0.55-0.64-0.36-1.47,0.44-1.76c0.26-0.1,0.59-0.11,0.87-0.06
		c0.72,0.13,1.32,0.53,1.74,1.11c0.36,0.5,0.65,1.05,0.95,1.59c0.13,0.23,0.23,0.41,0.57,0.22c-0.06-1.27-0.13-2.56-0.19-3.81
		c-0.35-0.14-0.47,0.04-0.62,0.2c-0.38,0.42-0.53,0.45-1.07,0.21c-0.22-0.09-0.42-0.21-0.65-0.28c-1.44-0.42-2.82-0.35-3.92,0.8
		c-1.4,1.46-1.34,3.65,0.1,5.07c0.45,0.45,0.97,0.83,1.48,1.22c0.61,0.47,1.25,0.9,1.86,1.36c0.24,0.18,0.46,0.39,0.63,0.63
		c0.33,0.47,0.42,0.99,0.12,1.51c-0.28,0.5-0.75,0.72-1.3,0.64c-0.39-0.06-0.79-0.18-1.14-0.37c-0.8-0.42-1.35-1.1-1.75-1.9
		c-0.12-0.25-0.24-0.5-0.34-0.76C120.32,30.36,120.18,30.3,119.89,30.46z"/>
	<path class="st0" d="M115.9,52.46c1.71,0,3.39,0,5.08,0c0-0.67,0-1.26,0-1.93c-1.71,0-3.39,0-5.07,0c0-0.9,0-1.71,0-2.58
		c0.94,0,1.84,0,2.73,0c0.91,0,1.82-0.01,2.72-0.01c0-0.68,0-1.27,0-1.9c-2.53,0-5.02,0-7.55,0c0,3.85,0,7.67,0,11.51
		c2.59,0,5.14,0,7.72,0c0-0.64,0-1.24,0-1.91c-1.9,0-3.75,0-5.63,0C115.9,54.57,115.9,53.56,115.9,52.46z"/>
	<path class="st0" d="M66.47,53.84c0.05,1.99,1.15,3.43,2.85,3.83c0.93,0.22,1.87,0.2,2.8-0.02c1.58-0.39,2.54-1.52,2.64-3.22
		c0.1-1.69-0.6-2.92-2.13-3.51c-0.64-0.24-1.3-0.42-1.95-0.64c-0.46-0.16-0.93-0.32-1.37-0.53c-0.38-0.18-0.57-0.5-0.55-0.94
		c0.02-0.41,0.27-0.67,0.61-0.84c0.47-0.23,0.98-0.29,1.5-0.23c0.73,0.09,1.23,0.46,1.42,1.19c0.04,0.14,0.09,0.28,0.15,0.46
		c0.66-0.03,1.31-0.06,1.95-0.09c0.08-1.52-0.77-2.8-2.13-3.25c-0.95-0.32-1.93-0.34-2.91-0.14c-1.44,0.29-2.35,1.27-2.56,2.76
		c-0.18,1.32,0.49,2.63,1.72,3.24c0.55,0.27,1.15,0.45,1.74,0.65c0.5,0.17,1.03,0.3,1.53,0.49c0.48,0.18,0.86,0.47,0.91,1.05
		c0.05,0.62-0.21,1.09-0.71,1.41c-1.2,0.79-2.85,0.24-3.35-1.1c-0.09-0.25-0.17-0.51-0.26-0.8C67.71,53.69,67.1,53.76,66.47,53.84z"
		/>
	<path class="st0" d="M136.67,31.8c-0.24,0.27-0.46,0.56-0.73,0.8c-0.29,0.26-0.64,0.46-1.05,0.29c-0.4-0.16-0.57-0.5-0.61-0.91
		c-0.02-0.21-0.03-0.43-0.03-0.64c0-2.33,0-4.66,0-6.99c0-0.19,0.03-0.37,0.04-0.64c0.92,0,1.8,0,2.68,0c0-0.44,0-0.79,0-1.2
		c-0.92,0-1.79,0-2.73,0c0-1.47,0-2.86,0-4.23c-0.43-0.16-0.51,0.13-0.63,0.34c-1,1.72-2.33,3.16-3.93,4.35
		c-0.09,0.06-0.17,0.13-0.26,0.19c-0.2,0.15-0.25,0.32-0.07,0.59c0.42,0,0.86,0,1.36,0c0.02,0.26,0.04,0.47,0.04,0.67
		c0,0.73,0,1.45,0,2.18c0.01,1.73,0.03,3.46,0.04,5.19c0,0.73,0.33,1.31,0.84,1.8c0.82,0.78,1.81,0.92,2.87,0.72
		c1.17-0.22,1.9-1.01,2.39-2.04C137.01,32.01,136.96,31.85,136.67,31.8z"/>
	<path class="st0" d="M264.33,22.52c-1.65-0.01-3.19-0.04-4.71,0.02c-0.12,0.34,0.04,0.43,0.25,0.46c0.71,0.11,0.92,0.61,0.97,1.24
		c0.01,0.19,0.01,0.38,0.01,0.58c0,2.27,0,4.53,0,6.8c0,0.34-0.04,0.68-0.06,1.02c-0.04,0.61-0.32,1.01-0.95,1.1
		c-0.31,0.04-0.29,0.23-0.23,0.45c2.1,0,4.16,0,6.21,0c0.1-0.33-0.05-0.4-0.3-0.45c-0.93-0.17-1.16-0.43-1.18-1.36
		c-0.02-1.35-0.06-2.7,0.01-4.04c0.04-0.78,0.24-1.56,0.42-2.32c0.12-0.48,0.4-0.9,0.81-1.2c0.41-0.3,0.72-0.3,1.1,0
		c0.2,0.16,0.39,0.34,0.6,0.48c1.01,0.64,2.15,0.11,2.29-1.07c0.03-0.27,0.03-0.56-0.01-0.83c-0.1-0.72-0.62-1.18-1.34-1.22
		c-0.85-0.05-1.56,0.29-2.15,0.84c-0.46,0.43-0.84,0.96-1.26,1.45c-0.13,0.15-0.25,0.32-0.37,0.48c-0.04-0.01-0.07-0.02-0.11-0.03
		C264.33,24.14,264.33,23.38,264.33,22.52z"/>
	<path class="st0" d="M138.29,34.18c2.09,0,4.15,0,6.22,0c-0.04-0.39-0.04-0.39-0.31-0.45c-0.93-0.19-1.16-0.42-1.18-1.36
		c-0.03-1.32-0.03-2.65,0-3.97c0.02-0.83,0.12-1.67,0.46-2.44c0.18-0.4,0.44-0.79,0.74-1.09c0.4-0.4,0.75-0.36,1.19-0.02
		c0.18,0.15,0.35,0.31,0.55,0.44c1.01,0.65,2.15,0.12,2.29-1.07c0.03-0.25,0.03-0.51,0-0.77c-0.08-0.78-0.62-1.26-1.41-1.29
		c-0.89-0.03-1.63,0.36-2.23,0.97c-0.46,0.47-0.84,1.02-1.26,1.53c-0.08,0.1-0.19,0.18-0.38,0.35c0-0.9,0-1.66,0-2.45
		c-1.6,0-3.15,0-4.67,0c-0.13,0.37,0.11,0.41,0.32,0.45c0.61,0.11,0.84,0.53,0.89,1.09c0.02,0.25,0.03,0.51,0.03,0.77
		c0,2.22,0,4.45,0,6.67c0,0.36-0.03,0.73-0.05,1.09c-0.05,0.6-0.31,1.02-0.95,1.1C138.27,33.76,138.21,33.91,138.29,34.18z"/>
	<path class="st0" d="M185.79,46.04c-0.13,1.14-0.08,11.06,0.04,11.5c2.56,0,5.11,0,7.67,0c0-0.64,0-1.23,0-1.89
		c-1.91,0-3.78,0-5.68,0c0-1.09,0-2.1,0-3.2c1.72,0,3.39,0,5.08,0c0-0.67,0-1.26,0-1.93c-1.71,0-3.39,0-5.07,0c0-0.9,0-1.72,0-2.59
		c1.84,0,3.63,0,5.45,0c0-0.66,0-1.27,0-1.9C190.77,46.04,188.29,46.04,185.79,46.04z"/>
	<path class="st0" d="M233.41,46.05c0,3.87,0,7.68,0,11.51c2.6,0,5.15,0,7.74,0c0.05-0.65,0.05-1.25,0.01-1.88
		c-1.95-0.03-3.82,0.02-5.73-0.03c0.01-1.11-0.03-2.12,0.03-3.19c1.75,0,3.41,0,5.09,0c0.06-0.67,0.06-1.27,0-1.93
		c-1.73,0-3.39,0-5.07,0c0-0.88,0-1.7,0-2.59c1.85,0,3.66,0,5.46,0c0-0.67,0-1.26,0-1.89C238.41,46.05,235.94,46.05,233.41,46.05z"
		/>
	<path class="st0" d="M82.29,46.04c-0.01,0.22-0.03,0.36-0.03,0.51c0,1.9-0.01,3.81,0.01,5.71c0.01,0.83,0.05,1.67,0.14,2.49
		c0.17,1.56,1.27,2.75,2.77,2.93c0.73,0.09,1.5,0.1,2.23,0.03c1.64-0.17,2.72-1.28,2.91-2.92c0.07-0.59,0.12-1.19,0.12-1.79
		c0.02-2.16,0.01-4.32,0.01-6.48c0-0.16-0.03-0.32-0.06-0.52c-0.68,0.01-1.31-0.07-1.99,0.06c0,0.26,0,0.5,0,0.73
		c0,1.82,0.01,3.63,0,5.45c-0.01,0.68-0.06,1.37-0.1,2.05c-0.03,0.42-0.21,0.79-0.53,1.06c-0.64,0.53-1.37,0.54-2.12,0.32
		c-0.71-0.2-1.11-0.72-1.23-1.42c-0.09-0.55-0.11-1.11-0.11-1.66c-0.01-1.95,0-3.89,0-5.84c0-0.23,0-0.46,0-0.72
		C83.62,46.04,82.99,46.04,82.29,46.04z"/>
	<path class="st0" d="M273.4,49.18c-0.37-1.63-1.24-2.76-2.83-3.22c-0.9-0.26-1.82-0.24-2.72,0.05c-1.61,0.52-2.53,1.7-3,3.25
		c-0.48,1.59-0.5,3.21-0.1,4.82c0.52,2.12,2.02,3.49,4.01,3.7c2.36,0.25,4.36-1.35,4.63-3.74c-0.62-0.22-1.26-0.45-1.87-0.67
		c-0.2,0.49-0.34,0.95-0.57,1.35c-0.7,1.23-2.25,1.46-3.29,0.51c-0.41-0.37-0.65-0.84-0.79-1.37c-0.28-1.09-0.34-2.2-0.16-3.31
		c0.09-0.54,0.23-1.1,0.48-1.58c0.46-0.87,1.25-1.26,2.25-1.16c0.91,0.09,1.46,0.63,1.8,1.44c0.06,0.15,0.13,0.3,0.2,0.47
		C272.1,49.54,272.74,49.37,273.4,49.18z"/>
	<path class="st0" d="M149.3,34.17c2.09,0,4.15,0,6.2,0c0.11-0.4-0.14-0.42-0.39-0.46c-0.57-0.08-0.87-0.43-0.93-0.98
		c-0.04-0.36-0.05-0.72-0.05-1.09c0-2.8,0-5.6,0-8.39c0-0.23,0-0.45,0-0.67c-0.89-0.14-4.4-0.1-4.84,0.04
		c0.08,0.29,0.08,0.29,0.24,0.35c0.93,0.33,1.04,0.43,1.07,1.41c0.04,1.34,0.03,2.69,0.03,4.04c0,1.32,0.01,2.65-0.03,3.97
		c-0.02,0.92-0.16,1.07-1.06,1.34C149.29,33.8,149.21,33.91,149.3,34.17z"/>
	<path class="st0" d="M281.55,34.19c2.06,0,4.13,0,6.18,0c0.1-0.29,0.01-0.4-0.26-0.46c-0.81-0.2-0.98-0.39-1.06-1.21
		c-0.03-0.3-0.03-0.6-0.03-0.9c0-2.8,0-5.6,0-8.4c0-0.22-0.02-0.45-0.03-0.68c-1.65,0-3.23,0-4.78,0c-0.15,0.35,0.08,0.41,0.3,0.45
		c0.66,0.1,0.94,0.52,0.97,1.15c0.02,0.34,0.05,0.68,0.05,1.02c0.01,1.86,0.01,3.72,0,5.58c0,0.56-0.03,1.11-0.03,1.66
		c0,0.75-0.31,1.23-1.09,1.33C281.49,33.78,281.47,33.95,281.55,34.19z"/>
	<path class="st0" d="M175.56,57.59c0.01-3.25,0-6.42,0.01-9.65c1.05,0,2,0,2.98,0c0-0.66,0-1.27,0-1.9c-2.71,0-5.37,0-8.06,0
		c0,0.64,0,1.25,0,1.92c1.01,0,1.98,0,3.02,0c0,1.65,0,3.23,0,4.8c0,1.59-0.02,3.18,0.02,4.82c0.28,0,0.47,0,0.66,0
		C174.6,57.59,175.03,57.59,175.56,57.59z"/>
	<path class="st0" d="M281.01,46.01c-0.15,0.99-0.1,11.11,0.05,11.58c0.52,0,1.05,0,1.59,0c0.1,0,0.2-0.02,0.33-0.04
		c0-3.84,0-7.66,0-11.51c-0.23-0.01-0.42-0.03-0.61-0.03C281.92,46,281.48,46.01,281.01,46.01z"/>
	<path class="st0" d="M147.2,57.56c0.12-0.92,0.08-11.02-0.04-11.51c-0.62,0-1.25,0-1.92,0c0,3.85,0,7.66,0,11.51
		C145.9,57.56,146.53,57.56,147.2,57.56z"/>
	<path class="st0" d="M286.56,18.76c0.01-1.09-0.85-1.96-1.94-1.95c-1.05,0.01-1.91,0.86-1.92,1.91c-0.02,1.08,0.85,1.95,1.95,1.94
		C285.72,20.66,286.55,19.83,286.56,18.76z"/>
	<path class="st0" d="M154.3,18.75c0-1.1-0.86-1.95-1.95-1.93c-1.05,0.02-1.9,0.87-1.9,1.93c0,1.09,0.86,1.94,1.96,1.92
		C153.49,20.65,154.3,19.82,154.3,18.75z"/>
	<path class="st0" d="M51.72,17.51c-0.25-0.31-0.49-0.64-0.76-0.93c-1.44-1.55-3.06-2.92-4.63-4.33c-0.68-0.61-1.47-1.09-2.21-1.64
		c-0.09-0.07-0.15-0.17-0.17-0.35c0.11,0.03,0.22,0.05,0.32,0.1c1.7,0.79,3.18,1.93,4.6,3.13c1.22,1.04,2.37,2.16,3.49,3.31
		c0.65,0.67,1.19,1.46,1.76,2.2c0.34,0.44,0.46,0.93,0.18,1.44c-0.19,0.36-0.5,0.59-0.92,0.61c-0.28,0.01-0.56,0.01-0.83-0.02
		c-2.63-0.35-5.14,0.12-7.59,1.06c-1.49,0.57-2.88,1.33-4.09,2.36c-2.99,2.56-4.99,5.71-5.68,9.63c-0.73,4.16,0.12,8,2.39,11.52
		c1.34,2.08,3,3.89,5.17,5.17c0.11,0.06,0.21,0.15,0.31,0.23c0.03,0.02,0.02,0.08,0.04,0.13c-0.14,0.2-0.32,0.16-0.5,0.06
		c-0.96-0.51-1.98-0.92-2.81-1.65c-0.19-0.17-0.38-0.36-0.56-0.54c-0.04,0.03-0.07,0.06-0.11,0.08c0.03,0.08,0.04,0.2,0.1,0.25
		c0.94,0.84,1.85,1.72,2.98,2.31c2.25,1.18,4.59,2.09,7.16,2.23c1.1,0.06,2.22-0.01,3.32,0.01c0.53,0.01,0.85-0.2,0.95-0.73
		c0.01-0.06,0.06-0.11,0.1-0.18c0.33-0.01,0.44,0.24,0.52,0.47c0.17,0.46,0.17,0.94-0.14,1.35c-0.91,1.19-1.79,2.39-2.88,3.43
		c-1.41,1.35-2.87,2.63-4.45,3.77c-1.18,0.85-2.41,1.62-3.76,2.19c-1.14,0.49-2.26,1.03-3.41,1.47c-1.98,0.76-4.04,1.23-6.15,1.49
		c-1.34,0.17-2.67,0.34-4.02,0.18c-0.4-0.05-0.75-0.15-0.97-0.56c0.44-0.4,0.98-0.42,1.6-0.49c-0.28-0.05-0.47-0.08-0.71-0.12
		c0-11.53,0-23.05,0-34.62c-0.37,0.06-0.47,0.33-0.6,0.52c-0.31,0.42-0.67,0.56-1.2,0.56c-5.11-0.02-10.23-0.01-15.34-0.01
		c-0.11,0-0.21,0.01-0.32,0c-0.32-0.01-0.48,0.12-0.48,0.45c0,0.21,0,0.43,0,0.64c0,8.17,0,16.34,0,24.52
		c0,0.26,0.01,0.52-0.02,0.77c-0.06,0.53-0.33,0.91-0.84,1.11c-0.5,0.2-0.87-0.01-1.22-0.32c-1.85-1.69-3.61-3.47-4.97-5.59
		c-0.86-1.35-1.59-2.78-2.37-4.18c-0.05-0.08-0.05-0.19-0.07-0.3c0.33-0.05,0.39,0.19,0.5,0.36c0.53,0.88,1.03,1.77,1.61,2.62
		c0.49,0.72,1.07,1.38,1.63,2.06c0.58,0.71,1.16,1.42,1.79,2.09c0.54,0.57,1.14,1.09,1.72,1.63c0.22,0.2,0.45,0.38,0.76,0.49
		c-0.25-0.27-0.49-0.56-0.77-0.81c-1.71-1.51-3.12-3.28-4.35-5.19c-2.18-3.38-3.64-7.04-4.35-11.01c-0.56-3.14-0.59-6.29-0.12-9.44
		c0.47-3.2,1.5-6.22,2.94-9.11c1.15-2.32,2.62-4.41,4.36-6.31c2.39-2.61,5.12-4.81,8.29-6.39c2.92-1.45,5.99-2.48,9.24-2.93
		c2.24-0.31,4.48-0.37,6.72-0.19c3.37,0.27,6.59,1.13,9.67,2.55c1.58,0.73,3.11,1.51,4.53,2.52c1.87,1.33,3.6,2.82,5.19,4.47
		c0.14,0.15,0.32,0.26,0.48,0.39c0.08,0.37,0.31,0.61,0.64,0.78c0.1,0.19,0.2,0.38,0.31,0.57c0.04-0.03,0.09-0.07,0.13-0.1
		c-0.15-0.15-0.3-0.3-0.45-0.45C52.14,18.03,51.93,17.77,51.72,17.51z M27.46,18.52c-0.05,0.03-0.09,0.05-0.14,0.08
		c-0.06-0.05-0.14-0.1-0.18-0.17c-0.65-1.16-1.66-1.94-2.76-2.62c-1.72-1.06-3.56-1.56-5.61-1.33c-1.96,0.22-3.65,1.01-5.01,2.36
		c-2.25,2.21-2.76,5.43-1,8.28c0.65,1.05,1.44,1.96,2.5,2.63c0.11,0.07,0.18,0.19,0.27,0.29c-0.03,0.04-0.06,0.08-0.09,0.12
		c-1.44-0.17-2.48-1.03-3.38-2.13c-0.01,0.08-0.01,0.13,0.01,0.16c0.06,0.09,0.12,0.18,0.19,0.26c0.77,0.96,1.68,1.73,2.77,2.33
		c2.08,1.12,4.26,1.45,6.57,1.01c1.23-0.23,2.36-0.71,3.43-1.36c2.45-1.5,3.69-3.72,3.87-6.56c0.08-1.22-0.23-2.36-0.68-3.49
		c-0.6-1.52-1.76-2.51-3.06-3.4C26.2,15.98,27.44,16.87,27.46,18.52z M10.58,21.41c-0.01,0-0.01,0-0.02,0c0,0.12,0,0.23,0,0.35
		c0.01,0,0.01,0,0.02,0C10.58,21.64,10.58,21.52,10.58,21.41z"/>
	<path class="st0" d="M299.99,41.07c0,0.37,0,0.68,0,1.04c-77.88,0-155.73,0-233.64,0c0-0.34,0-0.67,0-1.04
		C144.22,41.07,222.07,41.07,299.99,41.07z"/>
	<path class="st0" d="M232.7,34.19c-1.99,0-3.95,0-5.91,0c-0.1-0.24-0.07-0.41,0.19-0.45c0.8-0.14,1.01-0.69,1.01-1.4
		c0-2.63,0-5.26,0-7.9c0-0.11-0.01-0.21-0.02-0.32c-0.05-0.56-0.26-0.99-0.88-1.1c-0.22-0.04-0.44-0.11-0.3-0.46
		c1.54,0,3.09,0,4.69,0c0.02,0.43,0.04,0.85,0.07,1.37c0.32-0.29,0.57-0.5,0.82-0.72c0.9-0.8,1.94-1.14,3.13-1.04
		c1,0.09,1.79,0.54,2.32,1.4c0.12,0.2,0.23,0.4,0.37,0.66c0.25-0.25,0.48-0.48,0.71-0.69c0.98-0.91,2.09-1.47,3.47-1.38
		c1.33,0.09,2.39,0.9,2.65,2.21c0.16,0.79,0.21,1.61,0.22,2.42c0.03,1.58,0.01,3.17,0.01,4.75c0,0.38,0.02,0.77,0.04,1.15
		c0.03,0.53,0.28,0.89,0.82,1.01c0.27,0.06,0.46,0.13,0.32,0.49c-1.97,0-3.95,0-5.93,0c-0.07-0.23-0.06-0.4,0.2-0.46
		c0.77-0.17,1.01-0.72,1.01-1.43c0-2.33,0-4.66-0.01-7c0-0.15-0.02-0.3-0.05-0.45c-0.19-0.98-0.91-1.34-1.81-0.9
		c-0.57,0.28-1,0.74-1.35,1.25c-0.1,0.14-0.12,0.36-0.12,0.54c-0.01,2.12-0.01,4.24,0,6.35c0,0.21,0.03,0.43,0.06,0.64
		c0.06,0.53,0.35,0.87,0.88,0.97c0.28,0.06,0.44,0.15,0.3,0.48c-1.96,0-3.92,0-5.93,0c-0.07-0.23-0.09-0.4,0.22-0.46
		c0.65-0.13,0.92-0.57,0.94-1.2c0.02-0.49,0.05-0.98,0.05-1.47c-0.01-1.95-0.04-3.89-0.06-5.84c-0.01-0.59-0.16-1.13-0.76-1.36
		c-0.6-0.23-1.13,0-1.59,0.41c-0.17,0.16-0.33,0.34-0.5,0.5c-0.34,0.33-0.47,0.72-0.47,1.21c0.03,1.88,0.01,3.77,0.01,5.65
		c0,0.34,0.02,0.68,0.05,1.03c0.04,0.54,0.28,0.95,0.85,1.06C232.67,33.76,232.81,33.85,232.7,34.19z"/>
	<path class="st0" d="M98.74,32.88c-0.17,0.19-0.34,0.38-0.51,0.57c-1.6,1.76-4.04,1.21-5.2,0.13c-0.69-0.64-1.19-1.41-1.47-2.3
		c-0.68-2.14-0.6-4.26,0.33-6.32c0.5-1.11,1.28-1.98,2.42-2.45c1.51-0.62,2.92-0.52,4.15,0.66c0.09,0.09,0.18,0.17,0.32,0.29
		c0.05-0.11,0.11-0.17,0.11-0.24c-0.01-1.41,0-2.82-0.04-4.23c-0.03-0.86-0.31-1.12-1.16-1.23c-0.11-0.01-0.23,0-0.31-0.05
		c-0.07-0.04-0.15-0.16-0.15-0.24c0-0.08,0.1-0.17,0.17-0.22c0.07-0.04,0.17-0.03,0.25-0.03c1.45,0,2.91,0,4.36,0.01
		c0.1,0,0.2,0.04,0.37,0.07c0,0.26,0,0.51,0,0.76c0,4.43,0,8.85,0.01,13.28c0,0.13,0,0.26,0.01,0.38c0.04,0.98,0.24,1.22,1.18,1.46
		c0.06,0.01,0.12,0.04,0.18,0.06c0.12,0.25,0.02,0.37-0.21,0.42c-0.38,0.08-0.76,0.14-1.13,0.21c-0.96,0.19-1.93,0.39-2.89,0.57
		c-0.18,0.04-0.37,0.04-0.62,0.06c0-0.55,0-1.05,0-1.55C98.86,32.93,98.8,32.9,98.74,32.88z M98.91,28.23c0-0.81,0-1.62,0-2.43
		c0-0.97-0.77-2.03-1.69-2.33c-0.79-0.25-1.39-0.04-1.77,0.71c-0.21,0.41-0.39,0.87-0.46,1.32c-0.27,1.74-0.26,3.49,0.01,5.23
		c0.1,0.66,0.34,1.28,0.75,1.82c0.33,0.43,0.77,0.6,1.3,0.51c0.88-0.15,1.85-1.31,1.86-2.2C98.91,29.98,98.91,29.11,98.91,28.23z"/>
	<path class="st0" d="M211.23,30.4c0,0.49,0.04,0.85-0.02,1.2c-0.03,0.19-0.19,0.37-0.34,0.52c-1.46,1.47-3.22,2.3-5.29,2.45
		c-1.97,0.14-3.89-0.11-5.68-1.01c-2.54-1.29-3.92-3.42-4.4-6.18c-0.73-4.15,1.93-9.44,7.68-10.44c1.7-0.3,3.37-0.06,4.98,0.54
		c0.44,0.16,0.88,0.33,1.33,0.47c0.76,0.23,1.16,0.03,1.45-0.72c0.09-0.23,0.12-0.54,0.54-0.33c0,1.9,0,3.82,0,5.72
		c-0.27,0.13-0.43,0.07-0.52-0.19c-0.1-0.33-0.2-0.66-0.33-0.97c-0.8-1.85-2.14-3.08-4.17-3.43c-2.4-0.41-4.7,0.85-5.71,3.08
		c-0.61,1.35-0.85,2.78-0.86,4.25c-0.01,1.46,0.15,2.9,0.59,4.3c0.05,0.14,0.09,0.28,0.14,0.43c0.92,2.48,2.82,3.58,5.56,3.32
		c1.37-0.13,2.55-0.7,3.57-1.6C210.22,31.39,210.66,30.95,211.23,30.4z"/>
	<path class="st0" d="M89.34,34.19c-1.96,0-3.9,0-5.83,0c-0.08-0.24-0.05-0.4,0.2-0.47c0.67-0.19,0.88-0.69,0.88-1.33
		c0-2.39,0-4.79-0.01-7.18c0-0.19-0.03-0.39-0.09-0.57c-0.2-0.67-0.73-0.95-1.39-0.75c-0.89,0.27-1.6,1.22-1.6,2.15
		c0,1.9,0,3.81,0,5.71c0,0.34,0.05,0.68,0.08,1.02c0.04,0.48,0.29,0.78,0.75,0.94c0.26,0.09,0.26,0.11,0.3,0.47
		c-1.94,0-3.87,0-5.82,0c-0.09-0.24-0.06-0.41,0.23-0.46c0.66-0.12,0.92-0.56,0.94-1.19c0.01-0.34,0.04-0.68,0.04-1.02
		c0-2.1,0.01-4.19,0-6.29c0-0.43-0.06-0.85-0.08-1.28c-0.03-0.49-0.29-0.78-0.76-0.9c-0.22-0.06-0.5-0.08-0.37-0.48
		c1.53,0,3.08,0,4.67,0c0.02,0.44,0.04,0.85,0.07,1.39c0.25-0.23,0.42-0.39,0.58-0.54c0.8-0.72,1.68-1.21,2.8-1.26
		c1.79-0.07,2.96,1.23,3.1,2.77c0.07,0.77,0.1,1.54,0.11,2.31c0.02,1.52,0,3.04,0.01,4.55c0,0.3,0.01,0.6,0.03,0.9
		c0.04,0.55,0.29,0.93,0.86,1.03C89.27,33.75,89.44,33.83,89.34,34.19z"/>
	<path class="st0" d="M105.26,22.55c1.58,0,3.11,0,4.73,0c0,0.26,0,0.49,0,0.72c0,2.4,0,4.79,0,7.19c0,0.49,0.01,0.99,0.1,1.47
		c0.14,0.83,0.81,1.17,1.58,0.83c0.63-0.28,1.02-0.83,1.38-1.39c0.08-0.13,0.05-0.33,0.05-0.5c0-2.03,0-4.06,0-6.09
		c0-0.26-0.01-0.51-0.04-0.77c-0.05-0.49-0.28-0.83-0.79-0.96c-0.34-0.09-0.33-0.11-0.39-0.48c1.56,0,3.11,0,4.74,0
		c0,0.25,0,0.48,0,0.7c0,2.76,0,5.52,0,8.28c0,0.36,0.01,0.73,0.03,1.09c0.03,0.57,0.28,0.99,0.88,1.09
		c0.27,0.04,0.39,0.15,0.29,0.47c-1.54,0-3.09,0-4.7,0c-0.02-0.44-0.04-0.87-0.07-1.41c-0.31,0.29-0.53,0.51-0.76,0.71
		c-0.95,0.84-2.03,1.25-3.3,1.02c-1.19-0.21-2.16-1.16-2.33-2.35c-0.12-0.82-0.15-1.66-0.17-2.49c-0.02-1.54,0-3.08-0.01-4.62
		c0-0.34-0.05-0.68-0.07-1.02c-0.03-0.54-0.29-0.87-0.82-1C105.33,22.96,105.34,22.93,105.26,22.55z"/>
	<path class="st0" d="M168.17,32.61c-0.67,1.31-1.92,1.96-3.33,1.72c-0.76-0.13-1.29-0.54-1.54-1.28c-0.05-0.14-0.09-0.28-0.16-0.48
		c-0.16,0.11-0.29,0.21-0.42,0.29c-0.61,0.39-1.2,0.83-1.85,1.14c-0.45,0.21-0.98,0.33-1.48,0.35c-1.61,0.06-2.67-1.25-2.35-2.83
		c0.16-0.76,0.55-1.4,1.15-1.88c0.53-0.43,1.1-0.82,1.69-1.16c0.91-0.51,1.85-0.98,2.8-1.43c0.35-0.17,0.54-0.35,0.51-0.77
		c-0.04-0.57,0-1.16-0.04-1.73c-0.05-0.82-0.48-1.29-1.28-1.44c-0.52-0.1-1.02,0.01-1.49,0.26c-0.52,0.29-0.58,0.63-0.24,1.1
		c0.11,0.16,0.25,0.3,0.35,0.46c0.49,0.78,0.19,1.73-0.66,2.07c-0.64,0.25-1.26,0.19-1.84-0.17c-0.66-0.41-0.89-1.11-0.65-1.91
		c0.25-0.82,0.8-1.4,1.52-1.84c0.93-0.57,1.97-0.85,3.04-0.91c0.66-0.04,1.32,0.01,1.98,0.1c0.89,0.12,1.58,0.62,2.16,1.29
		c0.39,0.46,0.59,0.99,0.59,1.59c0.02,1.97,0.03,3.93,0.05,5.9c0,0.34,0.01,0.68,0.04,1.02c0.07,0.7,0.39,0.85,0.97,0.47
		C167.89,32.41,167.89,32.41,168.17,32.61z M163.17,27.64c-1.07,0.66-1.94,1.29-2.47,2.27c-0.15,0.27-0.23,0.6-0.26,0.91
		c-0.06,0.67,0.31,1.21,0.88,1.4c0.51,0.17,1.52-0.17,1.78-0.61c0.05-0.08,0.07-0.2,0.07-0.3
		C163.17,30.14,163.17,28.97,163.17,27.64z"/>
	<path class="st0" d="M213.87,28.24c0.01-1.16,0.3-2.39,0.98-3.52c1.45-2.41,4.22-3.26,6.79-2.07c1.33,0.62,2.23,1.63,2.74,2.99
		c0.63,1.7,0.69,3.44,0.12,5.15c-1.25,3.78-4.71,4.33-7.26,3.4c-0.8-0.29-1.44-0.82-1.96-1.5
		C214.31,31.42,213.86,29.98,213.87,28.24z M221.05,25.08c-0.04-0.47-0.21-0.97-0.46-1.38c-0.6-0.98-1.98-0.9-2.51,0.12
		c-0.12,0.22-0.22,0.47-0.25,0.72c-0.1,0.85-0.22,1.7-0.25,2.55c-0.05,1.56-0.12,3.12,0.11,4.68c0.07,0.49,0.2,0.97,0.52,1.36
		c0.68,0.82,1.82,0.77,2.39-0.13c0.17-0.26,0.3-0.58,0.33-0.89"/>
	<path class="st0" d="M75.18,34.2c-2.92,0-5.83,0-8.76,0c-0.07-0.26-0.05-0.42,0.26-0.44c0.26-0.01,0.51-0.01,0.77-0.04
		c0.77-0.1,1.15-0.47,1.26-1.22c0.05-0.34,0.07-0.68,0.07-1.02c0-3.85,0-7.7,0-11.55c0-0.32-0.03-0.64-0.05-0.96
		c-0.04-0.67-0.44-1.05-1.06-1.2c-0.41-0.09-0.83-0.11-1.37-0.18c0.13-0.16,0.19-0.3,0.28-0.34c0.13-0.05,0.29-0.03,0.44-0.03
		c2.52,0,5.05,0,7.57,0c0.15,0,0.31-0.02,0.44,0.03c0.09,0.04,0.14,0.18,0.3,0.41c-0.39,0-0.62-0.01-0.85,0
		c-1.09,0.06-1.6,0.55-1.62,1.65c-0.03,1.54-0.02,3.08-0.02,4.62c0,2.44,0,4.88,0,7.31c0,0.36,0,0.73,0.03,1.09
		c0.05,0.78,0.48,1.25,1.26,1.37c0.25,0.04,0.51,0.04,0.77,0.05C75.16,33.77,75.27,33.88,75.18,34.2z"/>
	<path class="st0" d="M300,28.39c0,1.09-0.17,2.11-0.62,3.08c-1.03,2.2-2.96,3.29-5.46,3.07c-1.89-0.16-3.26-1.12-4.08-2.79
		c-1.23-2.49-1.12-4.95,0.35-7.32c2.05-3.33,7.18-2.87,8.94,0.36C299.74,25.92,300.02,27.13,300,28.39z M296.36,28.15
		c-0.03,0-0.06,0-0.08,0c0-0.83,0.02-1.67-0.01-2.5c-0.02-0.66-0.13-1.32-0.49-1.9c-0.31-0.5-0.74-0.75-1.34-0.71
		c-0.59,0.04-1.01,0.34-1.25,0.86c-0.12,0.27-0.22,0.56-0.26,0.85c-0.09,0.59-0.15,1.19-0.18,1.78c-0.09,1.69-0.15,3.38,0.08,5.06
		c0.06,0.48,0.2,0.98,0.44,1.39c0.63,1.04,1.98,0.98,2.54-0.09c0.19-0.37,0.31-0.8,0.34-1.22C296.25,30.5,296.3,29.33,296.36,28.15z
		"/>
	<path class="st0" d="M183.14,30.12c0.66-1.82,1.29-3.55,1.9-5.27c0.06-0.16,0.08-0.33,0.1-0.5c0.11-0.8-0.12-1.14-0.9-1.35
		c-0.21-0.05-0.52-0.01-0.38-0.44c1.24,0,2.49,0,3.74,0c0.14,0.24,0.06,0.39-0.16,0.45c-0.58,0.16-0.88,0.59-1.08,1.1
		c-0.56,1.36-1.11,2.73-1.65,4.1c-1.04,2.65-2.05,5.3-3.09,7.94c-0.3,0.75-0.65,1.49-1.05,2.19c-0.61,1.07-1.57,1.52-2.8,1.4
		c-1.24-0.13-2.07-1.16-1.89-2.35c0.1-0.69,0.63-1.22,1.3-1.32c0.71-0.11,1.33,0.29,1.5,0.99c0.07,0.29,0.08,0.59,0.12,0.89
		c0.07,0.52,0.38,0.66,0.79,0.34c0.2-0.15,0.4-0.35,0.5-0.57c0.42-0.93,0.82-1.87,1.19-2.83c0.07-0.18-0.04-0.45-0.12-0.66
		c-1.13-2.63-2.28-5.25-3.43-7.88c-0.32-0.72-0.66-1.44-1-2.15c-0.24-0.49-0.58-0.9-1.09-1.13c-0.24-0.11-0.34-0.24-0.21-0.52
		c2.01,0,4.03,0,6.17,0c-0.1,0.18-0.14,0.31-0.22,0.39c-0.07,0.06-0.2,0.06-0.3,0.09c-0.52,0.18-0.68,0.44-0.57,0.97
		c0.05,0.27,0.14,0.54,0.25,0.79c0.73,1.69,1.46,3.37,2.19,5.06C182.94,29.9,183,29.95,183.14,30.12z"/>
	<path class="st0" d="M209.2,46.09c0,3.79,0,7.59,0,11.49c-0.62,0-1.26,0.03-1.88-0.02c-0.15-0.01-0.31-0.26-0.4-0.44
		c-1.1-1.98-2.18-3.97-3.27-5.96c-0.15-0.28-0.3-0.55-0.46-0.82c-0.05,0.01-0.09,0.01-0.14,0.02c-0.01,0.22-0.03,0.43-0.03,0.65
		c0,1.95,0,3.89,0,5.84c0,0.23,0,0.46,0,0.7c-0.68,0-1.27,0-1.9,0c0-3.85,0-7.67,0-11.52c0.68,0,1.31,0,2.01,0
		c1.34,2.47,2.7,4.95,4.05,7.44c0.04-0.01,0.08-0.02,0.13-0.03c0-2.44,0-4.88,0-7.3C207.83,45.97,208.5,45.96,209.2,46.09z"/>
	<path class="st0" d="M163.17,57.57c-0.71,0-1.35,0-2.05,0c-1.33-2.41-2.67-4.85-4.01-7.29c-0.05,0.01-0.1,0.03-0.15,0.04
		c0,2.4,0,4.8,0,7.23c-0.66,0-1.24,0-1.87,0c0-3.85,0-7.66,0-11.55c0.61,0,1.18,0,1.75,0c0.31,0,0.36,0.27,0.47,0.46
		c0.82,1.5,1.63,3,2.45,4.51c0.36,0.66,0.71,1.32,1.07,1.97c0.09,0.16,0.19,0.31,0.35,0.45c0.13-2.45,0.04-4.89,0.11-7.36
		c0.65,0,1.24,0,1.87,0C163.17,49.88,163.17,53.7,163.17,57.57z"/>
	<path class="st0" d="M134.91,52.53c1.14,0.77,1.71,1.91,2.32,3.01c0.36,0.65,0.72,1.3,1.14,2.06c-0.83,0-1.54,0-2.26,0
		c-0.28,0-0.34-0.22-0.45-0.39c-0.55-0.92-1.09-1.83-1.64-2.75c-0.17-0.27-0.34-0.55-0.52-0.81c-0.57-0.82-1.19-1.04-2.28-0.8
		c0,1.54,0,3.09,0,4.73c-0.7,0.04-1.35,0.03-2.04,0.01c0-3.85,0-7.66,0-11.51c0.13-0.02,0.25-0.05,0.38-0.05
		c1.52,0,3.03,0.01,4.55,0.01c0.15,0,0.3,0.01,0.45,0.02c1.99,0.11,3.16,1.46,2.99,3.45c-0.12,1.47-0.8,2.5-2.29,2.89
		C135.17,52.41,135.08,52.46,134.91,52.53z M131.22,50.91c1.11-0.02,2.15,0.08,3.18-0.1c0.36-0.06,0.63-0.26,0.81-0.57
		c0.62-1.07-0.02-2.24-1.25-2.28c-0.79-0.02-1.58-0.01-2.37,0c-0.12,0-0.24,0.04-0.37,0.07C131.22,48.98,131.22,49.89,131.22,50.91z
		"/>
	<path class="st0" d="M257.57,30.8c0.26,0.08,0.42,0.2,0.28,0.47c-0.72,1.37-1.59,2.61-3.18,3.08c-2.12,0.62-4.85,0.11-5.99-2.89
		c-0.72-1.91-0.71-3.86-0.02-5.77c0.46-1.27,1.31-2.25,2.48-2.92c2.24-1.29,4.88-0.51,6.07,1.79c0.53,1.03,0.7,2.14,0.76,3.38
		c-1.08,0-2.14,0-3.2,0c-1.04,0-2.09,0-3.14,0c-0.14,0.55,0.01,1.02,0.11,1.49c0.21,0.93,0.6,1.78,1.29,2.47
		c1.08,1.07,2.59,1.07,3.65-0.02C257,31.55,257.26,31.18,257.57,30.8z M254.91,27.07c0.01-0.99-0.01-1.9-0.24-2.8
		c-0.07-0.28-0.22-0.56-0.39-0.8c-0.52-0.72-1.42-0.74-1.94-0.02c-0.77,1.07-0.9,2.3-0.82,3.61
		C252.65,27.07,253.73,27.07,254.91,27.07z"/>
	<path class="st0" d="M256.83,57.59c-0.61,0-1.18,0.02-1.75-0.01c-0.14-0.01-0.3-0.13-0.39-0.24c-0.13-0.16-0.22-0.37-0.32-0.55
		c-1.07-1.95-2.14-3.9-3.2-5.85c-0.11-0.2-0.23-0.39-0.42-0.72c-0.12,0.92-0.05,1.7-0.07,2.47c-0.01,0.81,0,1.62,0,2.44
		c0,0.79,0,1.58,0,2.4c-0.65,0.11-1.25,0.08-1.89,0.03c0-3.83,0-7.63,0-11.51c0.6-0.07,1.22-0.06,1.82,0
		c0.15,0.01,0.31,0.26,0.4,0.44c1.13,2.06,2.25,4.13,3.37,6.19c0.15,0.27,0.3,0.54,0.45,0.82c0.05-0.01,0.1-0.02,0.14-0.03
		c0-1.23,0-2.45,0-3.68c0-1.22,0-2.43,0-3.67c0.62-0.17,1.21-0.05,1.79-0.09C256.9,46.51,256.96,56.1,256.83,57.59z"/>
	<path class="st0" d="M217.27,46.01c0.28,0,0.53,0,0.79,0c1.26,0.01,2.52,0.01,3.78,0.03c1.41,0.03,2.43,0.71,3.13,1.91
		c0.41,0.71,0.66,1.49,0.75,2.3c0.17,1.54,0.2,3.08-0.35,4.56c-0.4,1.08-1.01,1.99-2.14,2.42c-0.41,0.16-0.86,0.31-1.3,0.32
		c-1.54,0.04-3.08,0.01-4.61,0.01C217.18,57.11,217.14,47.13,217.27,46.01z M219.29,55.64c0.8,0,1.52,0.04,2.24-0.01
		c1.1-0.08,1.7-0.56,1.91-1.66c0.17-0.87,0.21-1.78,0.21-2.67c0-0.63-0.13-1.28-0.31-1.88c-0.2-0.7-0.69-1.18-1.42-1.35
		c-0.86-0.2-1.73-0.11-2.64-0.1C219.29,50.54,219.29,53.06,219.29,55.64z"/>
	<path class="st0" d="M280,31.24c0.12,0.1,0.22,0.17,0.32,0.25c-0.03,0.08-0.04,0.15-0.07,0.2c-0.88,1.56-2.15,2.6-3.96,2.82
		c-1.76,0.22-3.25-0.33-4.37-1.74c-1.02-1.28-1.42-2.77-1.39-4.37c0.03-1.53,0.46-2.94,1.37-4.2c1.56-2.16,4.1-2.39,5.96-1.77
		c0.71,0.24,1.27,0.69,1.71,1.3c0.29,0.41,0.44,0.87,0.43,1.38c-0.01,0.77-0.4,1.31-1.07,1.49c-0.78,0.21-1.6-0.1-1.92-0.78
		c-0.18-0.38-0.24-0.81-0.34-1.22c-0.07-0.29-0.08-0.6-0.17-0.88c-0.27-0.76-1.08-0.97-1.63-0.39c-0.3,0.31-0.52,0.74-0.66,1.15
		c-0.38,1.09-0.33,2.24-0.21,3.37c0.09,0.9,0.31,1.77,0.73,2.58c0.24,0.47,0.53,0.94,0.88,1.32c0.92,1,2.33,1.11,3.43,0.31
		C279.34,31.83,279.63,31.55,280,31.24z"/>
	<path class="st0" d="M119.89,30.46c0.29-0.16,0.43-0.1,0.52,0.13c0.11,0.26,0.22,0.51,0.34,0.76c0.4,0.8,0.96,1.48,1.75,1.9
		c0.35,0.18,0.75,0.31,1.14,0.37c0.55,0.08,1.01-0.15,1.3-0.64c0.3-0.52,0.21-1.04-0.12-1.51c-0.17-0.24-0.4-0.45-0.63-0.63
		c-0.61-0.47-1.25-0.9-1.86-1.36c-0.51-0.39-1.03-0.77-1.48-1.22c-1.44-1.42-1.5-3.62-0.1-5.07c1.1-1.15,2.47-1.22,3.92-0.8
		c0.22,0.06,0.43,0.19,0.65,0.28c0.53,0.23,0.68,0.21,1.07-0.21c0.15-0.16,0.27-0.34,0.62-0.2c0.06,1.25,0.12,2.54,0.19,3.81
		c-0.33,0.2-0.44,0.01-0.57-0.22c-0.3-0.54-0.59-1.09-0.95-1.59c-0.42-0.59-1.02-0.99-1.74-1.11c-0.28-0.05-0.61-0.04-0.87,0.06
		c-0.8,0.3-0.99,1.13-0.44,1.76c0.17,0.19,0.36,0.37,0.57,0.52c0.58,0.43,1.18,0.84,1.76,1.28c0.59,0.45,1.21,0.89,1.74,1.41
		c1.24,1.19,1.45,2.83,0.65,4.41c-0.73,1.44-2.27,2.22-3.91,1.93c-0.56-0.1-1.12-0.26-1.66-0.45c-0.48-0.17-0.86-0.2-1.17,0.29
		c-0.06,0.1-0.23,0.13-0.44,0.23C119.97,33.13,120.06,31.77,119.89,30.46z"/>
	<path class="st0" d="M115.9,52.46c0,1.1,0,2.11,0,3.19c1.88,0,3.73,0,5.63,0c0,0.67,0,1.27,0,1.91c-2.58,0-5.13,0-7.72,0
		c0-3.84,0-7.66,0-11.51c2.53,0,5.02,0,7.55,0c0,0.63,0,1.21,0,1.9c-0.9,0-1.81,0.01-2.72,0.01c-0.89,0-1.79,0-2.73,0
		c0,0.86,0,1.68,0,2.58c1.68,0,3.36,0,5.07,0c0,0.67,0,1.25,0,1.93C119.29,52.46,117.62,52.46,115.9,52.46z"/>
	<path class="st0" d="M66.47,53.84c0.64-0.08,1.25-0.15,1.89-0.22c0.09,0.28,0.17,0.54,0.26,0.8c0.49,1.35,2.14,1.89,3.35,1.1
		c0.5-0.33,0.76-0.8,0.71-1.41c-0.04-0.58-0.42-0.87-0.91-1.05c-0.5-0.18-1.02-0.31-1.53-0.49c-0.58-0.2-1.19-0.38-1.74-0.65
		c-1.23-0.61-1.9-1.92-1.72-3.24c0.21-1.48,1.12-2.46,2.56-2.76c0.98-0.2,1.96-0.17,2.91,0.14c1.36,0.45,2.21,1.72,2.13,3.25
		c-0.64,0.03-1.28,0.06-1.95,0.09c-0.06-0.19-0.12-0.32-0.15-0.46c-0.2-0.73-0.69-1.1-1.42-1.19c-0.52-0.06-1.03,0-1.5,0.23
		c-0.34,0.17-0.59,0.43-0.61,0.84c-0.02,0.43,0.18,0.76,0.55,0.94c0.44,0.21,0.91,0.37,1.37,0.53c0.65,0.22,1.31,0.39,1.95,0.64
		c1.53,0.59,2.22,1.83,2.13,3.51c-0.1,1.71-1.05,2.83-2.64,3.22c-0.93,0.23-1.87,0.24-2.8,0.02C67.62,57.27,66.52,55.83,66.47,53.84
		z"/>
	<path class="st0" d="M136.67,31.8c0.29,0.05,0.35,0.21,0.23,0.46c-0.5,1.03-1.23,1.82-2.39,2.04c-1.05,0.2-2.05,0.06-2.87-0.72
		c-0.52-0.49-0.84-1.07-0.84-1.8c-0.01-1.73-0.03-3.46-0.04-5.19c0-0.73,0-1.45,0-2.18c0-0.21-0.02-0.42-0.04-0.67
		c-0.49,0-0.93,0-1.36,0c-0.18-0.27-0.13-0.44,0.07-0.59c0.09-0.06,0.17-0.13,0.26-0.19c1.6-1.19,2.92-2.62,3.93-4.35
		c0.12-0.21,0.21-0.5,0.63-0.34c0,1.37,0,2.77,0,4.23c0.94,0,1.81,0,2.73,0c0,0.42,0,0.77,0,1.2c-0.88,0-1.77,0-2.68,0
		c-0.02,0.27-0.04,0.46-0.04,0.64c0,2.33,0,4.66,0,6.99c0,0.21,0.01,0.43,0.03,0.64c0.05,0.41,0.21,0.75,0.61,0.91
		c0.42,0.17,0.76-0.03,1.05-0.29C136.2,32.36,136.43,32.07,136.67,31.8z"/>
	<path class="st0" d="M264.33,22.52c0,0.86,0,1.62,0,2.37c0.04,0.01,0.07,0.02,0.11,0.03c0.12-0.16,0.24-0.33,0.37-0.48
		c0.41-0.49,0.79-1.01,1.26-1.45c0.59-0.55,1.3-0.89,2.15-0.84c0.73,0.04,1.25,0.5,1.34,1.22c0.04,0.27,0.04,0.56,0.01,0.83
		c-0.14,1.18-1.28,1.72-2.29,1.07c-0.21-0.14-0.4-0.32-0.6-0.48c-0.39-0.3-0.7-0.3-1.1,0c-0.41,0.3-0.7,0.72-0.81,1.2
		c-0.18,0.76-0.38,1.54-0.42,2.32c-0.07,1.34-0.03,2.69-0.01,4.04c0.01,0.93,0.25,1.19,1.18,1.36c0.26,0.05,0.4,0.12,0.3,0.45
		c-2.05,0-4.11,0-6.21,0c-0.06-0.22-0.08-0.41,0.23-0.45c0.64-0.09,0.91-0.49,0.95-1.1c0.02-0.34,0.06-0.68,0.06-1.02
		c0.01-2.27,0-4.53,0-6.8c0-0.19,0-0.39-0.01-0.58c-0.04-0.63-0.25-1.13-0.97-1.24c-0.21-0.03-0.37-0.12-0.25-0.46
		C261.13,22.48,262.68,22.52,264.33,22.52z"/>
	<path class="st0" d="M138.29,34.18c-0.07-0.28-0.01-0.42,0.24-0.45c0.64-0.09,0.9-0.51,0.95-1.1c0.03-0.36,0.05-0.72,0.05-1.09
		c0-2.22,0-4.45,0-6.67c0-0.26,0-0.51-0.03-0.77c-0.05-0.56-0.28-0.98-0.89-1.09c-0.21-0.04-0.45-0.08-0.32-0.45
		c1.53,0,3.07,0,4.67,0c0,0.78,0,1.54,0,2.45c0.2-0.18,0.3-0.26,0.38-0.35c0.42-0.51,0.8-1.06,1.26-1.53c0.6-0.61,1.33-1,2.23-0.97
		c0.79,0.03,1.33,0.51,1.41,1.29c0.03,0.25,0.03,0.51,0,0.77c-0.14,1.19-1.28,1.72-2.29,1.07c-0.2-0.13-0.37-0.29-0.55-0.44
		c-0.44-0.34-0.8-0.38-1.19,0.02c-0.31,0.31-0.57,0.7-0.74,1.09c-0.34,0.77-0.44,1.61-0.46,2.44c-0.03,1.32-0.02,2.65,0,3.97
		c0.02,0.94,0.24,1.17,1.18,1.36c0.27,0.05,0.27,0.05,0.31,0.45C142.44,34.18,140.38,34.18,138.29,34.18z"/>
	<path class="st0" d="M185.79,46.04c2.51,0,4.98,0,7.49,0c0,0.64,0,1.24,0,1.9c-1.82,0-3.61,0-5.45,0c0,0.87,0,1.69,0,2.59
		c1.68,0,3.36,0,5.07,0c0,0.67,0,1.26,0,1.93c-1.69,0-3.36,0-5.08,0c0,1.1,0,2.11,0,3.2c1.9,0,3.77,0,5.68,0c0,0.66,0,1.25,0,1.89
		c-2.56,0-5.11,0-7.67,0C185.71,57.1,185.66,47.18,185.79,46.04z"/>
	<path class="st0" d="M233.41,46.05c2.53,0,5.01,0,7.52,0c0,0.63,0,1.22,0,1.89c-1.8,0-3.6,0-5.46,0c0,0.89,0,1.71,0,2.59
		c1.68,0,3.34,0,5.07,0c0.07,0.66,0.06,1.26,0,1.93c-1.68,0-3.34,0-5.09,0c-0.06,1.07-0.02,2.09-0.03,3.19
		c1.9,0.05,3.78,0,5.73,0.03c0.04,0.63,0.04,1.23-0.01,1.88c-2.59,0-5.14,0-7.74,0C233.41,53.72,233.41,49.91,233.41,46.05z"/>
	<path class="st0" d="M296.88,55.01c-1.41,0-2.75,0-4.13,0c-0.29,0.86-0.57,1.71-0.85,2.56c-0.71,0-1.39,0-2.18,0
		c1.33-3.86,2.65-7.69,3.99-11.56c0.66,0,1.3,0,1.94,0c0.28,0,0.34,0.21,0.41,0.41c0.35,0.99,0.7,1.97,1.05,2.96
		c0.89,2.52,1.79,5.03,2.68,7.55c0.07,0.2,0.13,0.4,0.2,0.63c-0.76,0-1.46,0-2.21,0C297.48,56.73,297.19,55.89,296.88,55.01z
		 M294.86,48.91c-0.05,0-0.1,0.01-0.15,0.01c-0.43,1.33-0.86,2.66-1.31,4.08c0.97,0.03,1.84,0.02,2.81,0.01
		C295.73,51.57,295.29,50.24,294.86,48.91z"/>
	<path class="st0" d="M82.29,46.04c0.69,0,1.33,0,2.03,0c0,0.27,0,0.49,0,0.72c0,1.95-0.01,3.89,0,5.84c0,0.55,0.02,1.11,0.11,1.66
		c0.11,0.71,0.52,1.22,1.23,1.42c0.75,0.21,1.49,0.21,2.12-0.32c0.32-0.27,0.5-0.64,0.53-1.06c0.04-0.68,0.09-1.37,0.1-2.05
		c0.01-1.82,0-3.63,0-5.45c0-0.23,0-0.46,0-0.73c0.68-0.13,1.31-0.05,1.99-0.06c0.02,0.19,0.06,0.35,0.06,0.52
		c0,2.16,0.01,4.32-0.01,6.48c0,0.6-0.05,1.2-0.12,1.79c-0.19,1.64-1.27,2.75-2.91,2.92c-0.74,0.08-1.5,0.07-2.23-0.03
		c-1.5-0.19-2.6-1.37-2.77-2.93c-0.09-0.83-0.13-1.66-0.14-2.49c-0.02-1.9-0.01-3.81-0.01-5.71C82.27,46.41,82.28,46.26,82.29,46.04
		z"/>
	<path class="st0" d="M100.5,53.22c0,1.48,0,2.88,0,4.33c-0.69,0-1.32,0-1.96,0c-0.14-0.44-0.2-9.92-0.07-11.47
		c0.13-0.02,0.27-0.07,0.41-0.07c1.47,0.01,2.95,0,4.42,0.04c1.54,0.04,2.51,0.85,2.87,2.35c0.19,0.8,0.2,1.62-0.02,2.41
		c-0.37,1.31-1.2,2.16-2.6,2.3c-0.78,0.08-1.58,0.07-2.37,0.1C100.98,53.23,100.79,53.22,100.5,53.22z M100.53,51.22
		c0.16,0.02,0.28,0.05,0.41,0.05c0.62-0.02,1.24-0.02,1.85-0.08c0.86-0.09,1.37-0.69,1.38-1.56c0.02-0.86-0.47-1.51-1.32-1.61
		c-0.63-0.08-1.28-0.05-1.92-0.05c-0.14,0-0.28,0.04-0.4,0.07C100.53,49.11,100.53,50.15,100.53,51.22z"/>
	<path class="st0" d="M273.4,49.18c-0.66,0.18-1.29,0.36-1.96,0.54c-0.07-0.17-0.14-0.32-0.2-0.47c-0.34-0.81-0.89-1.35-1.8-1.44
		c-0.99-0.1-1.78,0.29-2.25,1.16c-0.25,0.48-0.39,1.04-0.48,1.58c-0.18,1.11-0.13,2.22,0.16,3.31c0.14,0.53,0.38,1,0.79,1.37
		c1.04,0.95,2.59,0.72,3.29-0.51c0.23-0.4,0.36-0.86,0.57-1.35c0.61,0.22,1.25,0.45,1.87,0.67c-0.27,2.39-2.27,3.99-4.63,3.74
		c-1.98-0.21-3.48-1.57-4.01-3.7c-0.4-1.61-0.38-3.23,0.1-4.82c0.47-1.56,1.39-2.73,3-3.25c0.9-0.29,1.82-0.32,2.72-0.05
		C272.16,46.42,273.02,47.55,273.4,49.18z"/>
	<path class="st0" d="M149.3,34.17c-0.09-0.26-0.01-0.37,0.23-0.44c0.9-0.27,1.04-0.42,1.06-1.34c0.03-1.32,0.03-2.65,0.03-3.97
		c0-1.35,0.01-2.69-0.03-4.04c-0.03-0.98-0.13-1.08-1.07-1.41c-0.16-0.06-0.16-0.06-0.24-0.35c0.44-0.14,3.96-0.18,4.84-0.04
		c0,0.21,0,0.44,0,0.67c0,2.8,0,5.6,0,8.39c0,0.36,0.02,0.73,0.05,1.09c0.06,0.55,0.36,0.9,0.93,0.98c0.25,0.04,0.49,0.06,0.39,0.46
		C153.45,34.17,151.39,34.17,149.3,34.17z"/>
	<path class="st0" d="M281.55,34.19c-0.08-0.24-0.06-0.41,0.21-0.45c0.78-0.1,1.09-0.58,1.09-1.33c0-0.56,0.03-1.11,0.03-1.66
		c0-1.86,0-3.72,0-5.58c0-0.34-0.04-0.68-0.05-1.02c-0.03-0.63-0.31-1.05-0.97-1.15c-0.22-0.03-0.44-0.09-0.3-0.45
		c1.56,0,3.13,0,4.78,0c0.01,0.23,0.03,0.45,0.03,0.68c0,2.8,0,5.6,0,8.4c0,0.3,0,0.6,0.03,0.9c0.08,0.81,0.25,1.01,1.06,1.21
		c0.27,0.07,0.37,0.18,0.26,0.46C285.68,34.19,283.61,34.19,281.55,34.19z"/>
	<path class="st0" d="M175.56,57.59c-0.53,0-0.95,0-1.38,0c-0.19,0-0.38,0-0.66,0c-0.04-1.63-0.01-3.23-0.02-4.82
		c0-1.58,0-3.15,0-4.8c-1.03,0-2,0-3.02,0c0-0.68,0-1.28,0-1.92c2.69,0,5.35,0,8.06,0c0,0.63,0,1.23,0,1.9c-0.98,0-1.93,0-2.98,0
		C175.55,51.17,175.57,54.34,175.56,57.59z"/>
	<path class="st0" d="M281.01,46.01c0.47,0,0.92,0,1.36,0c0.19,0,0.38,0.02,0.61,0.03c0,3.85,0,7.67,0,11.51
		c-0.13,0.02-0.23,0.04-0.33,0.04c-0.53,0-1.07,0-1.59,0C280.9,57.11,280.86,47,281.01,46.01z"/>
	<path class="st0" d="M147.2,57.56c-0.67,0-1.3,0-1.96,0c0-3.85,0-7.66,0-11.51c0.67,0,1.29,0,1.92,0
		C147.29,46.54,147.33,56.63,147.2,57.56z"/>
	<path class="st0" d="M286.56,18.76c-0.01,1.07-0.84,1.9-1.91,1.9c-1.09,0.01-1.96-0.86-1.95-1.94c0.02-1.06,0.87-1.91,1.92-1.91
		C285.71,16.81,286.57,17.67,286.56,18.76z"/>
	<path class="st0" d="M154.3,18.75c0,1.07-0.82,1.91-1.89,1.92c-1.1,0.02-1.96-0.83-1.96-1.92c0-1.06,0.85-1.92,1.9-1.93
		C153.44,16.79,154.3,17.65,154.3,18.75z"/>
</g>
</svg>
