<?xml version="1.0" encoding="utf-8"?>
<!-- Generator: Adobe Illustrator 24.1.1, SVG Export Plug-In . SVG Version: 6.00 Build 0)  -->
<svg version="1.1" id="Capa_1" xmlns="http://www.w3.org/2000/svg" xmlns:xlink="http://www.w3.org/1999/xlink" x="0px" y="0px"
	 viewBox="0 0 16 16" style="enable-background:new 0 0 16 16;" xml:space="preserve">
<style type="text/css">
	.st0{fill:#F80F49;}
	.st1{fill:#FFFFFF;}
	.st2{fill:#4ED7E5;}
</style>
<circle class="st0" cx="7.78" cy="7.85" r="7.22"/>
<path class="st1" d="M9.56,11.52c-0.04,0-0.07,0-0.11,0c-0.57-0.04-1.07-0.24-1.45-0.42c0,0-0.01,0-0.01-0.01
	c-0.94-0.46-1.76-1.1-2.45-1.92c-0.57-0.68-0.95-1.32-1.2-2.01C4.18,6.69,4.11,6.29,4.14,5.91c0.03-0.35,0.17-0.65,0.42-0.89
	L5.07,4.5C5.29,4.3,5.54,4.19,5.81,4.19c0.27,0,0.52,0.11,0.73,0.31c0.09,0.09,0.76,0.76,0.83,0.83C7.58,5.55,7.69,5.8,7.69,6.07
	c0,0.27-0.11,0.53-0.33,0.74L7.32,6.86C7.26,6.92,7.15,7.03,7.05,7.13c0.07,0.12,0.16,0.24,0.27,0.38C7.68,7.96,8.06,8.3,8.48,8.57
	c0,0,0.01,0.01,0.04,0.02l0.31-0.31c0.21-0.21,0.47-0.32,0.74-0.32c0.27,0,0.53,0.11,0.73,0.33c0.09,0.09,0.08,0.24-0.01,0.32
	C10.2,8.69,10.05,8.69,9.96,8.6c-0.24-0.25-0.57-0.25-0.82,0L8.72,9.03C8.65,9.1,8.54,9.11,8.45,9.07L8.43,9.06
	c-0.1-0.05-0.17-0.09-0.2-0.11C7.77,8.66,7.36,8.28,6.96,7.8c-0.18-0.23-0.31-0.42-0.4-0.61c-0.04-0.09-0.02-0.2,0.05-0.27
	C6.7,6.84,6.91,6.63,6.99,6.54l0.05-0.05c0.13-0.13,0.2-0.27,0.2-0.42c0-0.15-0.07-0.29-0.2-0.42C6.84,5.45,6.29,4.9,6.22,4.83
	c-0.25-0.24-0.57-0.24-0.82,0L4.88,5.34C4.71,5.51,4.61,5.71,4.6,5.95C4.57,6.26,4.63,6.6,4.78,7C5.02,7.64,5.37,8.24,5.9,8.88
	c0.64,0.77,1.42,1.37,2.3,1.81c0,0,0.01,0,0.01,0c0.33,0.16,0.77,0.34,1.25,0.37c0,0,0.01,0,0.01,0c0.03,0,0.06,0,0.08,0
	c0.31,0,0.55-0.1,0.76-0.32c0,0,0,0,0.17-0.17c0.12-0.12,0.27-0.27,0.3-0.31c0.12-0.13,0.19-0.27,0.19-0.42
	c0-0.15-0.07-0.29-0.19-0.41c-0.09-0.09-0.09-0.23,0-0.32c0.09-0.09,0.23-0.09,0.32,0c0.21,0.21,0.32,0.47,0.32,0.74
	c0,0.27-0.11,0.52-0.32,0.74c-0.03,0.03-0.18,0.19-0.3,0.31c-0.08,0.08-0.15,0.15-0.16,0.16C10.37,11.36,10,11.52,9.56,11.52z"/>
<circle class="st2" cx="10.98" cy="9.31" r="0.4"/>
</svg>
