<?xml version="1.0" encoding="utf-8"?>
<!-- Generator: Adobe Illustrator 24.1.1, SVG Export Plug-In . SVG Version: 6.00 Build 0)  -->
<svg version="1.1" id="Capa_1" xmlns="http://www.w3.org/2000/svg" xmlns:xlink="http://www.w3.org/1999/xlink" x="0px" y="0px"
	 viewBox="0 0 16 16" style="enable-background:new 0 0 16 16;" xml:space="preserve">
<style type="text/css">
	.st0{fill:#F80F49;}
	.st1{fill:#FFFFFF;}
	.st2{fill:#4ED7E5;}
</style>
<g>
	<circle class="st0" cx="7.78" cy="7.85" r="7.22"/>
	<g>
		<g>
			<path class="st1" d="M10.89,12.16H4.58c-0.07,0-0.13-0.03-0.17-0.08c-0.04-0.05-0.07-0.12-0.06-0.18l0.7-6.3
				c0.01-0.12,0.11-0.21,0.23-0.21h4.91c0.12,0,0.22,0.09,0.23,0.21l0.19,1.75c0.01,0.13-0.08,0.24-0.21,0.26
				c-0.13,0.01-0.24-0.08-0.26-0.21L9.98,5.86H5.49l-0.65,5.83h5.79l-0.15-1.3c-0.01-0.13,0.08-0.24,0.21-0.26
				c0.13-0.01,0.24,0.08,0.26,0.21l0.18,1.56c0.01,0.07-0.01,0.13-0.06,0.18C11.02,12.13,10.96,12.16,10.89,12.16z"/>
			<path class="st1" d="M9.3,5.6c-0.13,0-0.23-0.1-0.23-0.23c0-0.75-0.61-1.35-1.35-1.35S6.36,4.62,6.36,5.37
				c0,0.13-0.1,0.23-0.23,0.23S5.9,5.5,5.9,5.37c0-1,0.82-1.82,1.82-1.82s1.82,0.82,1.82,1.82C9.54,5.5,9.43,5.6,9.3,5.6z"/>
		</g>
		<circle class="st2" cx="10.7" cy="10.35" r="0.53"/>
	</g>
</g>
</svg>
