<?xml version="1.0" encoding="utf-8"?>
<!-- Generator: Adobe Illustrator 24.1.1, SVG Export Plug-In . SVG Version: 6.00 Build 0)  -->
<svg version="1.1" id="Capa_1" xmlns="http://www.w3.org/2000/svg" xmlns:xlink="http://www.w3.org/1999/xlink" x="0px" y="0px"
	 viewBox="0 0 22 22" style="enable-background:new 0 0 22 22;" xml:space="preserve">
<style type="text/css">
	.st0{fill:#FFFFFF;}
	.st1{fill:#4ED7E5;}
</style>
<g>
	<path class="st0" d="M10.58,14.76c-0.09,0-0.18-0.02-0.26-0.06l-8.86-4.65c-0.18-0.1-0.3-0.29-0.3-0.5c0-0.21,0.12-0.4,0.3-0.5
		l8.86-4.65c0.16-0.09,0.36-0.09,0.52,0l8.86,4.65c0.18,0.1,0.3,0.29,0.3,0.5c0,0.21-0.12,0.4-0.3,0.5l-8.86,4.65
		C10.76,14.74,10.67,14.76,10.58,14.76z M2.93,9.56l7.65,4.01l7.65-4.01l-7.65-4.01L2.93,9.56z"/>
	<path class="st0" d="M10.64,17.66c-3.58,0-6.49-1.6-6.61-1.67c-0.18-0.1-0.29-0.29-0.29-0.49v-4.39c0-0.31,0.25-0.56,0.56-0.56
		s0.56,0.25,0.56,0.56v4.04c0.79,0.38,3.11,1.38,5.78,1.38s4.99-1,5.78-1.38V14.2c0-0.31,0.25-0.56,0.56-0.56s0.56,0.25,0.56,0.56
		v1.3c0,0.2-0.11,0.39-0.29,0.49C17.13,16.06,14.21,17.66,10.64,17.66z"/>
	<path class="st0" d="M14.97,14.67c-0.31,0-0.56-0.25-0.56-0.56v-1.87l-4.09-2.19c-0.27-0.15-0.38-0.49-0.23-0.76
		c0.15-0.27,0.49-0.38,0.76-0.23l4.39,2.34c0.18,0.1,0.3,0.29,0.3,0.5v2.21C15.53,14.42,15.28,14.67,14.97,14.67z"/>
	<circle class="st1" cx="17.06" cy="13.71" r="1.17"/>
</g>
</svg>
