<?xml version="1.0" encoding="utf-8"?>
<!-- Generator: Adobe Illustrator 24.1.1, SVG Export Plug-In . SVG Version: 6.00 Build 0)  -->
<svg version="1.1" id="Capa_1" xmlns="http://www.w3.org/2000/svg" xmlns:xlink="http://www.w3.org/1999/xlink" x="0px" y="0px"
	 viewBox="0 0 16 16" style="enable-background:new 0 0 16 16;" xml:space="preserve">
<style type="text/css">
	.st0{fill:#FFFFFF;}
</style>
<path class="st0" d="M7.49,0.34c-4.15,0-7.51,3.36-7.51,7.51c0,4.15,3.36,7.51,7.51,7.51C11.64,15.37,15,12,15,7.86
	C15,3.71,11.64,0.34,7.49,0.34z M9.71,7.86H8.26c0,2.32,0,5.18,0,5.18H6.11c0,0,0-2.83,0-5.18H5.08V6.03h1.02V4.85
	c0-0.85,0.4-2.17,2.17-2.17l1.59,0.01v1.78c0,0-0.97,0-1.16,0c-0.19,0-0.46,0.1-0.46,0.5v1.08H9.9L9.71,7.86z"/>
</svg>
