<?xml version="1.0" encoding="utf-8"?>
<!-- Generator: Adobe Illustrator 24.1.1, SVG Export Plug-In . SVG Version: 6.00 Build 0)  -->
<svg version="1.1" id="Capa_1" xmlns="http://www.w3.org/2000/svg" xmlns:xlink="http://www.w3.org/1999/xlink" x="0px" y="0px"
	 viewBox="0 0 22 22" style="enable-background:new 0 0 22 22;" xml:space="preserve">
<style type="text/css">
	.st0{fill:#FFFFFF;}
	.st1{fill:#4ED7E5;}
</style>
<g>
	<path class="st0" d="M7.69,20H3.73c-0.31,0-0.55-0.25-0.55-0.55V7.97c0-0.31,0.25-0.55,0.55-0.55s0.55,0.25,0.55,0.55v10.92h3.4
		c0.31,0,0.55,0.25,0.55,0.55C8.24,19.75,8,20,7.69,20z"/>
	<path class="st0" d="M17.43,20h-3.96c-0.31,0-0.55-0.25-0.55-0.55c0-0.31,0.25-0.55,0.55-0.55h3.4v-5.6c0-0.31,0.25-0.55,0.55-0.55
		s0.55,0.25,0.55,0.55v6.15C17.98,19.75,17.74,20,17.43,20z"/>
	<path class="st0" d="M19.84,9.86c-0.11,0-0.23-0.03-0.32-0.1l-8.93-6.46L1.65,9.76C1.4,9.94,1.05,9.88,0.88,9.63
		C0.7,9.39,0.75,9.04,1,8.86l9.26-6.7c0.19-0.14,0.45-0.14,0.65,0l9.26,6.7c0.25,0.18,0.3,0.52,0.12,0.77
		C20.18,9.78,20.01,9.86,19.84,9.86z"/>
	<path class="st0" d="M13.47,20c-0.31,0-0.55-0.25-0.55-0.55v-4.38c-0.01-0.03-0.02-0.06-0.02-0.09c-0.14-1.17-1.14-2.05-2.32-2.05
		s-2.18,0.88-2.32,2.05c0,0.03-0.01,0.06-0.02,0.09v4.38C8.24,19.75,8,20,7.69,20s-0.55-0.25-0.55-0.55v-4.53
		c0-0.08,0.02-0.16,0.05-0.23c0.28-1.64,1.71-2.86,3.39-2.86c1.69,0,3.12,1.23,3.39,2.87c0.03,0.07,0.05,0.14,0.05,0.22v4.53
		C14.03,19.75,13.78,20,13.47,20z"/>
	<path class="st0" d="M17.7,7.97c-0.31,0-0.55-0.25-0.55-0.55V4.04h-1.23v1.64c0,0.31-0.25,0.55-0.55,0.55S14.8,5.99,14.8,5.68v-2.2
		c0-0.31,0.25-0.55,0.55-0.55h2.34c0.31,0,0.55,0.25,0.55,0.55v3.93C18.25,7.72,18,7.97,17.7,7.97z"/>
	<circle class="st1" cx="17.48" cy="13.52" r="1.16"/>
</g>
</svg>
