<?xml version="1.0" encoding="utf-8"?>
<!-- Generator: Adobe Illustrator 24.1.1, SVG Export Plug-In . SVG Version: 6.00 Build 0)  -->
<svg version="1.1" id="Capa_1" xmlns="http://www.w3.org/2000/svg" xmlns:xlink="http://www.w3.org/1999/xlink" x="0px" y="0px"
	 viewBox="0 0 16 16" style="enable-background:new 0 0 16 16;" xml:space="preserve">
<style type="text/css">
	.st0{fill:#FFFFFF;}
</style>
<g>
	<path class="st0" d="M7.48,6.22c-0.01,0-0.03,0-0.04,0c-0.42,0-0.81,0.17-1.1,0.48C6.03,7,5.87,7.41,5.87,7.84
		c0,0.9,0.73,1.62,1.62,1.62c0.89,0,1.6-0.72,1.62-1.63C9.13,7.37,8.99,6.98,8.73,6.7C8.45,6.4,8.02,6.23,7.48,6.22z"/>
	<path class="st0" d="M9.34,3.92H5.64c-1.08,0-1.96,0.88-1.96,1.96v3.95c0,1.08,0.88,1.96,1.96,1.96h3.71
		c1.08,0,1.96-0.88,1.96-1.96V5.88C11.3,4.8,10.42,3.92,9.34,3.92z M9.22,9.57c-0.46,0.46-1.07,0.72-1.72,0.72
		c-1.35,0-2.45-1.1-2.45-2.45c0-0.65,0.25-1.26,0.69-1.72c0.45-0.47,1.06-0.73,1.7-0.73c0.02,0,0.05,0,0.07,0
		c0.76,0.02,1.4,0.28,1.83,0.74c0.41,0.44,0.62,1.03,0.61,1.72C9.93,8.5,9.67,9.12,9.22,9.57z M10,5.89c-0.32,0-0.57-0.26-0.57-0.57
		c0-0.32,0.26-0.57,0.57-0.57c0.32,0,0.57,0.26,0.57,0.57C10.57,5.64,10.32,5.89,10,5.89z"/>
	<path class="st0" d="M7.49,0.35c-4.15,0-7.51,3.36-7.51,7.51c0,4.15,3.36,7.51,7.51,7.51C11.64,15.36,15,12,15,7.85
		C15,3.71,11.64,0.35,7.49,0.35z M11.98,9.83c0,1.45-1.18,2.63-2.63,2.63H5.64C4.19,12.47,3,11.28,3,9.83V5.88
		c0-1.45,1.18-2.63,2.63-2.63h3.71c1.45,0,2.63,1.18,2.63,2.63V9.83z"/>
</g>
</svg>
