<?xml version="1.0" encoding="utf-8"?>
<!-- Generator: Adobe Illustrator 24.1.1, SVG Export Plug-In . SVG Version: 6.00 Build 0)  -->
<svg version="1.1" id="Capa_1" xmlns="http://www.w3.org/2000/svg" xmlns:xlink="http://www.w3.org/1999/xlink" x="0px" y="0px"
	 viewBox="0 0 16 16" style="enable-background:new 0 0 16 16;" xml:space="preserve">
<style type="text/css">
	.st0{fill:#F80F49;}
	.st1{fill:#FFFFFF;}
	.st2{fill:#4ED7E5;}
</style>
<circle class="st0" cx="7.78" cy="7.85" r="7.15"/>
<g>
	<path class="st1" d="M7.64,8.65c-0.96,0-1.74-0.78-1.74-1.74s0.78-1.74,1.74-1.74s1.74,0.78,1.74,1.74S8.6,8.65,7.64,8.65z
		 M7.64,5.63c-0.71,0-1.28,0.57-1.28,1.28s0.58,1.28,1.28,1.28s1.28-0.57,1.28-1.28S8.35,5.63,7.64,5.63z"/>
	<path class="st1" d="M7.64,12.27c-2.43,0-4.41-1.98-4.41-4.41s1.98-4.41,4.41-4.41c0.71,0,1.4,0.17,2.02,0.49
		c0.11,0.06,0.15,0.19,0.1,0.31C9.7,4.35,9.57,4.39,9.46,4.34C8.9,4.05,8.28,3.9,7.64,3.9c-2.18,0-3.96,1.78-3.96,3.96
		c0,2.18,1.78,3.96,3.96,3.96c2.18,0,3.96-1.78,3.96-3.96c0-0.13,0.1-0.23,0.23-0.23c0.13,0,0.23,0.1,0.23,0.23
		C12.06,10.29,10.08,12.27,7.64,12.27z"/>
	<path class="st1" d="M5.4,9.98c-0.05,0-0.11-0.02-0.15-0.06C5.15,9.83,5.14,9.69,5.23,9.6c0.62-0.68,1.48-1.06,2.41-1.06
		c0.87,0,1.69,0.34,2.3,0.95c0.09,0.09,0.09,0.23,0,0.32c-0.09,0.09-0.23,0.09-0.32,0C9.1,9.28,8.39,8.99,7.64,8.99
		c-0.81,0-1.54,0.32-2.08,0.91C5.52,9.95,5.46,9.98,5.4,9.98z"/>
	<circle class="st2" cx="11.83" cy="7.85" r="0.51"/>
</g>
</svg>
