<?xml version="1.0" encoding="utf-8"?>
<!-- Generator: Adobe Illustrator 21.0.2, SVG Export Plug-In . SVG Version: 6.00 Build 0)  -->
<svg version="1.1" id="Capa_1" xmlns="http://www.w3.org/2000/svg" xmlns:xlink="http://www.w3.org/1999/xlink" x="0px" y="0px"
	 viewBox="0 0 761.422 335.202" enable-background="new 0 0 761.422 335.202" xml:space="preserve">
<g>
	<g>
		<g>
			<path fill="#FFFFFF" d="M307.031,46.47l-4.665,4.334c-3.173-3.269-6.744-4.903-10.71-4.903c-3.348,0-6.168,1.116-8.461,3.347
				c-2.292,2.23-3.439,4.98-3.439,8.249c0,2.277,0.508,4.3,1.523,6.065c1.016,1.767,2.452,3.152,4.308,4.159
				s3.919,1.511,6.188,1.511c1.935,0,3.705-0.353,5.307-1.058c1.603-0.704,3.364-1.986,5.284-3.846l4.522,4.599
				c-2.588,2.462-5.034,4.169-7.337,5.121s-4.931,1.429-7.885,1.429c-5.447,0-9.906-1.684-13.376-5.05
				c-3.47-3.366-5.205-7.68-5.205-12.942c0-3.404,0.79-6.43,2.37-9.076s3.843-4.774,6.789-6.385
				c2.946-1.609,6.118-2.414,9.517-2.414c2.89,0,5.673,0.595,8.35,1.785C302.787,42.584,305.094,44.276,307.031,46.47z"/>
			<path fill="#FFFFFF" d="M321.412,40.469h6.764l13.478,34.148h-6.932l-2.742-7.034h-14.298l-2.851,7.034h-6.932L321.412,40.469z
				 M324.835,49.522l-4.701,11.723h9.375L324.835,49.522z M325.967,28.722h7.694l-8.719,9.101h-4.669L325.967,28.722z"/>
			<path fill="#FFFFFF" d="M348.063,40.469h6.499l8.123,23.818l8.197-23.818h6.495l5.878,34.148h-6.45l-3.757-21.566l-7.444,21.566
				h-5.878l-7.378-21.566L348.5,74.617h-6.503L348.063,40.469z"/>
			<path fill="#FFFFFF" d="M397.11,40.469h6.764l13.478,34.148h-6.932l-2.742-7.034H393.38l-2.851,7.034h-6.932L397.11,40.469z
				 M400.534,49.522l-4.701,11.723h9.375L400.534,49.522z"/>
			<path fill="#FFFFFF" d="M420.815,40.469h7.067c3.87,0,6.626,0.336,8.268,1.01c1.642,0.673,2.962,1.791,3.962,3.354
				s1.499,3.412,1.499,5.548c0,2.244-0.552,4.121-1.655,5.63s-2.767,2.65-4.99,3.424l8.301,15.183h-7.292l-7.88-14.463h-0.61v14.463
				h-6.67V40.469z M427.485,53.817h2.09c2.122,0,3.582-0.272,4.381-0.815c0.8-0.543,1.199-1.444,1.199-2.702
				c0-0.745-0.198-1.394-0.593-1.944c-0.396-0.552-0.927-0.947-1.591-1.188c-0.665-0.24-1.884-0.361-3.657-0.361h-1.829V53.817z"/>
			<path fill="#FFFFFF" d="M457.207,40.469h6.764l13.478,34.148h-6.932l-2.742-7.034h-14.298l-2.851,7.034h-6.932L457.207,40.469z
				 M460.63,49.522l-4.701,11.723h9.375L460.63,49.522z"/>
		</g>
	</g>
	<g>
		<path fill="#FFFFFF" d="M273.524,207.273h29.332v9.754h-19.177v9.469h19.177v9.576h-19.177v13.776h19.177v9.789h-29.332V207.273z"
			/>
		<path fill="#FFFFFF" d="M309.099,207.273h10.228v42.859h14.903v9.505h-25.131L309.099,207.273L309.099,207.273z"/>
		<path fill="#FFFFFF" d="M338.755,207.273h29.332v9.754H348.91v9.469h19.177v9.576H348.91v13.776h19.177v9.789h-29.332V207.273z"/>
		<path fill="#FFFFFF" d="M423.715,216.477l-7.153,6.646c-4.866-5.012-10.341-7.519-16.423-7.519c-5.134,0-9.458,1.71-12.974,5.131
			c-3.516,3.421-5.273,7.638-5.273,12.65c0,3.491,0.778,6.592,2.335,9.3c1.557,2.709,3.759,4.834,6.605,6.379
			c2.847,1.544,6.01,2.315,9.49,2.315c2.968,0,5.681-0.54,8.138-1.621c2.457-1.081,5.158-3.047,8.102-5.897l6.934,7.052
			c-3.969,3.775-7.72,6.393-11.25,7.853c-3.531,1.46-7.561,2.19-12.091,2.19c-8.353,0-15.19-2.581-20.51-7.743
			c-5.321-5.161-7.981-11.776-7.981-19.845c0-5.221,1.211-9.861,3.634-13.919c2.423-4.059,5.893-7.321,10.411-9.789
			c4.517-2.469,9.381-3.702,14.593-3.702c4.432,0,8.7,0.912,12.803,2.736C417.207,210.518,420.744,213.112,423.715,216.477z"/>
		<path fill="#FFFFFF" d="M424.077,207.273h29.697v9.825h-9.79v42.539H433.61v-42.539h-9.534v-9.825H424.077z"/>
		<path fill="#FFFFFF" d="M458.189,207.273h10.836c5.935,0,10.161,0.517,12.679,1.549s4.542,2.747,6.075,5.144
			c1.532,2.397,2.299,5.233,2.299,8.508c0,3.441-0.847,6.318-2.539,8.633c-1.692,2.313-4.243,4.064-7.652,5.25l12.729,23.281
			h-11.181l-12.083-22.177h-0.936v22.177h-10.228v-52.365H458.189z M468.417,227.742h3.205c3.253,0,5.493-0.416,6.718-1.25
			c1.226-0.833,1.839-2.214,1.839-4.143c0-1.143-0.304-2.137-0.911-2.982c-0.607-0.845-1.42-1.452-2.44-1.821
			c-1.019-0.369-2.889-0.554-5.607-0.554h-2.804L468.417,227.742L468.417,227.742z"/>
		<path fill="#FFFFFF" d="M522.968,205.957c7.603,0,14.139,2.682,19.61,8.045s8.206,11.901,8.206,19.614
			c0,7.642-2.699,14.108-8.097,19.4c-5.397,5.292-11.946,7.938-19.646,7.938c-8.066,0-14.767-2.718-20.104-8.152
			c-5.337-5.434-8.005-11.89-8.005-19.365c0-5.007,1.243-9.611,3.728-13.812c2.486-4.2,5.903-7.528,10.253-9.985
			C513.263,207.185,517.948,205.957,522.968,205.957z M522.859,215.71c-4.974,0-9.154,1.686-12.542,5.056
			c-3.389,3.37-5.083,7.653-5.083,12.851c0,5.79,2.133,10.371,6.399,13.74c3.315,2.635,7.118,3.951,11.408,3.951
			c4.851,0,8.982-1.708,12.396-5.126c3.413-3.417,5.12-7.629,5.12-12.637c0-4.983-1.719-9.202-5.156-12.655
			S527.783,215.71,522.859,215.71z M524.74,189.262h11.799l-13.369,13.954h-7.16L524.74,189.262z"/>
		<path fill="#FFFFFF" d="M557.172,207.273h9.811l22.991,34.459v-34.459h10.228v52.364h-9.839L567.4,225.286v34.352h-10.228V207.273
			z"/>
		<path fill="#FFFFFF" d="M608.454,207.273h10.155v52.364h-10.155V207.273z"/>
		<path fill="#FFFFFF" d="M676.209,216.477l-7.153,6.646c-4.866-5.012-10.341-7.519-16.423-7.519c-5.134,0-9.458,1.71-12.974,5.131
			c-3.516,3.421-5.273,7.638-5.273,12.65c0,3.491,0.778,6.592,2.335,9.3c1.557,2.709,3.759,4.834,6.605,6.379
			c2.847,1.544,6.01,2.315,9.49,2.315c2.968,0,5.681-0.54,8.138-1.621c2.457-1.081,5.158-3.047,8.102-5.897l6.934,7.052
			c-3.969,3.775-7.72,6.393-11.25,7.853c-3.531,1.46-7.561,2.19-12.091,2.19c-8.353,0-15.19-2.581-20.51-7.743
			c-5.321-5.161-7.981-11.776-7.981-19.845c0-5.221,1.211-9.861,3.634-13.919c2.423-4.059,5.893-7.321,10.411-9.789
			c4.517-2.469,9.381-3.702,14.593-3.702c4.432,0,8.7,0.912,12.803,2.736C669.701,210.518,673.238,213.112,676.209,216.477z"/>
		<path fill="#FFFFFF" d="M707.236,205.957c7.603,0,14.139,2.682,19.61,8.045s8.206,11.901,8.206,19.614
			c0,7.642-2.699,14.108-8.097,19.4c-5.397,5.292-11.946,7.938-19.646,7.938c-8.066,0-14.767-2.718-20.104-8.152
			c-5.337-5.434-8.005-11.89-8.005-19.365c0-5.007,1.243-9.611,3.728-13.812c2.486-4.2,5.903-7.528,10.253-9.985
			C697.531,207.185,702.215,205.957,707.236,205.957z M707.126,215.71c-4.974,0-9.154,1.686-12.542,5.056
			c-3.389,3.37-5.083,7.653-5.083,12.851c0,5.79,2.133,10.371,6.399,13.74c3.315,2.635,7.118,3.951,11.408,3.951
			c4.851,0,8.982-1.708,12.396-5.126c3.413-3.417,5.12-7.629,5.12-12.637c0-4.983-1.719-9.202-5.156-12.655
			S712.05,215.71,707.126,215.71z"/>
	</g>
	<g>
		<g>
			<path fill="#FFFFFF" d="M307.031,93.521l-4.665,4.334c-3.173-3.269-6.744-4.903-10.71-4.903c-3.348,0-6.168,1.116-8.461,3.347
				c-2.292,2.23-3.439,4.98-3.439,8.249c0,2.277,0.508,4.3,1.523,6.065c1.016,1.767,2.452,3.152,4.308,4.159
				s3.919,1.511,6.188,1.511c1.935,0,3.705-0.353,5.307-1.058c1.603-0.704,3.364-1.986,5.284-3.846l4.522,4.599
				c-2.588,2.462-5.034,4.169-7.337,5.121s-4.931,1.429-7.885,1.429c-5.447,0-9.906-1.684-13.376-5.05
				c-3.47-3.366-5.205-7.68-5.205-12.942c0-3.404,0.79-6.43,2.37-9.076s3.843-4.774,6.789-6.385
				c2.946-1.609,6.118-2.414,9.517-2.414c2.89,0,5.673,0.595,8.35,1.785C302.787,89.636,305.093,91.328,307.031,93.521z"/>
			<path fill="#FFFFFF" d="M327.265,86.661c4.958,0,9.221,1.749,12.789,5.247c3.567,3.497,5.352,7.762,5.352,12.791
				c0,4.983-1.76,9.201-5.28,12.651c-3.52,3.452-7.791,5.178-12.812,5.178c-5.26,0-9.63-1.772-13.11-5.316
				c-3.48-3.544-5.22-7.754-5.22-12.629c0-3.266,0.81-6.268,2.431-9.007s3.85-4.91,6.687-6.512
				C320.936,87.462,323.991,86.661,327.265,86.661z M327.193,93.022c-3.244,0-5.97,1.099-8.179,3.296
				c-2.21,2.198-3.315,4.991-3.315,8.381c0,3.776,1.391,6.764,4.173,8.961c2.162,1.718,4.642,2.576,7.44,2.576
				c3.163,0,5.858-1.114,8.083-3.343s3.339-4.976,3.339-8.241c0-3.25-1.121-6.001-3.363-8.253
				C333.131,94.148,330.404,93.022,327.193,93.022z"/>
			<path fill="#FFFFFF" d="M349.547,87.521h6.67v27.95h9.719v6.198h-16.389V87.521z"/>
			<path fill="#FFFFFF" d="M385.407,86.661c4.958,0,9.221,1.749,12.789,5.247c3.567,3.497,5.352,7.762,5.352,12.791
				c0,4.983-1.76,9.201-5.28,12.651c-3.52,3.452-7.791,5.178-12.812,5.178c-5.26,0-9.63-1.772-13.11-5.316
				c-3.48-3.544-5.22-7.754-5.22-12.629c0-3.266,0.81-6.268,2.431-9.007s3.85-4.91,6.687-6.512
				C379.078,87.462,382.133,86.661,385.407,86.661z M385.335,93.022c-3.244,0-5.97,1.099-8.179,3.296
				c-2.21,2.198-3.315,4.991-3.315,8.381c0,3.776,1.391,6.764,4.173,8.961c2.162,1.718,4.642,2.576,7.44,2.576
				c3.163,0,5.858-1.114,8.083-3.343s3.339-4.976,3.339-8.241c0-3.25-1.121-6.001-3.363-8.253
				C391.273,94.148,388.546,93.022,385.335,93.022z"/>
			<path fill="#FFFFFF" d="M411.088,87.521h6.499l8.123,23.818l8.197-23.818h6.495l5.878,34.148h-6.45l-3.757-21.566l-7.444,21.566
				h-5.878l-7.378-21.566l-3.847,21.566h-6.503L411.088,87.521z"/>
			<path fill="#FFFFFF" d="M449.445,121.669V87.521h5.509c3.196,0,5.534,0.201,7.012,0.604c2.099,0.542,3.769,1.548,5.009,3.018
				c1.24,1.471,1.86,3.204,1.86,5.2c0,1.3-0.282,2.48-0.846,3.54c-0.564,1.061-1.481,2.055-2.751,2.983
				c2.128,0.975,3.684,2.193,4.669,3.656s1.477,3.192,1.477,5.188c0,1.919-0.509,3.668-1.526,5.246
				c-1.018,1.579-2.329,2.759-3.935,3.541c-1.606,0.781-3.824,1.172-6.653,1.172H449.445z M456.115,93.719v7.196h1.459
				c1.625,0,2.833-0.333,3.623-0.998s1.184-1.57,1.184-2.716c0-1.068-0.375-1.916-1.124-2.542c-0.75-0.627-1.889-0.94-3.419-0.94
				C457.838,93.719,456.115,93.719,456.115,93.719z M456.115,106.719v8.752h1.672c2.771,0,4.638-0.34,5.602-1.021
				c0.963-0.681,1.445-1.672,1.445-2.972c0-1.47-0.565-2.631-1.696-3.482c-1.131-0.851-3.01-1.276-5.637-1.276L456.115,106.719
				L456.115,106.719z"/>
			<path fill="#FFFFFF" d="M475.122,87.521h6.623v34.148h-6.623V87.521z"/>
			<path fill="#FFFFFF" d="M497.792,87.521h6.764l13.478,34.148h-6.932l-2.742-7.034h-14.298l-2.851,7.034h-6.932L497.792,87.521z
				 M501.216,96.574l-4.701,11.723h9.375L501.216,96.574z"/>
			<path fill="#FFFFFF" d="M521.068,87.521h6.398l14.993,22.472V87.521h6.67v34.148h-6.417l-14.975-22.402v22.402h-6.67
				L521.068,87.521L521.068,87.521z"/>
			<path fill="#FFFFFF" d="M565.678,87.521h6.764l13.478,34.148h-6.932l-2.742-7.034h-14.298l-2.851,7.034h-6.932L565.678,87.521z
				 M569.102,96.574l-4.701,11.723h9.375L569.102,96.574z"/>
			<path fill="#FFFFFF" d="M600.457,87.521h7.902c5.093,0,8.877,0.615,11.353,1.846c2.475,1.23,4.514,3.23,6.117,6.001
				s2.404,6.005,2.404,9.703c0,2.632-0.449,5.05-1.345,7.255c-0.897,2.205-2.134,4.035-3.713,5.49s-3.289,2.461-5.129,3.018
				c-1.841,0.558-5.03,0.836-9.568,0.836h-8.021V87.521z M607.079,93.788v21.543h3.097c3.049,0,5.26-0.34,6.634-1.022
				c1.373-0.682,2.497-1.828,3.371-3.439c0.873-1.611,1.31-3.594,1.31-5.949c0-3.625-1.04-6.438-3.121-8.436
				c-1.874-1.797-4.883-2.696-9.028-2.696L607.079,93.788L607.079,93.788z"/>
			<path fill="#FFFFFF" d="M632.47,87.521h19.128v6.36h-12.506v6.176h12.506v6.244h-12.506v8.984h12.506v6.384H632.47V87.521z"/>
		</g>
	</g>
	<g>
		<g>
			<path fill="#FFFFFF" d="M325.477,143.006l-7.153,6.646c-4.866-5.012-10.341-7.519-16.423-7.519c-5.134,0-9.458,1.71-12.974,5.131
				c-3.516,3.421-5.273,7.638-5.273,12.65c0,3.491,0.778,6.592,2.335,9.3c1.557,2.709,3.759,4.834,6.605,6.379
				c2.847,1.544,6.01,2.315,9.49,2.315c2.968,0,5.681-0.54,8.138-1.621c2.457-1.081,5.158-3.047,8.102-5.897l6.934,7.052
				c-3.969,3.775-7.72,6.393-11.25,7.853c-3.531,1.46-7.561,2.19-12.091,2.19c-8.353,0-15.19-2.581-20.51-7.743
				c-5.321-5.161-7.981-11.776-7.981-19.845c0-5.221,1.211-9.861,3.634-13.919c2.423-4.059,5.893-7.321,10.411-9.789
				c4.517-2.469,9.381-3.702,14.593-3.702c4.432,0,8.7,0.912,12.803,2.736C318.969,137.047,322.506,139.642,325.477,143.006z"/>
			<path fill="#FFFFFF" d="M356.503,132.486c7.603,0,14.139,2.682,19.61,8.045s8.206,11.901,8.206,19.614
				c0,7.642-2.699,14.108-8.097,19.4c-5.397,5.292-11.946,7.938-19.646,7.938c-8.066,0-14.767-2.718-20.104-8.152
				c-5.337-5.434-8.005-11.89-8.005-19.365c0-5.007,1.243-9.611,3.728-13.812c2.486-4.2,5.903-7.528,10.253-9.985
				C346.798,133.714,351.483,132.486,356.503,132.486z M356.394,142.239c-4.974,0-9.154,1.686-12.542,5.056
				c-3.389,3.37-5.083,7.653-5.083,12.851c0,5.79,2.133,10.371,6.399,13.74c3.315,2.635,7.118,3.951,11.408,3.951
				c4.851,0,8.982-1.708,12.396-5.126c3.413-3.417,5.12-7.629,5.12-12.637c0-4.983-1.719-9.202-5.156-12.655
				S361.318,142.239,356.394,142.239z"/>
			<path fill="#FFFFFF" d="M395.883,133.803h9.965l12.456,36.523l12.569-36.523h9.959l9.014,52.364h-9.891l-5.762-33.07
				l-11.415,33.07h-9.014l-11.314-33.07l-5.899,33.07h-9.972L395.883,133.803z"/>
			<path fill="#FFFFFF" d="M454.738,133.803h29.332v9.754h-19.177v9.469h19.177v9.576h-19.177v13.776h19.177v9.789h-29.332V133.803z
				"/>
			<path fill="#FFFFFF" d="M491.005,133.803h10.836c5.935,0,10.161,0.517,12.679,1.549s4.542,2.747,6.075,5.144
				c1.532,2.397,2.299,5.233,2.299,8.508c0,3.441-0.847,6.318-2.539,8.633c-1.692,2.313-4.243,4.064-7.652,5.25l12.729,23.281
				h-11.181l-12.083-22.177h-0.936v22.177h-10.228L491.005,133.803L491.005,133.803z M501.233,154.271h3.205
				c3.253,0,5.493-0.416,6.718-1.25c1.226-0.833,1.839-2.214,1.839-4.143c0-1.143-0.304-2.137-0.911-2.982s-1.42-1.452-2.44-1.821
				c-1.019-0.369-2.889-0.554-5.607-0.554h-2.804V154.271z"/>
			<path fill="#FFFFFF" d="M579.801,143.006l-7.153,6.646c-4.866-5.012-10.341-7.519-16.423-7.519c-5.134,0-9.458,1.71-12.974,5.131
				c-3.516,3.421-5.273,7.638-5.273,12.65c0,3.491,0.778,6.592,2.335,9.3c1.557,2.709,3.759,4.834,6.605,6.379
				c2.847,1.544,6.01,2.315,9.49,2.315c2.968,0,5.681-0.54,8.138-1.621c2.457-1.081,5.158-3.047,8.102-5.897l6.934,7.052
				c-3.969,3.775-7.72,6.393-11.25,7.853c-3.531,1.46-7.561,2.19-12.091,2.19c-8.353,0-15.19-2.581-20.51-7.743
				c-5.321-5.161-7.981-11.776-7.981-19.845c0-5.221,1.211-9.861,3.634-13.919c2.423-4.059,5.893-7.321,10.411-9.789
				c4.517-2.469,9.381-3.702,14.593-3.702c4.432,0,8.7,0.912,12.803,2.736C573.293,137.047,576.83,139.642,579.801,143.006z"/>
			<path fill="#FFFFFF" d="M584.729,133.803h10.155v52.364h-10.155V133.803z"/>
			<path fill="#FFFFFF" d="M628.467,132.486c7.603,0,14.139,2.682,19.61,8.045s8.206,11.901,8.206,19.614
				c0,7.642-2.699,14.108-8.097,19.4c-5.397,5.292-11.946,7.938-19.646,7.938c-8.066,0-14.767-2.718-20.104-8.152
				c-5.337-5.434-8.005-11.89-8.005-19.365c0-5.007,1.243-9.611,3.728-13.812c2.486-4.2,5.903-7.528,10.253-9.985
				C618.762,133.714,623.446,132.486,628.467,132.486z M628.357,142.239c-4.974,0-9.154,1.686-12.542,5.056
				c-3.389,3.37-5.083,7.653-5.083,12.851c0,5.79,2.133,10.371,6.399,13.74c3.315,2.635,7.118,3.951,11.408,3.951
				c4.851,0,8.982-1.708,12.396-5.126c3.413-3.417,5.12-7.629,5.12-12.637c0-4.983-1.719-9.202-5.156-12.655
				S633.281,142.239,628.357,142.239z"/>
		</g>
	</g>
	<g>
		<path fill="#FFFFFF" d="M21.353,140.111c6.895-41.428,29.242-72.155,64.794-93.682c17.216-10.419,35.954-15.959,56.049-18.055
			c27.136-2.832,60.905,13.729,73.84,37.415c7.681,14.073,9.171,29.269,7.316,44.89c-1.729,14.586-6.155,28.264-15.882,39.602
			c-14.149,16.505-32.361,24.426-54.018,24.275c-8.088-0.055-13.063-3.516-14.58-9.316c-1.753-6.707,1.144-12.271,7.645-14.628
			c2.9-1.058,5.945-1.469,8.998-1.614c22.557-1.085,37.214-13.523,42.091-35.791c6.051-27.584-11.276-52.908-38.778-56.013
			c-24.689-2.778-47.626,2.711-67.574,17.677c-23.551,17.67-39.953,40.516-44.185,70.201
			c-8.294,58.097,27.948,111.145,85.284,120.615c19.404,3.205,38.976,3.32,58.562,3.002c2.964-0.045,5.558-0.102,12.116-3.347
			c12.102-6.702,12.26-26.036,0.231-33.086c-1.32-0.774-4.763-2.36-8.642-3.157c10.748-0.061,21.611,5.957,26.288,14.242
			c11.748,20.804-1.086,45.025-21.119,48.92c-13.524,2.631-27.073,3.48-40.823,3.09c-14.619-0.424-29.014-1.773-43.041-6.182
			c-29.342-9.225-54.683-24.312-73.061-49.598c-12.818-17.643-19.578-37.578-22.075-59.115c-0.147-1.281-1.104-9.928-1.009-18.703
			C19.873,152.006,21.031,142.027,21.353,140.111z"/>
		<path fill="#FFFFFF" d="M161.326,69.85c0,0,14.819,3.436,13.806,21.845c0,0-0.514,17.332-24.729,16.648
			c0,0-55.336,5.214-50.197,59.653c0,0,1.423,39.025,47.066,46.295c0.7,0.109,4.42,0.316,4.42,0.316h61.387
			c0,0,11.995,0.24,11.995-13.225c0,0,1.47-9.551-9.794-12.244h-63.412c0,0-24.483-1.219-26.686-25.71c0,0-3.674-24.722,27.91-29.13
			c0,0,38.439-2.203,30.847-42.116C183.939,92.183,179.449,73.529,161.326,69.85z"/>
		<path fill="#FFFFFF" d="M159.624,69.517c5.009,0.954,14.405,4.911,15.503,17.839c0.683,8.031-2.192,19.854-21.106,20.987
			c0,0,5.569-1.5,5.432-6.89c0,0-0.553-5.018-5.664-5.8c-2.77-0.427-6.881-0.489-13.182,0.2c0,0-56.805,5.145-54.603,73.701
			c0,0,2.697,53.857,61.458,59.251h43.824c0,0,18.609,0,20.809,17.624c0,0,3.064,16.773-15.857,21.645c0,0,5.045-1.311,5.045-6.778
			c0,0-0.688-6.058-7.549-5.56c0,0-35.674-0.939-54.172-2.127c-0.388-0.025-1.807-0.163-2.983-0.383
			c-10.796-2.051-66.249-15.638-76.497-80.175c-0.096-0.587-0.331-2.396-0.382-3.524c-0.414-9.362-0.314-54.382,37.325-82.977
			c16.576-12.591,33.521-18.276,58.269-17.469C156.02,69.102,158.278,69.259,159.624,69.517z"/>
	</g>
	<g>
		<path fill="#FFFFFF" d="M273.963,273.264h5.891l4.823,13.299l5.189-13.299h3.604l5.096,13.148l4.829-13.148h5.929l-8.752,23.375
			h-3.814l-5.114-13.32l-5.269,13.32h-3.77L273.963,273.264z"/>
		<path fill="#FFFFFF" d="M314.781,273.264h5.891l4.823,13.299l5.189-13.299h3.604l5.096,13.148l4.829-13.148h5.929l-8.752,23.375
			h-3.814l-5.114-13.32l-5.269,13.32h-3.77L314.781,273.264z"/>
		<path fill="#FFFFFF" d="M355.599,273.264h5.891l4.823,13.299l5.189-13.299h3.604l5.096,13.148l4.829-13.148h5.929l-8.752,23.375
			h-3.814l-5.114-13.32l-5.269,13.32h-3.77L355.599,273.264z"/>
		<path fill="#FFFFFF" d="M402.358,290.516c0.955,0,1.771,0.326,2.447,0.978s1.014,1.443,1.014,2.374
			c0,0.932-0.338,1.727-1.014,2.385c-0.676,0.658-1.492,0.988-2.447,0.988c-0.956,0-1.771-0.33-2.447-0.988
			c-0.676-0.658-1.014-1.453-1.014-2.385c0-0.931,0.338-1.722,1.014-2.374C400.587,290.842,401.402,290.516,402.358,290.516z"/>
		<path fill="#FFFFFF" d="M439.891,277.99l-5.01,2.686c-0.942-0.959-1.873-1.625-2.792-1.998c-0.92-0.372-1.998-0.559-3.233-0.559
			c-2.251,0-4.073,0.654-5.463,1.963c-1.391,1.309-2.086,2.985-2.086,5.03c0,1.987,0.669,3.611,2.009,4.869
			c1.339,1.259,3.097,1.888,5.275,1.888c2.693,0,4.79-0.895,6.291-2.686l4.746,3.167c-2.572,3.26-6.203,4.89-10.891,4.89
			c-4.219,0-7.521-1.217-9.91-3.652s-3.583-5.285-3.583-8.551c0-2.263,0.58-4.347,1.742-6.252c1.161-1.904,2.781-3.401,4.861-4.49
			c2.08-1.088,4.406-1.633,6.978-1.633c2.381,0,4.52,0.462,6.416,1.386S438.685,276.286,439.891,277.99z"/>
		<path fill="#FFFFFF" d="M473.5,277.99l-5.01,2.686c-0.942-0.959-1.873-1.625-2.792-1.998c-0.92-0.372-1.998-0.559-3.233-0.559
			c-2.251,0-4.073,0.654-5.463,1.963c-1.391,1.309-2.086,2.985-2.086,5.03c0,1.987,0.669,3.611,2.009,4.869
			c1.339,1.259,3.097,1.888,5.275,1.888c2.693,0,4.79-0.895,6.291-2.686l4.746,3.167c-2.572,3.26-6.203,4.89-10.891,4.89
			c-4.219,0-7.521-1.217-9.91-3.652s-3.583-5.285-3.583-8.551c0-2.263,0.58-4.347,1.742-6.252c1.161-1.904,2.781-3.401,4.861-4.49
			c2.08-1.088,4.406-1.633,6.978-1.633c2.381,0,4.52,0.462,6.416,1.386S472.294,276.286,473.5,277.99z"/>
		<path fill="#FFFFFF" d="M507.108,277.99l-5.01,2.686c-0.942-0.959-1.873-1.625-2.792-1.998c-0.92-0.372-1.998-0.559-3.233-0.559
			c-2.251,0-4.073,0.654-5.463,1.963c-1.391,1.309-2.086,2.985-2.086,5.03c0,1.987,0.669,3.611,2.009,4.869
			c1.339,1.259,3.097,1.888,5.275,1.888c2.693,0,4.79-0.895,6.291-2.686l4.746,3.167c-2.572,3.26-6.203,4.89-10.891,4.89
			c-4.219,0-7.521-1.217-9.91-3.652s-3.583-5.285-3.583-8.551c0-2.263,0.58-4.347,1.742-6.252c1.161-1.904,2.781-3.401,4.861-4.49
			c2.08-1.088,4.406-1.633,6.978-1.633c2.381,0,4.52,0.462,6.416,1.386S505.902,276.286,507.108,277.99z"/>
		<path fill="#FFFFFF" d="M541.268,286.648h-19.334c0.279,1.662,1.025,2.983,2.237,3.964c1.213,0.981,2.759,1.472,4.641,1.472
			c2.249,0,4.181-0.766,5.798-2.299l5.071,2.32c-1.264,1.748-2.778,3.04-4.542,3.878s-3.858,1.257-6.283,1.257
			c-3.763,0-6.827-1.156-9.193-3.47c-2.366-2.313-3.549-5.21-3.549-8.69c0-3.566,1.18-6.527,3.539-8.884
			c2.359-2.355,5.316-3.534,8.874-3.534c3.777,0,6.849,1.179,9.215,3.534c2.366,2.356,3.55,5.468,3.55,9.335L541.268,286.648z
			 M535.249,282.029c-0.397-1.303-1.181-2.363-2.352-3.18c-1.17-0.816-2.528-1.225-4.074-1.225c-1.678,0-3.15,0.459-4.417,1.375
			c-0.795,0.573-1.531,1.583-2.208,3.029h13.051V282.029z"/>
		<path fill="#FFFFFF" d="M554.131,290.516c0.955,0,1.771,0.326,2.447,0.978s1.014,1.443,1.014,2.374
			c0,0.932-0.338,1.727-1.014,2.385c-0.676,0.658-1.492,0.988-2.447,0.988c-0.956,0-1.771-0.33-2.447-0.988
			c-0.676-0.658-1.014-1.453-1.014-2.385c0-0.931,0.338-1.722,1.014-2.374C552.36,290.842,553.175,290.516,554.131,290.516z"/>
		<path fill="#FFFFFF" d="M579.45,272.662c2.263,0,4.391,0.552,6.382,1.654c1.992,1.104,3.546,2.6,4.663,4.49
			c1.117,1.891,1.675,3.932,1.675,6.123c0,2.206-0.562,4.269-1.687,6.188c-1.125,1.92-2.656,3.42-4.597,4.501
			c-1.94,1.081-4.078,1.622-6.415,1.622c-3.439,0-6.375-1.192-8.808-3.577s-3.648-5.281-3.648-8.69c0-3.652,1.374-6.695,4.123-9.131
			C573.549,273.723,576.32,272.662,579.45,272.662z M579.55,278.184c-1.87,0-3.427,0.634-4.671,1.901s-1.866,2.89-1.866,4.866
			c0,2.034,0.614,3.682,1.844,4.941c1.229,1.261,2.786,1.891,4.67,1.891s3.453-0.637,4.704-1.912
			c1.251-1.274,1.877-2.914,1.877-4.92c0-2.005-0.615-3.634-1.844-4.888C583.035,278.811,581.463,278.184,579.55,278.184z"/>
		<path fill="#FFFFFF" d="M600.383,273.264h5.159v2.943c0.559-1.16,1.301-2.041,2.227-2.643c0.926-0.602,1.94-0.902,3.042-0.902
			c0.779,0,1.595,0.201,2.447,0.602l-1.874,5.049c-0.706-0.344-1.286-0.516-1.742-0.516c-0.926,0-1.708,0.559-2.348,1.676
			s-0.959,3.309-0.959,6.574l0.022,1.139v9.453h-5.975v-23.375H600.383z"/>
		<path fill="#FFFFFF" d="M638.665,273.264h5.997v20.023c0,3.953-0.815,6.86-2.447,8.723c-2.19,2.521-5.49,3.781-9.899,3.781
			c-2.352,0-4.329-0.287-5.93-0.859c-1.602-0.573-2.954-1.415-4.057-2.524c-1.102-1.11-1.918-2.46-2.447-4.05h6.636
			c0.587,0.658,1.345,1.156,2.271,1.493c0.926,0.336,2.021,0.505,3.285,0.505c1.616,0,2.917-0.244,3.902-0.73
			c0.984-0.487,1.679-1.117,2.083-1.891c0.404-0.773,0.606-2.105,0.606-3.996c-1.058,1.031-2.168,1.772-3.329,2.224
			c-1.161,0.451-2.477,0.677-3.946,0.677c-3.219,0-5.938-1.131-8.157-3.395c-2.219-2.263-3.329-5.127-3.329-8.594
			c0-3.709,1.175-6.688,3.527-8.938c2.131-2.033,4.674-3.051,7.628-3.051c1.381,0,2.686,0.247,3.913,0.741
			c1.227,0.494,2.458,1.308,3.692,2.438L638.665,273.264L638.665,273.264z M632.426,278.141c-1.896,0-3.461,0.62-4.696,1.858
			c-1.234,1.239-1.852,2.797-1.852,4.673c0,1.948,0.632,3.545,1.896,4.791s2.851,1.869,4.762,1.869c1.866,0,3.406-0.608,4.619-1.826
			c1.212-1.217,1.819-2.814,1.819-4.791c0-1.947-0.61-3.53-1.83-4.748C635.923,278.75,634.351,278.141,632.426,278.141z"/>
		<path fill="#FFFFFF" d="M658.737,290.516c0.955,0,1.771,0.326,2.447,0.978s1.014,1.443,1.014,2.374
			c0,0.932-0.338,1.727-1.014,2.385c-0.676,0.658-1.492,0.988-2.447,0.988c-0.956,0-1.771-0.33-2.447-0.988
			c-0.676-0.658-1.014-1.453-1.014-2.385c0-0.931,0.338-1.722,1.014-2.374C656.966,290.842,657.782,290.516,658.737,290.516z"/>
		<path fill="#FFFFFF" d="M696.27,277.99l-5.01,2.686c-0.942-0.959-1.873-1.625-2.792-1.998c-0.92-0.372-1.998-0.559-3.233-0.559
			c-2.251,0-4.073,0.654-5.463,1.963c-1.391,1.309-2.086,2.985-2.086,5.03c0,1.987,0.669,3.611,2.009,4.869
			c1.339,1.259,3.097,1.888,5.275,1.888c2.693,0,4.79-0.895,6.291-2.686l4.746,3.167c-2.572,3.26-6.203,4.89-10.891,4.89
			c-4.219,0-7.521-1.217-9.91-3.652s-3.583-5.285-3.583-8.551c0-2.263,0.58-4.347,1.742-6.252c1.161-1.904,2.781-3.401,4.861-4.49
			c2.08-1.088,4.406-1.633,6.978-1.633c2.381,0,4.52,0.462,6.416,1.386S695.064,276.286,696.27,277.99z"/>
		<path fill="#FFFFFF" d="M717.665,272.662c2.263,0,4.391,0.552,6.382,1.654c1.992,1.104,3.546,2.6,4.663,4.49
			c1.117,1.891,1.675,3.932,1.675,6.123c0,2.206-0.562,4.269-1.687,6.188c-1.125,1.92-2.656,3.42-4.597,4.501
			c-1.94,1.081-4.078,1.622-6.415,1.622c-3.439,0-6.375-1.192-8.808-3.577s-3.648-5.281-3.648-8.69c0-3.652,1.374-6.695,4.123-9.131
			C711.764,273.723,714.535,272.662,717.665,272.662z M717.765,278.184c-1.87,0-3.427,0.634-4.671,1.901s-1.866,2.89-1.866,4.866
			c0,2.034,0.614,3.682,1.844,4.941c1.229,1.261,2.786,1.891,4.67,1.891s3.453-0.637,4.704-1.912
			c1.251-1.274,1.877-2.914,1.877-4.92c0-2.005-0.615-3.634-1.844-4.888C721.25,278.811,719.678,278.184,717.765,278.184z"/>
	</g>
</g>
</svg>
