<?xml version="1.0" encoding="utf-8"?>
<!-- Generator: Adobe Illustrator 21.0.2, SVG Export Plug-In . SVG Version: 6.00 Build 0)  -->
<svg version="1.1" id="Capa_1" xmlns="http://www.w3.org/2000/svg" xmlns:xlink="http://www.w3.org/1999/xlink" x="0px" y="0px"
	 viewBox="0 0 4865 1040" enable-background="new 0 0 4865 1040" xml:space="preserve">
<path fill="#FFFFFF" d="M4751.313,585.667c-1213.874,0-2426.627,0-3639.642,0c0,5.774,0,10.853,0,16.175
	c1213.642,0,2426.389,0,3639.642,0C4751.313,596.287,4751.313,591.396,4751.313,585.667z"/>
<path fill="#FFFFFF" d="M3703.091,478.458c1.75-5.273-0.507-6.721-4.459-7.517c-8.894-1.791-12.528-8.129-13.226-16.531
	c-0.441-5.309-0.729-10.647-0.742-15.972c-0.07-29.333,0.217-58.67-0.205-87.997c-0.11-7.641,2.024-13.611,7.247-18.811
	c2.595-2.584,5.009-5.365,7.732-7.803c7.14-6.391,15.489-9.93,24.801-6.363c9.331,3.574,11.77,12.031,11.884,21.25
	c0.375,30.321,0.777,60.642,1.005,90.964c0.058,7.653-0.509,15.309-0.765,22.965c-0.327,9.789-4.51,16.596-14.607,18.681
	c-4.721,0.975-4.455,3.679-3.357,7.211c31.197,0,61.811,0,92.325,0c2.203-5.206-0.244-6.67-4.675-7.53
	c-8.139-1.579-12.744-6.762-13.65-15.072c-0.361-3.307-0.894-6.623-0.901-9.935c-0.074-32.999-0.1-65.999,0.021-98.998
	c0.01-2.858,0.385-6.26,1.931-8.471c5.569-7.961,12.157-15.085,21.096-19.43c14.139-6.874,25.345-1.281,28.263,14.014
	c0.435,2.28,0.705,4.631,0.711,6.949c0.088,36.33,0.186,72.659,0.126,108.989c-0.018,10.977-3.798,19.643-15.79,22.251
	c-4.097,0.891-4.314,3.483-3.192,7.096c30.8,0,61.676,0,92.381,0c2.169-5.549-0.818-6.758-4.977-7.649
	c-8.33-1.786-12.274-7.427-12.707-15.703c-0.313-5.989-0.679-11.984-0.698-17.977c-0.079-24.666,0.333-49.34-0.187-73.996
	c-0.266-12.606-1.049-25.393-3.502-37.719c-4.056-20.377-20.538-33.007-41.242-34.364c-21.548-1.412-38.843,7.229-54.041,21.438
	c-3.613,3.378-7.078,6.914-11.02,10.779c-2.203-3.945-3.853-7.172-5.748-10.247c-8.297-13.461-20.502-20.488-36.153-21.847
	c-18.61-1.616-34.853,3.807-48.801,16.199c-3.873,3.44-7.771,6.851-12.809,11.291c-0.408-8.151-0.733-14.639-1.072-21.41
	c-25,0-49.166,0-73.079,0c-2.055,5.493,1.389,6.61,4.748,7.224c9.646,1.763,12.885,8.432,13.657,17.147
	c0.147,1.659,0.294,3.326,0.295,4.99c0.013,40.998-0.01,81.995,0.012,122.993c0.006,11.096-3.26,19.693-15.72,21.831
	c-4,0.687-4.454,3.331-2.93,7.081C3641.557,478.458,3672.146,478.458,3703.091,478.458z"/>
<path fill="#FFFFFF" d="M3368.553,419.462c-8.898,8.497-15.663,15.365-22.86,21.745c-15.888,14.084-34.296,22.879-55.586,24.927
	c-42.748,4.112-72.24-13.054-86.619-51.664c-0.813-2.183-1.539-4.4-2.246-6.621c-6.946-21.815-9.451-44.329-9.234-67.049
	c0.218-22.805,4.003-45.106,13.462-66.135c15.643-34.777,51.505-54.45,88.926-48.012c31.549,5.428,52.428,24.528,64.92,53.392
	c2.108,4.871,3.56,10.034,5.175,15.107c1.323,4.154,3.829,5.08,8.06,3.003c0-29.643,0-59.479,0-89.104
	c-6.526-3.333-6.946,1.55-8.365,5.146c-4.585,11.616-10.754,14.802-22.604,11.215c-6.999-2.118-13.84-4.772-20.712-7.294
	c-25.181-9.24-51.075-12.963-77.607-8.34c-89.607,15.615-131.001,97.911-119.65,162.598c7.538,42.957,28.924,76.183,68.533,96.255
	c27.845,14.11,57.685,17.917,88.436,15.757c32.256-2.266,59.701-15.313,82.471-38.169c2.246-2.254,4.809-5.138,5.258-8.034
	C3369.153,432.759,3368.553,427.108,3368.553,419.462z"/>
<path fill="#FFFFFF" d="M1469.728,478.411c1.603-5.549-0.985-6.76-4.823-7.429c-8.929-1.556-12.89-7.51-13.442-16.11
	c-0.298-4.65-0.497-9.316-0.506-13.975c-0.05-23.651,0.161-47.305-0.1-70.953c-0.132-11.977-0.658-23.982-1.726-35.91
	c-2.15-24.002-20.373-44.297-48.257-43.18c-17.408,0.697-31.179,8.394-43.605,19.602c-2.61,2.354-5.159,4.775-9.103,8.433
	c-0.412-8.405-0.727-14.835-1.063-21.677c-24.725,0-48.815,0-72.677,0c-2.083,6.282,2.193,6.617,5.687,7.511
	c7.335,1.878,11.406,6.441,11.906,14.084c0.435,6.637,1.289,13.27,1.317,19.907c0.138,32.645,0.094,65.291,0.031,97.937
	c-0.01,5.321-0.484,10.639-0.666,15.962c-0.335,9.783-4.422,16.641-14.629,18.522c-4.595,0.847-5.019,3.394-3.626,7.161
	c30.272,0,60.418,0,90.617,0c-0.592-5.72-0.507-5.971-4.601-7.357c-7.105-2.405-11.05-7.075-11.607-14.585
	c-0.393-5.303-1.175-10.601-1.196-15.903c-0.118-29.647-0.062-59.295-0.055-88.943c0.004-14.491,11.035-29.291,24.935-33.491
	c10.284-3.107,18.636,1.292,21.72,11.685c0.841,2.835,1.346,5.882,1.355,8.834c0.117,37.305,0.141,74.611,0.126,111.916
	c-0.004,9.845-3.305,17.718-13.699,20.659c-3.938,1.114-4.37,3.51-3.158,7.3C1408.956,478.411,1439.156,478.411,1469.728,478.411z"
	/>
<path fill="#FFFFFF" d="M1717.73,297.036c1.251,6.018,1.16,6.401,5.536,7.443c8.351,1.989,12.397,7.126,12.823,15.523
	c0.27,5.314,1.011,10.617,1.037,15.927c0.116,23.985-0.223,47.976,0.164,71.956c0.209,12.952,0.715,26.008,2.579,38.799
	c2.698,18.525,17.81,33.322,36.277,36.646c19.797,3.563,36.733-2.883,51.485-15.936c3.628-3.21,7.094-6.603,11.895-11.089
	c0.398,8.39,0.718,15.124,1.044,21.99c25.01,0,49.166,0,73.143,0c1.619-4.884-0.318-6.598-4.451-7.288
	c-9.453-1.578-13.291-8.012-13.782-16.94c-0.31-5.651-0.517-11.316-0.523-16.975c-0.042-42.975-0.023-85.949-0.023-128.924
	c0-3.55,0-7.099,0-10.959c-25.518,0-49.66,0-73.908,0c0.932,5.717,0.838,6.085,6.103,7.443c7.96,2.053,11.578,7.302,12.299,15.012
	c0.372,3.975,0.595,7.979,0.602,11.971c0.05,31.648,0.048,63.296,0.002,94.944c-0.004,2.635,0.424,5.833-0.847,7.806
	c-5.6,8.698-11.699,17.242-21.561,21.592c-12.019,5.301-22.473-0.103-24.635-12.993c-1.257-7.5-1.462-15.238-1.491-22.872
	c-0.141-37.311-0.064-74.623-0.064-111.934c0-3.546,0-7.093,0-11.142C1766.253,297.036,1742.4,297.036,1717.73,297.036z"/>
<path fill="#FFFFFF" d="M1249.122,478.527c1.44-4.979-0.222-6.664-4.087-6.803c-3.993-0.143-8.029-0.104-11.961-0.705
	c-12.172-1.86-18.914-9.197-19.703-21.371c-0.366-5.646-0.412-11.32-0.417-16.982c-0.034-37.983-0.042-75.966-0.009-113.949
	c0.021-23.988-0.13-47.981,0.285-71.963c0.296-17.142,8.136-24.78,25.177-25.681c3.55-0.188,7.118-0.027,13.214-0.027
	c-2.514-3.537-3.287-5.792-4.739-6.385c-2.035-0.831-4.575-0.529-6.899-0.53c-39.316-0.023-78.632-0.024-117.948-0.005
	c-2.324,0.001-4.845-0.3-6.906,0.495c-1.506,0.581-2.406,2.732-4.418,5.226c8.364,1.025,14.995,1.289,21.352,2.746
	c9.664,2.215,15.854,8.151,16.502,18.647c0.308,4.982,0.793,9.968,0.798,14.952c0.056,59.973,0.062,119.947-0.006,179.92
	c-0.006,5.312-0.259,10.677-1.035,15.923c-1.749,11.809-7.673,17.47-19.632,19.055c-3.948,0.523-7.974,0.494-11.966,0.648
	c-4.794,0.184-5.153,2.772-4.029,6.791C1158.363,478.527,1203.603,478.527,1249.122,478.527z"/>
<path fill="#FFFFFF" d="M2930.982,415.008c-2.22-2.69-3.038-3.334-3.404-4.175c-11.44-26.236-22.885-52.47-34.184-78.767
	c-1.698-3.951-3.069-8.132-3.915-12.342c-1.688-8.398,0.846-12.438,8.89-15.188c1.572-0.537,3.603-0.432,4.721-1.418
	c1.345-1.186,1.94-3.223,3.499-6.049c-33.266,0-64.774,0-96.107,0c-1.973,4.385-0.372,6.486,3.329,8.137
	c7.971,3.555,13.28,9.958,17.002,17.614c5.382,11.07,10.696,22.184,15.64,33.454c17.917,40.841,35.712,81.735,53.393,122.679
	c1.365,3.162,2.991,7.435,1.933,10.216c-5.667,14.896-11.933,29.578-18.502,44.104c-1.567,3.465-4.693,6.554-7.781,8.936
	c-6.467,4.989-11.282,2.754-12.361-5.296c-0.617-4.611-0.715-9.34-1.805-13.831c-2.642-10.88-12.354-17.074-23.434-15.41
	c-10.549,1.584-18.689,9.82-20.295,20.534c-2.786,18.584,10.183,34.666,29.501,36.633c19.172,1.952,34.145-5.162,43.677-21.794
	c6.266-10.935,11.712-22.458,16.365-34.178c16.33-41.134,32.077-82.498,48.211-123.711c8.369-21.376,16.995-42.653,25.69-63.899
	c3.237-7.909,7.888-14.653,16.886-17.103c3.54-0.964,4.76-3.305,2.558-7.003c-19.42,0-38.926,0-58.194,0
	c-2.28,6.69,2.653,6.075,5.879,6.919c12.177,3.185,15.789,8.493,14.027,20.958c-0.372,2.63-0.663,5.344-1.55,7.819
	C2951.01,359.745,2941.26,386.601,2930.982,415.008z"/>
<path fill="#FFFFFF" d="M3337.037,663.843c-10.906-2.089-21.383-1.85-29.684,0.882c0,37.667,0,75.696,0,113.725
	c-0.658,0.162-1.315,0.325-1.973,0.487c-21.088-38.724-42.176-77.448-63.096-115.865c-10.831,0-20.731,0-31.266,0
	c0,60.026,0,119.5,0,179.458c9.804,0,19.021,0,29.611,0c0-3.835,0-7.403,0-10.97c0-30.326-0.016-60.652,0.023-90.978
	c0.004-3.388,0.322-6.775,0.495-10.162c0.71-0.091,1.421-0.181,2.132-0.272c2.368,4.275,4.752,8.541,7.103,12.825
	c16.981,30.953,33.908,61.935,51.015,92.818c1.494,2.697,4.012,6.606,6.294,6.778c9.782,0.738,19.654,0.287,29.348,0.27
	C3337.037,782.137,3337.037,722.934,3337.037,663.843z"/>
<path fill="#FFFFFF" d="M2619.907,842.718c0-60.344,0-119.782,0-179.613c-9.915,0-19.104,0-29.169,0
	c-1.043,38.515,0.335,76.529-1.673,114.655c-2.451-2.228-4.071-4.576-5.435-7.063c-5.605-10.216-11.129-20.477-16.69-30.717
	c-12.711-23.406-25.391-46.829-38.18-70.192c-1.669-3.05-2.561-7.179-7.33-7.18c-8.9-0.002-17.8-0.001-27.272-0.001
	c0,60.522,0,119.938,0,179.859c9.699,0,18.834,0,29.083,0c0-37.912,0-75.296,0-112.68c0.756-0.212,1.511-0.425,2.267-0.637
	c20.874,37.974,41.748,75.947,62.428,113.569C2598.907,842.718,2608.864,842.718,2619.907,842.718z"/>
<path fill="#FFFFFF" d="M4078.89,842.989c2.071-23.297,1.167-172.675-1.1-180.405c-8.965,0.507-18.172-1.328-27.893,1.349
	c0,19.356,0,38.292,0,57.229c0,19.104,0,38.207,0,57.311c-0.746,0.177-1.492,0.353-2.238,0.53
	c-2.344-4.235-4.716-8.455-7.029-12.708c-17.492-32.166-34.927-64.363-52.539-96.462c-1.479-2.695-3.956-6.558-6.269-6.781
	c-9.424-0.911-18.991-1.068-28.357,0.037c0,60.496,0,119.649,0,179.334c10.023,0.727,19.416,1.332,29.468-0.443
	c0-12.865,0-25.142,0-37.419c0-12.656-0.157-25.314,0.044-37.966c0.191-12.04-0.895-24.15,1.016-38.539
	c2.998,5.137,4.854,8.155,6.557,11.258c16.654,30.348,33.28,60.71,49.919,91.066c1.6,2.919,2.886,6.106,4.969,8.631
	c1.48,1.794,4.008,3.699,6.152,3.801C4060.492,843.233,4069.424,842.989,4078.89,842.989z"/>
<path fill="#FFFFFF" d="M4439.843,432.548c-5.664,4.786-10.244,9.185-15.342,12.868c-17.167,12.401-39.118,10.664-53.479-4.885
	c-5.549-6.008-9.976-13.321-13.751-20.64c-6.465-12.532-9.856-26.236-11.303-40.181c-1.824-17.591-2.667-35.394,3.294-52.435
	c2.245-6.416,5.685-13.011,10.318-17.866c8.668-9.084,21.305-5.79,25.458,6.034c1.522,4.335,1.608,9.152,2.703,13.664
	c1.558,6.427,2.594,13.174,5.371,19.069c5.007,10.629,17.832,15.349,29.954,12.143c10.438-2.76,16.536-11.285,16.724-23.204
	c0.125-7.946-2.175-15.103-6.758-21.537c-6.766-9.499-15.556-16.568-26.611-20.233c-28.969-9.604-68.59-6-92.916,27.586
	c-14.187,19.587-20.931,41.541-21.339,65.418c-0.429,25.01,5.788,48.175,21.657,68.093c17.513,21.98,40.616,30.52,68.102,27.093
	c28.333-3.533,48.09-19.633,61.755-44.007c0.466-0.831,0.649-1.822,1.088-3.101C4443.231,435.217,4441.733,434.037,4439.843,432.548
	z"/>
<path fill="#FFFFFF" d="M1945.759,420.316c2.53,20.461,1.112,41.662,4.06,64.12c3.274-1.663,5.945-2.125,6.9-3.656
	c4.751-7.615,10.814-7.081,18.221-4.495c8.443,2.947,17.134,5.53,25.928,7.063c25.467,4.438,49.543-7.741,60.892-30.136
	c12.517-24.699,9.11-50.212-10.145-68.754c-8.347-8.038-17.904-14.856-27.158-21.905c-9-6.855-18.385-13.203-27.454-19.97
	c-3.183-2.375-6.23-5.075-8.823-8.073c-8.611-9.954-5.576-22.884,6.818-27.484c4.117-1.528,9.219-1.736,13.595-0.972
	c11.283,1.971,20.514,8.18,27.101,17.355c5.593,7.791,10.103,16.384,14.781,24.795c1.961,3.527,3.61,6.435,8.82,3.378
	c-0.972-19.799-1.958-39.869-2.912-59.307c-5.439-2.229-7.291,0.559-9.599,3.101c-5.977,6.582-8.329,6.939-16.604,3.342
	c-3.354-1.457-6.577-3.348-10.057-4.359c-22.495-6.535-43.898-5.45-61.036,12.468c-21.742,22.732-20.865,56.927,1.611,79.058
	c7.082,6.973,15.158,12.988,23.085,19.04c9.521,7.269,19.486,13.958,29.018,21.214c3.665,2.79,7.227,6.058,9.854,9.799
	c5.102,7.266,6.539,15.368,1.889,23.488c-4.418,7.714-11.622,11.251-20.2,9.995c-6.098-0.893-12.344-2.842-17.789-5.714
	c-12.458-6.571-21.093-17.105-27.336-29.608c-1.93-3.866-3.679-7.831-5.318-11.83
	C1952.439,418.706,1950.212,417.88,1945.759,420.316z"/>
<path fill="#FFFFFF" d="M1883.581,763.032c26.699,0,52.788,0,79.123,0c0-10.492,0-19.648,0-30.009c-26.639,0-52.746,0-78.984,0
	c0-13.966,0-26.709,0-40.144c14.718,0,28.655,0.026,42.593-0.007c14.156-0.034,28.311-0.128,42.324-0.194
	c0-10.652,0-19.838,0-29.575c-39.424,0-78.216,0-117.637,0c0,60.021,0,119.46,0,179.346c40.367,0,80.149,0,120.302,0
	c0-9.938,0-19.31,0-29.717c-29.651,0-58.47,0-87.721,0C1883.581,795.914,1883.581,780.135,1883.581,763.032z"/>
<path fill="#FFFFFF" d="M1113.454,784.541c0.829,30.973,17.947,53.492,44.424,59.655c14.51,3.378,29.154,3.189,43.609-0.338
	c24.681-6.022,39.53-23.601,41.064-50.168c1.517-26.258-9.289-45.548-33.106-54.696c-9.919-3.81-20.272-6.475-30.334-9.932
	c-7.219-2.481-14.463-5.028-21.361-8.261c-5.851-2.742-8.91-7.859-8.58-14.59c0.314-6.405,4.135-10.411,9.481-13.058
	c7.365-3.648,15.241-4.569,23.366-3.579c11.404,1.389,19.113,7.167,22.187,18.544c0.591,2.187,1.423,4.308,2.39,7.193
	c10.342-0.488,20.427-0.964,30.343-1.432c1.278-23.739-11.932-43.562-33.116-50.565c-14.858-4.912-30.07-5.322-45.401-2.186
	c-22.454,4.593-36.638,19.836-39.875,42.961c-2.87,20.5,7.562,40.962,26.742,50.467c8.586,4.255,17.946,6.995,27.054,10.135
	c7.859,2.709,15.968,4.714,23.767,7.573c7.549,2.767,13.434,7.384,14.103,16.36c0.714,9.594-3.257,16.906-11.066,22.042
	c-18.731,12.318-44.412,3.803-52.114-17.159c-1.456-3.964-2.667-8.018-4.127-12.445
	C1132.866,782.248,1123.393,783.367,1113.454,784.541z"/>
<path fill="#FFFFFF" d="M2207.072,441.166c-3.787,4.193-7.24,8.703-11.394,12.43c-4.535,4.069-9.895,7.163-16.366,4.487
	c-6.197-2.562-8.809-7.859-9.537-14.173c-0.381-3.299-0.477-6.646-0.48-9.972c-0.033-36.298-0.037-72.597,0.003-108.895
	c0.003-2.897,0.39-5.793,0.693-10.016c14.274,0,28.021,0,41.794,0c0-6.834,0-12.266,0-18.768c-14.346,0-27.878,0-42.482,0
	c0-22.837,0-44.625,0-65.953c-6.669-2.554-7.934,1.983-9.867,5.301c-15.653,26.865-36.288,49.213-61.209,67.691
	c-1.337,0.991-2.667,1.991-4.005,2.983c-3.12,2.314-3.901,5.032-1.138,9.162c6.566,0,13.454,0,21.128,0
	c0.244,4.026,0.589,7.262,0.609,10.5c0.07,11.322-0.033,22.645,0.041,33.967c0.176,26.969,0.445,53.937,0.614,80.905
	c0.072,11.417,5.084,20.435,13.154,28.086c12.79,12.126,28.272,14.361,44.664,11.222c18.18-3.481,29.542-15.674,37.306-31.757
	C2212.467,444.494,2211.57,442.01,2207.072,441.166z"/>
<path fill="#FFFFFF" d="M4195.775,296.682c-25.699-0.106-49.751-0.596-73.357,0.281c-1.932,5.234,0.584,6.627,3.878,7.141
	c11.105,1.733,14.383,9.497,15.038,19.294c0.2,2.987,0.219,5.989,0.22,8.985c0.014,35.294,0.05,70.588-0.037,105.881
	c-0.013,5.308-0.615,10.616-0.968,15.923c-0.628,9.444-4.922,15.721-14.845,17.108c-4.827,0.675-4.536,3.592-3.578,6.987
	c32.641,0,64.774,0,96.716,0c1.583-5.073-0.703-6.257-4.725-6.992c-14.44-2.64-18.143-6.69-18.366-21.182
	c-0.323-20.97-0.876-41.986,0.168-62.907c0.607-12.149,3.672-24.266,6.538-36.18c1.806-7.508,6.288-13.957,12.677-18.682
	c6.342-4.69,11.156-4.68,17.193-0.073c3.173,2.421,6.017,5.327,9.359,7.464c15.696,10.037,33.442,1.724,35.635-16.729
	c0.506-4.256,0.485-8.689-0.083-12.935c-1.498-11.207-9.631-18.367-20.943-19.044c-13.171-0.788-24.284,4.459-33.472,13.074
	c-7.225,6.776-13.149,14.946-19.58,22.557c-2.032,2.405-3.836,5.004-5.744,7.514c-0.575-0.177-1.149-0.353-1.724-0.53
	C4195.775,321.863,4195.775,310.091,4195.775,296.682z"/>
<path fill="#FFFFFF" d="M2232.277,478.329c32.542,0,64.69,0,96.895,0c-0.682-6.101-0.682-6.101-4.832-6.947
	c-14.565-2.972-18.081-6.564-18.363-21.243c-0.396-20.63-0.479-41.28-0.051-61.908c0.269-12.988,1.842-26.05,7.18-38.029
	c2.766-6.207,6.803-12.255,11.594-17.049c6.184-6.187,11.758-5.662,18.593-0.296c2.878,2.26,5.509,4.886,8.569,6.853
	c15.724,10.108,33.422,1.842,35.613-16.653c0.466-3.934,0.484-8.004,0.073-11.945c-1.271-12.194-9.628-19.698-21.974-20.114
	c-13.942-0.469-25.339,5.613-34.711,15.044c-7.226,7.271-13.123,15.857-19.693,23.79c-1.261,1.523-2.906,2.727-5.948,5.526
	c0-14.077,0-25.934,0-38.089c-24.942,0-49.002,0-72.78,0c-2.017,5.721,1.649,6.446,4.939,7.039
	c9.545,1.72,13.104,8.278,13.934,16.985c0.378,3.968,0.395,7.98,0.398,11.972c0.03,34.623,0.056,69.245-0.019,103.868
	c-0.012,5.647-0.408,11.302-0.84,16.937c-0.712,9.3-4.829,15.851-14.799,17.183C2232.046,471.79,2231.13,474.011,2232.277,478.329z"
	/>
<path fill="#FFFFFF" d="M2972.266,663.037c-2.011,17.717-1.25,172.363,0.69,179.196c39.84,0,79.623,0,119.51,0
	c0-9.95,0-19.111,0-29.399c-29.76,0-58.906,0-88.536,0c0-16.912,0-32.681,0-49.774c26.726,0,52.827,0,79.127,0
	c0-10.503,0-19.676,0-30.076c-26.625,0-52.739,0-78.96,0c0-13.992,0-26.737,0-40.287c28.682,0,56.549,0,84.86,0
	c0-10.273,0-19.708,0-29.659C3049.807,663.037,3011.302,663.037,2972.266,663.037z"/>
<path fill="#FFFFFF" d="M3714.069,663.118c0,60.215,0,119.633,0,179.266c40.46,0,80.247,0,120.556,0
	c0.714-10.063,0.713-19.465,0.107-29.251c-30.424-0.532-59.58,0.315-89.245-0.506c0.095-17.251-0.479-33.035,0.406-49.741
	c27.263,0,53.107,0,79.321,0c0.859-10.423,0.984-19.819-0.03-30.078c-26.935,0-52.782,0-78.994,0c0-13.671,0-26.413,0-40.315
	c28.861,0,56.986,0,85.016,0c0-10.386,0-19.59,0-29.375C3792.075,663.118,3753.556,663.118,3714.069,663.118z"/>
<path fill="#FFFFFF" d="M1359.982,663.115c-0.175,3.367-0.397,5.652-0.398,7.938c-0.02,29.641-0.221,59.284,0.093,88.921
	c0.137,12.961,0.776,25.974,2.191,38.853c2.676,24.362,19.812,42.764,43.222,45.694c11.446,1.433,23.3,1.586,34.774,0.411
	c25.594-2.622,42.385-19.894,45.367-45.44c1.079-9.244,1.854-18.578,1.919-27.878c0.234-33.636,0.126-67.274,0.08-100.911
	c-0.004-2.515-0.536-5.029-0.88-8.04c-10.595,0.134-20.432-1.045-30.951,0.954c0,4.106,0,7.714,0,11.323
	c0,28.309,0.141,56.618-0.073,84.925c-0.08,10.639-0.872,21.279-1.552,31.905c-0.422,6.6-3.236,12.345-8.256,16.563
	c-9.898,8.319-21.405,8.361-33.057,5.012c-10.995-3.161-17.366-11.164-19.089-22.164c-1.332-8.507-1.643-17.234-1.698-25.868
	c-0.191-30.306-0.074-60.613-0.074-90.92c0-3.57,0-7.141,0-11.279C1380.632,663.115,1370.806,663.115,1359.982,663.115z"/>
<path fill="#FFFFFF" d="M4337.033,712.012c-5.782-25.402-19.3-42.979-44.151-50.17c-14.051-4.066-28.343-3.705-42.335,0.855
	c-25.005,8.149-39.444,26.412-46.72,50.679c-7.417,24.738-7.757,49.958-1.567,75.01c8.169,33.065,31.536,54.3,62.44,57.585
	c36.728,3.904,67.897-20.989,72.104-58.277c-9.718-3.467-19.598-6.991-29.178-10.408c-3.156,7.642-5.275,14.748-8.839,21.034
	c-10.854,19.141-35.047,22.679-51.267,7.884c-6.347-5.79-10.178-13.089-12.3-21.317c-4.38-16.993-5.284-34.27-2.431-51.501
	c1.393-8.408,3.553-17.139,7.521-24.573c7.225-13.535,19.5-19.605,34.992-18.123c14.144,1.353,22.789,9.809,28.026,22.418
	c0.989,2.381,2.018,4.746,3.123,7.34C4316.916,717.56,4326.775,714.841,4337.033,712.012z"/>
<path fill="#FFFFFF" d="M2403.831,478.193c32.63,0,64.71,0,96.613,0c1.637-6.233-2.193-6.554-6.015-7.104
	c-8.82-1.269-13.539-6.67-14.449-15.301c-0.591-5.61-0.831-11.281-0.84-16.925c-0.067-43.591-0.039-87.183-0.04-130.774
	c0-3.537,0-7.075,0-10.378c-13.801-2.17-68.599-1.575-75.463,0.582c1.198,4.585,1.198,4.585,3.7,5.462
	c14.554,5.101,16.214,6.645,16.62,21.906c0.557,20.949,0.394,41.919,0.392,62.88c-0.002,20.628,0.131,41.264-0.405,61.881
	c-0.372,14.331-2.495,16.616-16.498,20.881C2403.727,472.438,2402.44,474.089,2403.831,478.193z"/>
<path fill="#FFFFFF" d="M4464.095,478.452c32.075,0,64.26,0,96.323,0c1.612-4.479,0.128-6.21-4.126-7.236
	c-12.658-3.055-15.25-6.112-16.568-18.778c-0.481-4.62-0.433-9.306-0.437-13.963c-0.029-43.603-0.006-87.205-0.038-130.808
	c-0.002-3.497-0.293-6.994-0.453-10.54c-25.778,0-50.292,0-74.533,0c-2.265,5.504,1.171,6.415,4.614,6.951
	c10.324,1.608,14.697,8.087,15.145,17.966c0.242,5.315,0.773,10.626,0.788,15.94c0.081,28.957,0.084,57.915,0.017,86.872
	c-0.02,8.646-0.499,17.291-0.51,25.937c-0.015,11.62-4.805,19.101-16.97,20.677C4463.152,472.015,4462.866,474.69,4464.095,478.452z
	"/>
<path fill="#FFFFFF" d="M2812.886,843.013c0.136-50.685-0.048-100.059,0.109-150.321c16.311,0,31.155,0,46.387,0
	c0-10.331,0-19.736,0-29.543c-42.19,0-83.611,0-125.524,0c0,10.046,0,19.458,0,29.984c15.769,0,30.886,0,46.99,0
	c0,25.677-0.054,50.247,0.015,74.818c0.07,24.79-0.306,49.594,0.253,75.062c4.404,0,7.352,0,10.3,0
	C2798.053,843.013,2804.689,843.013,2812.886,843.013z"/>
<path fill="#FFFFFF" d="M4455.582,662.522c-2.321,15.432-1.603,173.034,0.747,180.471c8.12,0,16.429,0.031,24.739-0.028
	c1.592-0.011,3.183-0.379,5.2-0.636c0-59.852,0-119.304,0-179.304c-3.579-0.19-6.521-0.453-9.465-0.482
	C4469.849,662.477,4462.895,662.522,4455.582,662.522z"/>
<path fill="#FFFFFF" d="M2371.207,842.421c1.89-14.388,1.264-171.598-0.695-179.26c-9.698,0-19.492,0-29.863,0
	c0,59.983,0,119.324,0,179.26C2350.933,842.421,2360.737,842.421,2371.207,842.421z"/>
<path fill="#FFFFFF" d="M4542.056,238.127c0.132-17.049-13.213-30.504-30.163-30.411c-16.362,0.09-29.694,13.362-29.954,29.818
	c-0.265,16.799,13.319,30.356,30.324,30.262C4528.973,267.704,4541.927,254.804,4542.056,238.127z"/>
<path fill="#FFFFFF" d="M2481.772,237.841c-0.042-17.113-13.448-30.394-30.407-30.123c-16.406,0.261-29.538,13.621-29.585,30.098
	c-0.049,16.985,13.454,30.246,30.528,29.982C2469.052,267.539,2481.813,254.565,2481.772,237.841z"/>
<path fill="#FFFFFF" d="M883.668,218.637c-3.942-4.861-7.614-9.973-11.871-14.541c-22.477-24.118-47.616-45.441-72.054-67.462
	c-10.563-9.519-22.952-17.006-34.436-25.517c-1.402-1.039-2.336-2.708-2.603-5.399c1.677,0.507,3.445,0.818,5.018,1.55
	c26.532,12.348,49.608,29.988,71.615,48.802c18.958,16.208,36.942,33.653,54.366,51.517c10.177,10.435,18.536,22.669,27.471,34.28
	c5.226,6.791,7.106,14.415,2.79,22.417c-3.012,5.584-7.759,9.193-14.334,9.46c-4.316,0.175-8.706,0.218-12.974-0.346
	c-40.982-5.413-80.079,1.895-118.313,16.529c-23.267,8.905-44.805,20.66-63.685,36.823c-46.567,39.866-77.707,88.964-88.434,150.05
	c-11.372,64.763,1.856,124.629,37.223,179.442c20.937,32.45,46.721,60.676,80.558,80.539c1.7,0.998,3.258,2.265,4.763,3.548
	c0.398,0.339,0.348,1.202,0.553,2.019c-2.198,3.112-5.002,2.458-7.806,0.962c-14.925-7.965-30.808-14.315-43.72-25.685
	c-3.032-2.67-5.845-5.59-8.759-8.396c-0.575,0.429-1.149,0.858-1.724,1.288c0.502,1.319,0.628,3.061,1.563,3.893
	c14.669,13.047,28.85,26.82,46.412,36.056c35.013,18.414,71.494,32.63,111.503,34.77c17.205,0.92,34.507-0.101,51.761,0.093
	c8.184,0.092,13.286-3.048,14.866-11.308c0.175-0.913,0.935-1.714,1.57-2.822c5.119-0.205,6.778,3.755,8.109,7.311
	c2.708,7.236,2.579,14.679-2.223,20.961c-14.131,18.485-27.815,37.202-44.835,53.472c-21.972,21.004-44.648,40.976-69.286,58.751
	c-18.411,13.284-37.567,25.241-58.527,34.171c-17.754,7.564-35.158,16.024-53.175,22.884
	c-30.895,11.763-62.972,19.135-95.796,23.247c-20.808,2.607-41.576,5.291-62.628,2.856c-6.241-0.722-11.608-2.288-15.061-8.726
	c6.883-6.245,15.216-6.491,24.944-7.711c-4.429-0.72-7.292-1.186-11.118-1.808c0-179.592,0-359.047,0-539.285
	c-5.707,0.949-7.272,5.154-9.39,8.032c-4.78,6.495-10.468,8.773-18.683,8.74c-79.651-0.321-159.304-0.193-238.957-0.192
	c-1.666,0-3.336,0.081-4.998,0.005c-4.922-0.223-7.532,1.93-7.488,7.014c0.028,3.332-0.059,6.665-0.059,9.997
	c-0.005,127.311-0.003,254.621-0.015,381.932c0,3.997,0.183,8.032-0.277,11.984c-0.962,8.251-5.161,14.135-13.152,17.288
	c-7.732,3.051-13.572-0.096-19.022-5.059c-28.895-26.31-56.273-54.127-77.412-87.15c-13.432-20.983-24.764-43.311-36.956-65.081
	c-0.715-1.276-0.703-2.959-1.085-4.704c5.209-0.705,6.078,2.924,7.727,5.639c8.282,13.638,16.045,27.633,25.054,40.774
	c7.681,11.205,16.657,21.542,25.331,32.04c9.097,11.011,18.142,22.107,27.909,32.509c8.408,8.954,17.753,17.036,26.785,25.394
	c3.363,3.111,7.015,5.909,11.811,7.567c-3.958-4.217-7.603-8.79-11.925-12.594c-26.711-23.512-48.602-51.087-67.81-80.818
	c-33.985-52.605-56.761-109.744-67.775-171.456c-8.728-48.904-9.134-97.91-1.94-147.079c7.302-49.911,23.385-96.83,45.791-141.896
	c17.943-36.09,40.787-68.703,67.848-98.3c37.164-40.648,79.713-74.953,129.076-99.502c45.427-22.59,93.309-38.567,143.952-45.667
	c34.843-4.885,69.812-5.759,104.645-3.002c52.444,4.151,102.708,17.604,150.693,39.702c24.567,11.314,48.485,23.593,70.511,39.249
	c29.09,20.677,56.083,43.862,80.789,69.671c2.201,2.3,4.979,4.047,7.483,6.062c1.235,5.739,4.806,9.549,9.928,12.085
	c1.589,2.942,3.184,5.875,4.779,8.808c0.682-0.513,1.363-1.026,2.045-1.539c-2.348-2.344-4.697-4.688-7.045-7.033
	C890.262,226.709,886.965,222.673,883.668,218.637z M505.764,234.285c-0.729,0.399-1.458,0.799-2.187,1.198
	c-0.941-0.853-2.192-1.533-2.776-2.585c-10.061-18.129-25.901-30.204-43.03-40.797c-26.807-16.578-55.506-24.345-87.447-20.759
	c-30.49,3.423-56.799,15.781-78.101,36.696c-35.123,34.487-43.028,84.656-15.514,128.97c10.108,16.28,22.452,30.597,38.884,40.991
	c1.685,1.066,2.831,2.985,4.228,4.507c-0.475,0.616-0.951,1.231-1.426,1.847c-22.443-2.705-38.644-16.1-52.654-33.25
	c-0.207,1.276-0.141,1.958,0.19,2.466c0.907,1.392,1.875,2.751,2.909,4.052c11.941,15.016,26.195,27.026,43.22,36.232
	c32.372,17.505,66.39,22.56,102.306,15.716c19.145-3.648,36.818-11.053,53.468-21.258c38.231-23.432,57.442-58.002,60.336-102.127
	c1.245-18.979-3.636-36.833-10.605-54.417c-9.38-23.67-27.414-39.125-47.649-52.914
	C486.195,194.696,505.443,208.603,505.764,234.285z M242.807,279.291c-0.099-0.001-0.199-0.003-0.298-0.004c0,1.812,0,3.624,0,5.436
	c0.099,0.001,0.199,0.003,0.298,0.004C242.807,282.915,242.807,281.103,242.807,279.291z"/>
<path fill="#FFFFFF" d="M4751.313,585.667c0,5.729,0,10.62,0,16.175c-1213.253,0-2426,0-3639.642,0c0-5.322,0-10.401,0-16.175
	C2324.686,585.667,3537.44,585.667,4751.313,585.667z"/>
<path fill="#FFFFFF" d="M3703.091,478.458c-30.944,0-61.534,0-92.022,0c-1.524-3.75-1.07-6.395,2.93-7.081
	c12.46-2.138,15.726-10.735,15.72-21.831c-0.022-40.998,0-81.995-0.012-122.993c0-1.664-0.147-3.331-0.295-4.99
	c-0.772-8.715-4.01-15.384-13.657-17.147c-3.359-0.614-6.803-1.731-4.748-7.224c23.914,0,48.08,0,73.079,0
	c0.339,6.771,0.664,13.259,1.072,21.41c5.039-4.44,8.937-7.851,12.809-11.291c13.948-12.392,30.192-17.814,48.801-16.199
	c15.651,1.359,27.856,8.387,36.153,21.847c1.896,3.075,3.545,6.302,5.748,10.247c3.942-3.865,7.407-7.402,11.02-10.779
	c15.198-14.209,32.493-22.85,54.041-21.438c20.704,1.357,37.186,13.988,41.242,34.364c2.453,12.326,3.236,25.113,3.502,37.719
	c0.521,24.655,0.108,49.33,0.187,73.996c0.019,5.993,0.385,11.988,0.698,17.977c0.433,8.277,4.378,13.917,12.707,15.703
	c4.16,0.892,7.146,2.101,4.977,7.649c-30.705,0-61.581,0-92.381,0c-1.122-3.613-0.905-6.205,3.192-7.096
	c11.992-2.608,15.772-11.274,15.79-22.251c0.06-36.33-0.038-72.659-0.126-108.989c-0.006-2.319-0.276-4.669-0.711-6.949
	c-2.917-15.295-14.124-20.887-28.263-14.014c-8.938,4.345-15.527,11.469-21.096,19.43c-1.547,2.211-1.921,5.612-1.931,8.471
	c-0.121,32.999-0.094,65.999-0.021,98.998c0.007,3.313,0.54,6.629,0.901,9.935c0.906,8.309,5.511,13.493,13.65,15.072
	c4.431,0.86,6.878,2.324,4.675,7.53c-30.514,0-61.128,0-92.325,0c-1.098-3.533-1.364-6.237,3.357-7.211
	c10.097-2.085,14.28-8.892,14.607-18.681c0.256-7.656,0.823-15.312,0.765-22.965c-0.228-30.322-0.63-60.643-1.005-90.964
	c-0.114-9.218-2.553-17.676-11.884-21.25c-9.313-3.567-17.661-0.028-24.801,6.363c-2.723,2.438-5.136,5.219-7.732,7.803
	c-5.223,5.2-7.357,11.17-7.247,18.811c0.421,29.327,0.135,58.664,0.205,87.997c0.013,5.326,0.301,10.663,0.742,15.972
	c0.698,8.402,4.333,14.74,13.226,16.531C3702.584,471.737,3704.841,473.185,3703.091,478.458z"/>
<path fill="#FFFFFF" d="M1616.272,457.961c-2.627,2.935-5.237,5.885-7.885,8.802c-24.917,27.448-63.007,18.794-80.978,2.046
	c-10.733-10.003-18.535-21.951-22.928-35.789c-10.587-33.346-9.288-66.325,5.068-98.406c7.751-17.321,19.907-30.862,37.713-38.164
	c23.485-9.631,45.553-8.119,64.725,10.357c1.404,1.353,2.873,2.639,4.937,4.529c0.817-1.69,1.748-2.717,1.743-3.739
	c-0.095-21.976,0.077-43.964-0.611-65.923c-0.422-13.452-4.898-17.521-18.061-19.229c-1.646-0.214-3.549,0.02-4.864-0.752
	c-1.168-0.686-2.351-2.512-2.294-3.779c0.054-1.2,1.512-2.666,2.726-3.382c1.027-0.606,2.589-0.393,3.914-0.393
	c22.651,0,45.302,0.005,67.953,0.08c1.579,0.005,3.156,0.569,5.839,1.086c0,4.101-0.002,8.005,0,11.909
	c0.037,68.953,0.074,137.906,0.117,206.859c0.001,1.998,0.027,3.998,0.1,5.995c0.553,15.23,3.681,19.082,18.385,22.716
	c0.939,0.232,1.85,0.576,2.751,0.861c1.947,3.83,0.269,5.8-3.254,6.535c-5.862,1.224-11.781,2.177-17.658,3.334
	c-15.019,2.957-30.02,6.006-45.048,8.911c-2.832,0.547-5.76,0.6-9.719,0.986c0-8.507,0-16.346,0-24.185
	C1618.053,458.805,1617.162,458.383,1616.272,457.961z M1618.849,385.609c0-12.642,0.018-25.284-0.005-37.926
	c-0.027-15.139-12.058-31.683-26.343-36.276c-12.343-3.968-21.687-0.597-27.581,11.1c-3.25,6.449-6.06,13.499-7.177,20.577
	c-4.282,27.111-4.001,54.366,0.159,81.479c1.57,10.232,5.249,19.916,11.743,28.284c5.192,6.69,12.007,9.321,20.24,7.895
	c13.665-2.367,28.841-20.344,28.939-34.212C1618.922,412.89,1618.846,399.249,1618.849,385.609z"/>
<path fill="#FFFFFF" d="M3368.553,419.462c0,7.646,0.599,13.296-0.242,18.723c-0.449,2.896-3.011,5.78-5.258,8.034
	c-22.771,22.856-50.216,35.903-82.471,38.169c-30.751,2.161-60.591-1.646-88.436-15.757c-39.608-20.072-60.995-53.298-68.533-96.255
	c-11.351-64.686,30.043-146.983,119.65-162.598c26.532-4.623,52.426-0.9,77.607,8.34c6.872,2.522,13.713,5.175,20.712,7.294
	c11.85,3.587,18.019,0.401,22.604-11.215c1.419-3.596,1.839-8.479,8.365-5.146c0,29.625,0,59.461,0,89.104
	c-4.231,2.077-6.738,1.151-8.06-3.003c-1.615-5.073-3.067-10.236-5.175-15.107c-12.491-28.864-33.371-47.964-64.92-53.392
	c-37.421-6.439-73.283,13.234-88.926,48.012c-9.459,21.029-13.244,43.33-13.462,66.135c-0.218,22.72,2.288,45.234,9.234,67.049
	c0.707,2.22,1.433,4.438,2.246,6.621c14.379,38.61,43.871,55.776,86.619,51.664c21.29-2.048,39.698-10.842,55.586-24.927
	C3352.891,434.828,3359.655,427.959,3368.553,419.462z"/>
<path fill="#FFFFFF" d="M1469.728,478.411c-30.572,0-60.772,0-90.846,0c-1.211-3.79-0.78-6.186,3.158-7.3
	c10.394-2.941,13.695-10.814,13.699-20.659c0.015-37.305-0.009-74.611-0.126-111.916c-0.009-2.952-0.514-5.999-1.355-8.834
	c-3.084-10.393-11.435-14.792-21.72-11.685c-13.9,4.2-24.931,19-24.935,33.491c-0.007,29.648-0.063,59.295,0.055,88.943
	c0.021,5.303,0.802,10.601,1.196,15.903c0.557,7.51,4.503,12.18,11.607,14.585c4.094,1.386,4.009,1.637,4.601,7.357
	c-30.199,0-60.345,0-90.617,0c-1.393-3.767-0.969-6.314,3.626-7.161c10.206-1.881,14.293-8.739,14.629-18.522
	c0.182-5.322,0.656-10.641,0.666-15.962c0.063-32.646,0.107-65.292-0.031-97.937c-0.028-6.637-0.883-13.27-1.317-19.907
	c-0.5-7.643-4.571-12.206-11.906-14.084c-3.494-0.894-7.769-1.229-5.687-7.511c23.862,0,47.952,0,72.677,0
	c0.335,6.842,0.651,13.272,1.063,21.677c3.944-3.658,6.494-6.079,9.103-8.433c12.426-11.209,26.197-18.905,43.605-19.602
	c27.885-1.117,46.107,19.178,48.257,43.18c1.068,11.928,1.594,23.933,1.726,35.91c0.261,23.649,0.05,47.302,0.1,70.953
	c0.01,4.659,0.208,9.324,0.506,13.975c0.552,8.6,4.513,14.554,13.442,16.11C1468.743,471.651,1471.331,472.862,1469.728,478.411z"/>
<path fill="#FFFFFF" d="M1717.73,297.036c24.67,0,48.523,0,73.705,0c0,4.049,0,7.596,0,11.142c0,37.311-0.077,74.623,0.064,111.934
	c0.029,7.634,0.233,15.372,1.491,22.872c2.161,12.89,12.615,18.294,24.635,12.993c9.863-4.35,15.962-12.894,21.561-21.592
	c1.27-1.973,0.843-5.171,0.847-7.806c0.046-31.648,0.048-63.296-0.002-94.944c-0.006-3.992-0.23-7.996-0.602-11.971
	c-0.721-7.709-4.339-12.959-12.299-15.012c-5.266-1.358-5.171-1.726-6.103-7.443c24.248,0,48.391,0,73.908,0
	c0,3.859,0,7.409,0,10.959c0,42.975-0.019,85.949,0.023,128.924c0.006,5.659,0.213,11.323,0.523,16.975
	c0.491,8.928,4.329,15.361,13.782,16.94c4.133,0.69,6.07,2.404,4.451,7.288c-23.978,0-48.134,0-73.143,0
	c-0.326-6.866-0.646-13.599-1.044-21.99c-4.8,4.486-8.267,7.879-11.895,11.089c-14.752,13.054-31.688,19.5-51.485,15.936
	c-18.467-3.324-33.578-18.121-36.277-36.646c-1.863-12.792-2.369-25.847-2.579-38.799c-0.387-23.98-0.048-47.97-0.164-71.956
	c-0.026-5.31-0.767-10.613-1.037-15.927c-0.427-8.397-4.473-13.534-12.823-15.523C1718.89,303.436,1718.981,303.053,1717.73,297.036
	z"/>
<path fill="#FFFFFF" d="M2697.875,453.866c-10.503,20.365-29.922,30.459-51.949,26.788c-11.794-1.965-20.102-8.374-23.998-19.958
	c-0.73-2.17-1.431-4.35-2.458-7.478c-2.51,1.744-4.489,3.23-6.574,4.549c-9.538,6.035-18.691,12.888-28.805,17.73
	c-6.982,3.343-15.258,5.139-23.041,5.442c-25.085,0.976-41.647-19.41-36.631-44.118c2.415-11.893,8.519-21.833,17.847-29.291
	c8.286-6.625,17.082-12.808,26.317-18.005c14.2-7.991,28.849-15.221,43.558-22.25c5.438-2.598,8.343-5.474,7.884-11.92
	c-0.639-8.956-0.06-17.995-0.589-26.964c-0.754-12.772-7.479-20.154-20.017-22.498c-8.165-1.526-15.958,0.085-23.135,4.075
	c-8.031,4.465-9.094,9.738-3.807,17.171c1.735,2.439,3.84,4.631,5.433,7.153c7.649,12.113,3.025,26.983-10.233,32.289
	c-9.908,3.965-19.672,3.004-28.71-2.684c-10.259-6.458-13.91-17.302-10.136-29.681c3.895-12.775,12.511-21.856,23.606-28.648
	c14.501-8.877,30.621-13.184,47.383-14.148c10.21-0.587,20.628,0.186,30.789,1.56c13.8,1.866,24.616,9.617,33.573,20.02
	c6.107,7.092,9.161,15.382,9.24,24.736c0.256,30.644,0.462,61.289,0.752,91.933c0.051,5.323,0.156,10.67,0.699,15.959
	c1.128,10.974,6.036,13.295,15.068,7.391C2693.478,450.709,2693.478,450.709,2697.875,453.866z M2619.872,376.451
	c-16.598,10.206-30.147,20.073-38.509,35.388c-2.304,4.219-3.641,9.327-4.056,14.144c-0.9,10.44,4.834,18.924,13.693,21.778
	c7.999,2.577,23.614-2.653,27.772-9.491c0.8-1.315,1.049-3.143,1.055-4.737C2619.898,415.312,2619.872,397.09,2619.872,376.451z"/>
<path fill="#FFFFFF" d="M3409.674,385.756c0.105-18.085,4.678-37.27,15.24-54.841c22.599-37.597,65.786-50.717,105.711-32.303
	c20.773,9.581,34.732,25.333,42.629,46.557c9.859,26.495,10.785,53.523,1.92,80.261c-19.511,58.846-73.317,67.377-113.026,52.987
	c-12.498-4.529-22.463-12.786-30.51-23.356C3416.562,435.26,3409.64,412.803,3409.674,385.756z M3521.524,336.592
	c-0.686-7.355-3.336-15.142-7.18-21.464c-9.287-15.274-30.786-13.952-39.168,1.925c-1.837,3.48-3.384,7.395-3.861,11.258
	c-1.631,13.198-3.477,26.441-3.862,39.707c-0.704,24.286-1.823,48.634,1.789,72.842c1.145,7.678,3.047,15.039,8.087,21.176
	c10.516,12.802,28.331,12.01,37.154-1.984c2.59-4.108,4.66-9.076,5.199-13.85"/>
<path fill="#FFFFFF" d="M1249.122,478.527c-45.518,0-90.759,0-136.429,0c-1.124-4.019-0.765-6.606,4.029-6.791
	c3.993-0.154,8.018-0.124,11.966-0.648c11.959-1.585,17.883-7.245,19.632-19.055c0.777-5.246,1.029-10.611,1.035-15.923
	c0.068-59.973,0.062-119.947,0.006-179.92c-0.005-4.984-0.49-9.97-0.798-14.952c-0.648-10.496-6.838-16.432-16.502-18.647
	c-6.357-1.457-12.988-1.72-21.352-2.746c2.011-2.494,2.912-4.645,4.418-5.226c2.061-0.795,4.582-0.494,6.906-0.495
	c39.316-0.019,78.632-0.018,117.948,0.005c2.324,0.001,4.864-0.3,6.899,0.53c1.452,0.593,2.225,2.848,4.739,6.385
	c-6.096,0-9.664-0.16-13.214,0.027c-17.04,0.901-24.88,8.54-25.177,25.681c-0.415,23.982-0.264,47.975-0.285,71.963
	c-0.033,37.983-0.025,75.966,0.009,113.949c0.005,5.662,0.051,11.335,0.417,16.982c0.789,12.173,7.531,19.511,19.703,21.371
	c3.932,0.601,7.969,0.562,11.961,0.705C1248.9,471.863,1250.561,473.548,1249.122,478.527z"/>
<path fill="#FFFFFF" d="M4751.465,388.051c0.054,16.979-2.684,32.931-9.714,47.976c-15.993,34.225-46.103,51.285-85.114,47.899
	c-29.446-2.556-50.745-17.414-63.602-43.507c-19.104-38.77-17.383-77.049,5.427-114.03c32.008-51.893,111.859-44.699,139.297,5.57
	C4747.392,349.604,4751.733,368.49,4751.465,388.051z M4694.805,384.37c-0.43-0.014-0.861-0.028-1.291-0.042
	c0-12.992,0.356-25.997-0.113-38.972c-0.374-10.342-2.055-20.564-7.707-29.645c-4.813-7.733-11.581-11.692-20.856-11.054
	c-9.178,0.631-15.747,5.231-19.499,13.421c-1.917,4.184-3.361,8.763-4.023,13.308c-1.341,9.211-2.358,18.502-2.877,27.795
	c-1.468,26.295-2.365,52.641,1.195,78.82c1.008,7.412,3.057,15.289,6.875,21.593c9.799,16.176,30.827,15.327,39.623-1.395
	c3.009-5.721,4.798-12.534,5.365-19.004C4693.095,420.963,4693.768,402.651,4694.805,384.37z"/>
<path fill="#FFFFFF" d="M2930.982,415.008c10.278-28.408,20.028-55.263,29.667-82.159c0.887-2.475,1.178-5.189,1.55-7.819
	c1.762-12.466-1.85-17.773-14.027-20.958c-3.227-0.844-8.16-0.229-5.879-6.919c19.268,0,38.773,0,58.194,0
	c2.201,3.698,0.982,6.039-2.558,7.003c-8.999,2.451-13.649,9.194-16.886,17.103c-8.695,21.246-17.321,42.523-25.69,63.899
	c-16.134,41.212-31.881,82.577-48.211,123.711c-4.653,11.72-10.099,23.243-16.365,34.178c-9.532,16.632-24.504,23.746-43.677,21.794
	c-19.318-1.967-32.287-18.049-29.501-36.633c1.606-10.714,9.747-18.95,20.295-20.534c11.08-1.664,20.792,4.53,23.434,15.41
	c1.09,4.491,1.188,9.22,1.805,13.831c1.079,8.05,5.894,10.285,12.361,5.296c3.088-2.382,6.213-5.47,7.781-8.936
	c6.569-14.526,12.835-29.208,18.502-44.104c1.058-2.781-0.568-7.054-1.933-10.216c-17.681-40.943-35.476-81.838-53.393-122.679
	c-4.944-11.27-10.257-22.384-15.64-33.454c-3.723-7.656-9.031-14.059-17.002-17.614c-3.701-1.651-5.302-3.752-3.329-8.137
	c31.333,0,62.842,0,96.107,0c-1.558,2.826-2.154,4.862-3.499,6.049c-1.118,0.986-3.149,0.88-4.721,1.418
	c-8.044,2.75-10.578,6.79-8.89,15.188c0.846,4.21,2.217,8.391,3.915,12.342c11.299,26.297,22.744,52.531,34.184,78.767
	C2927.944,411.674,2928.762,412.319,2930.982,415.008z"/>
<path fill="#FFFFFF" d="M3337.037,663.843c0,59.091,0,118.294,0,178.997c-9.694,0.017-19.566,0.468-29.348-0.27
	c-2.282-0.172-4.8-4.081-6.294-6.778c-17.106-30.883-34.033-61.866-51.015-92.818c-2.351-4.285-4.734-8.551-7.103-12.825
	c-0.71,0.091-1.421,0.181-2.132,0.272c-0.172,3.387-0.49,6.775-0.495,10.162c-0.039,30.326-0.023,60.652-0.023,90.978
	c0,3.567,0,7.134,0,10.97c-10.589,0-19.807,0-29.611,0c0-59.959,0-119.432,0-179.458c10.534,0,20.434,0,31.266,0
	c20.921,38.417,42.008,77.141,63.096,115.865c0.658-0.162,1.315-0.325,1.973-0.487c0-38.029,0-76.058,0-113.725
	C3315.654,661.993,3326.131,661.753,3337.037,663.843z"/>
<path fill="#FFFFFF" d="M2619.907,842.718c-11.043,0-21,0-31.97,0c-20.68-37.621-41.554-75.595-62.428-113.569
	c-0.756,0.212-1.511,0.425-2.267,0.637c0,37.384,0,74.768,0,112.68c-10.249,0-19.384,0-29.083,0c0-59.921,0-119.336,0-179.859
	c9.472,0,18.372-0.002,27.272,0.001c4.769,0.001,5.66,4.13,7.33,7.18c12.789,23.363,25.47,46.786,38.18,70.192
	c5.561,10.24,11.085,20.501,16.69,30.717c1.365,2.487,2.984,4.835,5.435,7.063c2.008-38.126,0.63-76.14,1.673-114.655
	c10.065,0,19.254,0,29.169,0C2619.907,722.936,2619.907,782.374,2619.907,842.718z"/>
<path fill="#FFFFFF" d="M2179.663,764.088c17.805,12.065,26.609,29.74,36.162,46.853c5.635,10.093,11.215,20.216,17.762,32.024
	c-12.877,0-24.009-0.065-35.14,0.033c-4.316,0.038-5.345-3.4-6.996-6.146c-8.573-14.258-17.047-28.576-25.625-42.832
	c-2.572-4.275-5.227-8.514-8.085-12.6c-8.883-12.699-18.471-16.144-35.522-12.424c0,23.948,0,48.128,0,73.61
	c-10.949,0.697-21.031,0.446-31.811,0.171c0-60,0-119.379,0-179.369c2.085-0.307,3.97-0.826,5.855-0.825
	c23.634,0.017,47.268,0.102,70.902,0.195c2.328,0.009,4.658,0.16,6.984,0.29c30.937,1.73,49.19,22.791,46.62,53.777
	c-1.899,22.895-12.519,38.887-35.599,45.062C2183.697,762.302,2182.312,763.027,2179.663,764.088z M2122.236,738.913
	c17.262-0.318,33.459,1.257,49.616-1.518c5.644-0.97,9.759-4.042,12.569-8.899c9.614-16.619-0.377-34.971-19.504-35.49
	c-12.295-0.334-24.606-0.139-36.91-0.066c-1.846,0.011-3.688,0.65-5.772,1.044C2122.236,708.777,2122.236,722.98,2122.236,738.913z"
	/>
<path fill="#FFFFFF" d="M4090.554,425.574c4.063,1.292,6.585,3.12,4.348,7.356c-11.278,21.352-24.776,40.664-49.478,47.914
	c-32.985,9.68-75.549,1.786-93.237-45.032c-11.231-29.727-11.013-60.058-0.284-89.954c7.113-19.82,20.375-35.004,38.635-45.514
	c34.907-20.092,76.078-7.874,94.512,27.928c8.25,16.02,10.914,33.344,11.862,52.606c-16.876,0-33.389,0-49.902,0
	c-16.255,0-32.51,0-48.975,0c-2.189,8.512,0.128,15.921,1.73,23.215c3.195,14.545,9.286,27.789,20.026,38.437
	c16.797,16.652,40.379,16.593,56.928-0.305C4081.576,437.263,4085.646,431.53,4090.554,425.574z M4049.07,367.592
	c0.099-15.394-0.103-29.66-3.799-43.563c-1.167-4.387-3.44-8.729-6.133-12.415c-8.178-11.195-22.144-11.487-30.286-0.236
	c-12.067,16.673-13.96,35.834-12.76,56.213C4013.905,367.592,4030.737,367.592,4049.07,367.592z"/>
<path fill="#FFFFFF" d="M4078.89,842.989c-9.466,0-18.398,0.244-27.299-0.177c-2.144-0.102-4.672-2.007-6.152-3.801
	c-2.083-2.525-3.369-5.712-4.969-8.631c-16.639-30.356-33.265-60.718-49.919-91.066c-1.703-3.102-3.559-6.121-6.557-11.258
	c-1.911,14.388-0.825,26.499-1.016,38.539c-0.201,12.652-0.044,25.311-0.044,37.966c0,12.277,0,24.554,0,37.419
	c-10.052,1.774-19.445,1.169-29.468,0.443c0-59.685,0-118.838,0-179.334c9.365-1.106,18.933-0.948,28.357-0.037
	c2.313,0.224,4.79,4.086,6.269,6.781c17.613,32.099,35.047,64.296,52.539,96.462c2.313,4.253,4.685,8.473,7.029,12.708
	c0.746-0.177,1.492-0.353,2.238-0.53c0-19.104,0-38.207,0-57.311c0-18.937,0-37.874,0-57.229c9.72-2.677,18.927-0.842,27.893-1.349
	C4080.057,670.314,4080.961,819.692,4078.89,842.989z"/>
<path fill="#FFFFFF" d="M3462.741,662.519c4.36,0,8.303-0.024,12.245,0.004c19.654,0.141,39.311,0.112,58.96,0.494
	c21.933,0.427,37.885,11.041,48.704,29.773c6.417,11.111,10.205,23.182,11.608,35.868c2.654,23.992,3.15,47.923-5.491,71.034
	c-6.268,16.764-15.807,30.998-33.285,37.766c-6.441,2.494-13.42,4.812-20.208,4.982c-23.952,0.599-47.929,0.233-71.833,0.233
	C3461.338,835.503,3460.599,680.032,3462.741,662.519z M3494.182,812.615c12.386,0,23.721,0.675,34.945-0.157
	c17.169-1.273,26.522-8.737,29.816-25.784c2.627-13.598,3.333-27.743,3.229-41.633c-0.074-9.82-2.062-19.865-4.769-29.361
	c-3.093-10.85-10.677-18.357-22.118-20.955c-13.436-3.052-26.991-1.697-41.103-1.6
	C3494.182,733.175,3494.182,772.322,3494.182,812.615z"/>
<path fill="#FFFFFF" d="M4439.843,432.548c1.89,1.489,3.388,2.668,4.926,3.879c-0.439,1.279-0.622,2.269-1.088,3.101
	c-13.665,24.374-33.422,40.474-61.755,44.007c-27.486,3.428-50.589-5.113-68.102-27.093c-15.869-19.917-22.085-43.083-21.657-68.093
	c0.409-23.876,7.153-45.831,21.339-65.418c24.326-33.586,63.947-37.19,92.916-27.586c11.055,3.665,19.845,10.734,26.611,20.233
	c4.583,6.435,6.883,13.591,6.758,21.537c-0.188,11.919-6.287,20.444-16.724,23.204c-12.122,3.206-24.947-1.514-29.954-12.143
	c-2.777-5.895-3.813-12.643-5.371-19.069c-1.094-4.512-1.18-9.329-2.703-13.664c-4.153-11.825-16.79-15.118-25.458-6.034
	c-4.633,4.855-8.074,11.45-10.318,17.866c-5.961,17.041-5.118,34.844-3.294,52.435c1.446,13.945,4.838,27.65,11.303,40.181
	c3.775,7.318,8.202,14.631,13.751,20.64c14.361,15.549,36.311,17.285,53.479,4.885C4429.6,441.733,4434.18,437.334,4439.843,432.548
	z"/>
<path fill="#FFFFFF" d="M1945.759,420.316c4.453-2.436,6.68-1.609,8.14,1.952c1.638,3.999,3.387,7.965,5.318,11.83
	c6.243,12.503,14.878,23.037,27.336,29.608c5.445,2.872,11.691,4.822,17.789,5.714c8.579,1.256,15.783-2.281,20.2-9.995
	c4.65-8.12,3.213-16.222-1.889-23.488c-2.627-3.74-6.189-7.008-9.854-9.799c-9.532-7.256-19.497-13.945-29.018-21.214
	c-7.927-6.052-16.003-12.067-23.085-19.04c-22.476-22.131-23.353-56.326-1.611-79.058c17.137-17.917,38.54-19.003,61.036-12.468
	c3.481,1.011,6.704,2.901,10.057,4.359c8.275,3.596,10.627,3.24,16.604-3.342c2.309-2.542,4.16-5.33,9.599-3.101
	c0.954,19.437,1.94,39.508,2.912,59.307c-5.209,3.057-6.858,0.149-8.82-3.378c-4.677-8.411-9.187-17.004-14.781-24.795
	c-6.588-9.176-15.818-15.384-27.101-17.355c-4.376-0.764-9.478-0.556-13.595,0.972c-12.394,4.6-15.429,17.53-6.818,27.484
	c2.593,2.998,5.64,5.698,8.823,8.073c9.069,6.767,18.454,13.115,27.454,19.97c9.254,7.049,18.811,13.867,27.158,21.905
	c19.255,18.542,22.662,44.055,10.145,68.754c-11.349,22.395-35.425,34.574-60.892,30.136c-8.794-1.532-17.485-4.115-25.928-7.063
	c-7.407-2.586-13.471-3.119-18.221,4.495c-0.956,1.532-3.626,1.993-6.9,3.656C1946.871,461.978,1948.289,440.777,1945.759,420.316z"
	/>
<path fill="#FFFFFF" d="M1883.581,763.032c0,17.104,0,32.882,0,49.699c29.251,0,58.07,0,87.721,0c0,10.406,0,19.778,0,29.717
	c-40.153,0-79.934,0-120.302,0c0-59.887,0-119.325,0-179.346c39.421,0,78.213,0,117.637,0c0,9.737,0,18.923,0,29.575
	c-14.013,0.067-28.169,0.16-42.324,0.194c-13.938,0.034-27.875,0.007-42.593,0.007c0,13.435,0,26.178,0,40.144
	c26.238,0,52.345,0,78.984,0c0,10.361,0,19.518,0,30.009C1936.369,763.032,1910.28,763.032,1883.581,763.032z"/>
<path fill="#FFFFFF" d="M1113.454,784.541c9.939-1.174,19.411-2.293,29.45-3.479c1.461,4.427,2.671,8.481,4.127,12.445
	c7.702,20.962,33.382,29.476,52.114,17.159c7.809-5.135,11.781-12.448,11.066-22.042c-0.669-8.976-6.554-13.593-14.103-16.36
	c-7.799-2.859-15.907-4.864-23.767-7.573c-9.108-3.139-18.468-5.88-27.054-10.135c-19.18-9.504-29.612-29.966-26.742-50.467
	c3.237-23.124,17.421-38.367,39.875-42.961c15.331-3.136,30.543-2.726,45.401,2.186c21.184,7.003,34.394,26.826,33.116,50.565
	c-9.915,0.468-20.001,0.944-30.343,1.432c-0.967-2.885-1.799-5.007-2.39-7.193c-3.075-11.377-10.784-17.154-22.187-18.544
	c-8.125-0.99-16.001-0.069-23.366,3.579c-5.345,2.647-9.166,6.653-9.481,13.058c-0.33,6.731,2.729,11.848,8.58,14.59
	c6.897,3.233,14.142,5.78,21.361,8.261c10.062,3.457,20.415,6.122,30.334,9.932c23.816,9.148,34.623,28.438,33.106,54.696
	c-1.534,26.566-16.383,44.146-41.064,50.168c-14.455,3.527-29.099,3.716-43.609,0.338
	C1131.402,838.032,1114.283,815.514,1113.454,784.541z"/>
<path fill="#FFFFFF" d="M2207.072,441.166c4.498,0.844,5.395,3.328,3.526,7.199c-7.764,16.084-19.126,28.276-37.306,31.757
	c-16.392,3.139-31.874,0.904-44.664-11.222c-8.069-7.651-13.082-16.668-13.154-28.086c-0.169-26.969-0.438-53.937-0.614-80.905
	c-0.074-11.322,0.029-22.645-0.041-33.967c-0.02-3.238-0.365-6.474-0.609-10.5c-7.674,0-14.562,0-21.128,0
	c-2.763-4.13-1.982-6.848,1.138-9.162c1.337-0.992,2.667-1.992,4.005-2.983c24.922-18.478,45.557-40.826,61.209-67.691
	c1.933-3.318,3.198-7.855,9.867-5.301c0,21.329,0,43.116,0,65.953c14.604,0,28.135,0,42.482,0c0,6.502,0,11.934,0,18.768
	c-13.773,0-27.52,0-41.794,0c-0.304,4.223-0.69,7.119-0.693,10.016c-0.04,36.298-0.036,72.597-0.003,108.895
	c0.003,3.326,0.1,6.672,0.48,9.972c0.728,6.314,3.341,11.611,9.537,14.173c6.471,2.676,11.831-0.418,16.366-4.487
	C2199.832,449.869,2203.284,445.36,2207.072,441.166z"/>
<path fill="#FFFFFF" d="M4195.775,296.682c0,13.409,0,25.182,0,36.954c0.575,0.177,1.149,0.353,1.724,0.53
	c1.908-2.51,3.712-5.108,5.744-7.514c6.431-7.611,12.355-15.781,19.58-22.557c9.188-8.616,20.3-13.862,33.472-13.074
	c11.312,0.677,19.445,7.837,20.943,19.044c0.568,4.246,0.589,8.68,0.083,12.935c-2.193,18.453-19.939,26.766-35.635,16.729
	c-3.343-2.138-6.186-5.043-9.359-7.464c-6.038-4.607-10.851-4.617-17.193,0.073c-6.389,4.725-10.871,11.174-12.677,18.682
	c-2.865,11.914-5.931,24.03-6.538,36.18c-1.044,20.922-0.491,41.938-0.168,62.907c0.223,14.492,3.926,18.543,18.366,21.182
	c4.022,0.735,6.308,1.92,4.725,6.992c-31.942,0-64.076,0-96.716,0c-0.958-3.396-1.249-6.313,3.578-6.987
	c9.922-1.387,14.216-7.664,14.845-17.108c0.353-5.307,0.955-10.615,0.968-15.923c0.087-35.294,0.051-70.587,0.037-105.881
	c-0.001-2.995-0.021-5.998-0.22-8.985c-0.655-9.797-3.933-17.561-15.038-19.294c-3.293-0.514-5.81-1.907-3.878-7.141
	C4146.024,296.086,4170.076,296.575,4195.775,296.682z"/>
<path fill="#FFFFFF" d="M2232.277,478.329c-1.147-4.318-0.231-6.539,3.779-7.075c9.969-1.332,14.086-7.883,14.799-17.183
	c0.431-5.635,0.827-11.29,0.84-16.937c0.075-34.622,0.048-69.245,0.019-103.868c-0.003-3.992-0.02-8.004-0.398-11.972
	c-0.83-8.707-4.388-15.265-13.934-16.985c-3.29-0.593-6.957-1.318-4.939-7.039c23.778,0,47.838,0,72.78,0
	c0,12.154,0,24.011,0,38.089c3.042-2.799,4.687-4.004,5.948-5.526c6.57-7.933,12.467-16.519,19.693-23.79
	c9.372-9.431,20.77-15.513,34.711-15.044c12.346,0.415,20.704,7.919,21.974,20.114c0.411,3.941,0.393,8.01-0.073,11.945
	c-2.19,18.495-19.888,26.761-35.613,16.653c-3.06-1.967-5.691-4.594-8.569-6.853c-6.834-5.366-12.409-5.891-18.593,0.296
	c-4.791,4.793-8.828,10.842-11.594,17.049c-5.338,11.978-6.911,25.041-7.18,38.029c-0.428,20.628-0.345,41.278,0.051,61.908
	c0.282,14.679,3.798,18.271,18.363,21.243c4.15,0.847,4.15,0.847,4.832,6.947C2296.967,478.329,2264.818,478.329,2232.277,478.329z"
	/>
<path fill="#FFFFFF" d="M2972.266,663.037c39.037,0,77.541,0,116.69,0c0,9.951,0,19.387,0,29.659c-28.312,0-56.179,0-84.86,0
	c0,13.55,0,26.295,0,40.287c26.221,0,52.335,0,78.96,0c0,10.4,0,19.573,0,30.076c-26.3,0-52.401,0-79.127,0
	c0,17.093,0,32.862,0,49.774c29.63,0,58.777,0,88.536,0c0,10.289,0,19.449,0,29.399c-39.886,0-79.67,0-119.51,0
	C2971.016,835.4,2970.255,680.754,2972.266,663.037z"/>
<path fill="#FFFFFF" d="M3714.069,663.118c39.488,0,78.007,0,117.136,0c0,9.785,0,18.988,0,29.375c-28.029,0-56.155,0-85.016,0
	c0,13.902,0,26.644,0,40.315c26.212,0,52.059,0,78.994,0c1.014,10.259,0.889,19.655,0.03,30.078c-26.214,0-52.058,0-79.321,0
	c-0.885,16.706-0.311,32.49-0.406,49.741c29.665,0.821,58.821-0.026,89.245,0.506c0.606,9.786,0.607,19.189-0.107,29.251
	c-40.309,0-80.096,0-120.556,0C3714.069,782.751,3714.069,723.333,3714.069,663.118z"/>
<path fill="#FFFFFF" d="M4702.837,802.731c-21.888,0-42.784,0-64.329,0c-4.443,13.405-8.812,26.588-13.235,39.931
	c-11.094,0-21.705,0-33.933,0c20.77-60.194,41.311-119.725,62.133-180.072c10.327,0,20.247,0.041,30.166-0.019
	c4.428-0.026,5.223,3.254,6.351,6.446c5.434,15.38,10.945,30.731,16.402,46.103c13.918,39.213,27.83,78.429,41.721,117.652
	c1.086,3.069,1.991,6.203,3.162,9.878c-11.779,0-22.701,0-34.427,0C4712.254,829.562,4707.657,816.462,4702.837,802.731z
	 M4671.352,707.761c-0.767,0.064-1.533,0.128-2.3,0.193c-6.672,20.715-13.344,41.43-20.447,63.483
	c15.041,0.412,28.699,0.293,43.757,0.143C4684.985,749.172,4678.168,728.466,4671.352,707.761z"/>
<path fill="#FFFFFF" d="M1359.982,663.115c10.824,0,20.649,0,31.618,0c0,4.138,0,7.708,0,11.279c0,30.307-0.116,60.615,0.074,90.92
	c0.054,8.634,0.366,17.362,1.698,25.868c1.722,11,8.094,19.003,19.089,22.164c11.652,3.349,23.159,3.307,33.057-5.012
	c5.02-4.219,7.834-9.964,8.256-16.563c0.68-10.626,1.472-21.266,1.552-31.905c0.214-28.307,0.073-56.617,0.073-84.925
	c0-3.609,0-7.218,0-11.323c10.519-1.999,20.356-0.82,30.951-0.954c0.343,3.011,0.876,5.525,0.88,8.04
	c0.046,33.637,0.154,67.276-0.08,100.911c-0.065,9.299-0.84,18.633-1.919,27.878c-2.982,25.547-19.774,42.818-45.367,45.44
	c-11.474,1.176-23.328,1.022-34.774-0.411c-23.409-2.931-40.546-21.333-43.222-45.694c-1.415-12.879-2.054-25.891-2.191-38.853
	c-0.314-29.638-0.113-59.281-0.093-88.921C1359.586,668.767,1359.807,666.482,1359.982,663.115z"/>
<path fill="#FFFFFF" d="M1643.567,774.878c0,23.055,0,44.895,0,67.427c-10.75,0-20.581,0-30.509,0
	c-2.158-6.85-3.137-154.538-1.038-178.616c1.982-0.36,4.148-1.103,6.311-1.094c22.976,0.102,45.961-0.034,68.924,0.609
	c23.95,0.671,39.025,13.245,44.638,36.679c2.986,12.466,3.163,25.176-0.354,37.553c-5.809,20.445-18.698,33.633-40.526,35.823
	c-12.221,1.226-24.575,1.146-36.871,1.603C1651.166,774.972,1648.182,774.878,1643.567,774.878z M1644.058,743.661
	c2.474,0.328,4.403,0.853,6.312,0.792c9.632-0.306,19.306-0.306,28.876-1.281c13.342-1.359,21.289-10.718,21.552-24.262
	c0.261-13.468-7.32-23.471-20.597-25.117c-9.847-1.221-19.914-0.743-29.884-0.848c-2.164-0.023-4.336,0.699-6.259,1.035
	C1644.058,710.886,1644.058,727.064,1644.058,743.661z"/>
<path fill="#FFFFFF" d="M4337.033,712.012c-10.257,2.829-20.117,5.549-30.581,8.435c-1.105-2.594-2.133-4.959-3.123-7.34
	c-5.238-12.609-13.882-21.065-28.026-22.418c-15.491-1.482-27.767,4.588-34.992,18.123c-3.968,7.434-6.129,16.165-7.521,24.573
	c-2.853,17.231-1.949,34.508,2.431,51.501c2.122,8.229,5.953,15.528,12.3,21.317c16.22,14.796,40.412,11.258,51.267-7.884
	c3.564-6.286,5.684-13.393,8.839-21.034c9.58,3.417,19.459,6.942,29.178,10.408c-4.207,37.289-35.376,62.182-72.104,58.277
	c-30.904-3.285-54.271-24.52-62.44-57.585c-6.19-25.052-5.85-50.272,1.567-75.01c7.276-24.267,21.715-42.53,46.72-50.679
	c13.992-4.56,28.284-4.921,42.335-0.855C4317.732,669.032,4331.251,686.61,4337.033,712.012z"/>
<path fill="#FFFFFF" d="M2403.831,478.193c-1.39-4.104-0.104-5.756,3.616-6.889c14.002-4.265,16.125-6.551,16.498-20.881
	c0.536-20.617,0.403-41.253,0.405-61.881c0.002-20.961,0.165-41.931-0.392-62.88c-0.406-15.261-2.066-16.806-16.62-21.906
	c-2.501-0.877-2.501-0.877-3.7-5.462c6.864-2.157,61.662-2.752,75.463-0.582c0,3.303,0,6.841,0,10.378
	c0.001,43.591-0.027,87.183,0.04,130.774c0.009,5.644,0.249,11.315,0.84,16.925c0.91,8.631,5.629,14.032,14.449,15.301
	c3.822,0.55,7.652,0.871,6.015,7.104C2468.541,478.193,2436.461,478.193,2403.831,478.193z"/>
<path fill="#FFFFFF" d="M4464.095,478.452c-1.229-3.762-0.943-6.437,3.252-6.981c12.165-1.576,16.955-9.058,16.97-20.677
	c0.011-8.646,0.49-17.291,0.51-25.937c0.067-28.957,0.064-57.915-0.017-86.872c-0.015-5.314-0.546-10.625-0.788-15.94
	c-0.448-9.88-4.821-16.359-15.145-17.966c-3.443-0.536-6.879-1.447-4.614-6.951c24.241,0,48.755,0,74.533,0
	c0.159,3.546,0.45,7.043,0.453,10.54c0.032,43.603,0.009,87.205,0.038,130.808c0.003,4.656-0.044,9.343,0.437,13.963
	c1.319,12.666,3.911,15.723,16.568,18.778c4.254,1.027,5.739,2.758,4.126,7.236C4528.355,478.452,4496.17,478.452,4464.095,478.452z
	"/>
<path fill="#FFFFFF" d="M2812.886,843.013c-8.198,0-14.834,0-21.47,0c-2.948,0-5.896,0-10.3,0
	c-0.559-25.469-0.184-50.272-0.253-75.062c-0.069-24.57-0.015-49.141-0.015-74.818c-16.104,0-31.22,0-46.99,0
	c0-10.526,0-19.938,0-29.984c41.913,0,83.334,0,125.524,0c0,9.808,0,19.213,0,29.543c-15.232,0-30.077,0-46.387,0
	C2812.838,742.954,2813.022,792.328,2812.886,843.013z"/>
<path fill="#FFFFFF" d="M4455.582,662.522c7.313,0,14.267-0.045,21.221,0.021c2.944,0.028,5.886,0.291,9.465,0.482
	c0,60.001,0,119.453,0,179.304c-2.018,0.258-3.608,0.625-5.2,0.636c-8.31,0.059-16.619,0.028-24.739,0.028
	C4453.979,835.556,4453.261,677.954,4455.582,662.522z"/>
<path fill="#FFFFFF" d="M2371.207,842.421c-10.47,0-20.275,0-30.558,0c0-59.935,0-119.277,0-179.26c10.371,0,20.165,0,29.863,0
	C2372.471,670.823,2373.097,828.033,2371.207,842.421z"/>
<path fill="#FFFFFF" d="M4542.056,238.127c-0.129,16.677-13.083,29.577-29.792,29.669c-17.004,0.093-30.589-13.463-30.324-30.262
	c0.26-16.457,13.592-29.728,29.954-29.818C4528.843,207.623,4542.188,221.079,4542.056,238.127z"/>
<path fill="#FFFFFF" d="M2481.772,237.841c0.041,16.724-12.719,29.698-29.464,29.957c-17.074,0.264-30.577-12.997-30.528-29.982
	c0.048-16.477,13.18-29.837,29.585-30.098C2468.324,207.448,2481.73,220.729,2481.772,237.841z"/>
</svg>
