<?xml version="1.0" encoding="utf-8"?>
<!-- Generator: Adobe Illustrator 24.1.1, SVG Export Plug-In . SVG Version: 6.00 Build 0)  -->
<svg version="1.1" id="Capa_1" xmlns="http://www.w3.org/2000/svg" xmlns:xlink="http://www.w3.org/1999/xlink" x="0px" y="0px"
	 viewBox="0 0 22 22" style="enable-background:new 0 0 22 22;" xml:space="preserve">
<style type="text/css">
	.st0{fill:#FFFFFF;}
	.st1{fill:#4ED7E5;}
</style>
<g>
	<path class="st0" d="M16.24,16.79c-1.28,0-2.35-0.93-2.57-2.14H8.09c-0.22,1.22-1.29,2.14-2.57,2.14c-1.44,0-2.62-1.17-2.62-2.62
		s1.17-2.62,2.62-2.62c1.28,0,2.35,0.93,2.57,2.14h5.57c0.22-1.22,1.29-2.14,2.57-2.14c1.44,0,2.62,1.17,2.62,2.62
		c0,0.03,0,0.05,0,0.08l1.2-0.01v-2.09c0-1.54-0.41-2.03-1.93-2.27l-2.15-0.34c-0.11-0.02-0.21-0.07-0.29-0.16l-1.09-1.29
		c-1.22-1.43-1.89-2.01-3.67-2.01h-4.3c-1.18,0-1.93,0.4-2.77,1.48L2.07,9.92c-0.24,0.33-0.36,0.81-0.36,1.47v1.38
		c0,0.26-0.21,0.47-0.47,0.47s-0.47-0.21-0.47-0.47v-1.38c0-0.88,0.18-1.54,0.56-2.04L3.1,6.99c1.02-1.31,2.04-1.85,3.52-1.85h4.3
		c2.23,0,3.14,0.88,4.39,2.34l0.98,1.15l1.98,0.32c1.96,0.31,2.73,1.21,2.73,3.2v2.56c0,0.26-0.21,0.47-0.47,0.47l-1.88,0.02
		C18.25,16.14,17.32,16.79,16.24,16.79z M16.24,12.51c-0.92,0-1.67,0.75-1.67,1.67s0.75,1.67,1.67,1.67c0.92,0,1.67-0.75,1.67-1.67
		S17.16,12.51,16.24,12.51z M5.52,12.51c-0.92,0-1.67,0.75-1.67,1.67s0.75,1.67,1.67,1.67c0.92,0,1.67-0.75,1.67-1.67
		S6.44,12.51,5.52,12.51z"/>
	<circle class="st1" cx="1.23" cy="13.1" r="1.07"/>
</g>
</svg>
