<?xml version="1.0" encoding="utf-8"?>
<!-- Generator: Adobe Illustrator 24.1.1, SVG Export Plug-In . SVG Version: 6.00 Build 0)  -->
<svg version="1.1" id="Capa_1" xmlns="http://www.w3.org/2000/svg" xmlns:xlink="http://www.w3.org/1999/xlink" x="0px" y="0px"
	 viewBox="0 0 22 22" style="enable-background:new 0 0 22 22;" xml:space="preserve">
<style type="text/css">
	.st0{fill:#FFFFFF;}
	.st1{fill:#4ED7E5;}
</style>
<g>
	<path class="st0" d="M10.23,20.78c-6.49,0-6.49-7.53-6.49-10.74c0-3.58,2.91-6.49,6.49-6.49s6.49,2.91,6.49,6.49
		c0,1.26,0,3.17-0.36,4.98c-0.06,0.28-0.33,0.46-0.61,0.41c-0.28-0.06-0.46-0.33-0.41-0.61c0.34-1.71,0.34-3.48,0.34-4.77
		c0-3.01-2.45-5.45-5.45-5.45s-5.45,2.45-5.45,5.45c0,5.04,0.66,9.7,5.45,9.7c0.91,0,1.7-0.17,2.37-0.52
		c0.26-0.13,0.57-0.03,0.7,0.22c0.13,0.26,0.03,0.57-0.22,0.7C12.26,20.57,11.3,20.78,10.23,20.78z"/>
	<path class="st0" d="M13.87,5.61c-0.29,0-0.52-0.23-0.52-0.52c0-1.72-1.4-3.12-3.12-3.12c-1.72,0-3.12,1.4-3.12,3.12
		c0,0.29-0.23,0.52-0.52,0.52c-0.29,0-0.52-0.23-0.52-0.52c0-2.29,1.87-4.16,4.16-4.16s4.16,1.87,4.16,4.16
		C14.39,5.38,14.15,5.61,13.87,5.61z"/>
	<path class="st0" d="M15.93,12.96c-0.04,0-0.08,0-0.12-0.01c-2.22-0.51-4.23-1.64-5.82-3.28c-0.2-0.21-0.2-0.54,0.01-0.74
		c0.21-0.2,0.54-0.2,0.74,0.01c1.45,1.5,3.29,2.53,5.31,2.99c0.28,0.06,0.46,0.34,0.39,0.62C16.38,12.8,16.17,12.96,15.93,12.96z"/>
	<path class="st0" d="M7.44,12.52c-1.17,0-2.3-0.25-3.35-0.75c-0.26-0.12-0.37-0.43-0.25-0.69c0.12-0.26,0.43-0.37,0.69-0.25
		c0.91,0.43,1.89,0.65,2.9,0.65c1.29,0,2.54-0.36,3.63-1.05c0.24-0.15,0.56-0.08,0.72,0.16c0.15,0.24,0.08,0.56-0.16,0.72
		C10.37,12.1,8.92,12.52,7.44,12.52z"/>
	<path class="st0" d="M4,15.31c-0.85,0-1.55-0.69-1.55-1.55v-1.3c0-0.85,0.69-1.55,1.55-1.55c0.29,0,0.52,0.23,0.52,0.52
		c0,0.29-0.23,0.52-0.52,0.52c-0.28,0-0.51,0.23-0.51,0.51v1.3c0,0.28,0.23,0.51,0.51,0.51c0.29,0,0.52,0.23,0.52,0.52
		S4.29,15.31,4,15.31z"/>
	<path class="st0" d="M16.49,15.31c-0.29,0-0.52-0.23-0.52-0.52s0.23-0.52,0.52-0.52c0.28,0,0.51-0.23,0.51-0.51v-1.3
		c0-0.28-0.23-0.51-0.51-0.51c-0.29,0-0.52-0.23-0.52-0.52c0-0.29,0.23-0.52,0.52-0.52c0.85,0,1.55,0.69,1.55,1.55v1.3
		C18.04,14.62,17.34,15.31,16.49,15.31z"/>
	<g>
		<path class="st0" d="M8.36,14.39c-0.45,0-0.87-0.14-1.23-0.41c-0.23-0.17-0.27-0.5-0.1-0.73c0.17-0.23,0.5-0.27,0.73-0.1
			c0.33,0.25,0.81,0.26,1.15,0.03c0.24-0.16,0.56-0.1,0.72,0.14c0.16,0.24,0.1,0.56-0.14,0.72C9.16,14.27,8.76,14.39,8.36,14.39z"/>
		<path class="st0" d="M12.17,14.39c-0.45,0-0.87-0.14-1.23-0.41c-0.23-0.17-0.27-0.5-0.1-0.73c0.17-0.23,0.5-0.27,0.73-0.1
			c0.33,0.25,0.81,0.26,1.15,0.03c0.24-0.16,0.56-0.1,0.72,0.14c0.16,0.24,0.1,0.56-0.14,0.72C12.97,14.27,12.58,14.39,12.17,14.39z
			"/>
	</g>
	<path class="st0" d="M14.35,19c-0.07,0-0.14-0.01-0.21-0.04l-1.2-0.52c-0.11-0.05-0.2-0.13-0.26-0.24
		c-0.37-0.72-0.28-1.59,0.22-2.22c0.5-0.63,1.33-0.91,2.11-0.71c0.12,0.03,0.22,0.1,0.29,0.19l0.78,1.05
		c0.14,0.19,0.14,0.45-0.01,0.63l-1.32,1.66C14.66,18.93,14.51,19,14.35,19z M13.56,17.57l0.64,0.28l0.82-1.04l-0.42-0.56
		c-0.33-0.03-0.67,0.11-0.88,0.38C13.51,16.9,13.45,17.25,13.56,17.57z"/>
	<path class="st0" d="M16.71,20.78c-0.11,0-0.23-0.04-0.32-0.11l-2.31-1.83c-0.23-0.18-0.26-0.51-0.08-0.73
		c0.18-0.22,0.51-0.26,0.73-0.08l2.31,1.83c0.23,0.18,0.26,0.51,0.08,0.73C17.01,20.72,16.86,20.78,16.71,20.78z"/>
	<path class="st0" d="M17.94,19.23c-0.11,0-0.23-0.04-0.32-0.11l-2.31-1.83c-0.23-0.18-0.26-0.51-0.08-0.73
		c0.18-0.23,0.51-0.26,0.73-0.08l2.31,1.83c0.23,0.18,0.26,0.51,0.08,0.73C18.24,19.16,18.09,19.23,17.94,19.23z"/>
	<circle class="st1" cx="12.47" cy="19.91" r="1.09"/>
</g>
</svg>
