<?xml version="1.0" encoding="utf-8"?>
<!-- Generator: Adobe Illustrator 24.1.1, SVG Export Plug-In . SVG Version: 6.00 Build 0)  -->
<svg version="1.1" id="Capa_1" xmlns="http://www.w3.org/2000/svg" xmlns:xlink="http://www.w3.org/1999/xlink" x="0px" y="0px"
	 viewBox="0 0 40 22" style="enable-background:new 0 0 40 22;" xml:space="preserve">
<style type="text/css">
	.st0{fill:#151E3F;}
	.st1{fill:#FFFFFF;}
	.st2{fill:#F80F49;}
</style>
<g>
	<path class="st0" d="M35.72,14H3.52c-1.84,0-3.33-1.49-3.33-3.33v0c0-1.84,1.49-3.33,3.33-3.33h32.19c1.84,0,3.33,1.49,3.33,3.33v0
		C39.05,12.51,37.56,14,35.72,14z"/>
	<g>
		<path class="st1" d="M7,12.23c-0.13-0.1-0.2-0.23-0.2-0.39c0-0.08,0.01-0.16,0.04-0.22c0.03-0.06,0.06-0.12,0.1-0.16
			s0.09-0.09,0.15-0.15c0.08-0.07,0.15-0.13,0.19-0.19c0.04-0.06,0.06-0.13,0.06-0.21h0.31c0,0.08-0.01,0.15-0.04,0.21
			c-0.03,0.06-0.06,0.11-0.1,0.16c-0.04,0.04-0.09,0.09-0.16,0.15c-0.08,0.07-0.14,0.14-0.18,0.19c-0.04,0.05-0.06,0.11-0.06,0.19
			c0,0.09,0.04,0.16,0.12,0.22s0.19,0.09,0.32,0.09c0.24,0,0.43-0.08,0.55-0.24l0.23,0.16c-0.09,0.11-0.2,0.2-0.33,0.26
			c-0.13,0.06-0.29,0.09-0.47,0.09C7.31,12.37,7.14,12.32,7,12.23z M7.36,10.55c-0.04-0.04-0.06-0.08-0.06-0.14s0.02-0.1,0.06-0.14
			c0.04-0.04,0.09-0.06,0.14-0.06c0.06,0,0.11,0.02,0.14,0.06s0.06,0.09,0.06,0.14c0,0.05-0.02,0.1-0.06,0.14
			c-0.04,0.04-0.09,0.06-0.14,0.06C7.45,10.61,7.4,10.59,7.36,10.55z"/>
		<path class="st1" d="M10.2,9.9c0.16,0.13,0.24,0.32,0.24,0.56c0,0.24-0.08,0.42-0.24,0.55c-0.16,0.13-0.38,0.2-0.66,0.2H9v0.66
			H8.69V9.7h0.85C9.82,9.7,10.04,9.77,10.2,9.9z M9.98,10.82c0.1-0.08,0.15-0.2,0.15-0.36c0-0.16-0.05-0.28-0.15-0.36
			S9.72,9.97,9.53,9.97H9v0.97h0.53C9.72,10.94,9.87,10.9,9.98,10.82z"/>
		<path class="st1" d="M11.11,11.78c-0.13-0.07-0.23-0.17-0.31-0.3s-0.11-0.27-0.11-0.43s0.04-0.31,0.11-0.43s0.18-0.23,0.31-0.3
			c0.13-0.07,0.28-0.11,0.44-0.11c0.16,0,0.31,0.04,0.44,0.11c0.13,0.07,0.23,0.17,0.3,0.3s0.11,0.27,0.11,0.43
			s-0.04,0.31-0.11,0.43s-0.17,0.23-0.3,0.3c-0.13,0.07-0.28,0.11-0.44,0.11C11.39,11.89,11.24,11.85,11.11,11.78z M11.84,11.56
			c0.08-0.05,0.15-0.12,0.2-0.21c0.05-0.09,0.07-0.19,0.07-0.3s-0.02-0.21-0.07-0.3c-0.05-0.09-0.11-0.16-0.2-0.2
			c-0.08-0.05-0.18-0.07-0.28-0.07s-0.2,0.02-0.28,0.07c-0.08,0.05-0.15,0.12-0.2,0.2c-0.05,0.09-0.07,0.19-0.07,0.3
			s0.02,0.21,0.07,0.3c0.05,0.09,0.11,0.16,0.2,0.21c0.08,0.05,0.18,0.07,0.28,0.07S11.75,11.6,11.84,11.56z"/>
		<path class="st1" d="M13.33,10.29c0.1-0.05,0.22-0.07,0.37-0.07v0.29c-0.02,0-0.04,0-0.07,0c-0.16,0-0.29,0.05-0.38,0.14
			c-0.09,0.1-0.14,0.23-0.14,0.41v0.82h-0.3v-1.64h0.29v0.28C13.15,10.41,13.23,10.34,13.33,10.29z"/>
		<path class="st1" d="M16.47,10.23v2.24h-0.3v-0.85c-0.07,0.09-0.15,0.15-0.25,0.2c-0.1,0.05-0.21,0.07-0.32,0.07
			c-0.16,0-0.3-0.04-0.43-0.11s-0.22-0.17-0.3-0.3s-0.11-0.27-0.11-0.44s0.04-0.31,0.11-0.44s0.17-0.22,0.3-0.29
			s0.27-0.11,0.43-0.11c0.12,0,0.23,0.02,0.33,0.07c0.1,0.05,0.18,0.12,0.25,0.21v-0.26H16.47z M15.91,11.56
			c0.08-0.05,0.15-0.12,0.2-0.21c0.05-0.09,0.07-0.19,0.07-0.3s-0.02-0.21-0.07-0.3c-0.05-0.09-0.11-0.15-0.2-0.2
			c-0.08-0.05-0.18-0.07-0.28-0.07c-0.11,0-0.2,0.02-0.28,0.07c-0.08,0.05-0.15,0.12-0.2,0.2c-0.05,0.09-0.07,0.19-0.07,0.3
			s0.02,0.21,0.07,0.3c0.05,0.09,0.11,0.16,0.2,0.21c0.08,0.05,0.18,0.07,0.28,0.07C15.73,11.63,15.82,11.6,15.91,11.56z"/>
		<path class="st1" d="M18.57,10.23v1.64h-0.28v-0.25c-0.06,0.08-0.14,0.15-0.24,0.2c-0.1,0.05-0.21,0.07-0.32,0.07
			c-0.22,0-0.39-0.06-0.52-0.18c-0.13-0.12-0.19-0.3-0.19-0.53v-0.95h0.3v0.91c0,0.16,0.04,0.28,0.11,0.36
			c0.08,0.08,0.19,0.12,0.33,0.12c0.16,0,0.28-0.05,0.37-0.14s0.14-0.23,0.14-0.4v-0.85H18.57z"/>
		<path class="st1" d="M20.61,11.15h-1.33c0.02,0.15,0.08,0.26,0.19,0.35c0.11,0.09,0.24,0.13,0.4,0.13c0.2,0,0.35-0.07,0.47-0.2
			l0.16,0.19c-0.07,0.09-0.17,0.15-0.28,0.2c-0.11,0.05-0.23,0.07-0.37,0.07c-0.17,0-0.33-0.04-0.46-0.11s-0.24-0.17-0.31-0.3
			s-0.11-0.27-0.11-0.43c0-0.16,0.04-0.3,0.11-0.43c0.07-0.13,0.17-0.23,0.29-0.3s0.27-0.11,0.42-0.11c0.16,0,0.3,0.04,0.42,0.11
			s0.22,0.17,0.29,0.3c0.07,0.13,0.1,0.27,0.1,0.44C20.62,11.08,20.62,11.11,20.61,11.15z M19.45,10.59
			c-0.1,0.09-0.15,0.2-0.17,0.34h1.05c-0.02-0.14-0.07-0.25-0.17-0.34c-0.1-0.09-0.21-0.13-0.36-0.13S19.54,10.51,19.45,10.59z
			 M19.99,9.59h0.38l-0.52,0.4h-0.28L19.99,9.59z"/>
		<path class="st1" d="M23.24,10.39c0.12,0.12,0.18,0.3,0.18,0.53v0.95h-0.3v-0.91c0-0.16-0.04-0.28-0.12-0.36
			c-0.08-0.08-0.19-0.12-0.33-0.12c-0.16,0-0.29,0.05-0.38,0.14c-0.09,0.09-0.14,0.23-0.14,0.4v0.85h-0.3v-1.64h0.29v0.25
			c0.06-0.08,0.14-0.15,0.24-0.2c0.1-0.05,0.22-0.07,0.35-0.07C22.95,10.21,23.12,10.27,23.24,10.39z"/>
		<path class="st1" d="M24.25,11.78c-0.13-0.07-0.23-0.17-0.31-0.3s-0.11-0.27-0.11-0.43s0.04-0.31,0.11-0.43s0.17-0.23,0.31-0.3
			c0.13-0.07,0.28-0.11,0.44-0.11s0.31,0.04,0.44,0.11c0.13,0.07,0.23,0.17,0.3,0.3c0.07,0.13,0.11,0.27,0.11,0.43
			s-0.04,0.31-0.11,0.43c-0.07,0.13-0.17,0.23-0.3,0.3c-0.13,0.07-0.28,0.11-0.44,0.11S24.38,11.85,24.25,11.78z M24.97,11.56
			c0.08-0.05,0.15-0.12,0.2-0.21c0.05-0.09,0.07-0.19,0.07-0.3s-0.02-0.21-0.07-0.3c-0.05-0.09-0.11-0.16-0.2-0.2
			c-0.08-0.05-0.18-0.07-0.28-0.07s-0.2,0.02-0.28,0.07c-0.08,0.05-0.15,0.12-0.2,0.2c-0.05,0.09-0.07,0.19-0.07,0.3
			s0.02,0.21,0.07,0.3c0.05,0.09,0.11,0.16,0.2,0.21s0.18,0.07,0.28,0.07S24.89,11.6,24.97,11.56z"/>
		<path class="st1" d="M26.04,11.83c-0.12-0.04-0.22-0.08-0.29-0.14l0.12-0.24c0.07,0.05,0.16,0.09,0.26,0.12s0.21,0.05,0.31,0.05
			c0.26,0,0.39-0.08,0.39-0.22c0-0.05-0.02-0.09-0.05-0.12c-0.04-0.03-0.08-0.05-0.13-0.06c-0.05-0.01-0.13-0.03-0.23-0.04
			c-0.13-0.02-0.24-0.04-0.32-0.07c-0.08-0.03-0.16-0.07-0.22-0.14c-0.06-0.06-0.09-0.15-0.09-0.27c0-0.15,0.06-0.27,0.19-0.36
			s0.29-0.13,0.5-0.13c0.11,0,0.22,0.01,0.33,0.04c0.11,0.03,0.2,0.06,0.27,0.11l-0.13,0.24c-0.13-0.09-0.29-0.13-0.47-0.13
			c-0.13,0-0.22,0.02-0.29,0.06c-0.07,0.04-0.1,0.1-0.1,0.16c0,0.05,0.02,0.1,0.06,0.13s0.08,0.05,0.14,0.07s0.13,0.03,0.23,0.05
			c0.13,0.02,0.24,0.05,0.32,0.07c0.08,0.03,0.15,0.07,0.21,0.13c0.06,0.06,0.09,0.15,0.09,0.26c0,0.15-0.06,0.27-0.19,0.35
			s-0.3,0.13-0.52,0.13C26.29,11.89,26.16,11.87,26.04,11.83z"/>
		<path class="st1" d="M27.77,11.78c-0.13-0.07-0.23-0.17-0.31-0.3s-0.11-0.27-0.11-0.43s0.04-0.31,0.11-0.43s0.17-0.23,0.31-0.3
			c0.13-0.07,0.28-0.11,0.44-0.11s0.31,0.04,0.44,0.11c0.13,0.07,0.23,0.17,0.3,0.3c0.07,0.13,0.11,0.27,0.11,0.43
			s-0.04,0.31-0.11,0.43c-0.07,0.13-0.17,0.23-0.3,0.3c-0.13,0.07-0.28,0.11-0.44,0.11S27.9,11.85,27.77,11.78z M28.49,11.56
			c0.08-0.05,0.15-0.12,0.2-0.21c0.05-0.09,0.07-0.19,0.07-0.3s-0.02-0.21-0.07-0.3c-0.05-0.09-0.11-0.16-0.2-0.2
			c-0.08-0.05-0.18-0.07-0.28-0.07s-0.2,0.02-0.28,0.07c-0.08,0.05-0.15,0.12-0.2,0.2c-0.05,0.09-0.07,0.19-0.07,0.3
			s0.02,0.21,0.07,0.3c0.05,0.09,0.11,0.16,0.2,0.21s0.18,0.07,0.28,0.07S28.41,11.6,28.49,11.56z"/>
		<path class="st1" d="M30.4,11.77c-0.04,0.04-0.1,0.07-0.16,0.08c-0.06,0.02-0.13,0.03-0.2,0.03c-0.17,0-0.29-0.04-0.38-0.13
			s-0.14-0.22-0.14-0.38v-0.9h-0.28v-0.24h0.28V9.87h0.3v0.36h0.47v0.24h-0.47v0.89c0,0.09,0.02,0.16,0.07,0.21
			c0.04,0.05,0.11,0.07,0.19,0.07c0.09,0,0.17-0.03,0.23-0.08L30.4,11.77z"/>
		<path class="st1" d="M31.27,10.29c0.1-0.05,0.22-0.07,0.37-0.07v0.29c-0.02,0-0.04,0-0.07,0c-0.16,0-0.29,0.05-0.38,0.14
			c-0.09,0.1-0.14,0.23-0.14,0.41v0.82h-0.3v-1.64h0.29v0.28C31.09,10.41,31.17,10.34,31.27,10.29z"/>
		<path class="st1" d="M32.25,11.78c-0.13-0.07-0.23-0.17-0.31-0.3s-0.11-0.27-0.11-0.43s0.04-0.31,0.11-0.43s0.17-0.23,0.31-0.3
			c0.13-0.07,0.28-0.11,0.44-0.11s0.31,0.04,0.44,0.11c0.13,0.07,0.23,0.17,0.3,0.3c0.07,0.13,0.11,0.27,0.11,0.43
			s-0.04,0.31-0.11,0.43c-0.07,0.13-0.17,0.23-0.3,0.3c-0.13,0.07-0.28,0.11-0.44,0.11S32.38,11.85,32.25,11.78z M32.98,11.56
			c0.08-0.05,0.15-0.12,0.2-0.21c0.05-0.09,0.07-0.19,0.07-0.3s-0.02-0.21-0.07-0.3c-0.05-0.09-0.11-0.16-0.2-0.2
			c-0.08-0.05-0.18-0.07-0.28-0.07s-0.2,0.02-0.28,0.07c-0.08,0.05-0.15,0.12-0.2,0.2c-0.05,0.09-0.07,0.19-0.07,0.3
			s0.02,0.21,0.07,0.3c0.05,0.09,0.11,0.16,0.2,0.21s0.18,0.07,0.28,0.07S32.89,11.6,32.98,11.56z"/>
		<path class="st1" d="M34.04,11.83c-0.12-0.04-0.22-0.08-0.29-0.14l0.12-0.24c0.07,0.05,0.16,0.09,0.26,0.12s0.21,0.05,0.31,0.05
			c0.26,0,0.39-0.08,0.39-0.22c0-0.05-0.02-0.09-0.05-0.12c-0.04-0.03-0.08-0.05-0.13-0.06c-0.05-0.01-0.13-0.03-0.23-0.04
			c-0.13-0.02-0.24-0.04-0.32-0.07c-0.08-0.03-0.16-0.07-0.22-0.14c-0.06-0.06-0.09-0.15-0.09-0.27c0-0.15,0.06-0.27,0.19-0.36
			s0.29-0.13,0.5-0.13c0.11,0,0.22,0.01,0.33,0.04c0.11,0.03,0.2,0.06,0.27,0.11l-0.13,0.24c-0.13-0.09-0.29-0.13-0.47-0.13
			c-0.13,0-0.22,0.02-0.29,0.06c-0.07,0.04-0.1,0.1-0.1,0.16c0,0.05,0.02,0.1,0.06,0.13s0.08,0.05,0.14,0.07s0.13,0.03,0.23,0.05
			c0.13,0.02,0.24,0.05,0.32,0.07c0.08,0.03,0.15,0.07,0.21,0.13c0.06,0.06,0.09,0.15,0.09,0.26c0,0.15-0.06,0.27-0.19,0.35
			s-0.3,0.13-0.52,0.13C34.3,11.89,34.17,11.87,34.04,11.83z"/>
		<path class="st1" d="M35.93,10.97c0.03-0.06,0.06-0.12,0.1-0.16c0.04-0.04,0.09-0.09,0.16-0.15c0.08-0.07,0.14-0.13,0.18-0.19
			s0.06-0.12,0.06-0.19c0-0.1-0.04-0.18-0.12-0.24c-0.08-0.06-0.19-0.09-0.33-0.09c-0.24,0-0.43,0.08-0.55,0.24l-0.23-0.16
			c0.09-0.11,0.2-0.2,0.33-0.26c0.13-0.06,0.29-0.09,0.47-0.09c0.22,0,0.4,0.05,0.54,0.15c0.13,0.1,0.2,0.23,0.2,0.41
			c0,0.08-0.01,0.16-0.04,0.22s-0.06,0.12-0.1,0.16c-0.04,0.04-0.09,0.09-0.16,0.15c-0.08,0.08-0.15,0.14-0.19,0.2
			c-0.04,0.06-0.06,0.13-0.06,0.21h-0.31C35.88,11.1,35.9,11.03,35.93,10.97z M35.9,11.83c-0.04-0.04-0.06-0.08-0.06-0.14
			s0.02-0.1,0.06-0.14c0.04-0.04,0.09-0.06,0.14-0.06c0.06,0,0.1,0.02,0.14,0.06c0.04,0.04,0.06,0.09,0.06,0.14s-0.02,0.1-0.06,0.14
			c-0.04,0.04-0.08,0.06-0.14,0.06C35.98,11.89,35.94,11.87,35.9,11.83z"/>
	</g>
	<g>
		<g>
			<path class="st1" d="M5.23,12.47H2.44c-0.03,0-0.06-0.01-0.08-0.03c-0.02-0.02-0.03-0.05-0.03-0.08l0.31-2.78
				c0.01-0.05,0.05-0.09,0.1-0.09h2.17c0.05,0,0.1,0.04,0.1,0.09l0.08,0.77c0.01,0.06-0.03,0.11-0.09,0.11
				c-0.06,0.01-0.11-0.03-0.11-0.09L4.83,9.7H2.84l-0.29,2.57h2.55l-0.06-0.58c-0.01-0.06,0.03-0.11,0.09-0.11
				c0.06-0.01,0.11,0.03,0.11,0.09l0.08,0.69c0,0.03-0.01,0.06-0.03,0.08C5.28,12.46,5.26,12.47,5.23,12.47z"/>
			<path class="st1" d="M4.53,9.58c-0.06,0-0.1-0.05-0.1-0.1c0-0.33-0.27-0.6-0.6-0.6s-0.6,0.27-0.6,0.6c0,0.06-0.05,0.1-0.1,0.1
				c-0.06,0-0.1-0.05-0.1-0.1c0-0.44,0.36-0.8,0.8-0.8s0.8,0.36,0.8,0.8C4.63,9.54,4.58,9.58,4.53,9.58z"/>
		</g>
		<circle class="st2" cx="5.14" cy="11.68" r="0.23"/>
	</g>
</g>
</svg>
