<?xml version="1.0" encoding="utf-8"?>
<!-- Generator: Adobe Illustrator 24.1.1, SVG Export Plug-In . SVG Version: 6.00 Build 0)  -->
<svg version="1.1" id="Capa_1" xmlns="http://www.w3.org/2000/svg" xmlns:xlink="http://www.w3.org/1999/xlink" x="0px" y="0px"
	 viewBox="0 0 16 16" style="enable-background:new 0 0 16 16;" xml:space="preserve">
<style type="text/css">
	.st0{fill:#4ED7E5;}
	.st1{fill:#F80F49;}
</style>
<g>
	<path class="st0" d="M7.08,15.09c-0.12,0-0.24-0.05-0.32-0.13L0.71,8.91c-0.18-0.18-0.18-0.47,0-0.65l5.61-5.61
		c0.03-0.03,0.07-0.06,0.12-0.09l3.71-1.85c0.18-0.09,0.39-0.05,0.53,0.09l4.19,4.19c0.14,0.14,0.17,0.35,0.09,0.52l-1.76,3.62
		c-0.11,0.23-0.39,0.32-0.61,0.21c-0.23-0.11-0.32-0.38-0.21-0.61l1.62-3.32l-3.73-3.73L6.92,3.36L1.68,8.59l5.4,5.4l1.55-1.55
		c0.18-0.18,0.47-0.18,0.65,0c0.18,0.18,0.18,0.47,0,0.65L7.4,14.96C7.32,15.04,7.2,15.09,7.08,15.09z"/>
	<g>
		<g>
			<path class="st0" d="M10.19,4.79c-0.18,0-0.34,0.07-0.48,0.21c-0.27,0.27-0.27,0.71,0,0.96c0.14,0.14,0.32,0.21,0.48,0.21
				c0.16,0,0.34-0.07,0.48-0.21c0.27-0.27,0.27-0.71,0-0.96C10.56,4.86,10.38,4.79,10.19,4.79L10.19,4.79z"/>
		</g>
	</g>
	<circle class="st1" cx="8.96" cy="12.76" r="1.03"/>
</g>
</svg>
