<?xml version="1.0" encoding="utf-8"?>
<!-- Generator: Adobe Illustrator 24.1.1, SVG Export Plug-In . SVG Version: 6.00 Build 0)  -->
<svg version="1.1" id="Capa_1" xmlns="http://www.w3.org/2000/svg" xmlns:xlink="http://www.w3.org/1999/xlink" x="0px" y="0px"
	 viewBox="0 0 40 9" style="enable-background:new 0 0 40 9;" xml:space="preserve">
<style type="text/css">
	.st0{fill:#151E3F;}
	.st1{fill:#FFFFFF;}
	.st2{fill:#F80F49;}
</style>
<g>
	<path class="st0" d="M36.47,8.4H4.13C2.18,8.4,0.6,6.82,0.6,4.87v-0.8c0-1.95,1.58-3.53,3.53-3.53h32.34
		c1.95,0,3.53,1.58,3.53,3.53v0.8C40,6.82,38.42,8.4,36.47,8.4z"/>
	<g>
		<path class="st1" d="M10.45,5.57v0.32H8.31V5.64l1.61-1.99H8.34V3.33h2.07v0.25L8.8,5.57H10.45z"/>
		<path class="st1" d="M11.16,5.78C11,5.7,10.88,5.58,10.8,5.43c-0.09-0.15-0.13-0.32-0.13-0.51c0-0.19,0.04-0.36,0.13-0.51
			c0.09-0.15,0.21-0.27,0.36-0.35c0.15-0.08,0.33-0.13,0.52-0.13s0.37,0.04,0.52,0.13c0.15,0.08,0.27,0.2,0.36,0.35
			c0.09,0.15,0.13,0.32,0.13,0.51c0,0.19-0.04,0.36-0.13,0.51c-0.09,0.15-0.21,0.27-0.36,0.35s-0.32,0.13-0.52,0.13
			S11.31,5.87,11.16,5.78z M12.01,5.51c0.1-0.06,0.18-0.14,0.23-0.24s0.08-0.22,0.08-0.36c0-0.13-0.03-0.25-0.08-0.36
			c-0.06-0.1-0.13-0.18-0.23-0.24c-0.1-0.06-0.21-0.08-0.33-0.08s-0.24,0.03-0.33,0.08c-0.1,0.06-0.18,0.14-0.23,0.24
			c-0.06,0.1-0.09,0.22-0.09,0.36c0,0.13,0.03,0.25,0.09,0.36c0.06,0.1,0.14,0.18,0.23,0.24c0.1,0.06,0.21,0.09,0.33,0.09
			S11.91,5.57,12.01,5.51z"/>
		<path class="st1" d="M14.79,4.14c0.15,0.14,0.22,0.35,0.22,0.63v1.12h-0.35V4.81c0-0.19-0.05-0.33-0.14-0.42
			c-0.09-0.1-0.22-0.14-0.39-0.14c-0.19,0-0.34,0.06-0.45,0.17c-0.11,0.11-0.16,0.27-0.16,0.48v1h-0.35V3.95h0.34v0.29
			c0.07-0.1,0.17-0.18,0.29-0.23c0.12-0.05,0.26-0.08,0.41-0.08C14.45,3.93,14.65,4,14.79,4.14z"/>
		<path class="st1" d="M16.98,4.13c0.14,0.13,0.21,0.33,0.21,0.59v1.17h-0.33V5.63c-0.06,0.09-0.14,0.16-0.25,0.21
			s-0.24,0.07-0.39,0.07c-0.22,0-0.39-0.05-0.52-0.16c-0.13-0.1-0.2-0.24-0.2-0.41c0-0.17,0.06-0.31,0.19-0.41s0.32-0.16,0.59-0.16
			h0.56V4.7c0-0.15-0.04-0.27-0.13-0.35s-0.22-0.12-0.39-0.12c-0.11,0-0.23,0.02-0.34,0.06c-0.11,0.04-0.2,0.09-0.28,0.15
			l-0.15-0.26c0.1-0.08,0.22-0.14,0.36-0.19c0.14-0.04,0.29-0.06,0.44-0.06C16.64,3.93,16.84,3.99,16.98,4.13z M16.63,5.55
			c0.1-0.06,0.17-0.14,0.21-0.25V5.02h-0.54c-0.3,0-0.45,0.1-0.45,0.3c0,0.1,0.04,0.17,0.11,0.23c0.08,0.06,0.18,0.08,0.31,0.08
			S16.54,5.61,16.63,5.55z"/>
		<path class="st1" d="M20.66,3.17v2.72h-0.34V5.58c-0.08,0.11-0.18,0.19-0.3,0.25s-0.25,0.08-0.4,0.08c-0.19,0-0.36-0.04-0.5-0.13
			c-0.15-0.08-0.27-0.2-0.35-0.35c-0.08-0.15-0.13-0.32-0.13-0.52s0.04-0.37,0.13-0.52c0.08-0.15,0.2-0.26,0.35-0.35
			s0.32-0.12,0.5-0.12c0.14,0,0.27,0.03,0.38,0.08c0.12,0.05,0.21,0.13,0.29,0.23V3.17H20.66z M20,5.51
			c0.1-0.06,0.18-0.14,0.23-0.24s0.08-0.22,0.08-0.36c0-0.13-0.03-0.25-0.08-0.36C20.17,4.46,20.1,4.38,20,4.32
			s-0.21-0.08-0.33-0.08c-0.12,0-0.24,0.03-0.33,0.08c-0.1,0.06-0.18,0.14-0.23,0.24c-0.06,0.1-0.09,0.22-0.09,0.36
			c0,0.13,0.03,0.25,0.09,0.36c0.06,0.1,0.14,0.18,0.23,0.24c0.1,0.06,0.21,0.09,0.33,0.09C19.79,5.6,19.9,5.57,20,5.51z"/>
		<path class="st1" d="M23.07,5.03H21.5c0.02,0.17,0.1,0.31,0.23,0.41c0.13,0.1,0.29,0.16,0.48,0.16c0.23,0,0.42-0.08,0.56-0.23
			l0.19,0.23c-0.09,0.1-0.2,0.18-0.33,0.23c-0.13,0.05-0.28,0.08-0.44,0.08c-0.2,0-0.39-0.04-0.54-0.13
			c-0.16-0.08-0.28-0.2-0.37-0.35c-0.09-0.15-0.13-0.32-0.13-0.51c0-0.19,0.04-0.36,0.13-0.51c0.08-0.15,0.2-0.27,0.35-0.35
			c0.15-0.08,0.31-0.13,0.5-0.13s0.35,0.04,0.5,0.13c0.14,0.08,0.26,0.2,0.34,0.35c0.08,0.15,0.12,0.32,0.12,0.52
			C23.08,4.95,23.08,4.99,23.07,5.03z M21.7,4.38c-0.11,0.1-0.18,0.24-0.2,0.4h1.24c-0.02-0.16-0.09-0.3-0.2-0.4
			c-0.11-0.1-0.25-0.16-0.42-0.16S21.81,4.28,21.7,4.38z"/>
		<path class="st1" d="M25.06,5.75c-0.21-0.11-0.37-0.27-0.49-0.47c-0.12-0.2-0.18-0.42-0.18-0.67c0-0.25,0.06-0.47,0.18-0.67
			c0.12-0.2,0.28-0.36,0.49-0.47c0.21-0.11,0.44-0.17,0.7-0.17c0.26,0,0.49,0.06,0.7,0.17c0.21,0.11,0.37,0.27,0.49,0.47
			c0.12,0.2,0.17,0.42,0.17,0.67c0,0.25-0.06,0.47-0.17,0.67c-0.12,0.2-0.28,0.35-0.49,0.47c-0.21,0.11-0.44,0.17-0.7,0.17
			C25.5,5.92,25.27,5.86,25.06,5.75z M26.27,5.46c0.15-0.08,0.27-0.2,0.36-0.35c0.09-0.15,0.13-0.32,0.13-0.5
			c0-0.19-0.04-0.35-0.13-0.5c-0.09-0.15-0.21-0.27-0.36-0.35c-0.15-0.09-0.32-0.13-0.51-0.13c-0.19,0-0.36,0.04-0.51,0.13
			s-0.27,0.2-0.36,0.35c-0.09,0.15-0.13,0.32-0.13,0.5c0,0.19,0.04,0.35,0.13,0.5c0.09,0.15,0.21,0.27,0.36,0.35
			s0.32,0.13,0.51,0.13C25.95,5.59,26.12,5.55,26.27,5.46z"/>
		<path class="st1" d="M28.02,3.78v0.17h0.56v0.29h-0.56v1.65h-0.35V4.24h-0.33V3.95h0.33V3.77c0-0.19,0.06-0.35,0.17-0.46
			c0.11-0.11,0.27-0.17,0.47-0.17c0.08,0,0.15,0.01,0.22,0.03s0.13,0.05,0.18,0.08l-0.11,0.27c-0.08-0.06-0.17-0.09-0.27-0.09
			C28.13,3.44,28.02,3.55,28.02,3.78z"/>
		<path class="st1" d="M30.63,5.03h-1.57c0.02,0.17,0.1,0.31,0.22,0.41c0.13,0.1,0.29,0.16,0.48,0.16c0.23,0,0.42-0.08,0.56-0.23
			l0.19,0.23c-0.09,0.1-0.2,0.18-0.33,0.23c-0.13,0.05-0.28,0.08-0.44,0.08c-0.21,0-0.39-0.04-0.54-0.13
			c-0.16-0.08-0.28-0.2-0.37-0.35c-0.09-0.15-0.13-0.32-0.13-0.51c0-0.19,0.04-0.36,0.13-0.51c0.08-0.15,0.2-0.27,0.35-0.35
			c0.15-0.08,0.31-0.13,0.5-0.13s0.35,0.04,0.5,0.13c0.14,0.08,0.26,0.2,0.34,0.35c0.08,0.15,0.12,0.32,0.12,0.52
			C30.64,4.95,30.64,4.99,30.63,5.03z M29.26,4.38c-0.11,0.1-0.18,0.24-0.2,0.4h1.24c-0.02-0.16-0.09-0.3-0.2-0.4
			c-0.11-0.1-0.25-0.16-0.42-0.16S29.37,4.28,29.26,4.38z"/>
		<path class="st1" d="M31.74,4.02c0.12-0.06,0.26-0.09,0.44-0.09v0.34c-0.02,0-0.05,0-0.08,0c-0.19,0-0.34,0.06-0.45,0.17
			s-0.16,0.27-0.16,0.48v0.97h-0.35V3.95h0.34v0.33C31.53,4.16,31.62,4.08,31.74,4.02z"/>
		<path class="st1" d="M33.77,5.77c-0.05,0.04-0.11,0.08-0.19,0.1c-0.08,0.02-0.15,0.04-0.23,0.04c-0.2,0-0.35-0.05-0.45-0.16
			S32.73,5.5,32.73,5.3V4.24H32.4V3.95h0.33V3.52h0.35v0.42h0.56v0.29h-0.56v1.05c0,0.1,0.03,0.19,0.08,0.24
			c0.05,0.06,0.13,0.08,0.22,0.08c0.11,0,0.2-0.03,0.27-0.09L33.77,5.77z"/>
		<path class="st1" d="M35.52,4.13c0.14,0.13,0.21,0.33,0.21,0.59v1.17H35.4V5.63c-0.06,0.09-0.14,0.16-0.25,0.21
			s-0.24,0.07-0.39,0.07c-0.22,0-0.39-0.05-0.52-0.16c-0.13-0.1-0.2-0.24-0.2-0.41c0-0.17,0.06-0.31,0.19-0.41
			c0.13-0.1,0.32-0.16,0.59-0.16h0.56V4.7c0-0.15-0.04-0.27-0.13-0.35s-0.22-0.12-0.39-0.12c-0.12,0-0.23,0.02-0.34,0.06
			c-0.11,0.04-0.2,0.09-0.28,0.15L34.1,4.18c0.1-0.08,0.22-0.14,0.36-0.19c0.14-0.04,0.29-0.06,0.44-0.06
			C35.17,3.93,35.38,3.99,35.52,4.13z M35.17,5.55c0.1-0.06,0.17-0.14,0.21-0.25V5.02h-0.54c-0.3,0-0.45,0.1-0.45,0.3
			c0,0.1,0.04,0.17,0.11,0.23c0.08,0.06,0.18,0.08,0.32,0.08C34.96,5.64,35.07,5.61,35.17,5.55z"/>
		<path class="st1" d="M36.48,5.84c-0.15-0.04-0.26-0.1-0.34-0.16l0.15-0.28c0.08,0.06,0.19,0.11,0.31,0.15s0.25,0.05,0.37,0.05
			c0.31,0,0.46-0.09,0.46-0.26c0-0.06-0.02-0.1-0.06-0.14c-0.04-0.03-0.09-0.06-0.16-0.08s-0.15-0.03-0.27-0.05
			c-0.16-0.02-0.28-0.05-0.38-0.08s-0.18-0.09-0.25-0.16c-0.07-0.08-0.11-0.18-0.11-0.32c0-0.18,0.07-0.32,0.22-0.42
			c0.15-0.11,0.34-0.16,0.59-0.16c0.13,0,0.26,0.02,0.39,0.05c0.13,0.03,0.24,0.07,0.32,0.13l-0.15,0.28
			c-0.16-0.1-0.34-0.15-0.56-0.15c-0.15,0-0.26,0.02-0.34,0.07s-0.12,0.11-0.12,0.19c0,0.06,0.02,0.11,0.07,0.15s0.1,0.06,0.16,0.08
			s0.16,0.04,0.27,0.06c0.16,0.03,0.28,0.06,0.38,0.09c0.1,0.03,0.18,0.08,0.25,0.16c0.07,0.07,0.1,0.18,0.1,0.31
			c0,0.18-0.07,0.31-0.22,0.42c-0.15,0.1-0.35,0.16-0.61,0.16C36.78,5.91,36.63,5.89,36.48,5.84z"/>
	</g>
	<g>
		<path class="st1" d="M4.5,6.57c-0.04,0-0.07-0.01-0.09-0.04L2.65,4.77c-0.05-0.05-0.05-0.14,0-0.19l1.63-1.63
			C4.29,2.94,4.3,2.93,4.31,2.92l1.08-0.54C5.44,2.36,5.5,2.37,5.54,2.41l1.22,1.22c0.04,0.04,0.05,0.1,0.03,0.15L6.28,4.83
			C6.24,4.9,6.16,4.93,6.1,4.89C6.03,4.86,6,4.78,6.04,4.72l0.47-0.97L5.42,2.67L4.45,3.15L2.93,4.67L4.5,6.24l0.45-0.45
			c0.05-0.05,0.14-0.05,0.19,0c0.05,0.05,0.05,0.14,0,0.19L4.59,6.53C4.57,6.55,4.53,6.57,4.5,6.57z"/>
		<g>
			<g>
				<path class="st1" d="M5.4,3.57c-0.05,0-0.1,0.02-0.14,0.06c-0.08,0.08-0.08,0.21,0,0.28C5.3,3.95,5.36,3.97,5.4,3.97
					s0.1-0.02,0.14-0.06c0.08-0.08,0.08-0.21,0-0.28C5.51,3.59,5.46,3.57,5.4,3.57L5.4,3.57z"/>
			</g>
		</g>
		<circle class="st2" cx="5.04" cy="5.89" r="0.3"/>
	</g>
</g>
</svg>
