<?xml version="1.0" encoding="utf-8"?>
<!-- Generator: Adobe Illustrator 24.1.1, SVG Export Plug-In . SVG Version: 6.00 Build 0)  -->
<svg version="1.1" id="Capa_1" xmlns="http://www.w3.org/2000/svg" xmlns:xlink="http://www.w3.org/1999/xlink" x="0px" y="0px"
	 viewBox="0 0 22 22" style="enable-background:new 0 0 22 22;" xml:space="preserve">
<style type="text/css">
	.st0{fill:#FFFFFF;}
	.st1{fill:#4ED7E5;}
</style>
<g>
	<path class="st0" d="M11.01,13.82c0.75,0.5,1.56,0.79,2.44,0.91c1.95,0.25,3.63-0.33,5.04-1.68c0.15-0.14,0.25-0.13,0.39,0.01
		c0.33,0.32,0.66,0.63,1,0.93c0.17,0.15,0.14,0.26-0.01,0.41c-1.28,1.24-2.79,2.01-4.56,2.24c-2.05,0.27-3.93-0.19-5.62-1.39
		c-0.18-0.13-0.31-0.07-0.48,0.01c-2.25,0.94-4.38,0.78-6.28-0.81c-1.11-0.93-1.62-2.2-1.7-3.66c-0.09-1.53,0.3-2.9,1.34-4.04
		c0.96-1.05,2.18-1.56,3.6-1.69c1.65-0.15,3.05,0.38,4.24,1.49c0.93,0.87,1.52,1.95,1.66,3.24C12.25,11.26,11.89,12.6,11.01,13.82z
		 M7.86,13.54c-0.27-0.48-0.52-0.94-0.78-1.4c-0.12-0.2-0.07-0.32,0.15-0.41c0.41-0.16,0.82-0.33,1.22-0.52
		c0.21-0.1,0.31-0.04,0.41,0.16c0.13,0.27,0.29,0.54,0.47,0.86c0.37-0.79,0.48-1.52,0.4-2.32C9.58,8.43,8.49,7.11,6.78,7.08
		C5.71,7.06,4.82,7.41,4.2,8.3c-0.73,1.07-0.83,2.24-0.39,3.44C4.39,13.32,6.31,14.17,7.86,13.54z"/>
	<path class="st1" d="M14.8,11.21c0-0.69,0.54-1.21,1.23-1.21c0.68,0,1.21,0.54,1.2,1.23c0,0.69-0.53,1.21-1.23,1.2
		C15.31,12.43,14.79,11.91,14.8,11.21z"/>
</g>
</svg>
