<?xml version="1.0" encoding="utf-8"?>
<!-- Generator: Adobe Illustrator 24.1.1, SVG Export Plug-In . SVG Version: 6.00 Build 0)  -->
<svg version="1.1" id="Capa_1" xmlns="http://www.w3.org/2000/svg" xmlns:xlink="http://www.w3.org/1999/xlink" x="0px" y="0px"
	 viewBox="0 0 200 100" style="enable-background:new 0 0 200 100;" xml:space="preserve">
<style type="text/css">
	.st0{fill:#F80F49;}
	.st1{fill:#4ED7E5;}
</style>
<g>
	<g>
		<path class="st0" d="M40.31,62.08c5.72,3.39,11.68,4.59,17.87,2.56c3.19-1.05,6.21-2.89,8.98-4.83c1.64-1.15,2.52-1.18,3.92,0.1
			c3.97,3.65,4,3.75-0.35,7.11c-9.94,7.7-24.05,8.29-34.89,1.36c-1.32-0.85-2.29-0.92-3.73-0.32c-8.47,3.51-18.54,1.52-24.38-4.67
			c-5.9-6.26-7.13-15.93-3.1-24.26c5.78-11.93,23.45-14.6,33.11-5c7.19,7.14,8.61,16.86,3.77,25.76
			C41.14,60.54,40.78,61.21,40.31,62.08z M33.45,54.9c3.51-5.24,0.85-12.94-2.64-15.89c-4.11-3.47-11.34-3.38-15.24,0.22
			c-4.69,4.33-5.36,11.94-1.52,17.39c3.1,4.41,9.08,6.22,13.17,4.09c0.24-2.52-4.49-3.94-1.55-6.8c1.18-1.16,3.27-1.86,4.95-1.86
			C31.56,52.05,32.51,53.89,33.45,54.9z"/>
		<path class="st0" d="M114.21,68.95c-3.2,0-6.03,0.16-8.83-0.11c-0.74-0.07-1.59-1.36-1.98-2.27c-1.87-4.37-1.82-4.39-6.53-4.39
			c-3.1,0-6.21,0.09-9.31-0.04c-1.64-0.07-2.46,0.47-3,2.04c-1.94,5.61-0.62,4.71-6.97,4.8c-1.44,0.02-2.88,0-4.61,0
			c0.25-1.06,0.32-1.73,0.55-2.33c4.55-11.87,9.14-23.72,13.64-35.6c0.62-1.64,1.54-2.28,3.26-2.19c2.15,0.11,4.31,0.09,6.46,0.01
			c1.51-0.06,2.35,0.5,2.9,1.94c4.54,11.87,9.15,23.72,13.72,35.58C113.78,67.06,113.91,67.79,114.21,68.95z M87.95,54.16
			c3.95,0,7.39,0,11.23,0c-1.89-5.17-3.65-10-5.64-15.45C91.55,44.2,89.82,48.99,87.95,54.16z"/>
		<path class="st0" d="M198,68.93c-3.27,0-6.19,0.14-9.07-0.11c-0.65-0.05-1.38-1.36-1.73-2.22c-1.74-4.4-1.7-4.42-6.46-4.42
			c-3.1,0-6.21,0.09-9.31-0.04c-1.66-0.07-2.43,0.54-3,2.06c-1.81,4.8-1.87,4.78-7.03,4.77c-1.44,0-2.87,0-4.75,0
			c0.36-1.26,0.53-2.06,0.82-2.82c4.49-11.61,9.05-23.21,13.46-34.85c0.7-1.84,1.64-2.6,3.59-2.46c1.97,0.14,3.97,0.12,5.94,0.01
			c1.71-0.1,2.65,0.5,3.28,2.15c4.47,11.81,9.02,23.58,13.54,35.37C197.53,67.07,197.68,67.8,198,68.93z M177.65,39.44
			c-0.19,0.01-0.38,0.01-0.57,0.02c-1.74,4.83-3.47,9.67-5.27,14.68c3.96,0,7.39,0,11.16,0C181.11,49,179.38,44.22,177.65,39.44z"/>
		<path class="st0" d="M74.09,41.01c0,3.01,0.33,6.06-0.07,9.01c-0.96,7.09-7.77,11.18-15.83,9.81
			c-6.97-1.18-10.58-5.36-10.63-12.39c-0.03-4.81,0.05-9.63-0.03-14.44c-0.03-2,0.74-2.74,2.75-2.71c6.09,0.09,5.3-0.4,5.34,5.2
			c0.03,3.87-0.08,7.74,0.04,11.61c0.12,3.79,1.96,5.54,5.4,5.45c3.4-0.09,5.04-1.94,5.05-5.77c0.02-4.64,0.06-9.29-0.02-13.93
			c-0.03-1.9,0.71-2.58,2.6-2.56c6.43,0.08,5.4-0.43,5.47,5.3c0.02,1.81,0,3.61,0,5.42C74.16,41.01,74.13,41.01,74.09,41.01z"/>
		<path class="st0" d="M115.89,48.86c0-5.67,0.08-11.34-0.04-17c-0.04-2.17,0.54-3.09,2.89-3.02c7.37,0.21,6.16-0.87,6.22,6.07
			c0.07,7.81,0.08,15.63-0.02,23.44c-0.03,2.04,0.63,2.68,2.66,2.61c3.87-0.14,7.75,0.02,11.62-0.06c1.85-0.04,2.65,0.59,2.62,2.52
			c-0.09,6.72,0.48,5.47-5.43,5.54c-5.86,0.07-11.71-0.07-17.57,0.06c-2.23,0.05-3.05-0.6-3-2.9
			C115.98,60.37,115.89,54.61,115.89,48.86z"/>
		<path class="st0" d="M145.83,54.41c0-4.04,0.04-8.07-0.02-12.11c-0.02-1.54,0.55-2.16,2.11-2.14c8.48,0.13,6.82-1.03,6.93,6.35
			c0.1,6.61-0.04,13.23,0.06,19.84c0.03,2.04-0.68,2.66-2.69,2.66c-6.39,0.02-6.39,0.09-6.39-6.36
			C145.83,59.91,145.83,57.16,145.83,54.41z"/>
		<path class="st1" d="M150.15,38.42c-2.69-0.03-4.73-2.09-4.69-4.73c0.04-2.63,2.16-4.68,4.82-4.65c2.69,0.03,4.65,2.06,4.63,4.79
			C154.89,36.58,152.95,38.45,150.15,38.42z"/>
	</g>
</g>
</svg>
