<?xml version="1.0" encoding="utf-8"?>
<!-- Generator: Adobe Illustrator 24.1.1, SVG Export Plug-In . SVG Version: 6.00 Build 0)  -->
<svg version="1.1" id="Capa_1" xmlns="http://www.w3.org/2000/svg" xmlns:xlink="http://www.w3.org/1999/xlink" x="0px" y="0px"
	 viewBox="0 0 22 22" style="enable-background:new 0 0 22 22;" xml:space="preserve">
<style type="text/css">
	.st0{fill:#FFFFFF;}
	.st1{fill:#4ED7E5;}
</style>
<g>
	<path class="st0" d="M10.65,20.46c-5.23,0-9.49-4.26-9.49-9.49s4.26-9.49,9.49-9.49c3.78,0,7.2,2.24,8.71,5.71
		c0.13,0.31-0.01,0.67-0.32,0.8c-0.31,0.13-0.67-0.01-0.8-0.32c-1.31-3.02-4.29-4.98-7.59-4.98c-4.56,0-8.27,3.71-8.27,8.27
		s3.71,8.27,8.27,8.27c3.14,0,5.97-1.74,7.38-4.54c0.15-0.3,0.52-0.42,0.82-0.27c0.3,0.15,0.42,0.52,0.27,0.82
		C17.5,18.46,14.25,20.46,10.65,20.46z"/>
	<path class="st0" d="M10.65,18.13c-3.95,0-7.16-3.21-7.16-7.16s3.21-7.16,7.16-7.16s7.16,3.21,7.16,7.16S14.6,18.13,10.65,18.13z
		 M10.65,5.02c-3.28,0-5.94,2.67-5.94,5.94s2.67,5.94,5.94,5.94s5.94-2.67,5.94-5.94S13.93,5.02,10.65,5.02z"/>
	<path class="st0" d="M10.78,14.54c-0.16,0-0.31-0.06-0.43-0.18c-0.24-0.24-0.24-0.62,0-0.86l2.96-2.96c0.24-0.24,0.62-0.24,0.86,0
		c0.24,0.24,0.24,0.62,0,0.86l-2.96,2.96C11.09,14.48,10.93,14.54,10.78,14.54z"/>
	<path class="st0" d="M13.86,14.11c-0.16,0-0.31-0.06-0.43-0.18c-0.24-0.24-0.24-0.62,0-0.86l1-1c0.24-0.24,0.62-0.24,0.86,0
		c0.24,0.24,0.24,0.62,0,0.86l-1,1C14.17,14.05,14.02,14.11,13.86,14.11z"/>
	<circle class="st1" cx="18.72" cy="14.94" r="1.28"/>
</g>
</svg>
