<?xml version="1.0" encoding="utf-8"?>
<!-- Generator: Adobe Illustrator 24.1.1, SVG Export Plug-In . SVG Version: 6.00 Build 0)  -->
<svg version="1.1" id="Capa_1" xmlns="http://www.w3.org/2000/svg" xmlns:xlink="http://www.w3.org/1999/xlink" x="0px" y="0px"
	 viewBox="0 0 22 22" style="enable-background:new 0 0 22 22;" xml:space="preserve">
<style type="text/css">
	.st0{fill:#FFFFFF;}
	.st1{fill:#F80F49;}
</style>
<g>
	<path class="st0" d="M16.53,5.82H5.66c-0.27,0-0.49-0.22-0.49-0.49c0-0.27,0.22-0.49,0.49-0.49h10.87c0.27,0,0.49,0.22,0.49,0.49
		C17.02,5.6,16.8,5.82,16.53,5.82z"/>
	<path class="st0" d="M16.53,17.71H5.66c-0.27,0-0.49-0.22-0.49-0.49c0-0.27,0.22-0.49,0.49-0.49h10.87c0.27,0,0.49,0.22,0.49,0.49
		C17.02,17.49,16.8,17.71,16.53,17.71z"/>
	<g>
		<path class="st0" d="M15.97,20.29H6.58c-0.78,0-1.41-0.63-1.41-1.41V3.05c0-0.78,0.63-1.41,1.41-1.41h9.39
			c0.78,0,1.41,0.63,1.41,1.41V8.3c0,0.27-0.22,0.49-0.49,0.49c-0.27,0-0.49-0.22-0.49-0.49V3.05c0-0.24-0.19-0.43-0.43-0.43H6.58
			c-0.24,0-0.43,0.19-0.43,0.43v15.83c0,0.24,0.19,0.43,0.43,0.43h9.39c0.24,0,0.43-0.19,0.43-0.43v-5.1c0-0.27,0.22-0.49,0.49-0.49
			c0.27,0,0.49,0.22,0.49,0.49v5.1C17.38,19.65,16.75,20.29,15.97,20.29z"/>
	</g>
	<circle class="st1" cx="16.89" cy="14.06" r="1.11"/>
	<path class="st0" d="M12.01,18.98h-1.48c-0.27,0-0.49-0.22-0.49-0.49S10.26,18,10.53,18h1.48c0.27,0,0.49,0.22,0.49,0.49
		S12.29,18.98,12.01,18.98z"/>
</g>
</svg>
