<?xml version="1.0" encoding="utf-8"?>
<!-- Generator: Adobe Illustrator 24.1.1, SVG Export Plug-In . SVG Version: 6.00 Build 0)  -->
<svg version="1.1" id="Capa_1" xmlns="http://www.w3.org/2000/svg" xmlns:xlink="http://www.w3.org/1999/xlink" x="0px" y="0px"
	 viewBox="0 0 16 16" style="enable-background:new 0 0 16 16;" xml:space="preserve">
<style type="text/css">
	.st0{fill:#FFFFFF;}
</style>
<path class="st0" d="M8.16,0.34c-4.15,0-7.51,3.36-7.51,7.51c0,4.15,3.36,7.51,7.51,7.51s7.51-3.36,7.51-7.51
	C15.67,3.71,12.31,0.34,8.16,0.34z M11.76,6.01c0,0.08,0.01,0.16,0.01,0.24c0,2.45-1.87,5.28-5.28,5.28c-1.05,0-2.02-0.31-2.85-0.83
	c0.15,0.02,0.29,0.03,0.44,0.03c0.87,0,1.67-0.3,2.31-0.8c-0.81-0.01-1.5-0.55-1.73-1.29C4.76,8.66,4.88,8.67,5,8.67
	c0.17,0,0.33-0.02,0.49-0.07C4.64,8.44,4,7.69,4,6.79c0-0.01,0-0.02,0-0.02C4.25,6.9,4.54,6.99,4.84,7c-0.5-0.33-0.83-0.9-0.83-1.55
	c0-0.34,0.09-0.66,0.25-0.93c0.92,1.12,2.28,1.86,3.83,1.94C8.06,6.32,8.05,6.18,8.05,6.03c0-1.03,0.83-1.86,1.86-1.86
	c0.53,0,1.02,0.23,1.36,0.59c0.42-0.08,0.82-0.24,1.18-0.45C12.3,4.75,12,5.11,11.62,5.34c0.38-0.05,0.73-0.14,1.07-0.29
	C12.44,5.42,12.12,5.75,11.76,6.01z"/>
</svg>
