<?xml version="1.0" encoding="utf-8"?>
<!-- Generator: Adobe Illustrator 24.1.1, SVG Export Plug-In . SVG Version: 6.00 Build 0)  -->
<svg version="1.1" id="Capa_1" xmlns="http://www.w3.org/2000/svg" xmlns:xlink="http://www.w3.org/1999/xlink" x="0px" y="0px"
	 viewBox="0 0 28 8" style="enable-background:new 0 0 28 8;" xml:space="preserve">
<style type="text/css">
	.st0{fill:#FFFFFF;}
	.st1{fill:#FF5100;}
</style>
<g>
	<path class="st0" d="M9.95,5.46c-0.61,0-1.11-0.53-1.11-1.17V3.39c0-0.15,0.12-0.28,0.26-0.28c0.15,0,0.29,0.13,0.29,0.28v0.89
		c0,0.34,0.28,0.61,0.55,0.61c0.32,0,0.56-0.27,0.56-0.61V3.43c0-0.16,0.16-0.28,0.29-0.28c0.14,0,0.27,0.12,0.27,0.28v0.85
		C11.06,4.93,10.56,5.46,9.95,5.46"/>
	<path class="st0" d="M14.09,4.26c0,0.65-0.53,1.18-1.18,1.18c-0.25,0-0.48-0.07-0.67-0.21c-0.04,0.11-0.14,0.2-0.27,0.2
		c-0.16,0-0.28-0.13-0.28-0.28V2.18c0-0.15,0.13-0.28,0.28-0.28c0.15,0,0.28,0.13,0.28,0.28v1.09c0.19-0.12,0.42-0.2,0.66-0.2
		C13.56,3.07,14.09,3.6,14.09,4.26 M13.53,4.26c0-0.34-0.28-0.62-0.62-0.62c-0.34,0-0.62,0.28-0.62,0.62c0,0.34,0.28,0.62,0.62,0.62
		C13.25,4.87,13.53,4.6,13.53,4.26"/>
	<path class="st0" d="M15.78,5.46c-0.61,0-1.11-0.53-1.11-1.17V3.39c0-0.15,0.12-0.28,0.26-0.28c0.15,0,0.29,0.13,0.29,0.28v0.89
		c0,0.34,0.28,0.61,0.55,0.61c0.32,0,0.56-0.27,0.56-0.61V3.43c0-0.16,0.16-0.28,0.29-0.28c0.14,0,0.27,0.12,0.27,0.28v0.85
		C16.89,4.93,16.39,5.46,15.78,5.46"/>
	<path class="st0" d="M19.75,4.27v0.88c0,0.15-0.12,0.28-0.28,0.28c-0.16,0-0.28-0.13-0.28-0.28V4.27c0-0.33-0.24-0.6-0.54-0.6
		c-0.36,0-0.55,0.36-0.55,0.69v0.79c0,0.15-0.13,0.28-0.28,0.28c-0.15,0-0.28-0.13-0.28-0.28V3.37c0-0.15,0.13-0.28,0.28-0.28
		c0.12,0,0.22,0.08,0.26,0.19c0.17-0.11,0.36-0.17,0.57-0.17C19.26,3.11,19.75,3.63,19.75,4.27"/>
	<path class="st0" d="M21.63,5.15c0,0.16-0.13,0.28-0.28,0.28c-0.04,0-0.08,0-0.12,0c-0.15-0.02-0.3-0.09-0.41-0.21
		c-0.09-0.11-0.16-0.28-0.16-0.42V3.62h-0.2c-0.15,0-0.28-0.13-0.28-0.28c0-0.15,0.13-0.28,0.28-0.28h0.2V2.16
		c0-0.15,0.13-0.28,0.28-0.28c0.15,0,0.28,0.13,0.28,0.28v0.89h0.15c0.15,0,0.28,0.13,0.28,0.28c0,0.15-0.13,0.28-0.28,0.28h-0.15
		v1.11c0.01,0.04,0,0.09,0.03,0.12c0.02,0.02,0.07,0.02,0.1,0.02C21.5,4.87,21.63,4.99,21.63,5.15"/>
	<path class="st0" d="M24.13,4.43h-1.44C22.76,4.69,23,4.9,23.29,4.9c0.15,0,0.37-0.06,0.49-0.18c0.11-0.11,0.29-0.11,0.4,0
		c0.11,0.11,0.11,0.29,0,0.4c-0.26,0.25-0.62,0.33-0.88,0.33c-0.65,0-1.17-0.52-1.17-1.17c0-0.64,0.52-1.17,1.17-1.17
		c0.07,0,0.14,0,0.21,0.02c0.32,0.06,0.59,0.26,0.76,0.54c0.07,0.13,0.16,0.3,0.15,0.46c0,0.04-0.02,0.09-0.04,0.14
		C24.32,4.35,24.24,4.43,24.13,4.43 M22.77,3.96h0.99c-0.09-0.18-0.27-0.28-0.48-0.28C23.07,3.68,22.88,3.78,22.77,3.96"/>
	<path class="st0" d="M26.11,5.43c-0.31,0-0.59-0.12-0.81-0.33c-0.22-0.22-0.35-0.51-0.36-0.82c0-0.31,0.11-0.61,0.33-0.83
		c0.21-0.22,0.5-0.35,0.82-0.36c0.31,0,0.61,0.11,0.83,0.33c0.11,0.1,0.12,0.28,0.01,0.39c-0.11,0.11-0.28,0.12-0.4,0.01
		c-0.12-0.11-0.27-0.17-0.43-0.17c-0.16,0-0.31,0.07-0.43,0.19c-0.11,0.12-0.17,0.27-0.17,0.43c0,0.16,0.07,0.32,0.19,0.42
		c0.12,0.12,0.27,0.18,0.43,0.17c0.15,0,0.3-0.06,0.41-0.16c0.11-0.11,0.29-0.1,0.39,0.01c0.11,0.11,0.1,0.29-0.01,0.4
		c-0.21,0.2-0.49,0.31-0.77,0.31H26.11z"/>
	<path class="st1" d="M4.09,7.31c-1.76,0-3.19-1.43-3.19-3.19s1.43-3.19,3.19-3.19c0.14,0,0.25,0.11,0.25,0.25
		c0,0.14-0.11,0.25-0.25,0.25c-1.49,0-2.7,1.21-2.7,2.7c0,1.49,1.21,2.7,2.7,2.7c1.49,0,2.7-1.21,2.7-2.7
		c0-0.55-0.16-1.08-0.48-1.53C6.23,2.48,6.26,2.33,6.37,2.25C6.48,2.17,6.64,2.2,6.71,2.31c0.37,0.53,0.56,1.16,0.56,1.81
		C7.28,5.88,5.85,7.31,4.09,7.31"/>
	<path class="st0" d="M4.09,5.52c-0.62,0-1.14-0.54-1.14-1.2V3.4c0-0.16,0.12-0.29,0.27-0.29c0.15,0,0.3,0.13,0.3,0.29v0.92
		c0,0.35,0.29,0.62,0.57,0.62c0.33,0,0.57-0.28,0.57-0.62V3.44c0-0.16,0.17-0.29,0.3-0.29c0.15,0,0.27,0.12,0.27,0.29v0.88
		C5.23,4.98,4.71,5.52,4.09,5.52"/>
	<path class="st0" d="M5.97,1.36L5.73,1.35L5.74,1.1C5.75,0.94,5.62,0.8,5.46,0.8C5.3,0.79,5.16,0.92,5.15,1.08L5.14,1.32L4.9,1.31
		C4.74,1.3,4.6,1.43,4.59,1.59C4.59,1.75,4.71,1.89,4.88,1.9l0.24,0.01L5.11,2.15C5.1,2.31,5.22,2.45,5.39,2.46
		c0.06,0,0.11-0.01,0.15-0.04c0.09-0.05,0.15-0.14,0.15-0.24L5.7,1.93l0.24,0.01C6,1.95,6.06,1.93,6.1,1.91
		c0.09-0.05,0.15-0.14,0.15-0.24C6.26,1.5,6.13,1.36,5.97,1.36"/>
</g>
</svg>
