<?xml version="1.0" encoding="utf-8"?>
<!-- Generator: Adobe Illustrator 24.1.1, SVG Export Plug-In . SVG Version: 6.00 Build 0)  -->
<svg version="1.1" id="Capa_1" xmlns="http://www.w3.org/2000/svg" xmlns:xlink="http://www.w3.org/1999/xlink" x="0px" y="0px"
	 viewBox="0 0 22 22" style="enable-background:new 0 0 22 22;" xml:space="preserve">
<style type="text/css">
	.st0{fill:#FFFFFF;}
</style>
<g>
	<path class="st0" d="M18.63,13.55h-7.85c-0.28,0-0.51-0.23-0.51-0.51c0-0.28,0.23-0.51,0.51-0.51h7.85c0.89,0,1.61-0.72,1.61-1.61
		s-0.72-1.61-1.61-1.61H4.52c-0.28,0-0.51-0.23-0.51-0.51s0.23-0.51,0.51-0.51h14.12c1.44,0,2.62,1.17,2.62,2.62
		S20.08,13.55,18.63,13.55z"/>
	<path class="st0" d="M14.51,9.32h-3.19c-0.25,0-0.46-0.18-0.5-0.42L9.99,3.81c-0.02-0.15,0.02-0.3,0.11-0.41
		c0.1-0.11,0.24-0.18,0.39-0.18h1.75c0.2,0,0.38,0.12,0.46,0.3l2.27,5.09c0.07,0.16,0.06,0.34-0.04,0.48
		C14.84,9.23,14.68,9.32,14.51,9.32z M11.75,8.31h1.98l-1.82-4.08h-0.82L11.75,8.31z"/>
	<path class="st0" d="M1.83,11.43c-0.23,0-0.44-0.16-0.49-0.39L0.01,5.57c-0.04-0.15,0-0.31,0.09-0.43s0.24-0.19,0.4-0.19h1.75
		c0.17,0,0.33,0.08,0.42,0.22l2.27,3.36c0.16,0.23,0.1,0.55-0.14,0.7C4.57,9.39,4.26,9.33,4.1,9.1L1.98,5.96H1.15l1.17,4.85
		c0.07,0.27-0.1,0.55-0.37,0.61C1.91,11.43,1.87,11.43,1.83,11.43z"/>
	<path class="st0" d="M2.25,16.94H0.51c-0.16,0-0.3-0.07-0.4-0.19c-0.1-0.12-0.13-0.28-0.09-0.43l1.33-5.47
		c0.07-0.27,0.34-0.44,0.61-0.37c0.27,0.07,0.44,0.34,0.37,0.61l-1.17,4.85h0.84L4.1,12.8c0.16-0.23,0.47-0.29,0.7-0.14
		c0.23,0.16,0.29,0.47,0.14,0.7l-2.27,3.36C2.58,16.86,2.42,16.94,2.25,16.94z"/>
	<path class="st0" d="M12.24,18.71h-1.75c-0.15,0-0.29-0.07-0.39-0.18c-0.1-0.11-0.14-0.26-0.11-0.41l0.83-5.07
		c0.04-0.24,0.25-0.42,0.5-0.42h3.19c0.17,0,0.33,0.09,0.42,0.23c0.09,0.14,0.11,0.33,0.04,0.48l-2.27,5.07
		C12.62,18.59,12.44,18.71,12.24,18.71z M11.09,17.7h0.82l1.81-4.06h-1.98L11.09,17.7z"/>
</g>
</svg>
