<?xml version="1.0" encoding="utf-8"?>
<!-- Generator: Adobe Illustrator 21.0.2, SVG Export Plug-In . SVG Version: 6.00 Build 0)  -->
<svg version="1.1" id="Capa_1" xmlns="http://www.w3.org/2000/svg" xmlns:xlink="http://www.w3.org/1999/xlink" x="0px" y="0px"
	 viewBox="0 0 41.495 14.385" enable-background="new 0 0 41.495 14.385" xml:space="preserve">
<g>
	<g>
		<path fill="#F71963" d="M15.565,0H3.004C2.03,0,1.406,1.036,1.861,1.897l1.257,2.379H0.839c-0.631,0-1.036,0.671-0.741,1.229
			l4.042,7.649c0.314,0.595,1.165,0.595,1.481,0.002l1.098-2.066l1.378,2.607c0.485,0.917,1.798,0.919,2.284,0.003l6.296-11.851
			C17.122,1.01,16.514,0,15.565,0 M9.922,5.063l-2.715,5.111c-0.21,0.395-0.776,0.394-0.985-0.001L3.533,5.083
			C3.337,4.712,3.606,4.266,4.026,4.266h5.417C9.852,4.266,10.114,4.701,9.922,5.063"/>
		<path fill="#F71963" d="M28.927,5.497h-1.374v4.708c0,0.089-0.073,0.162-0.162,0.162h-1.06c-0.089,0-0.162-0.073-0.162-0.162
			V5.497h-1.382c-0.089,0-0.162-0.065-0.162-0.154V4.51c0-0.089,0.073-0.154,0.162-0.154h4.14c0.089,0,0.17,0.065,0.17,0.154v0.833
			C29.097,5.432,29.016,5.497,28.927,5.497"/>
		<path fill="#F71963" d="M33.339,10.334c-0.283,0.04-0.759,0.105-1.633,0.105c-1.044,0-1.966-0.267-1.966-1.739V6.015
			c0-1.472,0.93-1.731,1.974-1.731c0.874,0,1.342,0.065,1.625,0.105C33.452,4.405,33.5,4.445,33.5,4.55v0.752
			c0,0.089-0.073,0.162-0.162,0.162h-1.706c-0.38,0-0.518,0.129-0.518,0.55v0.736h2.159c0.089,0,0.162,0.073,0.162,0.162v0.768
			c0,0.089-0.073,0.162-0.162,0.162h-2.159V8.7c0,0.421,0.138,0.55,0.518,0.55h1.706c0.089,0,0.162,0.073,0.162,0.162v0.752
			C33.5,10.27,33.452,10.318,33.339,10.334"/>
		<path fill="#F71963" d="M39.442,10.367h-1.286c-0.105,0-0.154-0.032-0.21-0.121L36.83,8.475l-1.01,1.73
			c-0.057,0.097-0.113,0.162-0.202,0.162h-1.197c-0.081,0-0.121-0.049-0.121-0.105c0-0.016,0.008-0.04,0.016-0.057l1.754-2.92
			L34.299,4.51c-0.008-0.016-0.016-0.032-0.016-0.049c0-0.057,0.057-0.105,0.121-0.105h1.302c0.089,0,0.154,0.081,0.202,0.154
			l1.035,1.634l1.002-1.634c0.04-0.073,0.113-0.154,0.202-0.154h1.197c0.065,0,0.121,0.049,0.121,0.105
			c0,0.016-0.008,0.032-0.016,0.049l-1.762,2.792l1.835,2.903c0.016,0.032,0.024,0.057,0.024,0.081
			C39.547,10.334,39.507,10.367,39.442,10.367"/>
		<path fill="#F71963" d="M22.687,4.372c-0.059,0-0.11,0.042-0.122,0.1l-1.175,4.347c-0.016,0.089-0.04,0.121-0.113,0.121
			c-0.073,0-0.097-0.032-0.113-0.121l-1.175-4.347c-0.012-0.058-0.063-0.1-0.122-0.1H18.71c-0.08,0-0.14,0.075-0.122,0.153
			c0,0,1.434,4.984,1.45,5.033c0.191,0.594,0.656,0.878,1.247,0.878c0.563,0,1.054-0.297,1.247-0.876
			c0.023-0.068,1.425-5.035,1.425-5.035c0.018-0.078-0.041-0.153-0.122-0.153H22.687z"/>
		<path fill="#F71963" d="M15.565,0H3.004C2.03,0,1.406,1.036,1.861,1.897l1.257,2.379H0.839c-0.631,0-1.036,0.671-0.741,1.229
			l4.042,7.649c0.314,0.595,1.165,0.595,1.481,0.002l1.098-2.066l1.378,2.607c0.485,0.917,1.798,0.919,2.284,0.003l6.296-11.851
			C17.122,1.01,16.514,0,15.565,0 M9.922,5.063l-2.715,5.111c-0.21,0.395-0.776,0.394-0.985-0.001L3.533,5.083
			C3.337,4.712,3.606,4.266,4.026,4.266h5.417C9.852,4.266,10.114,4.701,9.922,5.063"/>
		<path fill="#F71963" d="M40.52,4.459V5.47c0,0.022-0.013,0.035-0.035,0.035H40.42c-0.022,0-0.035-0.013-0.035-0.035V4.459h-0.182
			c-0.022,0-0.035-0.013-0.035-0.035V4.381c0-0.022,0.013-0.034,0.035-0.034h0.499c0.022,0,0.035,0.011,0.035,0.034v0.043
			c0,0.022-0.013,0.035-0.035,0.035H40.52z"/>
		<path fill="#F71963" d="M41.131,5.27c-0.024,0-0.034-0.013-0.037-0.032l-0.106-0.651H40.98l0.011,0.226V5.47
			c0,0.022-0.013,0.035-0.035,0.035H40.9c-0.022,0-0.035-0.013-0.035-0.035V4.381c0-0.022,0.013-0.034,0.035-0.034h0.117
			c0.022,0,0.034,0.01,0.037,0.034l0.082,0.461l0.04,0.274h0.01l0.04-0.274l0.08-0.461c0.005-0.024,0.016-0.034,0.038-0.034h0.117
			c0.022,0,0.035,0.011,0.035,0.034V5.47c0,0.022-0.013,0.035-0.035,0.035h-0.056c-0.022,0-0.035-0.013-0.035-0.035V4.813
			l0.011-0.226h-0.008l-0.106,0.651C41.263,5.258,41.252,5.27,41.23,5.27H41.131z"/>
	</g>
</g>
</svg>
