<?xml version="1.0" encoding="utf-8"?>
<!-- Generator: Adobe Illustrator 24.1.1, SVG Export Plug-In . SVG Version: 6.00 Build 0)  -->
<svg version="1.1" id="Capa_1" xmlns="http://www.w3.org/2000/svg" xmlns:xlink="http://www.w3.org/1999/xlink" x="0px" y="0px"
	 viewBox="0 0 16 16" style="enable-background:new 0 0 16 16;" xml:space="preserve">
<style type="text/css">
	.st0{fill:#4ED7E5;}
	.st1{fill:#FFFFFF;}
</style>
<g>
	<path class="st0" d="M7.6,1.18c-3.37,0-6.11,2.74-6.11,6.11c0,1.98,1.19,3.62,1.19,3.62l-0.75,2.22l2.3-0.75
		c0,0,1.5,1.01,3.37,1.01c3.37,0,6.11-2.74,6.11-6.11C13.71,3.92,10.97,1.18,7.6,1.18z"/>
	<path class="st1" d="M7.6,0.02c-4.02,0-7.27,3.26-7.27,7.27c0,1.99,1.06,3.78,1.06,3.78l-1.27,3.87l3.99-1.27c0,0,1.48,0.9,3.5,0.9
		c4.02,0,7.27-3.26,7.27-7.27C14.87,3.27,11.62,0.02,7.6,0.02z M7.6,13.4c-1.87,0-3.37-1.01-3.37-1.01l-2.3,0.75l0.75-2.22
		c0,0-1.19-1.65-1.19-3.62c0-3.37,2.74-6.11,6.11-6.11s6.11,2.74,6.11,6.11C13.71,10.67,10.97,13.4,7.6,13.4z"/>
	<path class="st1" d="M4.83,4.12c0,0,0.2-0.12,0.3-0.12C5.23,4,5.7,4,5.7,4s0.15,0.03,0.22,0.19C6,4.35,6.48,5.48,6.51,5.57
		c0.04,0.09,0.13,0.3-0.02,0.5C6.34,6.26,6.03,6.62,6.03,6.62S5.9,6.74,6.01,6.91C6.12,7.09,6.5,7.68,7,8.13
		C7.49,8.57,8.1,8.9,8.4,9c0.3,0.1,0.37-0.03,0.49-0.18c0.12-0.15,0.48-0.61,0.48-0.61s0.12-0.18,0.37-0.07
		c0.25,0.11,1.44,0.69,1.44,0.69s0.15,0.02,0.15,0.19c0.01,0.16,0.11,0.65-0.32,1.11c-0.43,0.47-1.35,0.68-1.79,0.56
		c-0.43-0.12-1.87-0.5-2.81-1.37c-0.94-0.87-1.7-1.8-2.01-2.47C4.09,6.16,4.11,5.76,4.12,5.57C4.14,5.38,4.24,4.5,4.83,4.12z"/>
</g>
</svg>
