<?xml version="1.0" encoding="utf-8"?>
<!-- Generator: Adobe Illustrator 24.1.1, SVG Export Plug-In . SVG Version: 6.00 Build 0)  -->
<svg version="1.1" id="Capa_1" xmlns="http://www.w3.org/2000/svg" xmlns:xlink="http://www.w3.org/1999/xlink" x="0px" y="0px"
	 viewBox="0 0 16 16" style="enable-background:new 0 0 16 16;" xml:space="preserve">
<style type="text/css">
	.st0{fill:#F80F49;}
	.st1{fill:#FFFFFF;}
	.st2{fill:#4ED7E5;}
</style>
<g>
	<circle class="st0" cx="7.78" cy="7.85" r="7.22"/>
</g>
<g>
	<path class="st1" d="M12.29,5.52c-0.22-0.7-0.76-1.23-1.45-1.44c-0.23-0.06-0.47-0.12-0.72-0.12c-0.71,0-1.37,0.27-1.86,0.77
		c-0.2,0.2-0.36,0.44-0.48,0.69c-0.42-0.86-1.3-1.46-2.32-1.46c-0.2,0-0.5,0.02-0.75,0.12C4.02,4.29,3.5,4.81,3.28,5.5
		C3.06,6.22,3.2,6.99,3.66,7.58c0,0,0.01,0.01,0.01,0.01l3.43,3.84c0.16,0.2,0.4,0.31,0.66,0.32c0.01,0,0.02,0,0.02,0
		c0.26,0,0.51-0.11,0.69-0.31l0.96-1.08c0.09-0.1,0.08-0.26-0.02-0.35c-0.1-0.09-0.26-0.08-0.35,0.02L8.1,11.1
		c-0.09,0.1-0.21,0.15-0.34,0.15c-0.11,0-0.22-0.05-0.29-0.15L4.05,7.26C3.69,6.81,3.58,6.21,3.75,5.65
		c0.17-0.54,0.58-0.94,1.11-1.09c0.01,0,0.02-0.01,0.03-0.01c0.14-0.06,0.34-0.09,0.57-0.09c1.15,0,2.08,0.93,2.08,2.08c0,0,0,0,0,0
		c0,0,0,0,0,0c0,0.02,0.01,0.03,0.01,0.04c0,0.02,0,0.03,0.01,0.05c0.01,0.01,0.02,0.02,0.02,0.04C7.6,6.69,7.6,6.7,7.62,6.71
		c0.01,0.01,0.03,0.02,0.04,0.03c0.01,0.01,0.03,0.02,0.04,0.03c0.02,0.01,0.03,0.01,0.05,0.01c0.01,0,0.03,0.01,0.04,0.01
		c0,0,0,0,0,0c0,0,0,0,0,0c0.02,0,0.03-0.01,0.05-0.01c0.02,0,0.03,0,0.05-0.01C7.9,6.76,7.91,6.74,7.93,6.74
		c0.01-0.01,0.03-0.02,0.04-0.03C7.98,6.7,7.98,6.68,7.99,6.67C8,6.66,8.01,6.64,8.02,6.63C8.02,6.61,8.02,6.6,8.03,6.58
		c0-0.02,0.01-0.03,0.01-0.05c0,0,0,0,0,0c0,0,0,0,0,0C8.02,5.98,8.23,5.47,8.61,5.08C9,4.68,9.54,4.46,10.11,4.46
		c0.19,0,0.39,0.05,0.59,0.1c0.53,0.16,0.94,0.56,1.11,1.11c0.17,0.55,0.07,1.15-0.29,1.6l-0.5,0.56c-0.09,0.1-0.08,0.26,0.02,0.35
		c0.05,0.04,0.11,0.06,0.16,0.06c0.07,0,0.14-0.03,0.18-0.08l0.51-0.57c0,0,0.01-0.01,0.01-0.01C12.37,7,12.51,6.23,12.29,5.52z"/>
	<circle class="st2" cx="9.29" cy="10.09" r="0.4"/>
</g>
</svg>
