<?xml version="1.0" encoding="utf-8"?>
<!-- Generator: Adobe Illustrator 24.1.1, SVG Export Plug-In . SVG Version: 6.00 Build 0)  -->
<svg version="1.1" id="Capa_1" xmlns="http://www.w3.org/2000/svg" xmlns:xlink="http://www.w3.org/1999/xlink" x="0px" y="0px"
	 viewBox="0 0 16 16" style="enable-background:new 0 0 16 16;" xml:space="preserve">
<style type="text/css">
	.st0{fill:#FFFFFF;}
</style>
<g>
	<path class="st0" d="M7.86,0.35c-4.15,0-7.51,3.36-7.51,7.51c0,4.15,3.36,7.51,7.51,7.51s7.51-3.36,7.51-7.51
		C15.37,3.71,12.01,0.35,7.86,0.35z M12.03,9.05c-0.06,0.8-0.21,1.63-1.25,1.69c-1.9,0.11-3.95,0.11-5.85,0
		C3.9,10.69,3.75,9.86,3.69,9.05c-0.06-0.83-0.06-1.57,0-2.4c0.06-0.8,0.21-1.63,1.25-1.69c1.9-0.11,3.95-0.11,5.85,0
		c1.04,0.06,1.19,0.89,1.25,1.69C12.09,7.49,12.09,8.22,12.03,9.05z"/>
	<polygon class="st0" points="7,8.95 9.26,7.77 7,6.58 	"/>
</g>
</svg>
